%TF.GenerationSoftware,KiCad,Pcbnew,9.0.6*%
%TF.CreationDate,2026-03-31T20:38:48+02:00*%
%TF.ProjectId,PCBsens,50434273-656e-4732-9e6b-696361645f70,rev?*%
%TF.SameCoordinates,Original*%
%TF.FileFunction,Soldermask,Top*%
%TF.FilePolarity,Negative*%
%FSLAX46Y46*%
G04 Gerber Fmt 4.6, Leading zero omitted, Abs format (unit mm)*
G04 Created by KiCad (PCBNEW 9.0.6) date 2026-03-31 20:38:48*
%MOMM*%
%LPD*%
G01*
G04 APERTURE LIST*
G04 Aperture macros list*
%AMRoundRect*
0 Rectangle with rounded corners*
0 $1 Rounding radius*
0 $2 $3 $4 $5 $6 $7 $8 $9 X,Y pos of 4 corners*
0 Add a 4 corners polygon primitive as box body*
4,1,4,$2,$3,$4,$5,$6,$7,$8,$9,$2,$3,0*
0 Add four circle primitives for the rounded corners*
1,1,$1+$1,$2,$3*
1,1,$1+$1,$4,$5*
1,1,$1+$1,$6,$7*
1,1,$1+$1,$8,$9*
0 Add four rect primitives between the rounded corners*
20,1,$1+$1,$2,$3,$4,$5,0*
20,1,$1+$1,$4,$5,$6,$7,0*
20,1,$1+$1,$6,$7,$8,$9,0*
20,1,$1+$1,$8,$9,$2,$3,0*%
G04 Aperture macros list end*
%ADD10R,1.700000X1.700000*%
%ADD11C,1.700000*%
%ADD12C,1.600000*%
%ADD13C,3.200000*%
%ADD14RoundRect,0.250000X1.050000X-1.050000X1.050000X1.050000X-1.050000X1.050000X-1.050000X-1.050000X0*%
%ADD15C,2.600000*%
%ADD16RoundRect,0.250000X-1.050000X1.050000X-1.050000X-1.050000X1.050000X-1.050000X1.050000X1.050000X0*%
%ADD17RoundRect,0.250000X0.550000X0.550000X-0.550000X0.550000X-0.550000X-0.550000X0.550000X-0.550000X0*%
%ADD18RoundRect,0.250000X-1.050000X-1.050000X1.050000X-1.050000X1.050000X1.050000X-1.050000X1.050000X0*%
G04 APERTURE END LIST*
D10*
%TO.C,J3*%
X191750000Y-95170000D03*
D11*
X191750000Y-97710000D03*
X191750000Y-100250000D03*
X191750000Y-102790000D03*
%TD*%
D12*
%TO.C,R16*%
X135790000Y-125600000D03*
X143410000Y-125600000D03*
%TD*%
%TO.C,R13*%
X196600000Y-82000000D03*
X188980000Y-82000000D03*
%TD*%
%TO.C,R12*%
X143500000Y-93500000D03*
X135880000Y-93500000D03*
%TD*%
%TO.C,C2*%
X186460000Y-120530000D03*
X191460000Y-120530000D03*
%TD*%
%TO.C,R6*%
X184190000Y-106680000D03*
X191810000Y-106680000D03*
%TD*%
%TO.C,R14*%
X196200000Y-77400000D03*
X188580000Y-77400000D03*
%TD*%
%TO.C,R11*%
X171724000Y-134570000D03*
X179344000Y-134570000D03*
%TD*%
D13*
%TO.C,REF\u002A\u002A*%
X128270000Y-146050000D03*
%TD*%
D14*
%TO.C,J12*%
X204000000Y-120000000D03*
D15*
X204000000Y-115000000D03*
X204000000Y-110000000D03*
%TD*%
D13*
%TO.C,REF\u002A\u002A*%
X203200000Y-74930000D03*
%TD*%
D12*
%TO.C,R15*%
X138390000Y-130400000D03*
X146010000Y-130400000D03*
%TD*%
D10*
%TO.C,J2*%
X167894000Y-70358000D03*
D11*
X170434000Y-70358000D03*
X172974000Y-70358000D03*
X175514000Y-70358000D03*
%TD*%
D14*
%TO.C,J19*%
X204089000Y-103552000D03*
D15*
X204089000Y-98552000D03*
%TD*%
D12*
%TO.C,R8*%
X185674000Y-82804000D03*
X178054000Y-82804000D03*
%TD*%
D10*
%TO.C,J7*%
X124275000Y-82700000D03*
D11*
X124275000Y-85240000D03*
X124275000Y-87780000D03*
X124275000Y-90320000D03*
%TD*%
D13*
%TO.C,REF\u002A\u002A*%
X203200000Y-146050000D03*
%TD*%
D10*
%TO.C,J13*%
X138430000Y-71374000D03*
D11*
X140970000Y-71374000D03*
X143510000Y-71374000D03*
%TD*%
D12*
%TO.C,R5*%
X143500000Y-88250000D03*
X135880000Y-88250000D03*
%TD*%
%TO.C,R1*%
X148336000Y-76708000D03*
X155956000Y-76708000D03*
%TD*%
%TO.C,R4*%
X170952000Y-140945000D03*
X178572000Y-140945000D03*
%TD*%
D10*
%TO.C,J4*%
X160030000Y-147803000D03*
D11*
X162570000Y-147803000D03*
X165110000Y-147803000D03*
X167650000Y-147803000D03*
%TD*%
D12*
%TO.C,R7*%
X141478000Y-82296000D03*
X149098000Y-82296000D03*
%TD*%
D14*
%TO.C,J18*%
X204000000Y-136400000D03*
D15*
X204000000Y-131400000D03*
X204000000Y-126400000D03*
%TD*%
D10*
%TO.C,J10*%
X131475000Y-140040000D03*
D11*
X131475000Y-137500000D03*
X131475000Y-134960000D03*
X131475000Y-132420000D03*
X131475000Y-129880000D03*
X131475000Y-127340000D03*
X131475000Y-124800000D03*
X131475000Y-122260000D03*
%TD*%
D13*
%TO.C,REF\u002A\u002A*%
X128270000Y-74930000D03*
%TD*%
D10*
%TO.C,J14*%
X162306000Y-79731000D03*
D11*
X164846000Y-79731000D03*
X167386000Y-79731000D03*
%TD*%
D12*
%TO.C,R10*%
X159532000Y-134570000D03*
X167152000Y-134570000D03*
%TD*%
D16*
%TO.C,J16*%
X127427500Y-106750000D03*
D15*
X127427500Y-111750000D03*
X127427500Y-116750000D03*
%TD*%
D10*
%TO.C,J5*%
X150876000Y-90678000D03*
D11*
X150876000Y-93218000D03*
X150876000Y-95758000D03*
X150876000Y-98298000D03*
X150876000Y-100838000D03*
X150876000Y-103378000D03*
X150876000Y-105918000D03*
X150876000Y-108458000D03*
X150876000Y-110998000D03*
X150876000Y-113538000D03*
X150876000Y-116078000D03*
X150876000Y-118618000D03*
X150876000Y-121158000D03*
X150876000Y-123698000D03*
X150876000Y-126238000D03*
%TD*%
D10*
%TO.C,J1*%
X154432000Y-70358000D03*
D11*
X156972000Y-70358000D03*
X159512000Y-70358000D03*
X162052000Y-70358000D03*
%TD*%
D10*
%TO.C,J15*%
X186182000Y-71628000D03*
D11*
X188722000Y-71628000D03*
X191262000Y-71628000D03*
%TD*%
D10*
%TO.C,J6*%
X173502000Y-147778000D03*
D11*
X176042000Y-147778000D03*
X178582000Y-147778000D03*
X181122000Y-147778000D03*
%TD*%
D17*
%TO.C,C1*%
X196250000Y-143750000D03*
D12*
X192750000Y-143750000D03*
%TD*%
%TO.C,R3*%
X159014000Y-142240000D03*
X166634000Y-142240000D03*
%TD*%
D18*
%TO.C,J8*%
X138550000Y-144526000D03*
D15*
X143550000Y-144526000D03*
X148550000Y-144526000D03*
X153550000Y-144526000D03*
%TD*%
D14*
%TO.C,J17*%
X128000000Y-100500000D03*
D15*
X128000000Y-95500000D03*
%TD*%
D10*
%TO.C,J9*%
X176784000Y-126188000D03*
D11*
X176784000Y-123648000D03*
X176784000Y-121108000D03*
X176784000Y-118568000D03*
X176784000Y-116028000D03*
X176784000Y-113488000D03*
X176784000Y-110948000D03*
X176784000Y-108408000D03*
X176784000Y-105868000D03*
X176784000Y-103328000D03*
X176784000Y-100788000D03*
X176784000Y-98248000D03*
X176784000Y-95708000D03*
X176784000Y-93168000D03*
X176784000Y-90628000D03*
%TD*%
D14*
%TO.C,J11*%
X204089000Y-92200000D03*
D15*
X204089000Y-87200000D03*
X204089000Y-82200000D03*
%TD*%
D12*
%TO.C,R9*%
X181610000Y-111379000D03*
X189230000Y-111379000D03*
%TD*%
%TO.C,R2*%
X172212000Y-76454000D03*
X179832000Y-76454000D03*
%TD*%
M02*
