M48
; DRILL file {KiCad 9.0.6} date 2026-03-31T20:38:50+0200
; FORMAT={-:-/ absolute / metric / decimal}
; #@! TF.CreationDate,2026-03-31T20:38:50+02:00
; #@! TF.GenerationSoftware,Kicad,Pcbnew,9.0.6
; #@! TF.FileFunction,Plated,1,2,PTH
FMAT,2
METRIC
; #@! TA.AperFunction,Plated,PTH,ViaDrill
T1C0.400
; #@! TA.AperFunction,Plated,PTH,ComponentDrill
T2C0.800
; #@! TA.AperFunction,Plated,PTH,ComponentDrill
T3C1.000
; #@! TA.AperFunction,Plated,PTH,ComponentDrill
T4C1.300
%
G90
G05
T1
X137.8Y-135.8
X139.6Y-99.0
X146.05Y-134.4
X151.13Y-129.54
X157.48Y-125.73
X162.281Y-111.735
X170.18Y-115.57
X173.736Y-73.66
X181.61Y-135.89
T2
X135.79Y-125.6
X135.88Y-88.25
X135.88Y-93.5
X138.39Y-130.4
X141.478Y-82.296
X143.41Y-125.6
X143.5Y-88.25
X143.5Y-93.5
X146.01Y-130.4
X148.336Y-76.708
X149.098Y-82.296
X155.956Y-76.708
X159.014Y-142.24
X159.532Y-134.57
X166.634Y-142.24
X167.152Y-134.57
X170.952Y-140.945
X171.724Y-134.57
X172.212Y-76.454
X178.054Y-82.804
X178.572Y-140.945
X179.344Y-134.57
X179.832Y-76.454
X181.61Y-111.379
X184.19Y-106.68
X185.674Y-82.804
X186.46Y-120.53
X188.58Y-77.4
X188.98Y-82.0
X189.23Y-111.379
X191.46Y-120.53
X191.81Y-106.68
X192.75Y-143.75
X196.2Y-77.4
X196.25Y-143.75
X196.6Y-82.0
T3
X124.275Y-82.7
X124.275Y-85.24
X124.275Y-87.78
X124.275Y-90.32
X131.475Y-122.26
X131.475Y-124.8
X131.475Y-127.34
X131.475Y-129.88
X131.475Y-132.42
X131.475Y-134.96
X131.475Y-137.5
X131.475Y-140.04
X138.43Y-71.374
X140.97Y-71.374
X143.51Y-71.374
X150.876Y-90.678
X150.876Y-93.218
X150.876Y-95.758
X150.876Y-98.298
X150.876Y-100.838
X150.876Y-103.378
X150.876Y-105.918
X150.876Y-108.458
X150.876Y-110.998
X150.876Y-113.538
X150.876Y-116.078
X150.876Y-118.618
X150.876Y-121.158
X150.876Y-123.698
X150.876Y-126.238
X154.432Y-70.358
X156.972Y-70.358
X159.512Y-70.358
X160.03Y-147.803
X162.052Y-70.358
X162.306Y-79.731
X162.57Y-147.803
X164.846Y-79.731
X165.11Y-147.803
X167.386Y-79.731
X167.65Y-147.803
X167.894Y-70.358
X170.434Y-70.358
X172.974Y-70.358
X173.502Y-147.778
X175.514Y-70.358
X176.042Y-147.778
X176.784Y-90.628
X176.784Y-93.168
X176.784Y-95.708
X176.784Y-98.248
X176.784Y-100.788
X176.784Y-103.328
X176.784Y-105.868
X176.784Y-108.408
X176.784Y-110.948
X176.784Y-113.488
X176.784Y-116.028
X176.784Y-118.568
X176.784Y-121.108
X176.784Y-123.648
X176.784Y-126.188
X178.582Y-147.778
X181.122Y-147.778
X186.182Y-71.628
X188.722Y-71.628
X191.262Y-71.628
X191.75Y-95.17
X191.75Y-97.71
X191.75Y-100.25
X191.75Y-102.79
T4
X127.427Y-106.75
X127.427Y-111.75
X127.427Y-116.75
X128.0Y-95.5
X128.0Y-100.5
X138.55Y-144.526
X143.55Y-144.526
X148.55Y-144.526
X153.55Y-144.526
X204.0Y-110.0
X204.0Y-115.0
X204.0Y-120.0
X204.0Y-126.4
X204.0Y-131.4
X204.0Y-136.4
X204.089Y-82.2
X204.089Y-87.2
X204.089Y-92.2
X204.089Y-98.552
X204.089Y-103.552
M30
