%TF.GenerationSoftware,KiCad,Pcbnew,9.0.6*%
%TF.CreationDate,2026-03-31T21:03:45+02:00*%
%TF.ProjectId,PCBalim,50434261-6c69-46d2-9e6b-696361645f70,rev?*%
%TF.SameCoordinates,Original*%
%TF.FileFunction,Legend,Top*%
%TF.FilePolarity,Positive*%
%FSLAX46Y46*%
G04 Gerber Fmt 4.6, Leading zero omitted, Abs format (unit mm)*
G04 Created by KiCad (PCBNEW 9.0.6) date 2026-03-31 21:03:45*
%MOMM*%
%LPD*%
G01*
G04 APERTURE LIST*
%ADD10C,0.150000*%
%ADD11C,0.120000*%
G04 APERTURE END LIST*
D10*
X171116666Y-60994819D02*
X171116666Y-61709104D01*
X171116666Y-61709104D02*
X171069047Y-61851961D01*
X171069047Y-61851961D02*
X170973809Y-61947200D01*
X170973809Y-61947200D02*
X170830952Y-61994819D01*
X170830952Y-61994819D02*
X170735714Y-61994819D01*
X172116666Y-61994819D02*
X171545238Y-61994819D01*
X171830952Y-61994819D02*
X171830952Y-60994819D01*
X171830952Y-60994819D02*
X171735714Y-61137676D01*
X171735714Y-61137676D02*
X171640476Y-61232914D01*
X171640476Y-61232914D02*
X171545238Y-61280533D01*
X164478571Y-81654700D02*
X165621429Y-81654700D01*
X176778571Y-81654700D02*
X177921429Y-81654700D01*
X177350000Y-82226128D02*
X177350000Y-81083271D01*
X128972319Y-93533333D02*
X129686604Y-93533333D01*
X129686604Y-93533333D02*
X129829461Y-93580952D01*
X129829461Y-93580952D02*
X129924700Y-93676190D01*
X129924700Y-93676190D02*
X129972319Y-93819047D01*
X129972319Y-93819047D02*
X129972319Y-93914285D01*
X128972319Y-93152380D02*
X128972319Y-92533333D01*
X128972319Y-92533333D02*
X129353271Y-92866666D01*
X129353271Y-92866666D02*
X129353271Y-92723809D01*
X129353271Y-92723809D02*
X129400890Y-92628571D01*
X129400890Y-92628571D02*
X129448509Y-92580952D01*
X129448509Y-92580952D02*
X129543747Y-92533333D01*
X129543747Y-92533333D02*
X129781842Y-92533333D01*
X129781842Y-92533333D02*
X129877080Y-92580952D01*
X129877080Y-92580952D02*
X129924700Y-92628571D01*
X129924700Y-92628571D02*
X129972319Y-92723809D01*
X129972319Y-92723809D02*
X129972319Y-93009523D01*
X129972319Y-93009523D02*
X129924700Y-93104761D01*
X129924700Y-93104761D02*
X129877080Y-93152380D01*
X146014819Y-101733094D02*
X145014819Y-101733094D01*
X145014819Y-101733094D02*
X145014819Y-101494999D01*
X145014819Y-101494999D02*
X145062438Y-101352142D01*
X145062438Y-101352142D02*
X145157676Y-101256904D01*
X145157676Y-101256904D02*
X145252914Y-101209285D01*
X145252914Y-101209285D02*
X145443390Y-101161666D01*
X145443390Y-101161666D02*
X145586247Y-101161666D01*
X145586247Y-101161666D02*
X145776723Y-101209285D01*
X145776723Y-101209285D02*
X145871961Y-101256904D01*
X145871961Y-101256904D02*
X145967200Y-101352142D01*
X145967200Y-101352142D02*
X146014819Y-101494999D01*
X146014819Y-101494999D02*
X146014819Y-101733094D01*
X145110057Y-100780713D02*
X145062438Y-100733094D01*
X145062438Y-100733094D02*
X145014819Y-100637856D01*
X145014819Y-100637856D02*
X145014819Y-100399761D01*
X145014819Y-100399761D02*
X145062438Y-100304523D01*
X145062438Y-100304523D02*
X145110057Y-100256904D01*
X145110057Y-100256904D02*
X145205295Y-100209285D01*
X145205295Y-100209285D02*
X145300533Y-100209285D01*
X145300533Y-100209285D02*
X145443390Y-100256904D01*
X145443390Y-100256904D02*
X146014819Y-100828332D01*
X146014819Y-100828332D02*
X146014819Y-100209285D01*
X163536666Y-108704819D02*
X163536666Y-109419104D01*
X163536666Y-109419104D02*
X163489047Y-109561961D01*
X163489047Y-109561961D02*
X163393809Y-109657200D01*
X163393809Y-109657200D02*
X163250952Y-109704819D01*
X163250952Y-109704819D02*
X163155714Y-109704819D01*
X164441428Y-109038152D02*
X164441428Y-109704819D01*
X164203333Y-108657200D02*
X163965238Y-109371485D01*
X163965238Y-109371485D02*
X164584285Y-109371485D01*
X162933333Y-88489580D02*
X162885714Y-88537200D01*
X162885714Y-88537200D02*
X162742857Y-88584819D01*
X162742857Y-88584819D02*
X162647619Y-88584819D01*
X162647619Y-88584819D02*
X162504762Y-88537200D01*
X162504762Y-88537200D02*
X162409524Y-88441961D01*
X162409524Y-88441961D02*
X162361905Y-88346723D01*
X162361905Y-88346723D02*
X162314286Y-88156247D01*
X162314286Y-88156247D02*
X162314286Y-88013390D01*
X162314286Y-88013390D02*
X162361905Y-87822914D01*
X162361905Y-87822914D02*
X162409524Y-87727676D01*
X162409524Y-87727676D02*
X162504762Y-87632438D01*
X162504762Y-87632438D02*
X162647619Y-87584819D01*
X162647619Y-87584819D02*
X162742857Y-87584819D01*
X162742857Y-87584819D02*
X162885714Y-87632438D01*
X162885714Y-87632438D02*
X162933333Y-87680057D01*
X163885714Y-88584819D02*
X163314286Y-88584819D01*
X163600000Y-88584819D02*
X163600000Y-87584819D01*
X163600000Y-87584819D02*
X163504762Y-87727676D01*
X163504762Y-87727676D02*
X163409524Y-87822914D01*
X163409524Y-87822914D02*
X163314286Y-87870533D01*
X146526666Y-108664819D02*
X146526666Y-109379104D01*
X146526666Y-109379104D02*
X146479047Y-109521961D01*
X146479047Y-109521961D02*
X146383809Y-109617200D01*
X146383809Y-109617200D02*
X146240952Y-109664819D01*
X146240952Y-109664819D02*
X146145714Y-109664819D01*
X147431428Y-108664819D02*
X147240952Y-108664819D01*
X147240952Y-108664819D02*
X147145714Y-108712438D01*
X147145714Y-108712438D02*
X147098095Y-108760057D01*
X147098095Y-108760057D02*
X147002857Y-108902914D01*
X147002857Y-108902914D02*
X146955238Y-109093390D01*
X146955238Y-109093390D02*
X146955238Y-109474342D01*
X146955238Y-109474342D02*
X147002857Y-109569580D01*
X147002857Y-109569580D02*
X147050476Y-109617200D01*
X147050476Y-109617200D02*
X147145714Y-109664819D01*
X147145714Y-109664819D02*
X147336190Y-109664819D01*
X147336190Y-109664819D02*
X147431428Y-109617200D01*
X147431428Y-109617200D02*
X147479047Y-109569580D01*
X147479047Y-109569580D02*
X147526666Y-109474342D01*
X147526666Y-109474342D02*
X147526666Y-109236247D01*
X147526666Y-109236247D02*
X147479047Y-109141009D01*
X147479047Y-109141009D02*
X147431428Y-109093390D01*
X147431428Y-109093390D02*
X147336190Y-109045771D01*
X147336190Y-109045771D02*
X147145714Y-109045771D01*
X147145714Y-109045771D02*
X147050476Y-109093390D01*
X147050476Y-109093390D02*
X147002857Y-109141009D01*
X147002857Y-109141009D02*
X146955238Y-109236247D01*
X155566666Y-74574819D02*
X155566666Y-75289104D01*
X155566666Y-75289104D02*
X155519047Y-75431961D01*
X155519047Y-75431961D02*
X155423809Y-75527200D01*
X155423809Y-75527200D02*
X155280952Y-75574819D01*
X155280952Y-75574819D02*
X155185714Y-75574819D01*
X156090476Y-75574819D02*
X156280952Y-75574819D01*
X156280952Y-75574819D02*
X156376190Y-75527200D01*
X156376190Y-75527200D02*
X156423809Y-75479580D01*
X156423809Y-75479580D02*
X156519047Y-75336723D01*
X156519047Y-75336723D02*
X156566666Y-75146247D01*
X156566666Y-75146247D02*
X156566666Y-74765295D01*
X156566666Y-74765295D02*
X156519047Y-74670057D01*
X156519047Y-74670057D02*
X156471428Y-74622438D01*
X156471428Y-74622438D02*
X156376190Y-74574819D01*
X156376190Y-74574819D02*
X156185714Y-74574819D01*
X156185714Y-74574819D02*
X156090476Y-74622438D01*
X156090476Y-74622438D02*
X156042857Y-74670057D01*
X156042857Y-74670057D02*
X155995238Y-74765295D01*
X155995238Y-74765295D02*
X155995238Y-75003390D01*
X155995238Y-75003390D02*
X156042857Y-75098628D01*
X156042857Y-75098628D02*
X156090476Y-75146247D01*
X156090476Y-75146247D02*
X156185714Y-75193866D01*
X156185714Y-75193866D02*
X156376190Y-75193866D01*
X156376190Y-75193866D02*
X156471428Y-75146247D01*
X156471428Y-75146247D02*
X156519047Y-75098628D01*
X156519047Y-75098628D02*
X156566666Y-75003390D01*
X128992319Y-104933333D02*
X129706604Y-104933333D01*
X129706604Y-104933333D02*
X129849461Y-104980952D01*
X129849461Y-104980952D02*
X129944700Y-105076190D01*
X129944700Y-105076190D02*
X129992319Y-105219047D01*
X129992319Y-105219047D02*
X129992319Y-105314285D01*
X128992319Y-104552380D02*
X128992319Y-103885714D01*
X128992319Y-103885714D02*
X129992319Y-104314285D01*
X180810819Y-94313333D02*
X181525104Y-94313333D01*
X181525104Y-94313333D02*
X181667961Y-94360952D01*
X181667961Y-94360952D02*
X181763200Y-94456190D01*
X181763200Y-94456190D02*
X181810819Y-94599047D01*
X181810819Y-94599047D02*
X181810819Y-94694285D01*
X180810819Y-93360952D02*
X180810819Y-93837142D01*
X180810819Y-93837142D02*
X181287009Y-93884761D01*
X181287009Y-93884761D02*
X181239390Y-93837142D01*
X181239390Y-93837142D02*
X181191771Y-93741904D01*
X181191771Y-93741904D02*
X181191771Y-93503809D01*
X181191771Y-93503809D02*
X181239390Y-93408571D01*
X181239390Y-93408571D02*
X181287009Y-93360952D01*
X181287009Y-93360952D02*
X181382247Y-93313333D01*
X181382247Y-93313333D02*
X181620342Y-93313333D01*
X181620342Y-93313333D02*
X181715580Y-93360952D01*
X181715580Y-93360952D02*
X181763200Y-93408571D01*
X181763200Y-93408571D02*
X181810819Y-93503809D01*
X181810819Y-93503809D02*
X181810819Y-93741904D01*
X181810819Y-93741904D02*
X181763200Y-93837142D01*
X181763200Y-93837142D02*
X181715580Y-93884761D01*
X138134819Y-80009523D02*
X138849104Y-80009523D01*
X138849104Y-80009523D02*
X138991961Y-80057142D01*
X138991961Y-80057142D02*
X139087200Y-80152380D01*
X139087200Y-80152380D02*
X139134819Y-80295237D01*
X139134819Y-80295237D02*
X139134819Y-80390475D01*
X139134819Y-79009523D02*
X139134819Y-79580951D01*
X139134819Y-79295237D02*
X138134819Y-79295237D01*
X138134819Y-79295237D02*
X138277676Y-79390475D01*
X138277676Y-79390475D02*
X138372914Y-79485713D01*
X138372914Y-79485713D02*
X138420533Y-79580951D01*
X139134819Y-78057142D02*
X139134819Y-78628570D01*
X139134819Y-78342856D02*
X138134819Y-78342856D01*
X138134819Y-78342856D02*
X138277676Y-78438094D01*
X138277676Y-78438094D02*
X138372914Y-78533332D01*
X138372914Y-78533332D02*
X138420533Y-78628570D01*
X132064819Y-102182666D02*
X131588628Y-102515999D01*
X132064819Y-102754094D02*
X131064819Y-102754094D01*
X131064819Y-102754094D02*
X131064819Y-102373142D01*
X131064819Y-102373142D02*
X131112438Y-102277904D01*
X131112438Y-102277904D02*
X131160057Y-102230285D01*
X131160057Y-102230285D02*
X131255295Y-102182666D01*
X131255295Y-102182666D02*
X131398152Y-102182666D01*
X131398152Y-102182666D02*
X131493390Y-102230285D01*
X131493390Y-102230285D02*
X131541009Y-102277904D01*
X131541009Y-102277904D02*
X131588628Y-102373142D01*
X131588628Y-102373142D02*
X131588628Y-102754094D01*
X132064819Y-101230285D02*
X132064819Y-101801713D01*
X132064819Y-101515999D02*
X131064819Y-101515999D01*
X131064819Y-101515999D02*
X131207676Y-101611237D01*
X131207676Y-101611237D02*
X131302914Y-101706475D01*
X131302914Y-101706475D02*
X131350533Y-101801713D01*
X148750057Y-87975238D02*
X148702438Y-88070476D01*
X148702438Y-88070476D02*
X148607200Y-88165714D01*
X148607200Y-88165714D02*
X148464342Y-88308571D01*
X148464342Y-88308571D02*
X148416723Y-88403809D01*
X148416723Y-88403809D02*
X148416723Y-88499047D01*
X148654819Y-88451428D02*
X148607200Y-88546666D01*
X148607200Y-88546666D02*
X148511961Y-88641904D01*
X148511961Y-88641904D02*
X148321485Y-88689523D01*
X148321485Y-88689523D02*
X147988152Y-88689523D01*
X147988152Y-88689523D02*
X147797676Y-88641904D01*
X147797676Y-88641904D02*
X147702438Y-88546666D01*
X147702438Y-88546666D02*
X147654819Y-88451428D01*
X147654819Y-88451428D02*
X147654819Y-88260952D01*
X147654819Y-88260952D02*
X147702438Y-88165714D01*
X147702438Y-88165714D02*
X147797676Y-88070476D01*
X147797676Y-88070476D02*
X147988152Y-88022857D01*
X147988152Y-88022857D02*
X148321485Y-88022857D01*
X148321485Y-88022857D02*
X148511961Y-88070476D01*
X148511961Y-88070476D02*
X148607200Y-88165714D01*
X148607200Y-88165714D02*
X148654819Y-88260952D01*
X148654819Y-88260952D02*
X148654819Y-88451428D01*
X147750057Y-87641904D02*
X147702438Y-87594285D01*
X147702438Y-87594285D02*
X147654819Y-87499047D01*
X147654819Y-87499047D02*
X147654819Y-87260952D01*
X147654819Y-87260952D02*
X147702438Y-87165714D01*
X147702438Y-87165714D02*
X147750057Y-87118095D01*
X147750057Y-87118095D02*
X147845295Y-87070476D01*
X147845295Y-87070476D02*
X147940533Y-87070476D01*
X147940533Y-87070476D02*
X148083390Y-87118095D01*
X148083390Y-87118095D02*
X148654819Y-87689523D01*
X148654819Y-87689523D02*
X148654819Y-87070476D01*
X174926666Y-108877319D02*
X174926666Y-109591604D01*
X174926666Y-109591604D02*
X174879047Y-109734461D01*
X174879047Y-109734461D02*
X174783809Y-109829700D01*
X174783809Y-109829700D02*
X174640952Y-109877319D01*
X174640952Y-109877319D02*
X174545714Y-109877319D01*
X175545714Y-109305890D02*
X175450476Y-109258271D01*
X175450476Y-109258271D02*
X175402857Y-109210652D01*
X175402857Y-109210652D02*
X175355238Y-109115414D01*
X175355238Y-109115414D02*
X175355238Y-109067795D01*
X175355238Y-109067795D02*
X175402857Y-108972557D01*
X175402857Y-108972557D02*
X175450476Y-108924938D01*
X175450476Y-108924938D02*
X175545714Y-108877319D01*
X175545714Y-108877319D02*
X175736190Y-108877319D01*
X175736190Y-108877319D02*
X175831428Y-108924938D01*
X175831428Y-108924938D02*
X175879047Y-108972557D01*
X175879047Y-108972557D02*
X175926666Y-109067795D01*
X175926666Y-109067795D02*
X175926666Y-109115414D01*
X175926666Y-109115414D02*
X175879047Y-109210652D01*
X175879047Y-109210652D02*
X175831428Y-109258271D01*
X175831428Y-109258271D02*
X175736190Y-109305890D01*
X175736190Y-109305890D02*
X175545714Y-109305890D01*
X175545714Y-109305890D02*
X175450476Y-109353509D01*
X175450476Y-109353509D02*
X175402857Y-109401128D01*
X175402857Y-109401128D02*
X175355238Y-109496366D01*
X175355238Y-109496366D02*
X175355238Y-109686842D01*
X175355238Y-109686842D02*
X175402857Y-109782080D01*
X175402857Y-109782080D02*
X175450476Y-109829700D01*
X175450476Y-109829700D02*
X175545714Y-109877319D01*
X175545714Y-109877319D02*
X175736190Y-109877319D01*
X175736190Y-109877319D02*
X175831428Y-109829700D01*
X175831428Y-109829700D02*
X175879047Y-109782080D01*
X175879047Y-109782080D02*
X175926666Y-109686842D01*
X175926666Y-109686842D02*
X175926666Y-109496366D01*
X175926666Y-109496366D02*
X175879047Y-109401128D01*
X175879047Y-109401128D02*
X175831428Y-109353509D01*
X175831428Y-109353509D02*
X175736190Y-109305890D01*
X155174819Y-100546666D02*
X154698628Y-100879999D01*
X155174819Y-101118094D02*
X154174819Y-101118094D01*
X154174819Y-101118094D02*
X154174819Y-100737142D01*
X154174819Y-100737142D02*
X154222438Y-100641904D01*
X154222438Y-100641904D02*
X154270057Y-100594285D01*
X154270057Y-100594285D02*
X154365295Y-100546666D01*
X154365295Y-100546666D02*
X154508152Y-100546666D01*
X154508152Y-100546666D02*
X154603390Y-100594285D01*
X154603390Y-100594285D02*
X154651009Y-100641904D01*
X154651009Y-100641904D02*
X154698628Y-100737142D01*
X154698628Y-100737142D02*
X154698628Y-101118094D01*
X154270057Y-100165713D02*
X154222438Y-100118094D01*
X154222438Y-100118094D02*
X154174819Y-100022856D01*
X154174819Y-100022856D02*
X154174819Y-99784761D01*
X154174819Y-99784761D02*
X154222438Y-99689523D01*
X154222438Y-99689523D02*
X154270057Y-99641904D01*
X154270057Y-99641904D02*
X154365295Y-99594285D01*
X154365295Y-99594285D02*
X154460533Y-99594285D01*
X154460533Y-99594285D02*
X154603390Y-99641904D01*
X154603390Y-99641904D02*
X155174819Y-100213332D01*
X155174819Y-100213332D02*
X155174819Y-99594285D01*
X163183333Y-95439580D02*
X163135714Y-95487200D01*
X163135714Y-95487200D02*
X162992857Y-95534819D01*
X162992857Y-95534819D02*
X162897619Y-95534819D01*
X162897619Y-95534819D02*
X162754762Y-95487200D01*
X162754762Y-95487200D02*
X162659524Y-95391961D01*
X162659524Y-95391961D02*
X162611905Y-95296723D01*
X162611905Y-95296723D02*
X162564286Y-95106247D01*
X162564286Y-95106247D02*
X162564286Y-94963390D01*
X162564286Y-94963390D02*
X162611905Y-94772914D01*
X162611905Y-94772914D02*
X162659524Y-94677676D01*
X162659524Y-94677676D02*
X162754762Y-94582438D01*
X162754762Y-94582438D02*
X162897619Y-94534819D01*
X162897619Y-94534819D02*
X162992857Y-94534819D01*
X162992857Y-94534819D02*
X163135714Y-94582438D01*
X163135714Y-94582438D02*
X163183333Y-94630057D01*
X163564286Y-94630057D02*
X163611905Y-94582438D01*
X163611905Y-94582438D02*
X163707143Y-94534819D01*
X163707143Y-94534819D02*
X163945238Y-94534819D01*
X163945238Y-94534819D02*
X164040476Y-94582438D01*
X164040476Y-94582438D02*
X164088095Y-94630057D01*
X164088095Y-94630057D02*
X164135714Y-94725295D01*
X164135714Y-94725295D02*
X164135714Y-94820533D01*
X164135714Y-94820533D02*
X164088095Y-94963390D01*
X164088095Y-94963390D02*
X163516667Y-95534819D01*
X163516667Y-95534819D02*
X164135714Y-95534819D01*
X181094819Y-81573333D02*
X181809104Y-81573333D01*
X181809104Y-81573333D02*
X181951961Y-81620952D01*
X181951961Y-81620952D02*
X182047200Y-81716190D01*
X182047200Y-81716190D02*
X182094819Y-81859047D01*
X182094819Y-81859047D02*
X182094819Y-81954285D01*
X181190057Y-81144761D02*
X181142438Y-81097142D01*
X181142438Y-81097142D02*
X181094819Y-81001904D01*
X181094819Y-81001904D02*
X181094819Y-80763809D01*
X181094819Y-80763809D02*
X181142438Y-80668571D01*
X181142438Y-80668571D02*
X181190057Y-80620952D01*
X181190057Y-80620952D02*
X181285295Y-80573333D01*
X181285295Y-80573333D02*
X181380533Y-80573333D01*
X181380533Y-80573333D02*
X181523390Y-80620952D01*
X181523390Y-80620952D02*
X182094819Y-81192380D01*
X182094819Y-81192380D02*
X182094819Y-80573333D01*
X138390476Y-64254819D02*
X138390476Y-64969104D01*
X138390476Y-64969104D02*
X138342857Y-65111961D01*
X138342857Y-65111961D02*
X138247619Y-65207200D01*
X138247619Y-65207200D02*
X138104762Y-65254819D01*
X138104762Y-65254819D02*
X138009524Y-65254819D01*
X139390476Y-65254819D02*
X138819048Y-65254819D01*
X139104762Y-65254819D02*
X139104762Y-64254819D01*
X139104762Y-64254819D02*
X139009524Y-64397676D01*
X139009524Y-64397676D02*
X138914286Y-64492914D01*
X138914286Y-64492914D02*
X138819048Y-64540533D01*
X140009524Y-64254819D02*
X140104762Y-64254819D01*
X140104762Y-64254819D02*
X140200000Y-64302438D01*
X140200000Y-64302438D02*
X140247619Y-64350057D01*
X140247619Y-64350057D02*
X140295238Y-64445295D01*
X140295238Y-64445295D02*
X140342857Y-64635771D01*
X140342857Y-64635771D02*
X140342857Y-64873866D01*
X140342857Y-64873866D02*
X140295238Y-65064342D01*
X140295238Y-65064342D02*
X140247619Y-65159580D01*
X140247619Y-65159580D02*
X140200000Y-65207200D01*
X140200000Y-65207200D02*
X140104762Y-65254819D01*
X140104762Y-65254819D02*
X140009524Y-65254819D01*
X140009524Y-65254819D02*
X139914286Y-65207200D01*
X139914286Y-65207200D02*
X139866667Y-65159580D01*
X139866667Y-65159580D02*
X139819048Y-65064342D01*
X139819048Y-65064342D02*
X139771429Y-64873866D01*
X139771429Y-64873866D02*
X139771429Y-64635771D01*
X139771429Y-64635771D02*
X139819048Y-64445295D01*
X139819048Y-64445295D02*
X139866667Y-64350057D01*
X139866667Y-64350057D02*
X139914286Y-64302438D01*
X139914286Y-64302438D02*
X140009524Y-64254819D01*
D11*
%TO.C,J1*%
X163590000Y-62580000D02*
X163590000Y-76890000D01*
X163590000Y-62580000D02*
X179310000Y-62580000D01*
X170160000Y-81000000D02*
X173900000Y-81000000D01*
X179310000Y-62580000D02*
X179310000Y-76890000D01*
X165583194Y-80412958D02*
G75*
G02*
X163590000Y-76890000I2116805J3522957D01*
G01*
X179310000Y-76890000D02*
G75*
G02*
X176401648Y-80820413I-4110000J0D01*
G01*
%TO.C,J3*%
X118477500Y-88080000D02*
X128517500Y-88080000D01*
X118477500Y-90400000D02*
X118477500Y-88080000D01*
X118477500Y-98320000D02*
X118477500Y-91000000D01*
X119097500Y-88080000D02*
X119097500Y-98320000D01*
X120597500Y-88080000D02*
X120597500Y-98320000D01*
X125497500Y-88080000D02*
X125497500Y-98320000D01*
X128517500Y-88080000D02*
X128517500Y-98320000D01*
X128517500Y-98320000D02*
X118477500Y-98320000D01*
X118477500Y-90700000D02*
X117867500Y-91140000D01*
X117867500Y-90260000D01*
X118477500Y-90700000D01*
G36*
X118477500Y-90700000D02*
G01*
X117867500Y-91140000D01*
X117867500Y-90260000D01*
X118477500Y-90700000D01*
G37*
%TO.C,D2*%
X143145000Y-98435000D02*
X140055000Y-98435000D01*
X141600000Y-103985000D02*
G75*
G02*
X140055170Y-98435000I0J2990000D01*
G01*
X143144830Y-98435000D02*
G75*
G02*
X141600000Y-103985000I-1544830J-2560000D01*
G01*
X144100000Y-100995000D02*
G75*
G02*
X139100000Y-100995000I-2500000J0D01*
G01*
X139100000Y-100995000D02*
G75*
G02*
X144100000Y-100995000I2500000J0D01*
G01*
%TO.C,J4*%
X158750000Y-110250000D02*
X168990000Y-110250000D01*
X158750000Y-113270000D02*
X168990000Y-113270000D01*
X158750000Y-118170000D02*
X168990000Y-118170000D01*
X158750000Y-119670000D02*
X168990000Y-119670000D01*
X158750000Y-120290000D02*
X158750000Y-110250000D01*
X161070000Y-120290000D02*
X158750000Y-120290000D01*
X168990000Y-110250000D02*
X168990000Y-120290000D01*
X168990000Y-120290000D02*
X161670000Y-120290000D01*
X161810000Y-120900000D02*
X160930000Y-120900000D01*
X161370000Y-120290000D01*
X161810000Y-120900000D01*
G36*
X161810000Y-120900000D02*
G01*
X160930000Y-120900000D01*
X161370000Y-120290000D01*
X161810000Y-120900000D01*
G37*
%TO.C,C1*%
X160480000Y-89260000D02*
X165720000Y-89260000D01*
X160480000Y-89597000D02*
X160480000Y-89260000D01*
X160480000Y-92000000D02*
X160480000Y-91663000D01*
X165720000Y-89260000D02*
X165720000Y-89597000D01*
X165720000Y-91663000D02*
X165720000Y-92000000D01*
X165720000Y-92000000D02*
X160480000Y-92000000D01*
%TO.C,J6*%
X136740000Y-110210000D02*
X156980000Y-110210000D01*
X136740000Y-113230000D02*
X156980000Y-113230000D01*
X136740000Y-118130000D02*
X156980000Y-118130000D01*
X136740000Y-119630000D02*
X156980000Y-119630000D01*
X136740000Y-120250000D02*
X136740000Y-110210000D01*
X139060000Y-120250000D02*
X136740000Y-120250000D01*
X156980000Y-110210000D02*
X156980000Y-120250000D01*
X156980000Y-120250000D02*
X139660000Y-120250000D01*
X139800000Y-120860000D02*
X138920000Y-120860000D01*
X139360000Y-120250000D01*
X139800000Y-120860000D01*
G36*
X139800000Y-120860000D02*
G01*
X138920000Y-120860000D01*
X139360000Y-120250000D01*
X139800000Y-120860000D01*
G37*
%TO.C,J9*%
X150780000Y-64080000D02*
X158100000Y-64080000D01*
X150780000Y-74120000D02*
X150780000Y-64080000D01*
X158700000Y-64080000D02*
X161020000Y-64080000D01*
X161020000Y-64080000D02*
X161020000Y-74120000D01*
X161020000Y-64700000D02*
X150780000Y-64700000D01*
X161020000Y-66200000D02*
X150780000Y-66200000D01*
X161020000Y-71100000D02*
X150780000Y-71100000D01*
X161020000Y-74120000D02*
X150780000Y-74120000D01*
X158400000Y-64080000D02*
X157960000Y-63470000D01*
X158840000Y-63470000D01*
X158400000Y-64080000D01*
G36*
X158400000Y-64080000D02*
G01*
X157960000Y-63470000D01*
X158840000Y-63470000D01*
X158400000Y-64080000D01*
G37*
%TO.C,J7*%
X118497500Y-99480000D02*
X128537500Y-99480000D01*
X118497500Y-101800000D02*
X118497500Y-99480000D01*
X118497500Y-109720000D02*
X118497500Y-102400000D01*
X119117500Y-99480000D02*
X119117500Y-109720000D01*
X120617500Y-99480000D02*
X120617500Y-109720000D01*
X125517500Y-99480000D02*
X125517500Y-109720000D01*
X128537500Y-99480000D02*
X128537500Y-109720000D01*
X128537500Y-109720000D02*
X118497500Y-109720000D01*
X118497500Y-102100000D02*
X117887500Y-102540000D01*
X117887500Y-101660000D01*
X118497500Y-102100000D01*
G36*
X118497500Y-102100000D02*
G01*
X117887500Y-102540000D01*
X117887500Y-101660000D01*
X118497500Y-102100000D01*
G37*
%TO.C,J5*%
X182812500Y-87670000D02*
X192852500Y-87670000D01*
X182812500Y-107910000D02*
X182812500Y-87670000D01*
X185832500Y-107910000D02*
X185832500Y-87670000D01*
X190732500Y-107910000D02*
X190732500Y-87670000D01*
X192232500Y-107910000D02*
X192232500Y-87670000D01*
X192852500Y-87670000D02*
X192852500Y-104990000D01*
X192852500Y-105590000D02*
X192852500Y-107910000D01*
X192852500Y-107910000D02*
X182812500Y-107910000D01*
X193462500Y-105730000D02*
X192852500Y-105290000D01*
X193462500Y-104850000D01*
X193462500Y-105730000D01*
G36*
X193462500Y-105730000D02*
G01*
X192852500Y-105290000D01*
X193462500Y-104850000D01*
X193462500Y-105730000D01*
G37*
%TO.C,J11*%
X120010000Y-71890000D02*
X120630000Y-71890000D01*
X120010000Y-86510000D02*
X120010000Y-71890000D01*
X120630000Y-71890000D02*
X120630000Y-72890000D01*
X120630000Y-72890000D02*
X128600000Y-72890000D01*
X120630000Y-85510000D02*
X120630000Y-86510000D01*
X120630000Y-86510000D02*
X120010000Y-86510000D01*
X128600000Y-85510000D02*
X120630000Y-85510000D01*
X132100000Y-72890000D02*
X134280000Y-72890000D01*
X132100000Y-85510000D02*
X134280000Y-85510000D01*
X137130000Y-74010000D02*
X137130000Y-84390000D01*
X137280000Y-76100000D02*
X137280000Y-75300000D01*
%TO.C,R1*%
X132610000Y-98746000D02*
X132940000Y-98746000D01*
X132610000Y-105286000D02*
X132610000Y-98746000D01*
X132940000Y-105286000D02*
X132610000Y-105286000D01*
X135020000Y-105286000D02*
X135350000Y-105286000D01*
X135350000Y-98746000D02*
X135020000Y-98746000D01*
X135350000Y-105286000D02*
X135350000Y-98746000D01*
%TO.C,Q2*%
X149040000Y-82770000D02*
X153660000Y-82770000D01*
X149040000Y-86030000D02*
X150420000Y-86030000D01*
X149040000Y-89730000D02*
X150420000Y-89730000D01*
X149040000Y-92990000D02*
X149040000Y-82770000D01*
X150420000Y-92990000D02*
X150420000Y-82770000D01*
X153660000Y-82770000D02*
X153660000Y-92990000D01*
X153660000Y-92990000D02*
X149040000Y-92990000D01*
%TO.C,J8*%
X170140000Y-110422500D02*
X180380000Y-110422500D01*
X170140000Y-113442500D02*
X180380000Y-113442500D01*
X170140000Y-118342500D02*
X180380000Y-118342500D01*
X170140000Y-119842500D02*
X180380000Y-119842500D01*
X170140000Y-120462500D02*
X170140000Y-110422500D01*
X172460000Y-120462500D02*
X170140000Y-120462500D01*
X180380000Y-110422500D02*
X180380000Y-120462500D01*
X180380000Y-120462500D02*
X173060000Y-120462500D01*
X173200000Y-121072500D02*
X172320000Y-121072500D01*
X172760000Y-120462500D01*
X173200000Y-121072500D01*
G36*
X173200000Y-121072500D02*
G01*
X172320000Y-121072500D01*
X172760000Y-120462500D01*
X173200000Y-121072500D01*
G37*
%TO.C,R2*%
X150980000Y-97110000D02*
X150980000Y-103650000D01*
X150980000Y-103650000D02*
X151310000Y-103650000D01*
X151310000Y-97110000D02*
X150980000Y-97110000D01*
X153390000Y-97110000D02*
X153720000Y-97110000D01*
X153720000Y-97110000D02*
X153720000Y-103650000D01*
X153720000Y-103650000D02*
X153390000Y-103650000D01*
%TO.C,C2*%
X158940302Y-98015000D02*
X159740302Y-98015000D01*
X159340302Y-97615000D02*
X159340302Y-98415000D01*
X163350000Y-96250000D02*
X163350000Y-104410000D01*
X163390000Y-96250000D02*
X163390000Y-104410000D01*
X163430000Y-96251000D02*
X163430000Y-104409000D01*
X163470000Y-96252000D02*
X163470000Y-104408000D01*
X163510000Y-96253000D02*
X163510000Y-104407000D01*
X163550000Y-96255000D02*
X163550000Y-104405000D01*
X163590000Y-96257000D02*
X163590000Y-104403000D01*
X163630000Y-96260000D02*
X163630000Y-104400000D01*
X163670000Y-96262000D02*
X163670000Y-104398000D01*
X163710000Y-96266000D02*
X163710000Y-104394000D01*
X163750000Y-96269000D02*
X163750000Y-104391000D01*
X163790000Y-96274000D02*
X163790000Y-104386000D01*
X163830000Y-96278000D02*
X163830000Y-104382000D01*
X163870000Y-96283000D02*
X163870000Y-104377000D01*
X163910000Y-96288000D02*
X163910000Y-104372000D01*
X163950000Y-96294000D02*
X163950000Y-104366000D01*
X163990000Y-96300000D02*
X163990000Y-104360000D01*
X164030000Y-96307000D02*
X164030000Y-104353000D01*
X164070000Y-96313000D02*
X164070000Y-99290000D01*
X164070000Y-101370000D02*
X164070000Y-104347000D01*
X164110000Y-96321000D02*
X164110000Y-99290000D01*
X164110000Y-101370000D02*
X164110000Y-104339000D01*
X164150000Y-96328000D02*
X164150000Y-99290000D01*
X164150000Y-101370000D02*
X164150000Y-104332000D01*
X164190000Y-96337000D02*
X164190000Y-99290000D01*
X164190000Y-101370000D02*
X164190000Y-104323000D01*
X164230000Y-96345000D02*
X164230000Y-99290000D01*
X164230000Y-101370000D02*
X164230000Y-104315000D01*
X164270000Y-96354000D02*
X164270000Y-99290000D01*
X164270000Y-101370000D02*
X164270000Y-104306000D01*
X164310000Y-96363000D02*
X164310000Y-99290000D01*
X164310000Y-101370000D02*
X164310000Y-104297000D01*
X164350000Y-96373000D02*
X164350000Y-99290000D01*
X164350000Y-101370000D02*
X164350000Y-104287000D01*
X164390000Y-96383000D02*
X164390000Y-99290000D01*
X164390000Y-101370000D02*
X164390000Y-104277000D01*
X164430000Y-96394000D02*
X164430000Y-99290000D01*
X164430000Y-101370000D02*
X164430000Y-104266000D01*
X164470000Y-96405000D02*
X164470000Y-99290000D01*
X164470000Y-101370000D02*
X164470000Y-104255000D01*
X164510000Y-96417000D02*
X164510000Y-99290000D01*
X164510000Y-101370000D02*
X164510000Y-104243000D01*
X164550000Y-96429000D02*
X164550000Y-99290000D01*
X164550000Y-101370000D02*
X164550000Y-104231000D01*
X164590000Y-96441000D02*
X164590000Y-99290000D01*
X164590000Y-101370000D02*
X164590000Y-104219000D01*
X164630000Y-96454000D02*
X164630000Y-99290000D01*
X164630000Y-101370000D02*
X164630000Y-104206000D01*
X164670000Y-96467000D02*
X164670000Y-99290000D01*
X164670000Y-101370000D02*
X164670000Y-104193000D01*
X164710000Y-96481000D02*
X164710000Y-99290000D01*
X164710000Y-101370000D02*
X164710000Y-104179000D01*
X164750000Y-96495000D02*
X164750000Y-99290000D01*
X164750000Y-101370000D02*
X164750000Y-104165000D01*
X164790000Y-96510000D02*
X164790000Y-99290000D01*
X164790000Y-101370000D02*
X164790000Y-104150000D01*
X164830000Y-96525000D02*
X164830000Y-99290000D01*
X164830000Y-101370000D02*
X164830000Y-104135000D01*
X164870000Y-96541000D02*
X164870000Y-99290000D01*
X164870000Y-101370000D02*
X164870000Y-104119000D01*
X164910000Y-96557000D02*
X164910000Y-99290000D01*
X164910000Y-101370000D02*
X164910000Y-104103000D01*
X164950000Y-96573000D02*
X164950000Y-99290000D01*
X164950000Y-101370000D02*
X164950000Y-104087000D01*
X164990000Y-96590000D02*
X164990000Y-99290000D01*
X164990000Y-101370000D02*
X164990000Y-104070000D01*
X165030000Y-96608000D02*
X165030000Y-99290000D01*
X165030000Y-101370000D02*
X165030000Y-104052000D01*
X165070000Y-96626000D02*
X165070000Y-99290000D01*
X165070000Y-101370000D02*
X165070000Y-104034000D01*
X165110000Y-96645000D02*
X165110000Y-99290000D01*
X165110000Y-101370000D02*
X165110000Y-104015000D01*
X165150000Y-96664000D02*
X165150000Y-99290000D01*
X165150000Y-101370000D02*
X165150000Y-103996000D01*
X165190000Y-96684000D02*
X165190000Y-99290000D01*
X165190000Y-101370000D02*
X165190000Y-103976000D01*
X165230000Y-96704000D02*
X165230000Y-99290000D01*
X165230000Y-101370000D02*
X165230000Y-103956000D01*
X165270000Y-96725000D02*
X165270000Y-99290000D01*
X165270000Y-101370000D02*
X165270000Y-103935000D01*
X165310000Y-96746000D02*
X165310000Y-99290000D01*
X165310000Y-101370000D02*
X165310000Y-103914000D01*
X165350000Y-96768000D02*
X165350000Y-99290000D01*
X165350000Y-101370000D02*
X165350000Y-103892000D01*
X165390000Y-96791000D02*
X165390000Y-99290000D01*
X165390000Y-101370000D02*
X165390000Y-103869000D01*
X165430000Y-96814000D02*
X165430000Y-99290000D01*
X165430000Y-101370000D02*
X165430000Y-103846000D01*
X165470000Y-96837000D02*
X165470000Y-99290000D01*
X165470000Y-101370000D02*
X165470000Y-103823000D01*
X165510000Y-96862000D02*
X165510000Y-99290000D01*
X165510000Y-101370000D02*
X165510000Y-103798000D01*
X165550000Y-96887000D02*
X165550000Y-99290000D01*
X165550000Y-101370000D02*
X165550000Y-103773000D01*
X165590000Y-96912000D02*
X165590000Y-99290000D01*
X165590000Y-101370000D02*
X165590000Y-103748000D01*
X165630000Y-96938000D02*
X165630000Y-99290000D01*
X165630000Y-101370000D02*
X165630000Y-103722000D01*
X165670000Y-96965000D02*
X165670000Y-99290000D01*
X165670000Y-101370000D02*
X165670000Y-103695000D01*
X165710000Y-96993000D02*
X165710000Y-99290000D01*
X165710000Y-101370000D02*
X165710000Y-103667000D01*
X165750000Y-97021000D02*
X165750000Y-99290000D01*
X165750000Y-101370000D02*
X165750000Y-103639000D01*
X165790000Y-97050000D02*
X165790000Y-99290000D01*
X165790000Y-101370000D02*
X165790000Y-103610000D01*
X165830000Y-97080000D02*
X165830000Y-99290000D01*
X165830000Y-101370000D02*
X165830000Y-103580000D01*
X165870000Y-97111000D02*
X165870000Y-99290000D01*
X165870000Y-101370000D02*
X165870000Y-103549000D01*
X165910000Y-97142000D02*
X165910000Y-99290000D01*
X165910000Y-101370000D02*
X165910000Y-103518000D01*
X165950000Y-97174000D02*
X165950000Y-99290000D01*
X165950000Y-101370000D02*
X165950000Y-103486000D01*
X165990000Y-97207000D02*
X165990000Y-99290000D01*
X165990000Y-101370000D02*
X165990000Y-103453000D01*
X166030000Y-97241000D02*
X166030000Y-99290000D01*
X166030000Y-101370000D02*
X166030000Y-103419000D01*
X166070000Y-97275000D02*
X166070000Y-99290000D01*
X166070000Y-101370000D02*
X166070000Y-103385000D01*
X166110000Y-97311000D02*
X166110000Y-99290000D01*
X166110000Y-101370000D02*
X166110000Y-103349000D01*
X166150000Y-97348000D02*
X166150000Y-103312000D01*
X166190000Y-97385000D02*
X166190000Y-103275000D01*
X166230000Y-97424000D02*
X166230000Y-103236000D01*
X166270000Y-97463000D02*
X166270000Y-103197000D01*
X166310000Y-97504000D02*
X166310000Y-103156000D01*
X166350000Y-97546000D02*
X166350000Y-103114000D01*
X166390000Y-97589000D02*
X166390000Y-103071000D01*
X166430000Y-97634000D02*
X166430000Y-103026000D01*
X166470000Y-97679000D02*
X166470000Y-102981000D01*
X166510000Y-97726000D02*
X166510000Y-102934000D01*
X166550000Y-97775000D02*
X166550000Y-102885000D01*
X166590000Y-97825000D02*
X166590000Y-102835000D01*
X166630000Y-97877000D02*
X166630000Y-102783000D01*
X166670000Y-97930000D02*
X166670000Y-102730000D01*
X166710000Y-97986000D02*
X166710000Y-102674000D01*
X166750000Y-98043000D02*
X166750000Y-102617000D01*
X166790000Y-98103000D02*
X166790000Y-102557000D01*
X166830000Y-98165000D02*
X166830000Y-102495000D01*
X166870000Y-98229000D02*
X166870000Y-102431000D01*
X166910000Y-98296000D02*
X166910000Y-102364000D01*
X166950000Y-98366000D02*
X166950000Y-102294000D01*
X166990000Y-98440000D02*
X166990000Y-102220000D01*
X167030000Y-98517000D02*
X167030000Y-102143000D01*
X167070000Y-98599000D02*
X167070000Y-102061000D01*
X167110000Y-98686000D02*
X167110000Y-101974000D01*
X167150000Y-98778000D02*
X167150000Y-101882000D01*
X167190000Y-98877000D02*
X167190000Y-101783000D01*
X167230000Y-98984000D02*
X167230000Y-101676000D01*
X167270000Y-99102000D02*
X167270000Y-101558000D01*
X167310000Y-99233000D02*
X167310000Y-101427000D01*
X167350000Y-99383000D02*
X167350000Y-101277000D01*
X167390000Y-99562000D02*
X167390000Y-101098000D01*
X167430000Y-99797000D02*
X167430000Y-100863000D01*
X167470000Y-100330000D02*
G75*
G02*
X159230000Y-100330000I-4120000J0D01*
G01*
X159230000Y-100330000D02*
G75*
G02*
X167470000Y-100330000I4120000J0D01*
G01*
%TO.C,J2*%
X182640000Y-76120000D02*
X192680000Y-76120000D01*
X182640000Y-86360000D02*
X182640000Y-76120000D01*
X185660000Y-86360000D02*
X185660000Y-76120000D01*
X190560000Y-86360000D02*
X190560000Y-76120000D01*
X192060000Y-86360000D02*
X192060000Y-76120000D01*
X192680000Y-76120000D02*
X192680000Y-83440000D01*
X192680000Y-84040000D02*
X192680000Y-86360000D01*
X192680000Y-86360000D02*
X182640000Y-86360000D01*
X193290000Y-84180000D02*
X192680000Y-83740000D01*
X193290000Y-83300000D01*
X193290000Y-84180000D01*
G36*
X193290000Y-84180000D02*
G01*
X192680000Y-83740000D01*
X193290000Y-83300000D01*
X193290000Y-84180000D01*
G37*
%TO.C,J10*%
X128530000Y-66070000D02*
X129860000Y-66070000D01*
X128530000Y-67400000D02*
X128530000Y-66070000D01*
X131130000Y-66070000D02*
X148970000Y-66070000D01*
X131130000Y-68730000D02*
X131130000Y-66070000D01*
X131130000Y-68730000D02*
X148970000Y-68730000D01*
X148970000Y-68730000D02*
X148970000Y-66070000D01*
%TD*%
M02*
