%TF.GenerationSoftware,KiCad,Pcbnew,9.0.6*%
%TF.CreationDate,2026-03-31T21:03:45+02:00*%
%TF.ProjectId,PCBalim,50434261-6c69-46d2-9e6b-696361645f70,rev?*%
%TF.SameCoordinates,Original*%
%TF.FileFunction,Soldermask,Top*%
%TF.FilePolarity,Negative*%
%FSLAX46Y46*%
G04 Gerber Fmt 4.6, Leading zero omitted, Abs format (unit mm)*
G04 Created by KiCad (PCBNEW 9.0.6) date 2026-03-31 21:03:45*
%MOMM*%
%LPD*%
G01*
G04 APERTURE LIST*
G04 Aperture macros list*
%AMRoundRect*
0 Rectangle with rounded corners*
0 $1 Rounding radius*
0 $2 $3 $4 $5 $6 $7 $8 $9 X,Y pos of 4 corners*
0 Add a 4 corners polygon primitive as box body*
4,1,4,$2,$3,$4,$5,$6,$7,$8,$9,$2,$3,0*
0 Add four circle primitives for the rounded corners*
1,1,$1+$1,$2,$3*
1,1,$1+$1,$4,$5*
1,1,$1+$1,$6,$7*
1,1,$1+$1,$8,$9*
0 Add four rect primitives between the rounded corners*
20,1,$1+$1,$2,$3,$4,$5,0*
20,1,$1+$1,$4,$5,$6,$7,0*
20,1,$1+$1,$6,$7,$8,$9,0*
20,1,$1+$1,$8,$9,$2,$3,0*%
G04 Aperture macros list end*
%ADD10R,0.900000X2.000000*%
%ADD11RoundRect,1.025000X-1.025000X-1.025000X1.025000X-1.025000X1.025000X1.025000X-1.025000X1.025000X0*%
%ADD12C,4.100000*%
%ADD13RoundRect,0.250000X-1.050000X1.050000X-1.050000X-1.050000X1.050000X-1.050000X1.050000X1.050000X0*%
%ADD14C,2.600000*%
%ADD15R,1.800000X1.800000*%
%ADD16C,1.800000*%
%ADD17RoundRect,0.250000X-1.050000X-1.050000X1.050000X-1.050000X1.050000X1.050000X-1.050000X1.050000X0*%
%ADD18C,1.600000*%
%ADD19RoundRect,0.250000X1.050000X1.050000X-1.050000X1.050000X-1.050000X-1.050000X1.050000X-1.050000X0*%
%ADD20C,3.200000*%
%ADD21RoundRect,0.250000X1.050000X-1.050000X1.050000X1.050000X-1.050000X1.050000X-1.050000X-1.050000X0*%
%ADD22R,1.500000X1.500000*%
%ADD23C,1.500000*%
%ADD24C,3.000000*%
%ADD25R,2.000000X1.905000*%
%ADD26O,2.000000X1.905000*%
%ADD27RoundRect,0.250000X-0.550000X-0.550000X0.550000X-0.550000X0.550000X0.550000X-0.550000X0.550000X0*%
%ADD28R,1.700000X1.700000*%
%ADD29C,1.700000*%
G04 APERTURE END LIST*
D10*
%TO.C,J1*%
X164700000Y-73040000D03*
X178200000Y-73040000D03*
D11*
X167850000Y-79040000D03*
D12*
X175050000Y-79040000D03*
%TD*%
D13*
%TO.C,J3*%
X123197500Y-90700000D03*
D14*
X123197500Y-95700000D03*
%TD*%
D15*
%TO.C,D2*%
X141600000Y-99725000D03*
D16*
X141600000Y-102265000D03*
%TD*%
D17*
%TO.C,J4*%
X161370000Y-115570000D03*
D14*
X166370000Y-115570000D03*
%TD*%
D18*
%TO.C,C1*%
X160600000Y-90630000D03*
X165600000Y-90630000D03*
%TD*%
D17*
%TO.C,J6*%
X139360000Y-115530000D03*
D14*
X144360000Y-115530000D03*
X149360000Y-115530000D03*
X154360000Y-115530000D03*
%TD*%
D19*
%TO.C,J9*%
X158400000Y-68800000D03*
D14*
X153400000Y-68800000D03*
%TD*%
D20*
%TO.C,REF\u002A\u002A*%
X123190000Y-68580000D03*
%TD*%
D13*
%TO.C,J7*%
X123217500Y-102100000D03*
D14*
X123217500Y-107100000D03*
%TD*%
D21*
%TO.C,J5*%
X188132500Y-105290000D03*
D14*
X188132500Y-100290000D03*
X188132500Y-95290000D03*
X188132500Y-90290000D03*
%TD*%
D20*
%TO.C,REF\u002A\u002A*%
X123190000Y-115570000D03*
%TD*%
D22*
%TO.C,J11*%
X135680000Y-75700000D03*
D23*
X135680000Y-78200000D03*
X135680000Y-80200000D03*
X135680000Y-82700000D03*
X133060000Y-75700000D03*
X133060000Y-78200000D03*
X133060000Y-80200000D03*
X133060000Y-82700000D03*
D24*
X136030000Y-72630000D03*
X130350000Y-72630000D03*
X136030000Y-85770000D03*
X130350000Y-85770000D03*
%TD*%
D18*
%TO.C,R1*%
X133980000Y-105826000D03*
X133980000Y-98206000D03*
%TD*%
D25*
%TO.C,Q2*%
X152300000Y-90420000D03*
D26*
X152300000Y-87880000D03*
X152300000Y-85340000D03*
%TD*%
D17*
%TO.C,J8*%
X172760000Y-115742500D03*
D14*
X177760000Y-115742500D03*
%TD*%
D20*
%TO.C,REF\u002A\u002A*%
X187960000Y-115570000D03*
%TD*%
D18*
%TO.C,R2*%
X152350000Y-96570000D03*
X152350000Y-104190000D03*
%TD*%
D27*
%TO.C,C2*%
X161600000Y-100330000D03*
D18*
X165100000Y-100330000D03*
%TD*%
D21*
%TO.C,J2*%
X187960000Y-83740000D03*
D14*
X187960000Y-78740000D03*
%TD*%
D20*
%TO.C,REF\u002A\u002A*%
X187960000Y-68580000D03*
%TD*%
D28*
%TO.C,J10*%
X129860000Y-67400000D03*
D29*
X132400000Y-67400000D03*
X134940000Y-67400000D03*
X137480000Y-67400000D03*
X140020000Y-67400000D03*
X142560000Y-67400000D03*
X145100000Y-67400000D03*
X147640000Y-67400000D03*
%TD*%
M02*
