M48
; DRILL file {KiCad 9.0.6} date 2026-03-31T21:03:47+0200
; FORMAT={-:-/ absolute / metric / decimal}
; #@! TF.CreationDate,2026-03-31T21:03:47+02:00
; #@! TF.GenerationSoftware,Kicad,Pcbnew,9.0.6
; #@! TF.FileFunction,Plated,1,2,PTH
FMAT,2
METRIC
; #@! TA.AperFunction,Plated,PTH,ComponentDrill
T1C0.600
; #@! TA.AperFunction,Plated,PTH,ComponentDrill
T2C0.800
; #@! TA.AperFunction,Plated,PTH,ComponentDrill
T3C0.900
; #@! TA.AperFunction,Plated,PTH,ComponentDrill
T4C0.920
; #@! TA.AperFunction,Plated,PTH,ComponentDrill
T5C1.000
; #@! TA.AperFunction,Plated,PTH,ComponentDrill
T6C1.100
; #@! TA.AperFunction,Plated,PTH,ComponentDrill
T7C1.300
; #@! TA.AperFunction,Plated,PTH,ComponentDrill
T8C2.300
; #@! TA.AperFunction,Plated,PTH,ComponentDrill
T9C2.700
%
G90
G05
T2
X133.98Y-98.206
X133.98Y-105.826
X152.35Y-96.57
X152.35Y-104.19
X160.6Y-90.63
X161.6Y-100.33
X165.1Y-100.33
X165.6Y-90.63
T3
X141.6Y-99.725
X141.6Y-102.265
T4
X133.06Y-75.7
X133.06Y-78.2
X133.06Y-80.2
X133.06Y-82.7
X135.68Y-75.7
X135.68Y-78.2
X135.68Y-80.2
X135.68Y-82.7
T5
X129.86Y-67.4
X132.4Y-67.4
X134.94Y-67.4
X137.48Y-67.4
X140.02Y-67.4
X142.56Y-67.4
X145.1Y-67.4
X147.64Y-67.4
T6
X152.3Y-85.34
X152.3Y-87.88
X152.3Y-90.42
T7
X123.197Y-90.7
X123.197Y-95.7
X123.218Y-102.1
X123.218Y-107.1
X139.36Y-115.53
X144.36Y-115.53
X149.36Y-115.53
X153.4Y-68.8
X154.36Y-115.53
X158.4Y-68.8
X161.37Y-115.57
X166.37Y-115.57
X172.76Y-115.742
X177.76Y-115.742
X187.96Y-78.74
X187.96Y-83.74
X188.132Y-90.29
X188.132Y-95.29
X188.132Y-100.29
X188.132Y-105.29
T8
X130.35Y-72.63
X130.35Y-85.77
X136.03Y-72.63
X136.03Y-85.77
T9
X167.85Y-79.04
X175.05Y-79.04
T1
G00X164.7Y-72.49
M15
G01X164.7Y-73.59
M16
G05
G00X178.2Y-72.49
M15
G01X178.2Y-73.59
M16
G05
M30
