%TF.GenerationSoftware,KiCad,Pcbnew,9.0.6*%
%TF.CreationDate,2026-03-31T20:38:48+02:00*%
%TF.ProjectId,PCBsens,50434273-656e-4732-9e6b-696361645f70,rev?*%
%TF.SameCoordinates,Original*%
%TF.FileFunction,Legend,Top*%
%TF.FilePolarity,Positive*%
%FSLAX46Y46*%
G04 Gerber Fmt 4.6, Leading zero omitted, Abs format (unit mm)*
G04 Created by KiCad (PCBNEW 9.0.6) date 2026-03-31 20:38:48*
%MOMM*%
%LPD*%
G01*
G04 APERTURE LIST*
%ADD10C,0.150000*%
%ADD11C,0.120000*%
G04 APERTURE END LIST*
D10*
X188249819Y-99703333D02*
X188964104Y-99703333D01*
X188964104Y-99703333D02*
X189106961Y-99750952D01*
X189106961Y-99750952D02*
X189202200Y-99846190D01*
X189202200Y-99846190D02*
X189249819Y-99989047D01*
X189249819Y-99989047D02*
X189249819Y-100084285D01*
X188249819Y-99322380D02*
X188249819Y-98703333D01*
X188249819Y-98703333D02*
X188630771Y-99036666D01*
X188630771Y-99036666D02*
X188630771Y-98893809D01*
X188630771Y-98893809D02*
X188678390Y-98798571D01*
X188678390Y-98798571D02*
X188726009Y-98750952D01*
X188726009Y-98750952D02*
X188821247Y-98703333D01*
X188821247Y-98703333D02*
X189059342Y-98703333D01*
X189059342Y-98703333D02*
X189154580Y-98750952D01*
X189154580Y-98750952D02*
X189202200Y-98798571D01*
X189202200Y-98798571D02*
X189249819Y-98893809D01*
X189249819Y-98893809D02*
X189249819Y-99179523D01*
X189249819Y-99179523D02*
X189202200Y-99274761D01*
X189202200Y-99274761D02*
X189154580Y-99322380D01*
X138957142Y-123684819D02*
X138623809Y-123208628D01*
X138385714Y-123684819D02*
X138385714Y-122684819D01*
X138385714Y-122684819D02*
X138766666Y-122684819D01*
X138766666Y-122684819D02*
X138861904Y-122732438D01*
X138861904Y-122732438D02*
X138909523Y-122780057D01*
X138909523Y-122780057D02*
X138957142Y-122875295D01*
X138957142Y-122875295D02*
X138957142Y-123018152D01*
X138957142Y-123018152D02*
X138909523Y-123113390D01*
X138909523Y-123113390D02*
X138861904Y-123161009D01*
X138861904Y-123161009D02*
X138766666Y-123208628D01*
X138766666Y-123208628D02*
X138385714Y-123208628D01*
X139909523Y-123684819D02*
X139338095Y-123684819D01*
X139623809Y-123684819D02*
X139623809Y-122684819D01*
X139623809Y-122684819D02*
X139528571Y-122827676D01*
X139528571Y-122827676D02*
X139433333Y-122922914D01*
X139433333Y-122922914D02*
X139338095Y-122970533D01*
X140766666Y-122684819D02*
X140576190Y-122684819D01*
X140576190Y-122684819D02*
X140480952Y-122732438D01*
X140480952Y-122732438D02*
X140433333Y-122780057D01*
X140433333Y-122780057D02*
X140338095Y-122922914D01*
X140338095Y-122922914D02*
X140290476Y-123113390D01*
X140290476Y-123113390D02*
X140290476Y-123494342D01*
X140290476Y-123494342D02*
X140338095Y-123589580D01*
X140338095Y-123589580D02*
X140385714Y-123637200D01*
X140385714Y-123637200D02*
X140480952Y-123684819D01*
X140480952Y-123684819D02*
X140671428Y-123684819D01*
X140671428Y-123684819D02*
X140766666Y-123637200D01*
X140766666Y-123637200D02*
X140814285Y-123589580D01*
X140814285Y-123589580D02*
X140861904Y-123494342D01*
X140861904Y-123494342D02*
X140861904Y-123256247D01*
X140861904Y-123256247D02*
X140814285Y-123161009D01*
X140814285Y-123161009D02*
X140766666Y-123113390D01*
X140766666Y-123113390D02*
X140671428Y-123065771D01*
X140671428Y-123065771D02*
X140480952Y-123065771D01*
X140480952Y-123065771D02*
X140385714Y-123113390D01*
X140385714Y-123113390D02*
X140338095Y-123161009D01*
X140338095Y-123161009D02*
X140290476Y-123256247D01*
X192147142Y-84824819D02*
X191813809Y-84348628D01*
X191575714Y-84824819D02*
X191575714Y-83824819D01*
X191575714Y-83824819D02*
X191956666Y-83824819D01*
X191956666Y-83824819D02*
X192051904Y-83872438D01*
X192051904Y-83872438D02*
X192099523Y-83920057D01*
X192099523Y-83920057D02*
X192147142Y-84015295D01*
X192147142Y-84015295D02*
X192147142Y-84158152D01*
X192147142Y-84158152D02*
X192099523Y-84253390D01*
X192099523Y-84253390D02*
X192051904Y-84301009D01*
X192051904Y-84301009D02*
X191956666Y-84348628D01*
X191956666Y-84348628D02*
X191575714Y-84348628D01*
X193099523Y-84824819D02*
X192528095Y-84824819D01*
X192813809Y-84824819D02*
X192813809Y-83824819D01*
X192813809Y-83824819D02*
X192718571Y-83967676D01*
X192718571Y-83967676D02*
X192623333Y-84062914D01*
X192623333Y-84062914D02*
X192528095Y-84110533D01*
X193432857Y-83824819D02*
X194051904Y-83824819D01*
X194051904Y-83824819D02*
X193718571Y-84205771D01*
X193718571Y-84205771D02*
X193861428Y-84205771D01*
X193861428Y-84205771D02*
X193956666Y-84253390D01*
X193956666Y-84253390D02*
X194004285Y-84301009D01*
X194004285Y-84301009D02*
X194051904Y-84396247D01*
X194051904Y-84396247D02*
X194051904Y-84634342D01*
X194051904Y-84634342D02*
X194004285Y-84729580D01*
X194004285Y-84729580D02*
X193956666Y-84777200D01*
X193956666Y-84777200D02*
X193861428Y-84824819D01*
X193861428Y-84824819D02*
X193575714Y-84824819D01*
X193575714Y-84824819D02*
X193480476Y-84777200D01*
X193480476Y-84777200D02*
X193432857Y-84729580D01*
X139047142Y-96324819D02*
X138713809Y-95848628D01*
X138475714Y-96324819D02*
X138475714Y-95324819D01*
X138475714Y-95324819D02*
X138856666Y-95324819D01*
X138856666Y-95324819D02*
X138951904Y-95372438D01*
X138951904Y-95372438D02*
X138999523Y-95420057D01*
X138999523Y-95420057D02*
X139047142Y-95515295D01*
X139047142Y-95515295D02*
X139047142Y-95658152D01*
X139047142Y-95658152D02*
X138999523Y-95753390D01*
X138999523Y-95753390D02*
X138951904Y-95801009D01*
X138951904Y-95801009D02*
X138856666Y-95848628D01*
X138856666Y-95848628D02*
X138475714Y-95848628D01*
X139999523Y-96324819D02*
X139428095Y-96324819D01*
X139713809Y-96324819D02*
X139713809Y-95324819D01*
X139713809Y-95324819D02*
X139618571Y-95467676D01*
X139618571Y-95467676D02*
X139523333Y-95562914D01*
X139523333Y-95562914D02*
X139428095Y-95610533D01*
X140380476Y-95420057D02*
X140428095Y-95372438D01*
X140428095Y-95372438D02*
X140523333Y-95324819D01*
X140523333Y-95324819D02*
X140761428Y-95324819D01*
X140761428Y-95324819D02*
X140856666Y-95372438D01*
X140856666Y-95372438D02*
X140904285Y-95420057D01*
X140904285Y-95420057D02*
X140951904Y-95515295D01*
X140951904Y-95515295D02*
X140951904Y-95610533D01*
X140951904Y-95610533D02*
X140904285Y-95753390D01*
X140904285Y-95753390D02*
X140332857Y-96324819D01*
X140332857Y-96324819D02*
X140951904Y-96324819D01*
X188793333Y-118389580D02*
X188745714Y-118437200D01*
X188745714Y-118437200D02*
X188602857Y-118484819D01*
X188602857Y-118484819D02*
X188507619Y-118484819D01*
X188507619Y-118484819D02*
X188364762Y-118437200D01*
X188364762Y-118437200D02*
X188269524Y-118341961D01*
X188269524Y-118341961D02*
X188221905Y-118246723D01*
X188221905Y-118246723D02*
X188174286Y-118056247D01*
X188174286Y-118056247D02*
X188174286Y-117913390D01*
X188174286Y-117913390D02*
X188221905Y-117722914D01*
X188221905Y-117722914D02*
X188269524Y-117627676D01*
X188269524Y-117627676D02*
X188364762Y-117532438D01*
X188364762Y-117532438D02*
X188507619Y-117484819D01*
X188507619Y-117484819D02*
X188602857Y-117484819D01*
X188602857Y-117484819D02*
X188745714Y-117532438D01*
X188745714Y-117532438D02*
X188793333Y-117580057D01*
X189174286Y-117580057D02*
X189221905Y-117532438D01*
X189221905Y-117532438D02*
X189317143Y-117484819D01*
X189317143Y-117484819D02*
X189555238Y-117484819D01*
X189555238Y-117484819D02*
X189650476Y-117532438D01*
X189650476Y-117532438D02*
X189698095Y-117580057D01*
X189698095Y-117580057D02*
X189745714Y-117675295D01*
X189745714Y-117675295D02*
X189745714Y-117770533D01*
X189745714Y-117770533D02*
X189698095Y-117913390D01*
X189698095Y-117913390D02*
X189126667Y-118484819D01*
X189126667Y-118484819D02*
X189745714Y-118484819D01*
X187833333Y-104764819D02*
X187500000Y-104288628D01*
X187261905Y-104764819D02*
X187261905Y-103764819D01*
X187261905Y-103764819D02*
X187642857Y-103764819D01*
X187642857Y-103764819D02*
X187738095Y-103812438D01*
X187738095Y-103812438D02*
X187785714Y-103860057D01*
X187785714Y-103860057D02*
X187833333Y-103955295D01*
X187833333Y-103955295D02*
X187833333Y-104098152D01*
X187833333Y-104098152D02*
X187785714Y-104193390D01*
X187785714Y-104193390D02*
X187738095Y-104241009D01*
X187738095Y-104241009D02*
X187642857Y-104288628D01*
X187642857Y-104288628D02*
X187261905Y-104288628D01*
X188690476Y-103764819D02*
X188500000Y-103764819D01*
X188500000Y-103764819D02*
X188404762Y-103812438D01*
X188404762Y-103812438D02*
X188357143Y-103860057D01*
X188357143Y-103860057D02*
X188261905Y-104002914D01*
X188261905Y-104002914D02*
X188214286Y-104193390D01*
X188214286Y-104193390D02*
X188214286Y-104574342D01*
X188214286Y-104574342D02*
X188261905Y-104669580D01*
X188261905Y-104669580D02*
X188309524Y-104717200D01*
X188309524Y-104717200D02*
X188404762Y-104764819D01*
X188404762Y-104764819D02*
X188595238Y-104764819D01*
X188595238Y-104764819D02*
X188690476Y-104717200D01*
X188690476Y-104717200D02*
X188738095Y-104669580D01*
X188738095Y-104669580D02*
X188785714Y-104574342D01*
X188785714Y-104574342D02*
X188785714Y-104336247D01*
X188785714Y-104336247D02*
X188738095Y-104241009D01*
X188738095Y-104241009D02*
X188690476Y-104193390D01*
X188690476Y-104193390D02*
X188595238Y-104145771D01*
X188595238Y-104145771D02*
X188404762Y-104145771D01*
X188404762Y-104145771D02*
X188309524Y-104193390D01*
X188309524Y-104193390D02*
X188261905Y-104241009D01*
X188261905Y-104241009D02*
X188214286Y-104336247D01*
X191747142Y-80224819D02*
X191413809Y-79748628D01*
X191175714Y-80224819D02*
X191175714Y-79224819D01*
X191175714Y-79224819D02*
X191556666Y-79224819D01*
X191556666Y-79224819D02*
X191651904Y-79272438D01*
X191651904Y-79272438D02*
X191699523Y-79320057D01*
X191699523Y-79320057D02*
X191747142Y-79415295D01*
X191747142Y-79415295D02*
X191747142Y-79558152D01*
X191747142Y-79558152D02*
X191699523Y-79653390D01*
X191699523Y-79653390D02*
X191651904Y-79701009D01*
X191651904Y-79701009D02*
X191556666Y-79748628D01*
X191556666Y-79748628D02*
X191175714Y-79748628D01*
X192699523Y-80224819D02*
X192128095Y-80224819D01*
X192413809Y-80224819D02*
X192413809Y-79224819D01*
X192413809Y-79224819D02*
X192318571Y-79367676D01*
X192318571Y-79367676D02*
X192223333Y-79462914D01*
X192223333Y-79462914D02*
X192128095Y-79510533D01*
X193556666Y-79558152D02*
X193556666Y-80224819D01*
X193318571Y-79177200D02*
X193080476Y-79891485D01*
X193080476Y-79891485D02*
X193699523Y-79891485D01*
X174891142Y-132654819D02*
X174557809Y-132178628D01*
X174319714Y-132654819D02*
X174319714Y-131654819D01*
X174319714Y-131654819D02*
X174700666Y-131654819D01*
X174700666Y-131654819D02*
X174795904Y-131702438D01*
X174795904Y-131702438D02*
X174843523Y-131750057D01*
X174843523Y-131750057D02*
X174891142Y-131845295D01*
X174891142Y-131845295D02*
X174891142Y-131988152D01*
X174891142Y-131988152D02*
X174843523Y-132083390D01*
X174843523Y-132083390D02*
X174795904Y-132131009D01*
X174795904Y-132131009D02*
X174700666Y-132178628D01*
X174700666Y-132178628D02*
X174319714Y-132178628D01*
X175843523Y-132654819D02*
X175272095Y-132654819D01*
X175557809Y-132654819D02*
X175557809Y-131654819D01*
X175557809Y-131654819D02*
X175462571Y-131797676D01*
X175462571Y-131797676D02*
X175367333Y-131892914D01*
X175367333Y-131892914D02*
X175272095Y-131940533D01*
X176795904Y-132654819D02*
X176224476Y-132654819D01*
X176510190Y-132654819D02*
X176510190Y-131654819D01*
X176510190Y-131654819D02*
X176414952Y-131797676D01*
X176414952Y-131797676D02*
X176319714Y-131892914D01*
X176319714Y-131892914D02*
X176224476Y-131940533D01*
X197134819Y-115809523D02*
X197849104Y-115809523D01*
X197849104Y-115809523D02*
X197991961Y-115857142D01*
X197991961Y-115857142D02*
X198087200Y-115952380D01*
X198087200Y-115952380D02*
X198134819Y-116095237D01*
X198134819Y-116095237D02*
X198134819Y-116190475D01*
X198134819Y-114809523D02*
X198134819Y-115380951D01*
X198134819Y-115095237D02*
X197134819Y-115095237D01*
X197134819Y-115095237D02*
X197277676Y-115190475D01*
X197277676Y-115190475D02*
X197372914Y-115285713D01*
X197372914Y-115285713D02*
X197420533Y-115380951D01*
X197230057Y-114428570D02*
X197182438Y-114380951D01*
X197182438Y-114380951D02*
X197134819Y-114285713D01*
X197134819Y-114285713D02*
X197134819Y-114047618D01*
X197134819Y-114047618D02*
X197182438Y-113952380D01*
X197182438Y-113952380D02*
X197230057Y-113904761D01*
X197230057Y-113904761D02*
X197325295Y-113857142D01*
X197325295Y-113857142D02*
X197420533Y-113857142D01*
X197420533Y-113857142D02*
X197563390Y-113904761D01*
X197563390Y-113904761D02*
X198134819Y-114476189D01*
X198134819Y-114476189D02*
X198134819Y-113857142D01*
X141557142Y-128484819D02*
X141223809Y-128008628D01*
X140985714Y-128484819D02*
X140985714Y-127484819D01*
X140985714Y-127484819D02*
X141366666Y-127484819D01*
X141366666Y-127484819D02*
X141461904Y-127532438D01*
X141461904Y-127532438D02*
X141509523Y-127580057D01*
X141509523Y-127580057D02*
X141557142Y-127675295D01*
X141557142Y-127675295D02*
X141557142Y-127818152D01*
X141557142Y-127818152D02*
X141509523Y-127913390D01*
X141509523Y-127913390D02*
X141461904Y-127961009D01*
X141461904Y-127961009D02*
X141366666Y-128008628D01*
X141366666Y-128008628D02*
X140985714Y-128008628D01*
X142509523Y-128484819D02*
X141938095Y-128484819D01*
X142223809Y-128484819D02*
X142223809Y-127484819D01*
X142223809Y-127484819D02*
X142128571Y-127627676D01*
X142128571Y-127627676D02*
X142033333Y-127722914D01*
X142033333Y-127722914D02*
X141938095Y-127770533D01*
X143414285Y-127484819D02*
X142938095Y-127484819D01*
X142938095Y-127484819D02*
X142890476Y-127961009D01*
X142890476Y-127961009D02*
X142938095Y-127913390D01*
X142938095Y-127913390D02*
X143033333Y-127865771D01*
X143033333Y-127865771D02*
X143271428Y-127865771D01*
X143271428Y-127865771D02*
X143366666Y-127913390D01*
X143366666Y-127913390D02*
X143414285Y-127961009D01*
X143414285Y-127961009D02*
X143461904Y-128056247D01*
X143461904Y-128056247D02*
X143461904Y-128294342D01*
X143461904Y-128294342D02*
X143414285Y-128389580D01*
X143414285Y-128389580D02*
X143366666Y-128437200D01*
X143366666Y-128437200D02*
X143271428Y-128484819D01*
X143271428Y-128484819D02*
X143033333Y-128484819D01*
X143033333Y-128484819D02*
X142938095Y-128437200D01*
X142938095Y-128437200D02*
X142890476Y-128389580D01*
X164578819Y-70691333D02*
X165293104Y-70691333D01*
X165293104Y-70691333D02*
X165435961Y-70738952D01*
X165435961Y-70738952D02*
X165531200Y-70834190D01*
X165531200Y-70834190D02*
X165578819Y-70977047D01*
X165578819Y-70977047D02*
X165578819Y-71072285D01*
X164674057Y-70262761D02*
X164626438Y-70215142D01*
X164626438Y-70215142D02*
X164578819Y-70119904D01*
X164578819Y-70119904D02*
X164578819Y-69881809D01*
X164578819Y-69881809D02*
X164626438Y-69786571D01*
X164626438Y-69786571D02*
X164674057Y-69738952D01*
X164674057Y-69738952D02*
X164769295Y-69691333D01*
X164769295Y-69691333D02*
X164864533Y-69691333D01*
X164864533Y-69691333D02*
X165007390Y-69738952D01*
X165007390Y-69738952D02*
X165578819Y-70310380D01*
X165578819Y-70310380D02*
X165578819Y-69691333D01*
X196609619Y-107083123D02*
X197323904Y-107083123D01*
X197323904Y-107083123D02*
X197466761Y-107130742D01*
X197466761Y-107130742D02*
X197562000Y-107225980D01*
X197562000Y-107225980D02*
X197609619Y-107368837D01*
X197609619Y-107368837D02*
X197609619Y-107464075D01*
X197609619Y-106083123D02*
X197609619Y-106654551D01*
X197609619Y-106368837D02*
X196609619Y-106368837D01*
X196609619Y-106368837D02*
X196752476Y-106464075D01*
X196752476Y-106464075D02*
X196847714Y-106559313D01*
X196847714Y-106559313D02*
X196895333Y-106654551D01*
X197609619Y-105606932D02*
X197609619Y-105416456D01*
X197609619Y-105416456D02*
X197562000Y-105321218D01*
X197562000Y-105321218D02*
X197514380Y-105273599D01*
X197514380Y-105273599D02*
X197371523Y-105178361D01*
X197371523Y-105178361D02*
X197181047Y-105130742D01*
X197181047Y-105130742D02*
X196800095Y-105130742D01*
X196800095Y-105130742D02*
X196704857Y-105178361D01*
X196704857Y-105178361D02*
X196657238Y-105225980D01*
X196657238Y-105225980D02*
X196609619Y-105321218D01*
X196609619Y-105321218D02*
X196609619Y-105511694D01*
X196609619Y-105511694D02*
X196657238Y-105606932D01*
X196657238Y-105606932D02*
X196704857Y-105654551D01*
X196704857Y-105654551D02*
X196800095Y-105702170D01*
X196800095Y-105702170D02*
X197038190Y-105702170D01*
X197038190Y-105702170D02*
X197133428Y-105654551D01*
X197133428Y-105654551D02*
X197181047Y-105606932D01*
X197181047Y-105606932D02*
X197228666Y-105511694D01*
X197228666Y-105511694D02*
X197228666Y-105321218D01*
X197228666Y-105321218D02*
X197181047Y-105225980D01*
X197181047Y-105225980D02*
X197133428Y-105178361D01*
X197133428Y-105178361D02*
X197038190Y-105130742D01*
X181697333Y-85628819D02*
X181364000Y-85152628D01*
X181125905Y-85628819D02*
X181125905Y-84628819D01*
X181125905Y-84628819D02*
X181506857Y-84628819D01*
X181506857Y-84628819D02*
X181602095Y-84676438D01*
X181602095Y-84676438D02*
X181649714Y-84724057D01*
X181649714Y-84724057D02*
X181697333Y-84819295D01*
X181697333Y-84819295D02*
X181697333Y-84962152D01*
X181697333Y-84962152D02*
X181649714Y-85057390D01*
X181649714Y-85057390D02*
X181602095Y-85105009D01*
X181602095Y-85105009D02*
X181506857Y-85152628D01*
X181506857Y-85152628D02*
X181125905Y-85152628D01*
X182268762Y-85057390D02*
X182173524Y-85009771D01*
X182173524Y-85009771D02*
X182125905Y-84962152D01*
X182125905Y-84962152D02*
X182078286Y-84866914D01*
X182078286Y-84866914D02*
X182078286Y-84819295D01*
X182078286Y-84819295D02*
X182125905Y-84724057D01*
X182125905Y-84724057D02*
X182173524Y-84676438D01*
X182173524Y-84676438D02*
X182268762Y-84628819D01*
X182268762Y-84628819D02*
X182459238Y-84628819D01*
X182459238Y-84628819D02*
X182554476Y-84676438D01*
X182554476Y-84676438D02*
X182602095Y-84724057D01*
X182602095Y-84724057D02*
X182649714Y-84819295D01*
X182649714Y-84819295D02*
X182649714Y-84866914D01*
X182649714Y-84866914D02*
X182602095Y-84962152D01*
X182602095Y-84962152D02*
X182554476Y-85009771D01*
X182554476Y-85009771D02*
X182459238Y-85057390D01*
X182459238Y-85057390D02*
X182268762Y-85057390D01*
X182268762Y-85057390D02*
X182173524Y-85105009D01*
X182173524Y-85105009D02*
X182125905Y-85152628D01*
X182125905Y-85152628D02*
X182078286Y-85247866D01*
X182078286Y-85247866D02*
X182078286Y-85438342D01*
X182078286Y-85438342D02*
X182125905Y-85533580D01*
X182125905Y-85533580D02*
X182173524Y-85581200D01*
X182173524Y-85581200D02*
X182268762Y-85628819D01*
X182268762Y-85628819D02*
X182459238Y-85628819D01*
X182459238Y-85628819D02*
X182554476Y-85581200D01*
X182554476Y-85581200D02*
X182602095Y-85533580D01*
X182602095Y-85533580D02*
X182649714Y-85438342D01*
X182649714Y-85438342D02*
X182649714Y-85247866D01*
X182649714Y-85247866D02*
X182602095Y-85152628D01*
X182602095Y-85152628D02*
X182554476Y-85105009D01*
X182554476Y-85105009D02*
X182459238Y-85057390D01*
X123941666Y-79384819D02*
X123941666Y-80099104D01*
X123941666Y-80099104D02*
X123894047Y-80241961D01*
X123894047Y-80241961D02*
X123798809Y-80337200D01*
X123798809Y-80337200D02*
X123655952Y-80384819D01*
X123655952Y-80384819D02*
X123560714Y-80384819D01*
X124322619Y-79384819D02*
X124989285Y-79384819D01*
X124989285Y-79384819D02*
X124560714Y-80384819D01*
X135114819Y-72183523D02*
X135829104Y-72183523D01*
X135829104Y-72183523D02*
X135971961Y-72231142D01*
X135971961Y-72231142D02*
X136067200Y-72326380D01*
X136067200Y-72326380D02*
X136114819Y-72469237D01*
X136114819Y-72469237D02*
X136114819Y-72564475D01*
X136114819Y-71183523D02*
X136114819Y-71754951D01*
X136114819Y-71469237D02*
X135114819Y-71469237D01*
X135114819Y-71469237D02*
X135257676Y-71564475D01*
X135257676Y-71564475D02*
X135352914Y-71659713D01*
X135352914Y-71659713D02*
X135400533Y-71754951D01*
X135114819Y-70850189D02*
X135114819Y-70231142D01*
X135114819Y-70231142D02*
X135495771Y-70564475D01*
X135495771Y-70564475D02*
X135495771Y-70421618D01*
X135495771Y-70421618D02*
X135543390Y-70326380D01*
X135543390Y-70326380D02*
X135591009Y-70278761D01*
X135591009Y-70278761D02*
X135686247Y-70231142D01*
X135686247Y-70231142D02*
X135924342Y-70231142D01*
X135924342Y-70231142D02*
X136019580Y-70278761D01*
X136019580Y-70278761D02*
X136067200Y-70326380D01*
X136067200Y-70326380D02*
X136114819Y-70421618D01*
X136114819Y-70421618D02*
X136114819Y-70707332D01*
X136114819Y-70707332D02*
X136067200Y-70802570D01*
X136067200Y-70802570D02*
X136019580Y-70850189D01*
X139523333Y-91074819D02*
X139190000Y-90598628D01*
X138951905Y-91074819D02*
X138951905Y-90074819D01*
X138951905Y-90074819D02*
X139332857Y-90074819D01*
X139332857Y-90074819D02*
X139428095Y-90122438D01*
X139428095Y-90122438D02*
X139475714Y-90170057D01*
X139475714Y-90170057D02*
X139523333Y-90265295D01*
X139523333Y-90265295D02*
X139523333Y-90408152D01*
X139523333Y-90408152D02*
X139475714Y-90503390D01*
X139475714Y-90503390D02*
X139428095Y-90551009D01*
X139428095Y-90551009D02*
X139332857Y-90598628D01*
X139332857Y-90598628D02*
X138951905Y-90598628D01*
X140428095Y-90074819D02*
X139951905Y-90074819D01*
X139951905Y-90074819D02*
X139904286Y-90551009D01*
X139904286Y-90551009D02*
X139951905Y-90503390D01*
X139951905Y-90503390D02*
X140047143Y-90455771D01*
X140047143Y-90455771D02*
X140285238Y-90455771D01*
X140285238Y-90455771D02*
X140380476Y-90503390D01*
X140380476Y-90503390D02*
X140428095Y-90551009D01*
X140428095Y-90551009D02*
X140475714Y-90646247D01*
X140475714Y-90646247D02*
X140475714Y-90884342D01*
X140475714Y-90884342D02*
X140428095Y-90979580D01*
X140428095Y-90979580D02*
X140380476Y-91027200D01*
X140380476Y-91027200D02*
X140285238Y-91074819D01*
X140285238Y-91074819D02*
X140047143Y-91074819D01*
X140047143Y-91074819D02*
X139951905Y-91027200D01*
X139951905Y-91027200D02*
X139904286Y-90979580D01*
X151979333Y-74792819D02*
X151646000Y-74316628D01*
X151407905Y-74792819D02*
X151407905Y-73792819D01*
X151407905Y-73792819D02*
X151788857Y-73792819D01*
X151788857Y-73792819D02*
X151884095Y-73840438D01*
X151884095Y-73840438D02*
X151931714Y-73888057D01*
X151931714Y-73888057D02*
X151979333Y-73983295D01*
X151979333Y-73983295D02*
X151979333Y-74126152D01*
X151979333Y-74126152D02*
X151931714Y-74221390D01*
X151931714Y-74221390D02*
X151884095Y-74269009D01*
X151884095Y-74269009D02*
X151788857Y-74316628D01*
X151788857Y-74316628D02*
X151407905Y-74316628D01*
X152931714Y-74792819D02*
X152360286Y-74792819D01*
X152646000Y-74792819D02*
X152646000Y-73792819D01*
X152646000Y-73792819D02*
X152550762Y-73935676D01*
X152550762Y-73935676D02*
X152455524Y-74030914D01*
X152455524Y-74030914D02*
X152360286Y-74078533D01*
X174595333Y-139029819D02*
X174262000Y-138553628D01*
X174023905Y-139029819D02*
X174023905Y-138029819D01*
X174023905Y-138029819D02*
X174404857Y-138029819D01*
X174404857Y-138029819D02*
X174500095Y-138077438D01*
X174500095Y-138077438D02*
X174547714Y-138125057D01*
X174547714Y-138125057D02*
X174595333Y-138220295D01*
X174595333Y-138220295D02*
X174595333Y-138363152D01*
X174595333Y-138363152D02*
X174547714Y-138458390D01*
X174547714Y-138458390D02*
X174500095Y-138506009D01*
X174500095Y-138506009D02*
X174404857Y-138553628D01*
X174404857Y-138553628D02*
X174023905Y-138553628D01*
X175452476Y-138363152D02*
X175452476Y-139029819D01*
X175214381Y-137982200D02*
X174976286Y-138696485D01*
X174976286Y-138696485D02*
X175595333Y-138696485D01*
X156714819Y-148136333D02*
X157429104Y-148136333D01*
X157429104Y-148136333D02*
X157571961Y-148183952D01*
X157571961Y-148183952D02*
X157667200Y-148279190D01*
X157667200Y-148279190D02*
X157714819Y-148422047D01*
X157714819Y-148422047D02*
X157714819Y-148517285D01*
X157048152Y-147231571D02*
X157714819Y-147231571D01*
X156667200Y-147469666D02*
X157381485Y-147707761D01*
X157381485Y-147707761D02*
X157381485Y-147088714D01*
X145121333Y-80380819D02*
X144788000Y-79904628D01*
X144549905Y-80380819D02*
X144549905Y-79380819D01*
X144549905Y-79380819D02*
X144930857Y-79380819D01*
X144930857Y-79380819D02*
X145026095Y-79428438D01*
X145026095Y-79428438D02*
X145073714Y-79476057D01*
X145073714Y-79476057D02*
X145121333Y-79571295D01*
X145121333Y-79571295D02*
X145121333Y-79714152D01*
X145121333Y-79714152D02*
X145073714Y-79809390D01*
X145073714Y-79809390D02*
X145026095Y-79857009D01*
X145026095Y-79857009D02*
X144930857Y-79904628D01*
X144930857Y-79904628D02*
X144549905Y-79904628D01*
X145454667Y-79380819D02*
X146121333Y-79380819D01*
X146121333Y-79380819D02*
X145692762Y-80380819D01*
X196954819Y-132309523D02*
X197669104Y-132309523D01*
X197669104Y-132309523D02*
X197811961Y-132357142D01*
X197811961Y-132357142D02*
X197907200Y-132452380D01*
X197907200Y-132452380D02*
X197954819Y-132595237D01*
X197954819Y-132595237D02*
X197954819Y-132690475D01*
X197954819Y-131309523D02*
X197954819Y-131880951D01*
X197954819Y-131595237D02*
X196954819Y-131595237D01*
X196954819Y-131595237D02*
X197097676Y-131690475D01*
X197097676Y-131690475D02*
X197192914Y-131785713D01*
X197192914Y-131785713D02*
X197240533Y-131880951D01*
X197383390Y-130738094D02*
X197335771Y-130833332D01*
X197335771Y-130833332D02*
X197288152Y-130880951D01*
X197288152Y-130880951D02*
X197192914Y-130928570D01*
X197192914Y-130928570D02*
X197145295Y-130928570D01*
X197145295Y-130928570D02*
X197050057Y-130880951D01*
X197050057Y-130880951D02*
X197002438Y-130833332D01*
X197002438Y-130833332D02*
X196954819Y-130738094D01*
X196954819Y-130738094D02*
X196954819Y-130547618D01*
X196954819Y-130547618D02*
X197002438Y-130452380D01*
X197002438Y-130452380D02*
X197050057Y-130404761D01*
X197050057Y-130404761D02*
X197145295Y-130357142D01*
X197145295Y-130357142D02*
X197192914Y-130357142D01*
X197192914Y-130357142D02*
X197288152Y-130404761D01*
X197288152Y-130404761D02*
X197335771Y-130452380D01*
X197335771Y-130452380D02*
X197383390Y-130547618D01*
X197383390Y-130547618D02*
X197383390Y-130738094D01*
X197383390Y-130738094D02*
X197431009Y-130833332D01*
X197431009Y-130833332D02*
X197478628Y-130880951D01*
X197478628Y-130880951D02*
X197573866Y-130928570D01*
X197573866Y-130928570D02*
X197764342Y-130928570D01*
X197764342Y-130928570D02*
X197859580Y-130880951D01*
X197859580Y-130880951D02*
X197907200Y-130833332D01*
X197907200Y-130833332D02*
X197954819Y-130738094D01*
X197954819Y-130738094D02*
X197954819Y-130547618D01*
X197954819Y-130547618D02*
X197907200Y-130452380D01*
X197907200Y-130452380D02*
X197859580Y-130404761D01*
X197859580Y-130404761D02*
X197764342Y-130357142D01*
X197764342Y-130357142D02*
X197573866Y-130357142D01*
X197573866Y-130357142D02*
X197478628Y-130404761D01*
X197478628Y-130404761D02*
X197431009Y-130452380D01*
X197431009Y-130452380D02*
X197383390Y-130547618D01*
X130665476Y-142264819D02*
X130665476Y-142979104D01*
X130665476Y-142979104D02*
X130617857Y-143121961D01*
X130617857Y-143121961D02*
X130522619Y-143217200D01*
X130522619Y-143217200D02*
X130379762Y-143264819D01*
X130379762Y-143264819D02*
X130284524Y-143264819D01*
X131665476Y-143264819D02*
X131094048Y-143264819D01*
X131379762Y-143264819D02*
X131379762Y-142264819D01*
X131379762Y-142264819D02*
X131284524Y-142407676D01*
X131284524Y-142407676D02*
X131189286Y-142502914D01*
X131189286Y-142502914D02*
X131094048Y-142550533D01*
X132284524Y-142264819D02*
X132379762Y-142264819D01*
X132379762Y-142264819D02*
X132475000Y-142312438D01*
X132475000Y-142312438D02*
X132522619Y-142360057D01*
X132522619Y-142360057D02*
X132570238Y-142455295D01*
X132570238Y-142455295D02*
X132617857Y-142645771D01*
X132617857Y-142645771D02*
X132617857Y-142883866D01*
X132617857Y-142883866D02*
X132570238Y-143074342D01*
X132570238Y-143074342D02*
X132522619Y-143169580D01*
X132522619Y-143169580D02*
X132475000Y-143217200D01*
X132475000Y-143217200D02*
X132379762Y-143264819D01*
X132379762Y-143264819D02*
X132284524Y-143264819D01*
X132284524Y-143264819D02*
X132189286Y-143217200D01*
X132189286Y-143217200D02*
X132141667Y-143169580D01*
X132141667Y-143169580D02*
X132094048Y-143074342D01*
X132094048Y-143074342D02*
X132046429Y-142883866D01*
X132046429Y-142883866D02*
X132046429Y-142645771D01*
X132046429Y-142645771D02*
X132094048Y-142455295D01*
X132094048Y-142455295D02*
X132141667Y-142360057D01*
X132141667Y-142360057D02*
X132189286Y-142312438D01*
X132189286Y-142312438D02*
X132284524Y-142264819D01*
X158990819Y-80540523D02*
X159705104Y-80540523D01*
X159705104Y-80540523D02*
X159847961Y-80588142D01*
X159847961Y-80588142D02*
X159943200Y-80683380D01*
X159943200Y-80683380D02*
X159990819Y-80826237D01*
X159990819Y-80826237D02*
X159990819Y-80921475D01*
X159990819Y-79540523D02*
X159990819Y-80111951D01*
X159990819Y-79826237D02*
X158990819Y-79826237D01*
X158990819Y-79826237D02*
X159133676Y-79921475D01*
X159133676Y-79921475D02*
X159228914Y-80016713D01*
X159228914Y-80016713D02*
X159276533Y-80111951D01*
X159324152Y-78683380D02*
X159990819Y-78683380D01*
X158943200Y-78921475D02*
X159657485Y-79159570D01*
X159657485Y-79159570D02*
X159657485Y-78540523D01*
X162699142Y-132654819D02*
X162365809Y-132178628D01*
X162127714Y-132654819D02*
X162127714Y-131654819D01*
X162127714Y-131654819D02*
X162508666Y-131654819D01*
X162508666Y-131654819D02*
X162603904Y-131702438D01*
X162603904Y-131702438D02*
X162651523Y-131750057D01*
X162651523Y-131750057D02*
X162699142Y-131845295D01*
X162699142Y-131845295D02*
X162699142Y-131988152D01*
X162699142Y-131988152D02*
X162651523Y-132083390D01*
X162651523Y-132083390D02*
X162603904Y-132131009D01*
X162603904Y-132131009D02*
X162508666Y-132178628D01*
X162508666Y-132178628D02*
X162127714Y-132178628D01*
X163651523Y-132654819D02*
X163080095Y-132654819D01*
X163365809Y-132654819D02*
X163365809Y-131654819D01*
X163365809Y-131654819D02*
X163270571Y-131797676D01*
X163270571Y-131797676D02*
X163175333Y-131892914D01*
X163175333Y-131892914D02*
X163080095Y-131940533D01*
X164270571Y-131654819D02*
X164365809Y-131654819D01*
X164365809Y-131654819D02*
X164461047Y-131702438D01*
X164461047Y-131702438D02*
X164508666Y-131750057D01*
X164508666Y-131750057D02*
X164556285Y-131845295D01*
X164556285Y-131845295D02*
X164603904Y-132035771D01*
X164603904Y-132035771D02*
X164603904Y-132273866D01*
X164603904Y-132273866D02*
X164556285Y-132464342D01*
X164556285Y-132464342D02*
X164508666Y-132559580D01*
X164508666Y-132559580D02*
X164461047Y-132607200D01*
X164461047Y-132607200D02*
X164365809Y-132654819D01*
X164365809Y-132654819D02*
X164270571Y-132654819D01*
X164270571Y-132654819D02*
X164175333Y-132607200D01*
X164175333Y-132607200D02*
X164127714Y-132559580D01*
X164127714Y-132559580D02*
X164080095Y-132464342D01*
X164080095Y-132464342D02*
X164032476Y-132273866D01*
X164032476Y-132273866D02*
X164032476Y-132035771D01*
X164032476Y-132035771D02*
X164080095Y-131845295D01*
X164080095Y-131845295D02*
X164127714Y-131750057D01*
X164127714Y-131750057D02*
X164175333Y-131702438D01*
X164175333Y-131702438D02*
X164270571Y-131654819D01*
X133202319Y-112559523D02*
X133916604Y-112559523D01*
X133916604Y-112559523D02*
X134059461Y-112607142D01*
X134059461Y-112607142D02*
X134154700Y-112702380D01*
X134154700Y-112702380D02*
X134202319Y-112845237D01*
X134202319Y-112845237D02*
X134202319Y-112940475D01*
X134202319Y-111559523D02*
X134202319Y-112130951D01*
X134202319Y-111845237D02*
X133202319Y-111845237D01*
X133202319Y-111845237D02*
X133345176Y-111940475D01*
X133345176Y-111940475D02*
X133440414Y-112035713D01*
X133440414Y-112035713D02*
X133488033Y-112130951D01*
X133202319Y-110702380D02*
X133202319Y-110892856D01*
X133202319Y-110892856D02*
X133249938Y-110988094D01*
X133249938Y-110988094D02*
X133297557Y-111035713D01*
X133297557Y-111035713D02*
X133440414Y-111130951D01*
X133440414Y-111130951D02*
X133630890Y-111178570D01*
X133630890Y-111178570D02*
X134011842Y-111178570D01*
X134011842Y-111178570D02*
X134107080Y-111130951D01*
X134107080Y-111130951D02*
X134154700Y-111083332D01*
X134154700Y-111083332D02*
X134202319Y-110988094D01*
X134202319Y-110988094D02*
X134202319Y-110797618D01*
X134202319Y-110797618D02*
X134154700Y-110702380D01*
X134154700Y-110702380D02*
X134107080Y-110654761D01*
X134107080Y-110654761D02*
X134011842Y-110607142D01*
X134011842Y-110607142D02*
X133773747Y-110607142D01*
X133773747Y-110607142D02*
X133678509Y-110654761D01*
X133678509Y-110654761D02*
X133630890Y-110702380D01*
X133630890Y-110702380D02*
X133583271Y-110797618D01*
X133583271Y-110797618D02*
X133583271Y-110988094D01*
X133583271Y-110988094D02*
X133630890Y-111083332D01*
X133630890Y-111083332D02*
X133678509Y-111130951D01*
X133678509Y-111130951D02*
X133773747Y-111178570D01*
X150542666Y-87362819D02*
X150542666Y-88077104D01*
X150542666Y-88077104D02*
X150495047Y-88219961D01*
X150495047Y-88219961D02*
X150399809Y-88315200D01*
X150399809Y-88315200D02*
X150256952Y-88362819D01*
X150256952Y-88362819D02*
X150161714Y-88362819D01*
X151495047Y-87362819D02*
X151018857Y-87362819D01*
X151018857Y-87362819D02*
X150971238Y-87839009D01*
X150971238Y-87839009D02*
X151018857Y-87791390D01*
X151018857Y-87791390D02*
X151114095Y-87743771D01*
X151114095Y-87743771D02*
X151352190Y-87743771D01*
X151352190Y-87743771D02*
X151447428Y-87791390D01*
X151447428Y-87791390D02*
X151495047Y-87839009D01*
X151495047Y-87839009D02*
X151542666Y-87934247D01*
X151542666Y-87934247D02*
X151542666Y-88172342D01*
X151542666Y-88172342D02*
X151495047Y-88267580D01*
X151495047Y-88267580D02*
X151447428Y-88315200D01*
X151447428Y-88315200D02*
X151352190Y-88362819D01*
X151352190Y-88362819D02*
X151114095Y-88362819D01*
X151114095Y-88362819D02*
X151018857Y-88315200D01*
X151018857Y-88315200D02*
X150971238Y-88267580D01*
X151116819Y-70691333D02*
X151831104Y-70691333D01*
X151831104Y-70691333D02*
X151973961Y-70738952D01*
X151973961Y-70738952D02*
X152069200Y-70834190D01*
X152069200Y-70834190D02*
X152116819Y-70977047D01*
X152116819Y-70977047D02*
X152116819Y-71072285D01*
X152116819Y-69691333D02*
X152116819Y-70262761D01*
X152116819Y-69977047D02*
X151116819Y-69977047D01*
X151116819Y-69977047D02*
X151259676Y-70072285D01*
X151259676Y-70072285D02*
X151354914Y-70167523D01*
X151354914Y-70167523D02*
X151402533Y-70262761D01*
X182866819Y-72437523D02*
X183581104Y-72437523D01*
X183581104Y-72437523D02*
X183723961Y-72485142D01*
X183723961Y-72485142D02*
X183819200Y-72580380D01*
X183819200Y-72580380D02*
X183866819Y-72723237D01*
X183866819Y-72723237D02*
X183866819Y-72818475D01*
X183866819Y-71437523D02*
X183866819Y-72008951D01*
X183866819Y-71723237D02*
X182866819Y-71723237D01*
X182866819Y-71723237D02*
X183009676Y-71818475D01*
X183009676Y-71818475D02*
X183104914Y-71913713D01*
X183104914Y-71913713D02*
X183152533Y-72008951D01*
X182866819Y-70532761D02*
X182866819Y-71008951D01*
X182866819Y-71008951D02*
X183343009Y-71056570D01*
X183343009Y-71056570D02*
X183295390Y-71008951D01*
X183295390Y-71008951D02*
X183247771Y-70913713D01*
X183247771Y-70913713D02*
X183247771Y-70675618D01*
X183247771Y-70675618D02*
X183295390Y-70580380D01*
X183295390Y-70580380D02*
X183343009Y-70532761D01*
X183343009Y-70532761D02*
X183438247Y-70485142D01*
X183438247Y-70485142D02*
X183676342Y-70485142D01*
X183676342Y-70485142D02*
X183771580Y-70532761D01*
X183771580Y-70532761D02*
X183819200Y-70580380D01*
X183819200Y-70580380D02*
X183866819Y-70675618D01*
X183866819Y-70675618D02*
X183866819Y-70913713D01*
X183866819Y-70913713D02*
X183819200Y-71008951D01*
X183819200Y-71008951D02*
X183771580Y-71056570D01*
X170186819Y-148111333D02*
X170901104Y-148111333D01*
X170901104Y-148111333D02*
X171043961Y-148158952D01*
X171043961Y-148158952D02*
X171139200Y-148254190D01*
X171139200Y-148254190D02*
X171186819Y-148397047D01*
X171186819Y-148397047D02*
X171186819Y-148492285D01*
X170186819Y-147206571D02*
X170186819Y-147397047D01*
X170186819Y-147397047D02*
X170234438Y-147492285D01*
X170234438Y-147492285D02*
X170282057Y-147539904D01*
X170282057Y-147539904D02*
X170424914Y-147635142D01*
X170424914Y-147635142D02*
X170615390Y-147682761D01*
X170615390Y-147682761D02*
X170996342Y-147682761D01*
X170996342Y-147682761D02*
X171091580Y-147635142D01*
X171091580Y-147635142D02*
X171139200Y-147587523D01*
X171139200Y-147587523D02*
X171186819Y-147492285D01*
X171186819Y-147492285D02*
X171186819Y-147301809D01*
X171186819Y-147301809D02*
X171139200Y-147206571D01*
X171139200Y-147206571D02*
X171091580Y-147158952D01*
X171091580Y-147158952D02*
X170996342Y-147111333D01*
X170996342Y-147111333D02*
X170758247Y-147111333D01*
X170758247Y-147111333D02*
X170663009Y-147158952D01*
X170663009Y-147158952D02*
X170615390Y-147206571D01*
X170615390Y-147206571D02*
X170567771Y-147301809D01*
X170567771Y-147301809D02*
X170567771Y-147492285D01*
X170567771Y-147492285D02*
X170615390Y-147587523D01*
X170615390Y-147587523D02*
X170663009Y-147635142D01*
X170663009Y-147635142D02*
X170758247Y-147682761D01*
X194333333Y-149359580D02*
X194285714Y-149407200D01*
X194285714Y-149407200D02*
X194142857Y-149454819D01*
X194142857Y-149454819D02*
X194047619Y-149454819D01*
X194047619Y-149454819D02*
X193904762Y-149407200D01*
X193904762Y-149407200D02*
X193809524Y-149311961D01*
X193809524Y-149311961D02*
X193761905Y-149216723D01*
X193761905Y-149216723D02*
X193714286Y-149026247D01*
X193714286Y-149026247D02*
X193714286Y-148883390D01*
X193714286Y-148883390D02*
X193761905Y-148692914D01*
X193761905Y-148692914D02*
X193809524Y-148597676D01*
X193809524Y-148597676D02*
X193904762Y-148502438D01*
X193904762Y-148502438D02*
X194047619Y-148454819D01*
X194047619Y-148454819D02*
X194142857Y-148454819D01*
X194142857Y-148454819D02*
X194285714Y-148502438D01*
X194285714Y-148502438D02*
X194333333Y-148550057D01*
X195285714Y-149454819D02*
X194714286Y-149454819D01*
X195000000Y-149454819D02*
X195000000Y-148454819D01*
X195000000Y-148454819D02*
X194904762Y-148597676D01*
X194904762Y-148597676D02*
X194809524Y-148692914D01*
X194809524Y-148692914D02*
X194714286Y-148740533D01*
X162657333Y-140324819D02*
X162324000Y-139848628D01*
X162085905Y-140324819D02*
X162085905Y-139324819D01*
X162085905Y-139324819D02*
X162466857Y-139324819D01*
X162466857Y-139324819D02*
X162562095Y-139372438D01*
X162562095Y-139372438D02*
X162609714Y-139420057D01*
X162609714Y-139420057D02*
X162657333Y-139515295D01*
X162657333Y-139515295D02*
X162657333Y-139658152D01*
X162657333Y-139658152D02*
X162609714Y-139753390D01*
X162609714Y-139753390D02*
X162562095Y-139801009D01*
X162562095Y-139801009D02*
X162466857Y-139848628D01*
X162466857Y-139848628D02*
X162085905Y-139848628D01*
X162990667Y-139324819D02*
X163609714Y-139324819D01*
X163609714Y-139324819D02*
X163276381Y-139705771D01*
X163276381Y-139705771D02*
X163419238Y-139705771D01*
X163419238Y-139705771D02*
X163514476Y-139753390D01*
X163514476Y-139753390D02*
X163562095Y-139801009D01*
X163562095Y-139801009D02*
X163609714Y-139896247D01*
X163609714Y-139896247D02*
X163609714Y-140134342D01*
X163609714Y-140134342D02*
X163562095Y-140229580D01*
X163562095Y-140229580D02*
X163514476Y-140277200D01*
X163514476Y-140277200D02*
X163419238Y-140324819D01*
X163419238Y-140324819D02*
X163133524Y-140324819D01*
X163133524Y-140324819D02*
X163038286Y-140277200D01*
X163038286Y-140277200D02*
X162990667Y-140229580D01*
X145716666Y-137660819D02*
X145716666Y-138375104D01*
X145716666Y-138375104D02*
X145669047Y-138517961D01*
X145669047Y-138517961D02*
X145573809Y-138613200D01*
X145573809Y-138613200D02*
X145430952Y-138660819D01*
X145430952Y-138660819D02*
X145335714Y-138660819D01*
X146335714Y-138089390D02*
X146240476Y-138041771D01*
X146240476Y-138041771D02*
X146192857Y-137994152D01*
X146192857Y-137994152D02*
X146145238Y-137898914D01*
X146145238Y-137898914D02*
X146145238Y-137851295D01*
X146145238Y-137851295D02*
X146192857Y-137756057D01*
X146192857Y-137756057D02*
X146240476Y-137708438D01*
X146240476Y-137708438D02*
X146335714Y-137660819D01*
X146335714Y-137660819D02*
X146526190Y-137660819D01*
X146526190Y-137660819D02*
X146621428Y-137708438D01*
X146621428Y-137708438D02*
X146669047Y-137756057D01*
X146669047Y-137756057D02*
X146716666Y-137851295D01*
X146716666Y-137851295D02*
X146716666Y-137898914D01*
X146716666Y-137898914D02*
X146669047Y-137994152D01*
X146669047Y-137994152D02*
X146621428Y-138041771D01*
X146621428Y-138041771D02*
X146526190Y-138089390D01*
X146526190Y-138089390D02*
X146335714Y-138089390D01*
X146335714Y-138089390D02*
X146240476Y-138137009D01*
X146240476Y-138137009D02*
X146192857Y-138184628D01*
X146192857Y-138184628D02*
X146145238Y-138279866D01*
X146145238Y-138279866D02*
X146145238Y-138470342D01*
X146145238Y-138470342D02*
X146192857Y-138565580D01*
X146192857Y-138565580D02*
X146240476Y-138613200D01*
X146240476Y-138613200D02*
X146335714Y-138660819D01*
X146335714Y-138660819D02*
X146526190Y-138660819D01*
X146526190Y-138660819D02*
X146621428Y-138613200D01*
X146621428Y-138613200D02*
X146669047Y-138565580D01*
X146669047Y-138565580D02*
X146716666Y-138470342D01*
X146716666Y-138470342D02*
X146716666Y-138279866D01*
X146716666Y-138279866D02*
X146669047Y-138184628D01*
X146669047Y-138184628D02*
X146621428Y-138137009D01*
X146621428Y-138137009D02*
X146526190Y-138089390D01*
X121134819Y-98809523D02*
X121849104Y-98809523D01*
X121849104Y-98809523D02*
X121991961Y-98857142D01*
X121991961Y-98857142D02*
X122087200Y-98952380D01*
X122087200Y-98952380D02*
X122134819Y-99095237D01*
X122134819Y-99095237D02*
X122134819Y-99190475D01*
X122134819Y-97809523D02*
X122134819Y-98380951D01*
X122134819Y-98095237D02*
X121134819Y-98095237D01*
X121134819Y-98095237D02*
X121277676Y-98190475D01*
X121277676Y-98190475D02*
X121372914Y-98285713D01*
X121372914Y-98285713D02*
X121420533Y-98380951D01*
X121134819Y-97476189D02*
X121134819Y-96809523D01*
X121134819Y-96809523D02*
X122134819Y-97238094D01*
X176450666Y-128412819D02*
X176450666Y-129127104D01*
X176450666Y-129127104D02*
X176403047Y-129269961D01*
X176403047Y-129269961D02*
X176307809Y-129365200D01*
X176307809Y-129365200D02*
X176164952Y-129412819D01*
X176164952Y-129412819D02*
X176069714Y-129412819D01*
X176974476Y-129412819D02*
X177164952Y-129412819D01*
X177164952Y-129412819D02*
X177260190Y-129365200D01*
X177260190Y-129365200D02*
X177307809Y-129317580D01*
X177307809Y-129317580D02*
X177403047Y-129174723D01*
X177403047Y-129174723D02*
X177450666Y-128984247D01*
X177450666Y-128984247D02*
X177450666Y-128603295D01*
X177450666Y-128603295D02*
X177403047Y-128508057D01*
X177403047Y-128508057D02*
X177355428Y-128460438D01*
X177355428Y-128460438D02*
X177260190Y-128412819D01*
X177260190Y-128412819D02*
X177069714Y-128412819D01*
X177069714Y-128412819D02*
X176974476Y-128460438D01*
X176974476Y-128460438D02*
X176926857Y-128508057D01*
X176926857Y-128508057D02*
X176879238Y-128603295D01*
X176879238Y-128603295D02*
X176879238Y-128841390D01*
X176879238Y-128841390D02*
X176926857Y-128936628D01*
X176926857Y-128936628D02*
X176974476Y-128984247D01*
X176974476Y-128984247D02*
X177069714Y-129031866D01*
X177069714Y-129031866D02*
X177260190Y-129031866D01*
X177260190Y-129031866D02*
X177355428Y-128984247D01*
X177355428Y-128984247D02*
X177403047Y-128936628D01*
X177403047Y-128936628D02*
X177450666Y-128841390D01*
X197223819Y-88009523D02*
X197938104Y-88009523D01*
X197938104Y-88009523D02*
X198080961Y-88057142D01*
X198080961Y-88057142D02*
X198176200Y-88152380D01*
X198176200Y-88152380D02*
X198223819Y-88295237D01*
X198223819Y-88295237D02*
X198223819Y-88390475D01*
X198223819Y-87009523D02*
X198223819Y-87580951D01*
X198223819Y-87295237D02*
X197223819Y-87295237D01*
X197223819Y-87295237D02*
X197366676Y-87390475D01*
X197366676Y-87390475D02*
X197461914Y-87485713D01*
X197461914Y-87485713D02*
X197509533Y-87580951D01*
X198223819Y-86057142D02*
X198223819Y-86628570D01*
X198223819Y-86342856D02*
X197223819Y-86342856D01*
X197223819Y-86342856D02*
X197366676Y-86438094D01*
X197366676Y-86438094D02*
X197461914Y-86533332D01*
X197461914Y-86533332D02*
X197509533Y-86628570D01*
X185253333Y-109463819D02*
X184920000Y-108987628D01*
X184681905Y-109463819D02*
X184681905Y-108463819D01*
X184681905Y-108463819D02*
X185062857Y-108463819D01*
X185062857Y-108463819D02*
X185158095Y-108511438D01*
X185158095Y-108511438D02*
X185205714Y-108559057D01*
X185205714Y-108559057D02*
X185253333Y-108654295D01*
X185253333Y-108654295D02*
X185253333Y-108797152D01*
X185253333Y-108797152D02*
X185205714Y-108892390D01*
X185205714Y-108892390D02*
X185158095Y-108940009D01*
X185158095Y-108940009D02*
X185062857Y-108987628D01*
X185062857Y-108987628D02*
X184681905Y-108987628D01*
X185729524Y-109463819D02*
X185920000Y-109463819D01*
X185920000Y-109463819D02*
X186015238Y-109416200D01*
X186015238Y-109416200D02*
X186062857Y-109368580D01*
X186062857Y-109368580D02*
X186158095Y-109225723D01*
X186158095Y-109225723D02*
X186205714Y-109035247D01*
X186205714Y-109035247D02*
X186205714Y-108654295D01*
X186205714Y-108654295D02*
X186158095Y-108559057D01*
X186158095Y-108559057D02*
X186110476Y-108511438D01*
X186110476Y-108511438D02*
X186015238Y-108463819D01*
X186015238Y-108463819D02*
X185824762Y-108463819D01*
X185824762Y-108463819D02*
X185729524Y-108511438D01*
X185729524Y-108511438D02*
X185681905Y-108559057D01*
X185681905Y-108559057D02*
X185634286Y-108654295D01*
X185634286Y-108654295D02*
X185634286Y-108892390D01*
X185634286Y-108892390D02*
X185681905Y-108987628D01*
X185681905Y-108987628D02*
X185729524Y-109035247D01*
X185729524Y-109035247D02*
X185824762Y-109082866D01*
X185824762Y-109082866D02*
X186015238Y-109082866D01*
X186015238Y-109082866D02*
X186110476Y-109035247D01*
X186110476Y-109035247D02*
X186158095Y-108987628D01*
X186158095Y-108987628D02*
X186205714Y-108892390D01*
X175855333Y-74538819D02*
X175522000Y-74062628D01*
X175283905Y-74538819D02*
X175283905Y-73538819D01*
X175283905Y-73538819D02*
X175664857Y-73538819D01*
X175664857Y-73538819D02*
X175760095Y-73586438D01*
X175760095Y-73586438D02*
X175807714Y-73634057D01*
X175807714Y-73634057D02*
X175855333Y-73729295D01*
X175855333Y-73729295D02*
X175855333Y-73872152D01*
X175855333Y-73872152D02*
X175807714Y-73967390D01*
X175807714Y-73967390D02*
X175760095Y-74015009D01*
X175760095Y-74015009D02*
X175664857Y-74062628D01*
X175664857Y-74062628D02*
X175283905Y-74062628D01*
X176236286Y-73634057D02*
X176283905Y-73586438D01*
X176283905Y-73586438D02*
X176379143Y-73538819D01*
X176379143Y-73538819D02*
X176617238Y-73538819D01*
X176617238Y-73538819D02*
X176712476Y-73586438D01*
X176712476Y-73586438D02*
X176760095Y-73634057D01*
X176760095Y-73634057D02*
X176807714Y-73729295D01*
X176807714Y-73729295D02*
X176807714Y-73824533D01*
X176807714Y-73824533D02*
X176760095Y-73967390D01*
X176760095Y-73967390D02*
X176188667Y-74538819D01*
X176188667Y-74538819D02*
X176807714Y-74538819D01*
D11*
%TO.C,J3*%
X190420000Y-96440000D02*
X190420000Y-104120000D01*
X190420000Y-96440000D02*
X193080000Y-96440000D01*
X190420000Y-104120000D02*
X193080000Y-104120000D01*
X191750000Y-93840000D02*
X193080000Y-93840000D01*
X193080000Y-93840000D02*
X193080000Y-95170000D01*
X193080000Y-96440000D02*
X193080000Y-104120000D01*
%TO.C,R16*%
X136330000Y-124230000D02*
X142870000Y-124230000D01*
X136330000Y-124560000D02*
X136330000Y-124230000D01*
X136330000Y-126640000D02*
X136330000Y-126970000D01*
X136330000Y-126970000D02*
X142870000Y-126970000D01*
X142870000Y-124230000D02*
X142870000Y-124560000D01*
X142870000Y-126970000D02*
X142870000Y-126640000D01*
%TO.C,R13*%
X189520000Y-80630000D02*
X189520000Y-80960000D01*
X189520000Y-83370000D02*
X189520000Y-83040000D01*
X196060000Y-80630000D02*
X189520000Y-80630000D01*
X196060000Y-80960000D02*
X196060000Y-80630000D01*
X196060000Y-83040000D02*
X196060000Y-83370000D01*
X196060000Y-83370000D02*
X189520000Y-83370000D01*
%TO.C,R12*%
X136420000Y-92130000D02*
X136420000Y-92460000D01*
X136420000Y-94870000D02*
X136420000Y-94540000D01*
X142960000Y-92130000D02*
X136420000Y-92130000D01*
X142960000Y-92460000D02*
X142960000Y-92130000D01*
X142960000Y-94540000D02*
X142960000Y-94870000D01*
X142960000Y-94870000D02*
X136420000Y-94870000D01*
%TO.C,C2*%
X186340000Y-119160000D02*
X191580000Y-119160000D01*
X186340000Y-119497000D02*
X186340000Y-119160000D01*
X186340000Y-121900000D02*
X186340000Y-121563000D01*
X191580000Y-119160000D02*
X191580000Y-119497000D01*
X191580000Y-121563000D02*
X191580000Y-121900000D01*
X191580000Y-121900000D02*
X186340000Y-121900000D01*
%TO.C,R6*%
X184730000Y-105310000D02*
X191270000Y-105310000D01*
X184730000Y-105640000D02*
X184730000Y-105310000D01*
X184730000Y-107720000D02*
X184730000Y-108050000D01*
X184730000Y-108050000D02*
X191270000Y-108050000D01*
X191270000Y-105310000D02*
X191270000Y-105640000D01*
X191270000Y-108050000D02*
X191270000Y-107720000D01*
%TO.C,R14*%
X189120000Y-76030000D02*
X189120000Y-76360000D01*
X189120000Y-78770000D02*
X189120000Y-78440000D01*
X195660000Y-76030000D02*
X189120000Y-76030000D01*
X195660000Y-76360000D02*
X195660000Y-76030000D01*
X195660000Y-78440000D02*
X195660000Y-78770000D01*
X195660000Y-78770000D02*
X189120000Y-78770000D01*
%TO.C,R11*%
X172264000Y-133200000D02*
X178804000Y-133200000D01*
X172264000Y-133530000D02*
X172264000Y-133200000D01*
X172264000Y-135610000D02*
X172264000Y-135940000D01*
X172264000Y-135940000D02*
X178804000Y-135940000D01*
X178804000Y-133200000D02*
X178804000Y-133530000D01*
X178804000Y-135940000D02*
X178804000Y-135610000D01*
%TO.C,J12*%
X198680000Y-107380000D02*
X208720000Y-107380000D01*
X198680000Y-122620000D02*
X198680000Y-107380000D01*
X201700000Y-122620000D02*
X201700000Y-107380000D01*
X206600000Y-122620000D02*
X206600000Y-107380000D01*
X208100000Y-122620000D02*
X208100000Y-107380000D01*
X208720000Y-107380000D02*
X208720000Y-119700000D01*
X208720000Y-120300000D02*
X208720000Y-122620000D01*
X208720000Y-122620000D02*
X198680000Y-122620000D01*
X209330000Y-120440000D02*
X208720000Y-120000000D01*
X209330000Y-119560000D01*
X209330000Y-120440000D01*
G36*
X209330000Y-120440000D02*
G01*
X208720000Y-120000000D01*
X209330000Y-119560000D01*
X209330000Y-120440000D01*
G37*
%TO.C,R15*%
X138930000Y-129030000D02*
X145470000Y-129030000D01*
X138930000Y-129360000D02*
X138930000Y-129030000D01*
X138930000Y-131440000D02*
X138930000Y-131770000D01*
X138930000Y-131770000D02*
X145470000Y-131770000D01*
X145470000Y-129030000D02*
X145470000Y-129360000D01*
X145470000Y-131770000D02*
X145470000Y-131440000D01*
%TO.C,J2*%
X166564000Y-69028000D02*
X167894000Y-69028000D01*
X166564000Y-70358000D02*
X166564000Y-69028000D01*
X169164000Y-69028000D02*
X176844000Y-69028000D01*
X169164000Y-71688000D02*
X169164000Y-69028000D01*
X169164000Y-71688000D02*
X176844000Y-71688000D01*
X176844000Y-71688000D02*
X176844000Y-69028000D01*
%TO.C,J19*%
X198769000Y-95932000D02*
X208809000Y-95932000D01*
X198769000Y-106172000D02*
X198769000Y-95932000D01*
X201789000Y-106172000D02*
X201789000Y-95932000D01*
X206689000Y-106172000D02*
X206689000Y-95932000D01*
X208189000Y-106172000D02*
X208189000Y-95932000D01*
X208809000Y-95932000D02*
X208809000Y-103252000D01*
X208809000Y-103852000D02*
X208809000Y-106172000D01*
X208809000Y-106172000D02*
X198769000Y-106172000D01*
X209419000Y-103992000D02*
X208809000Y-103552000D01*
X209419000Y-103112000D01*
X209419000Y-103992000D01*
G36*
X209419000Y-103992000D02*
G01*
X208809000Y-103552000D01*
X209419000Y-103112000D01*
X209419000Y-103992000D01*
G37*
%TO.C,R8*%
X178594000Y-81434000D02*
X178594000Y-81764000D01*
X178594000Y-84174000D02*
X178594000Y-83844000D01*
X185134000Y-81434000D02*
X178594000Y-81434000D01*
X185134000Y-81764000D02*
X185134000Y-81434000D01*
X185134000Y-83844000D02*
X185134000Y-84174000D01*
X185134000Y-84174000D02*
X178594000Y-84174000D01*
%TO.C,J7*%
X122945000Y-83970000D02*
X122945000Y-91650000D01*
X122945000Y-83970000D02*
X125605000Y-83970000D01*
X122945000Y-91650000D02*
X125605000Y-91650000D01*
X124275000Y-81370000D02*
X125605000Y-81370000D01*
X125605000Y-81370000D02*
X125605000Y-82700000D01*
X125605000Y-83970000D02*
X125605000Y-91650000D01*
%TO.C,J13*%
X137100000Y-70044000D02*
X138430000Y-70044000D01*
X137100000Y-71374000D02*
X137100000Y-70044000D01*
X139700000Y-70044000D02*
X144840000Y-70044000D01*
X139700000Y-72704000D02*
X139700000Y-70044000D01*
X139700000Y-72704000D02*
X144840000Y-72704000D01*
X144840000Y-72704000D02*
X144840000Y-70044000D01*
%TO.C,R5*%
X136420000Y-86880000D02*
X136420000Y-87210000D01*
X136420000Y-89620000D02*
X136420000Y-89290000D01*
X142960000Y-86880000D02*
X136420000Y-86880000D01*
X142960000Y-87210000D02*
X142960000Y-86880000D01*
X142960000Y-89290000D02*
X142960000Y-89620000D01*
X142960000Y-89620000D02*
X136420000Y-89620000D01*
%TO.C,R1*%
X148876000Y-75338000D02*
X155416000Y-75338000D01*
X148876000Y-75668000D02*
X148876000Y-75338000D01*
X148876000Y-77748000D02*
X148876000Y-78078000D01*
X148876000Y-78078000D02*
X155416000Y-78078000D01*
X155416000Y-75338000D02*
X155416000Y-75668000D01*
X155416000Y-78078000D02*
X155416000Y-77748000D01*
%TO.C,R4*%
X171492000Y-139575000D02*
X178032000Y-139575000D01*
X171492000Y-139905000D02*
X171492000Y-139575000D01*
X171492000Y-141985000D02*
X171492000Y-142315000D01*
X171492000Y-142315000D02*
X178032000Y-142315000D01*
X178032000Y-139575000D02*
X178032000Y-139905000D01*
X178032000Y-142315000D02*
X178032000Y-141985000D01*
%TO.C,J4*%
X158700000Y-146473000D02*
X160030000Y-146473000D01*
X158700000Y-147803000D02*
X158700000Y-146473000D01*
X161300000Y-146473000D02*
X168980000Y-146473000D01*
X161300000Y-149133000D02*
X161300000Y-146473000D01*
X161300000Y-149133000D02*
X168980000Y-149133000D01*
X168980000Y-149133000D02*
X168980000Y-146473000D01*
%TO.C,R7*%
X142018000Y-80926000D02*
X148558000Y-80926000D01*
X142018000Y-81256000D02*
X142018000Y-80926000D01*
X142018000Y-83336000D02*
X142018000Y-83666000D01*
X142018000Y-83666000D02*
X148558000Y-83666000D01*
X148558000Y-80926000D02*
X148558000Y-81256000D01*
X148558000Y-83666000D02*
X148558000Y-83336000D01*
%TO.C,J18*%
X198680000Y-123780000D02*
X208720000Y-123780000D01*
X198680000Y-139020000D02*
X198680000Y-123780000D01*
X201700000Y-139020000D02*
X201700000Y-123780000D01*
X206600000Y-139020000D02*
X206600000Y-123780000D01*
X208100000Y-139020000D02*
X208100000Y-123780000D01*
X208720000Y-123780000D02*
X208720000Y-136100000D01*
X208720000Y-136700000D02*
X208720000Y-139020000D01*
X208720000Y-139020000D02*
X198680000Y-139020000D01*
X209330000Y-136840000D02*
X208720000Y-136400000D01*
X209330000Y-135960000D01*
X209330000Y-136840000D01*
G36*
X209330000Y-136840000D02*
G01*
X208720000Y-136400000D01*
X209330000Y-135960000D01*
X209330000Y-136840000D01*
G37*
%TO.C,J10*%
X130145000Y-138770000D02*
X130145000Y-120930000D01*
X130145000Y-141370000D02*
X130145000Y-140040000D01*
X131475000Y-141370000D02*
X130145000Y-141370000D01*
X132805000Y-120930000D02*
X130145000Y-120930000D01*
X132805000Y-138770000D02*
X130145000Y-138770000D01*
X132805000Y-138770000D02*
X132805000Y-120930000D01*
%TO.C,J14*%
X160976000Y-78401000D02*
X162306000Y-78401000D01*
X160976000Y-79731000D02*
X160976000Y-78401000D01*
X163576000Y-78401000D02*
X168716000Y-78401000D01*
X163576000Y-81061000D02*
X163576000Y-78401000D01*
X163576000Y-81061000D02*
X168716000Y-81061000D01*
X168716000Y-81061000D02*
X168716000Y-78401000D01*
%TO.C,R10*%
X160072000Y-133200000D02*
X166612000Y-133200000D01*
X160072000Y-133530000D02*
X160072000Y-133200000D01*
X160072000Y-135610000D02*
X160072000Y-135940000D01*
X160072000Y-135940000D02*
X166612000Y-135940000D01*
X166612000Y-133200000D02*
X166612000Y-133530000D01*
X166612000Y-135940000D02*
X166612000Y-135610000D01*
%TO.C,J16*%
X122707500Y-104130000D02*
X132747500Y-104130000D01*
X122707500Y-106450000D02*
X122707500Y-104130000D01*
X122707500Y-119370000D02*
X122707500Y-107050000D01*
X123327500Y-104130000D02*
X123327500Y-119370000D01*
X124827500Y-104130000D02*
X124827500Y-119370000D01*
X129727500Y-104130000D02*
X129727500Y-119370000D01*
X132747500Y-104130000D02*
X132747500Y-119370000D01*
X132747500Y-119370000D02*
X122707500Y-119370000D01*
X122707500Y-106750000D02*
X122097500Y-107190000D01*
X122097500Y-106310000D01*
X122707500Y-106750000D01*
G36*
X122707500Y-106750000D02*
G01*
X122097500Y-107190000D01*
X122097500Y-106310000D01*
X122707500Y-106750000D01*
G37*
%TO.C,J5*%
X149546000Y-91948000D02*
X149546000Y-127568000D01*
X149546000Y-91948000D02*
X152206000Y-91948000D01*
X149546000Y-127568000D02*
X152206000Y-127568000D01*
X150876000Y-89348000D02*
X152206000Y-89348000D01*
X152206000Y-89348000D02*
X152206000Y-90678000D01*
X152206000Y-91948000D02*
X152206000Y-127568000D01*
%TO.C,J1*%
X153102000Y-69028000D02*
X154432000Y-69028000D01*
X153102000Y-70358000D02*
X153102000Y-69028000D01*
X155702000Y-69028000D02*
X163382000Y-69028000D01*
X155702000Y-71688000D02*
X155702000Y-69028000D01*
X155702000Y-71688000D02*
X163382000Y-71688000D01*
X163382000Y-71688000D02*
X163382000Y-69028000D01*
%TO.C,J15*%
X184852000Y-70298000D02*
X186182000Y-70298000D01*
X184852000Y-71628000D02*
X184852000Y-70298000D01*
X187452000Y-70298000D02*
X192592000Y-70298000D01*
X187452000Y-72958000D02*
X187452000Y-70298000D01*
X187452000Y-72958000D02*
X192592000Y-72958000D01*
X192592000Y-72958000D02*
X192592000Y-70298000D01*
%TO.C,J6*%
X172172000Y-146448000D02*
X173502000Y-146448000D01*
X172172000Y-147778000D02*
X172172000Y-146448000D01*
X174772000Y-146448000D02*
X182452000Y-146448000D01*
X174772000Y-149108000D02*
X174772000Y-146448000D01*
X174772000Y-149108000D02*
X182452000Y-149108000D01*
X182452000Y-149108000D02*
X182452000Y-146448000D01*
%TO.C,C1*%
X190420000Y-144283000D02*
X190420000Y-143217000D01*
X190460000Y-144518000D02*
X190460000Y-142982000D01*
X190500000Y-144697000D02*
X190500000Y-142803000D01*
X190540000Y-144847000D02*
X190540000Y-142653000D01*
X190580000Y-144978000D02*
X190580000Y-142522000D01*
X190620000Y-145096000D02*
X190620000Y-142404000D01*
X190660000Y-145203000D02*
X190660000Y-142297000D01*
X190700000Y-145302000D02*
X190700000Y-142198000D01*
X190740000Y-145394000D02*
X190740000Y-142106000D01*
X190780000Y-145481000D02*
X190780000Y-142019000D01*
X190820000Y-145563000D02*
X190820000Y-141937000D01*
X190860000Y-145640000D02*
X190860000Y-141860000D01*
X190900000Y-145714000D02*
X190900000Y-141786000D01*
X190940000Y-145784000D02*
X190940000Y-141716000D01*
X190980000Y-145851000D02*
X190980000Y-141649000D01*
X191020000Y-145915000D02*
X191020000Y-141585000D01*
X191060000Y-145977000D02*
X191060000Y-141523000D01*
X191100000Y-146037000D02*
X191100000Y-141463000D01*
X191140000Y-146094000D02*
X191140000Y-141406000D01*
X191180000Y-146150000D02*
X191180000Y-141350000D01*
X191220000Y-146203000D02*
X191220000Y-141297000D01*
X191260000Y-146255000D02*
X191260000Y-141245000D01*
X191300000Y-146305000D02*
X191300000Y-141195000D01*
X191340000Y-146354000D02*
X191340000Y-141146000D01*
X191380000Y-146401000D02*
X191380000Y-141099000D01*
X191420000Y-146446000D02*
X191420000Y-141054000D01*
X191460000Y-146491000D02*
X191460000Y-141009000D01*
X191500000Y-146534000D02*
X191500000Y-140966000D01*
X191540000Y-146576000D02*
X191540000Y-140924000D01*
X191580000Y-146617000D02*
X191580000Y-140883000D01*
X191620000Y-146656000D02*
X191620000Y-140844000D01*
X191660000Y-146695000D02*
X191660000Y-140805000D01*
X191700000Y-146732000D02*
X191700000Y-140768000D01*
X191740000Y-142710000D02*
X191740000Y-140731000D01*
X191740000Y-146769000D02*
X191740000Y-144790000D01*
X191780000Y-142710000D02*
X191780000Y-140695000D01*
X191780000Y-146805000D02*
X191780000Y-144790000D01*
X191820000Y-142710000D02*
X191820000Y-140661000D01*
X191820000Y-146839000D02*
X191820000Y-144790000D01*
X191860000Y-142710000D02*
X191860000Y-140627000D01*
X191860000Y-146873000D02*
X191860000Y-144790000D01*
X191900000Y-142710000D02*
X191900000Y-140594000D01*
X191900000Y-146906000D02*
X191900000Y-144790000D01*
X191940000Y-142710000D02*
X191940000Y-140562000D01*
X191940000Y-146938000D02*
X191940000Y-144790000D01*
X191980000Y-142710000D02*
X191980000Y-140531000D01*
X191980000Y-146969000D02*
X191980000Y-144790000D01*
X192020000Y-142710000D02*
X192020000Y-140500000D01*
X192020000Y-147000000D02*
X192020000Y-144790000D01*
X192060000Y-142710000D02*
X192060000Y-140470000D01*
X192060000Y-147030000D02*
X192060000Y-144790000D01*
X192100000Y-142710000D02*
X192100000Y-140441000D01*
X192100000Y-147059000D02*
X192100000Y-144790000D01*
X192140000Y-142710000D02*
X192140000Y-140413000D01*
X192140000Y-147087000D02*
X192140000Y-144790000D01*
X192180000Y-142710000D02*
X192180000Y-140385000D01*
X192180000Y-147115000D02*
X192180000Y-144790000D01*
X192220000Y-142710000D02*
X192220000Y-140358000D01*
X192220000Y-147142000D02*
X192220000Y-144790000D01*
X192260000Y-142710000D02*
X192260000Y-140332000D01*
X192260000Y-147168000D02*
X192260000Y-144790000D01*
X192300000Y-142710000D02*
X192300000Y-140307000D01*
X192300000Y-147193000D02*
X192300000Y-144790000D01*
X192340000Y-142710000D02*
X192340000Y-140282000D01*
X192340000Y-147218000D02*
X192340000Y-144790000D01*
X192380000Y-142710000D02*
X192380000Y-140257000D01*
X192380000Y-147243000D02*
X192380000Y-144790000D01*
X192420000Y-142710000D02*
X192420000Y-140234000D01*
X192420000Y-147266000D02*
X192420000Y-144790000D01*
X192460000Y-142710000D02*
X192460000Y-140211000D01*
X192460000Y-147289000D02*
X192460000Y-144790000D01*
X192500000Y-142710000D02*
X192500000Y-140188000D01*
X192500000Y-147312000D02*
X192500000Y-144790000D01*
X192540000Y-142710000D02*
X192540000Y-140166000D01*
X192540000Y-147334000D02*
X192540000Y-144790000D01*
X192580000Y-142710000D02*
X192580000Y-140145000D01*
X192580000Y-147355000D02*
X192580000Y-144790000D01*
X192620000Y-142710000D02*
X192620000Y-140124000D01*
X192620000Y-147376000D02*
X192620000Y-144790000D01*
X192660000Y-142710000D02*
X192660000Y-140104000D01*
X192660000Y-147396000D02*
X192660000Y-144790000D01*
X192700000Y-142710000D02*
X192700000Y-140084000D01*
X192700000Y-147416000D02*
X192700000Y-144790000D01*
X192740000Y-142710000D02*
X192740000Y-140065000D01*
X192740000Y-147435000D02*
X192740000Y-144790000D01*
X192780000Y-142710000D02*
X192780000Y-140046000D01*
X192780000Y-147454000D02*
X192780000Y-144790000D01*
X192820000Y-142710000D02*
X192820000Y-140028000D01*
X192820000Y-147472000D02*
X192820000Y-144790000D01*
X192860000Y-142710000D02*
X192860000Y-140010000D01*
X192860000Y-147490000D02*
X192860000Y-144790000D01*
X192900000Y-142710000D02*
X192900000Y-139993000D01*
X192900000Y-147507000D02*
X192900000Y-144790000D01*
X192940000Y-142710000D02*
X192940000Y-139977000D01*
X192940000Y-147523000D02*
X192940000Y-144790000D01*
X192980000Y-142710000D02*
X192980000Y-139961000D01*
X192980000Y-147539000D02*
X192980000Y-144790000D01*
X193020000Y-142710000D02*
X193020000Y-139945000D01*
X193020000Y-147555000D02*
X193020000Y-144790000D01*
X193060000Y-142710000D02*
X193060000Y-139930000D01*
X193060000Y-147570000D02*
X193060000Y-144790000D01*
X193100000Y-142710000D02*
X193100000Y-139915000D01*
X193100000Y-147585000D02*
X193100000Y-144790000D01*
X193140000Y-142710000D02*
X193140000Y-139901000D01*
X193140000Y-147599000D02*
X193140000Y-144790000D01*
X193180000Y-142710000D02*
X193180000Y-139887000D01*
X193180000Y-147613000D02*
X193180000Y-144790000D01*
X193220000Y-142710000D02*
X193220000Y-139874000D01*
X193220000Y-147626000D02*
X193220000Y-144790000D01*
X193260000Y-142710000D02*
X193260000Y-139861000D01*
X193260000Y-147639000D02*
X193260000Y-144790000D01*
X193300000Y-142710000D02*
X193300000Y-139849000D01*
X193300000Y-147651000D02*
X193300000Y-144790000D01*
X193340000Y-142710000D02*
X193340000Y-139837000D01*
X193340000Y-147663000D02*
X193340000Y-144790000D01*
X193380000Y-142710000D02*
X193380000Y-139825000D01*
X193380000Y-147675000D02*
X193380000Y-144790000D01*
X193420000Y-142710000D02*
X193420000Y-139814000D01*
X193420000Y-147686000D02*
X193420000Y-144790000D01*
X193460000Y-142710000D02*
X193460000Y-139803000D01*
X193460000Y-147697000D02*
X193460000Y-144790000D01*
X193500000Y-142710000D02*
X193500000Y-139793000D01*
X193500000Y-147707000D02*
X193500000Y-144790000D01*
X193540000Y-142710000D02*
X193540000Y-139783000D01*
X193540000Y-147717000D02*
X193540000Y-144790000D01*
X193580000Y-142710000D02*
X193580000Y-139774000D01*
X193580000Y-147726000D02*
X193580000Y-144790000D01*
X193620000Y-142710000D02*
X193620000Y-139765000D01*
X193620000Y-147735000D02*
X193620000Y-144790000D01*
X193660000Y-142710000D02*
X193660000Y-139757000D01*
X193660000Y-147743000D02*
X193660000Y-144790000D01*
X193700000Y-142710000D02*
X193700000Y-139748000D01*
X193700000Y-147752000D02*
X193700000Y-144790000D01*
X193740000Y-142710000D02*
X193740000Y-139741000D01*
X193740000Y-147759000D02*
X193740000Y-144790000D01*
X193780000Y-142710000D02*
X193780000Y-139733000D01*
X193780000Y-147767000D02*
X193780000Y-144790000D01*
X193820000Y-147773000D02*
X193820000Y-139727000D01*
X193860000Y-147780000D02*
X193860000Y-139720000D01*
X193900000Y-147786000D02*
X193900000Y-139714000D01*
X193940000Y-147792000D02*
X193940000Y-139708000D01*
X193980000Y-147797000D02*
X193980000Y-139703000D01*
X194020000Y-147802000D02*
X194020000Y-139698000D01*
X194060000Y-147806000D02*
X194060000Y-139694000D01*
X194100000Y-147811000D02*
X194100000Y-139689000D01*
X194140000Y-147814000D02*
X194140000Y-139686000D01*
X194180000Y-147818000D02*
X194180000Y-139682000D01*
X194220000Y-147820000D02*
X194220000Y-139680000D01*
X194260000Y-147823000D02*
X194260000Y-139677000D01*
X194300000Y-147825000D02*
X194300000Y-139675000D01*
X194340000Y-147827000D02*
X194340000Y-139673000D01*
X194380000Y-147828000D02*
X194380000Y-139672000D01*
X194420000Y-147829000D02*
X194420000Y-139671000D01*
X194460000Y-147830000D02*
X194460000Y-139670000D01*
X194500000Y-147830000D02*
X194500000Y-139670000D01*
X198509698Y-146465000D02*
X198509698Y-145665000D01*
X198909698Y-146065000D02*
X198109698Y-146065000D01*
X198620000Y-143750000D02*
G75*
G02*
X190380000Y-143750000I-4120000J0D01*
G01*
X190380000Y-143750000D02*
G75*
G02*
X198620000Y-143750000I4120000J0D01*
G01*
%TO.C,R3*%
X159554000Y-140870000D02*
X166094000Y-140870000D01*
X159554000Y-141200000D02*
X159554000Y-140870000D01*
X159554000Y-143280000D02*
X159554000Y-143610000D01*
X159554000Y-143610000D02*
X166094000Y-143610000D01*
X166094000Y-140870000D02*
X166094000Y-141200000D01*
X166094000Y-143610000D02*
X166094000Y-143280000D01*
%TO.C,J8*%
X135930000Y-139206000D02*
X156170000Y-139206000D01*
X135930000Y-142226000D02*
X156170000Y-142226000D01*
X135930000Y-147126000D02*
X156170000Y-147126000D01*
X135930000Y-148626000D02*
X156170000Y-148626000D01*
X135930000Y-149246000D02*
X135930000Y-139206000D01*
X138250000Y-149246000D02*
X135930000Y-149246000D01*
X156170000Y-139206000D02*
X156170000Y-149246000D01*
X156170000Y-149246000D02*
X138850000Y-149246000D01*
X138990000Y-149856000D02*
X138110000Y-149856000D01*
X138550000Y-149246000D01*
X138990000Y-149856000D01*
G36*
X138990000Y-149856000D02*
G01*
X138110000Y-149856000D01*
X138550000Y-149246000D01*
X138990000Y-149856000D01*
G37*
%TO.C,J17*%
X122680000Y-92880000D02*
X132720000Y-92880000D01*
X122680000Y-103120000D02*
X122680000Y-92880000D01*
X125700000Y-103120000D02*
X125700000Y-92880000D01*
X130600000Y-103120000D02*
X130600000Y-92880000D01*
X132100000Y-103120000D02*
X132100000Y-92880000D01*
X132720000Y-92880000D02*
X132720000Y-100200000D01*
X132720000Y-100800000D02*
X132720000Y-103120000D01*
X132720000Y-103120000D02*
X122680000Y-103120000D01*
X133330000Y-100940000D02*
X132720000Y-100500000D01*
X133330000Y-100060000D01*
X133330000Y-100940000D01*
G36*
X133330000Y-100940000D02*
G01*
X132720000Y-100500000D01*
X133330000Y-100060000D01*
X133330000Y-100940000D01*
G37*
%TO.C,J9*%
X175454000Y-124918000D02*
X175454000Y-89298000D01*
X175454000Y-127518000D02*
X175454000Y-126188000D01*
X176784000Y-127518000D02*
X175454000Y-127518000D01*
X178114000Y-89298000D02*
X175454000Y-89298000D01*
X178114000Y-124918000D02*
X175454000Y-124918000D01*
X178114000Y-124918000D02*
X178114000Y-89298000D01*
%TO.C,J11*%
X198769000Y-79580000D02*
X208809000Y-79580000D01*
X198769000Y-94820000D02*
X198769000Y-79580000D01*
X201789000Y-94820000D02*
X201789000Y-79580000D01*
X206689000Y-94820000D02*
X206689000Y-79580000D01*
X208189000Y-94820000D02*
X208189000Y-79580000D01*
X208809000Y-79580000D02*
X208809000Y-91900000D01*
X208809000Y-92500000D02*
X208809000Y-94820000D01*
X208809000Y-94820000D02*
X198769000Y-94820000D01*
X209419000Y-92640000D02*
X208809000Y-92200000D01*
X209419000Y-91760000D01*
X209419000Y-92640000D01*
G36*
X209419000Y-92640000D02*
G01*
X208809000Y-92200000D01*
X209419000Y-91760000D01*
X209419000Y-92640000D01*
G37*
%TO.C,R9*%
X182150000Y-110009000D02*
X188690000Y-110009000D01*
X182150000Y-110339000D02*
X182150000Y-110009000D01*
X182150000Y-112419000D02*
X182150000Y-112749000D01*
X182150000Y-112749000D02*
X188690000Y-112749000D01*
X188690000Y-110009000D02*
X188690000Y-110339000D01*
X188690000Y-112749000D02*
X188690000Y-112419000D01*
%TO.C,R2*%
X172752000Y-75084000D02*
X179292000Y-75084000D01*
X172752000Y-75414000D02*
X172752000Y-75084000D01*
X172752000Y-77494000D02*
X172752000Y-77824000D01*
X172752000Y-77824000D02*
X179292000Y-77824000D01*
X179292000Y-75084000D02*
X179292000Y-75414000D01*
X179292000Y-77824000D02*
X179292000Y-77494000D01*
%TD*%
M02*
