%TF.GenerationSoftware,KiCad,Pcbnew,9.0.6*%
%TF.CreationDate,2026-03-31T20:41:09+02:00*%
%TF.ProjectId,pcbMotori,7063624d-6f74-46f7-9269-2e6b69636164,rev?*%
%TF.SameCoordinates,Original*%
%TF.FileFunction,Copper,L3,Inr*%
%TF.FilePolarity,Positive*%
%FSLAX46Y46*%
G04 Gerber Fmt 4.6, Leading zero omitted, Abs format (unit mm)*
G04 Created by KiCad (PCBNEW 9.0.6) date 2026-03-31 20:41:09*
%MOMM*%
%LPD*%
G01*
G04 APERTURE LIST*
G04 Aperture macros list*
%AMRoundRect*
0 Rectangle with rounded corners*
0 $1 Rounding radius*
0 $2 $3 $4 $5 $6 $7 $8 $9 X,Y pos of 4 corners*
0 Add a 4 corners polygon primitive as box body*
4,1,4,$2,$3,$4,$5,$6,$7,$8,$9,$2,$3,0*
0 Add four circle primitives for the rounded corners*
1,1,$1+$1,$2,$3*
1,1,$1+$1,$4,$5*
1,1,$1+$1,$6,$7*
1,1,$1+$1,$8,$9*
0 Add four rect primitives between the rounded corners*
20,1,$1+$1,$2,$3,$4,$5,0*
20,1,$1+$1,$4,$5,$6,$7,0*
20,1,$1+$1,$6,$7,$8,$9,0*
20,1,$1+$1,$8,$9,$2,$3,0*%
G04 Aperture macros list end*
%TA.AperFunction,ComponentPad*%
%ADD10RoundRect,0.250000X-1.050000X1.050000X-1.050000X-1.050000X1.050000X-1.050000X1.050000X1.050000X0*%
%TD*%
%TA.AperFunction,ComponentPad*%
%ADD11C,2.600000*%
%TD*%
%TA.AperFunction,ComponentPad*%
%ADD12RoundRect,0.250000X-1.050000X-1.050000X1.050000X-1.050000X1.050000X1.050000X-1.050000X1.050000X0*%
%TD*%
%TA.AperFunction,ComponentPad*%
%ADD13R,1.700000X1.700000*%
%TD*%
%TA.AperFunction,ComponentPad*%
%ADD14C,1.700000*%
%TD*%
%TA.AperFunction,ComponentPad*%
%ADD15RoundRect,0.250000X1.050000X-1.050000X1.050000X1.050000X-1.050000X1.050000X-1.050000X-1.050000X0*%
%TD*%
%TA.AperFunction,ComponentPad*%
%ADD16C,1.600000*%
%TD*%
%TA.AperFunction,ComponentPad*%
%ADD17RoundRect,0.250000X0.550000X-0.550000X0.550000X0.550000X-0.550000X0.550000X-0.550000X-0.550000X0*%
%TD*%
%TA.AperFunction,ViaPad*%
%ADD18C,1.200000*%
%TD*%
%TA.AperFunction,ViaPad*%
%ADD19C,1.000000*%
%TD*%
%TA.AperFunction,ViaPad*%
%ADD20C,2.000000*%
%TD*%
%TA.AperFunction,Conductor*%
%ADD21C,0.500000*%
%TD*%
%TA.AperFunction,Conductor*%
%ADD22C,0.400000*%
%TD*%
G04 APERTURE END LIST*
D10*
%TO.N,/D15*%
%TO.C,J13*%
X191516000Y-106760000D03*
D11*
%TO.N,/D13*%
X191516000Y-111760000D03*
%TO.N,/Aout2*%
X191516000Y-116760000D03*
%TO.N,/Aout1*%
X191516000Y-121760000D03*
%TD*%
D12*
%TO.N,/5V*%
%TO.C,J12*%
X226180000Y-174416500D03*
D11*
%TO.N,GND*%
X231180000Y-174416500D03*
%TO.N,+12V*%
X236180000Y-174416500D03*
%TO.N,GND*%
X241180000Y-174416500D03*
%TD*%
D13*
%TO.N,GND*%
%TO.C,J4*%
X258318000Y-111760000D03*
D14*
%TO.N,/D33*%
X258318000Y-109220000D03*
%TO.N,/BIN2*%
X258318000Y-106680000D03*
%TO.N,/BIN1*%
X258318000Y-104140000D03*
%TO.N,/D14*%
X258318000Y-101600000D03*
%TO.N,/D26*%
X258318000Y-99060000D03*
%TO.N,/D27*%
X258318000Y-96520000D03*
%TO.N,/D25*%
X258318000Y-93980000D03*
%TD*%
D15*
%TO.N,/D32*%
%TO.C,J10*%
X270428500Y-154820000D03*
D11*
%TO.N,/D4*%
X270428500Y-149820000D03*
%TO.N,/BO2*%
X270428500Y-144820000D03*
%TO.N,/BO1*%
X270428500Y-139820000D03*
%TD*%
D13*
%TO.N,+12V*%
%TO.C,J2*%
X242824000Y-93980000D03*
D14*
%TO.N,/5V*%
X242824000Y-96520000D03*
%TO.N,GND*%
X242824000Y-99060000D03*
%TO.N,/Aout1*%
X242824000Y-101600000D03*
%TO.N,/Aout2*%
X242824000Y-104140000D03*
%TO.N,/Bout2*%
X242824000Y-106680000D03*
%TO.N,/Bout1*%
X242824000Y-109220000D03*
%TO.N,GND*%
X242824000Y-111760000D03*
%TD*%
D13*
%TO.N,+3.3V*%
%TO.C,J9*%
X236220000Y-137618000D03*
D14*
%TO.N,GND*%
X236220000Y-135078000D03*
%TO.N,/D15*%
X236220000Y-132538000D03*
%TO.N,/BIN2*%
X236220000Y-129998000D03*
%TO.N,/D4*%
X236220000Y-127458000D03*
%TO.N,/D16*%
X236220000Y-124918000D03*
%TO.N,/D17*%
X236220000Y-122378000D03*
%TO.N,/D5*%
X236220000Y-119838000D03*
%TO.N,/BIN2 (2)*%
X236220000Y-117298000D03*
%TO.N,/BIN1 (2)*%
X236220000Y-114758000D03*
%TO.N,/D21*%
X236220000Y-112218000D03*
%TO.N,unconnected-(J9-Pin_12-Pad12)*%
X236220000Y-109678000D03*
%TO.N,unconnected-(J9-Pin_13-Pad13)*%
X236220000Y-107138000D03*
%TO.N,/D22*%
X236220000Y-104598000D03*
%TO.N,/D23*%
X236220000Y-102058000D03*
%TD*%
D15*
%TO.N,GND*%
%TO.C,J3*%
X270428500Y-99528000D03*
D11*
%TO.N,+3.3V*%
X270428500Y-94528000D03*
%TD*%
D10*
%TO.N,/VN*%
%TO.C,J7*%
X191516000Y-139940000D03*
D11*
%TO.N,/VP*%
X191516000Y-144940000D03*
%TO.N,/AO2*%
X191516000Y-149940000D03*
%TO.N,/AO1*%
X191516000Y-154940000D03*
%TD*%
D16*
%TO.N,+12V*%
%TO.C,C2*%
X223012000Y-165060000D03*
%TO.N,GND*%
X223012000Y-160060000D03*
%TD*%
%TO.N,/BIN2*%
%TO.C,R2*%
X240538000Y-135128000D03*
%TO.N,GND*%
X248158000Y-135128000D03*
%TD*%
D13*
%TO.N,unconnected-(J5-Pin_1-Pad1)*%
%TO.C,J5*%
X210312000Y-102108000D03*
D14*
%TO.N,/VP*%
X210312000Y-104648000D03*
%TO.N,/VN*%
X210312000Y-107188000D03*
%TO.N,/D34*%
X210312000Y-109728000D03*
%TO.N,/D35*%
X210312000Y-112268000D03*
%TO.N,/D32*%
X210312000Y-114808000D03*
%TO.N,/D33*%
X210312000Y-117348000D03*
%TO.N,/D25*%
X210312000Y-119888000D03*
%TO.N,/D26*%
X210312000Y-122428000D03*
%TO.N,/D27*%
X210312000Y-124968000D03*
%TO.N,/D14*%
X210312000Y-127508000D03*
%TO.N,/BIN1*%
X210312000Y-130048000D03*
%TO.N,/D13*%
X210312000Y-132588000D03*
%TO.N,unconnected-(J5-Pin_14-Pad14)*%
X210312000Y-135128000D03*
%TO.N,/5V*%
X210312000Y-137668000D03*
%TD*%
D13*
%TO.N,/D21*%
%TO.C,J11*%
X273279000Y-133081000D03*
D14*
%TO.N,/D22*%
X273279000Y-130541000D03*
%TO.N,GND*%
X273279000Y-128001000D03*
%TD*%
D15*
%TO.N,/D35*%
%TO.C,J1*%
X270256000Y-121252000D03*
D11*
%TO.N,/D34*%
X270256000Y-116252000D03*
%TO.N,/Bout2*%
X270256000Y-111252000D03*
%TO.N,/Bout1*%
X270256000Y-106252000D03*
%TD*%
D10*
%TO.N,GND*%
%TO.C,J15*%
X191516000Y-161584000D03*
D11*
%TO.N,+3.3V*%
X191516000Y-166584000D03*
%TD*%
D13*
%TO.N,GND*%
%TO.C,J8*%
X259817000Y-160508000D03*
D14*
%TO.N,/D23*%
X259817000Y-157968000D03*
%TO.N,/BIN2 (2)*%
X259817000Y-155428000D03*
%TO.N,/BIN1 (2)*%
X259817000Y-152888000D03*
%TO.N,/D14*%
X259817000Y-150348000D03*
%TO.N,/D17*%
X259817000Y-147808000D03*
%TO.N,/D5*%
X259817000Y-145268000D03*
%TO.N,/D16*%
X259817000Y-142728000D03*
%TD*%
D15*
%TO.N,GND*%
%TO.C,J16*%
X270428500Y-166584000D03*
D11*
%TO.N,+3.3V*%
X270428500Y-161584000D03*
%TD*%
D16*
%TO.N,GND*%
%TO.C,R1*%
X192786000Y-131572000D03*
%TO.N,/BIN1*%
X200406000Y-131572000D03*
%TD*%
D13*
%TO.N,+12V*%
%TO.C,J6*%
X244348000Y-142748000D03*
D14*
%TO.N,/5V*%
X244348000Y-145288000D03*
%TO.N,GND*%
X244348000Y-147828000D03*
%TO.N,/AO1*%
X244348000Y-150368000D03*
%TO.N,/AO2*%
X244348000Y-152908000D03*
%TO.N,/BO2*%
X244348000Y-155448000D03*
%TO.N,/BO1*%
X244348000Y-157988000D03*
%TO.N,GND*%
X244348000Y-160528000D03*
%TD*%
D10*
%TO.N,GND*%
%TO.C,J14*%
X191343500Y-95036000D03*
D11*
%TO.N,+3.3V*%
X191343500Y-100036000D03*
%TD*%
D17*
%TO.N,+12V*%
%TO.C,C1*%
X231648000Y-165228651D03*
D16*
%TO.N,GND*%
X231648000Y-161728651D03*
%TD*%
D18*
%TO.N,+3.3V*%
X218948000Y-144238000D03*
%TO.N,/5V*%
X218440000Y-160020000D03*
X233172000Y-101807000D03*
D19*
%TO.N,/D26*%
X214376000Y-122428000D03*
%TO.N,/D33*%
X235204000Y-97028000D03*
%TO.N,/BIN2*%
X242316000Y-116947000D03*
%TO.N,/D23*%
X232664000Y-117348000D03*
%TO.N,/BIN2 (2)*%
X257556000Y-134620000D03*
%TO.N,/D17*%
X240792000Y-126492000D03*
%TO.N,/D35*%
X225552000Y-97360000D03*
%TO.N,/D34*%
X223012000Y-97028000D03*
%TO.N,/VN*%
X204724000Y-107188000D03*
%TO.N,/D32*%
X218948000Y-123444000D03*
D20*
%TO.N,/Bout2*%
X256032000Y-116840000D03*
%TD*%
D21*
%TO.N,/5V*%
X233172000Y-101807000D02*
X238459000Y-96520000D01*
X238459000Y-96520000D02*
X242824000Y-96520000D01*
D22*
%TO.N,/D14*%
X270764000Y-102616000D02*
X259334000Y-102616000D01*
X273304000Y-136144000D02*
X267716000Y-130556000D01*
X272796000Y-104648000D02*
X270764000Y-102616000D01*
X267716000Y-128524000D02*
X272796000Y-123444000D01*
X272796000Y-123444000D02*
X272796000Y-104648000D01*
X259817000Y-150348000D02*
X261869000Y-152400000D01*
X259334000Y-102616000D02*
X258318000Y-101600000D01*
X267716000Y-130556000D02*
X267716000Y-128524000D01*
X271907000Y-152400000D02*
X273304000Y-151003000D01*
X261869000Y-152400000D02*
X271907000Y-152400000D01*
X273304000Y-151003000D02*
X273304000Y-136144000D01*
%TO.N,/D26*%
X223335000Y-113469000D02*
X214376000Y-122428000D01*
X243909000Y-113469000D02*
X223335000Y-113469000D01*
X258318000Y-99060000D02*
X243909000Y-113469000D01*
%TO.N,/BIN1*%
X258318000Y-104140000D02*
X246411000Y-116047000D01*
X224313000Y-116047000D02*
X210312000Y-130048000D01*
X246411000Y-116047000D02*
X224313000Y-116047000D01*
%TO.N,/D27*%
X239698182Y-107969000D02*
X236738182Y-110929000D01*
X246869000Y-107969000D02*
X239698182Y-107969000D01*
X258318000Y-96520000D02*
X246869000Y-107969000D01*
X236738182Y-110929000D02*
X224351000Y-110929000D01*
X224351000Y-110929000D02*
X210312000Y-124968000D01*
%TO.N,/D33*%
X230632000Y-97028000D02*
X235204000Y-97028000D01*
X224028000Y-103632000D02*
X210312000Y-117348000D01*
X224028000Y-103632000D02*
X230632000Y-97028000D01*
%TO.N,/BIN2*%
X256032000Y-111760000D02*
X256032000Y-108966000D01*
X242316000Y-116947000D02*
X250845000Y-116947000D01*
X256032000Y-108966000D02*
X258318000Y-106680000D01*
X250845000Y-116947000D02*
X256032000Y-111760000D01*
%TO.N,/D25*%
X258318000Y-93980000D02*
X249447000Y-102851000D01*
X242276182Y-102851000D02*
X236738182Y-108389000D01*
X236738182Y-108389000D02*
X221811000Y-108389000D01*
X249447000Y-102851000D02*
X242276182Y-102851000D01*
X221811000Y-108389000D02*
X210312000Y-119888000D01*
%TO.N,/D23*%
X246380000Y-140208000D02*
X246380000Y-138388818D01*
X232664000Y-125671182D02*
X232664000Y-117348000D01*
X246380000Y-138388818D02*
X236738182Y-128747000D01*
X246380000Y-144322686D02*
X246380000Y-140208000D01*
X236738182Y-128747000D02*
X235739818Y-128747000D01*
X235739818Y-128747000D02*
X232664000Y-125671182D01*
X259817000Y-157968000D02*
X259817000Y-157759686D01*
X259817000Y-157759686D02*
X246380000Y-144322686D01*
%TO.N,/BIN2 (2)*%
X253542000Y-134620000D02*
X236220000Y-117298000D01*
X257556000Y-134620000D02*
X253542000Y-134620000D01*
%TO.N,/D17*%
X240792000Y-126492000D02*
X240334000Y-126492000D01*
X240334000Y-126492000D02*
X236220000Y-122378000D01*
%TO.N,/D35*%
X225552000Y-99568000D02*
X212852000Y-112268000D01*
X212852000Y-112268000D02*
X210312000Y-112268000D01*
X225552000Y-97360000D02*
X225552000Y-99568000D01*
%TO.N,/D34*%
X223012000Y-97028000D02*
X210312000Y-109728000D01*
%TO.N,/VN*%
X204724000Y-107188000D02*
X210312000Y-107188000D01*
%TO.N,/D32*%
X218948000Y-124197182D02*
X218948000Y-123444000D01*
X243829818Y-149079000D02*
X218948000Y-124197182D01*
X270428500Y-154820000D02*
X266029500Y-159219000D01*
X266029500Y-159219000D02*
X255006182Y-159219000D01*
X244866182Y-149079000D02*
X243829818Y-149079000D01*
X255006182Y-159219000D02*
X244866182Y-149079000D01*
%TO.N,/D4*%
X255829500Y-135221000D02*
X249949471Y-135221000D01*
X249949471Y-135221000D02*
X242186471Y-127458000D01*
X270428500Y-149820000D02*
X255829500Y-135221000D01*
X242186471Y-127458000D02*
X236220000Y-127458000D01*
%TO.N,/D13*%
X191516000Y-111760000D02*
X191516000Y-113792000D01*
X191516000Y-113792000D02*
X210312000Y-132588000D01*
%TD*%
%TA.AperFunction,NonConductor*%
G36*
X276552539Y-81340185D02*
G01*
X276598294Y-81392989D01*
X276609500Y-81444500D01*
X276609500Y-180195500D01*
X276589815Y-180262539D01*
X276537011Y-180308294D01*
X276485500Y-180319500D01*
X185389500Y-180319500D01*
X185322461Y-180299815D01*
X185276706Y-180247011D01*
X185265500Y-180195500D01*
X185265500Y-175138711D01*
X188649500Y-175138711D01*
X188649500Y-175381288D01*
X188681161Y-175621785D01*
X188743947Y-175856104D01*
X188836773Y-176080205D01*
X188836776Y-176080212D01*
X188958064Y-176290289D01*
X188958066Y-176290292D01*
X188958067Y-176290293D01*
X189105733Y-176482736D01*
X189105739Y-176482743D01*
X189277256Y-176654260D01*
X189277262Y-176654265D01*
X189469711Y-176801936D01*
X189679788Y-176923224D01*
X189903900Y-177016054D01*
X190138211Y-177078838D01*
X190318586Y-177102584D01*
X190378711Y-177110500D01*
X190378712Y-177110500D01*
X190621289Y-177110500D01*
X190669388Y-177104167D01*
X190861789Y-177078838D01*
X191096100Y-177016054D01*
X191320212Y-176923224D01*
X191530289Y-176801936D01*
X191722738Y-176654265D01*
X191894265Y-176482738D01*
X192041936Y-176290289D01*
X192163224Y-176080212D01*
X192256054Y-175856100D01*
X192318838Y-175621789D01*
X192350500Y-175381288D01*
X192350500Y-175138712D01*
X192318838Y-174898211D01*
X192256054Y-174663900D01*
X192163224Y-174439788D01*
X192041936Y-174229711D01*
X191894265Y-174037262D01*
X191894260Y-174037256D01*
X191722743Y-173865739D01*
X191722736Y-173865733D01*
X191530293Y-173718067D01*
X191530292Y-173718066D01*
X191530289Y-173718064D01*
X191320212Y-173596776D01*
X191320205Y-173596773D01*
X191096104Y-173503947D01*
X190861785Y-173441161D01*
X190830735Y-173437073D01*
X190740600Y-173425207D01*
X190621289Y-173409500D01*
X190621288Y-173409500D01*
X190378712Y-173409500D01*
X190378711Y-173409500D01*
X190138214Y-173441161D01*
X189903895Y-173503947D01*
X189679794Y-173596773D01*
X189679785Y-173596777D01*
X189469706Y-173718067D01*
X189277263Y-173865733D01*
X189277256Y-173865739D01*
X189105739Y-174037256D01*
X189105733Y-174037263D01*
X188958067Y-174229706D01*
X188836777Y-174439785D01*
X188836773Y-174439794D01*
X188743947Y-174663895D01*
X188681161Y-174898214D01*
X188649500Y-175138711D01*
X185265500Y-175138711D01*
X185265500Y-173316483D01*
X224379500Y-173316483D01*
X224379500Y-175516501D01*
X224379501Y-175516518D01*
X224390000Y-175619296D01*
X224390001Y-175619299D01*
X224440962Y-175773087D01*
X224445186Y-175785834D01*
X224537288Y-175935156D01*
X224661344Y-176059212D01*
X224810666Y-176151314D01*
X224977203Y-176206499D01*
X225079991Y-176217000D01*
X227280008Y-176216999D01*
X227382797Y-176206499D01*
X227549334Y-176151314D01*
X227698656Y-176059212D01*
X227822712Y-175935156D01*
X227914814Y-175785834D01*
X227969999Y-175619297D01*
X227980500Y-175516509D01*
X227980499Y-174298495D01*
X229379500Y-174298495D01*
X229379500Y-174534504D01*
X229379501Y-174534520D01*
X229410306Y-174768510D01*
X229471394Y-174996493D01*
X229561714Y-175214545D01*
X229561719Y-175214556D01*
X229632677Y-175337457D01*
X229679727Y-175418950D01*
X229679729Y-175418953D01*
X229679730Y-175418954D01*
X229823406Y-175606197D01*
X229823412Y-175606204D01*
X229990295Y-175773087D01*
X229990302Y-175773093D01*
X230100306Y-175857501D01*
X230177550Y-175916773D01*
X230308918Y-175992618D01*
X230381943Y-176034780D01*
X230381948Y-176034782D01*
X230381951Y-176034784D01*
X230600007Y-176125106D01*
X230827986Y-176186193D01*
X231061989Y-176217000D01*
X231061996Y-176217000D01*
X231298004Y-176217000D01*
X231298011Y-176217000D01*
X231532014Y-176186193D01*
X231759993Y-176125106D01*
X231978049Y-176034784D01*
X232182450Y-175916773D01*
X232369699Y-175773092D01*
X232536592Y-175606199D01*
X232680273Y-175418950D01*
X232798284Y-175214549D01*
X232888606Y-174996493D01*
X232949693Y-174768514D01*
X232980500Y-174534511D01*
X232980500Y-174298495D01*
X234379500Y-174298495D01*
X234379500Y-174534504D01*
X234379501Y-174534520D01*
X234410306Y-174768510D01*
X234471394Y-174996493D01*
X234561714Y-175214545D01*
X234561719Y-175214556D01*
X234632677Y-175337457D01*
X234679727Y-175418950D01*
X234679729Y-175418953D01*
X234679730Y-175418954D01*
X234823406Y-175606197D01*
X234823412Y-175606204D01*
X234990295Y-175773087D01*
X234990302Y-175773093D01*
X235100306Y-175857501D01*
X235177550Y-175916773D01*
X235308918Y-175992618D01*
X235381943Y-176034780D01*
X235381948Y-176034782D01*
X235381951Y-176034784D01*
X235600007Y-176125106D01*
X235827986Y-176186193D01*
X236061989Y-176217000D01*
X236061996Y-176217000D01*
X236298004Y-176217000D01*
X236298011Y-176217000D01*
X236532014Y-176186193D01*
X236759993Y-176125106D01*
X236978049Y-176034784D01*
X237182450Y-175916773D01*
X237369699Y-175773092D01*
X237536592Y-175606199D01*
X237680273Y-175418950D01*
X237798284Y-175214549D01*
X237888606Y-174996493D01*
X237949693Y-174768514D01*
X237980500Y-174534511D01*
X237980500Y-174298495D01*
X239379500Y-174298495D01*
X239379500Y-174534504D01*
X239379501Y-174534520D01*
X239410306Y-174768510D01*
X239471394Y-174996493D01*
X239561714Y-175214545D01*
X239561719Y-175214556D01*
X239632677Y-175337457D01*
X239679727Y-175418950D01*
X239679729Y-175418953D01*
X239679730Y-175418954D01*
X239823406Y-175606197D01*
X239823412Y-175606204D01*
X239990295Y-175773087D01*
X239990302Y-175773093D01*
X240100306Y-175857501D01*
X240177550Y-175916773D01*
X240308918Y-175992618D01*
X240381943Y-176034780D01*
X240381948Y-176034782D01*
X240381951Y-176034784D01*
X240600007Y-176125106D01*
X240827986Y-176186193D01*
X241061989Y-176217000D01*
X241061996Y-176217000D01*
X241298004Y-176217000D01*
X241298011Y-176217000D01*
X241532014Y-176186193D01*
X241759993Y-176125106D01*
X241978049Y-176034784D01*
X242182450Y-175916773D01*
X242369699Y-175773092D01*
X242536592Y-175606199D01*
X242680273Y-175418950D01*
X242798284Y-175214549D01*
X242829697Y-175138711D01*
X269929500Y-175138711D01*
X269929500Y-175381288D01*
X269961161Y-175621785D01*
X270023947Y-175856104D01*
X270116773Y-176080205D01*
X270116776Y-176080212D01*
X270238064Y-176290289D01*
X270238066Y-176290292D01*
X270238067Y-176290293D01*
X270385733Y-176482736D01*
X270385739Y-176482743D01*
X270557256Y-176654260D01*
X270557262Y-176654265D01*
X270749711Y-176801936D01*
X270959788Y-176923224D01*
X271183900Y-177016054D01*
X271418211Y-177078838D01*
X271598586Y-177102584D01*
X271658711Y-177110500D01*
X271658712Y-177110500D01*
X271901289Y-177110500D01*
X271949388Y-177104167D01*
X272141789Y-177078838D01*
X272376100Y-177016054D01*
X272600212Y-176923224D01*
X272810289Y-176801936D01*
X273002738Y-176654265D01*
X273174265Y-176482738D01*
X273321936Y-176290289D01*
X273443224Y-176080212D01*
X273536054Y-175856100D01*
X273598838Y-175621789D01*
X273630500Y-175381288D01*
X273630500Y-175138712D01*
X273598838Y-174898211D01*
X273536054Y-174663900D01*
X273443224Y-174439788D01*
X273321936Y-174229711D01*
X273174265Y-174037262D01*
X273174260Y-174037256D01*
X273002743Y-173865739D01*
X273002736Y-173865733D01*
X272810293Y-173718067D01*
X272810292Y-173718066D01*
X272810289Y-173718064D01*
X272600212Y-173596776D01*
X272600205Y-173596773D01*
X272376104Y-173503947D01*
X272141785Y-173441161D01*
X271901289Y-173409500D01*
X271901288Y-173409500D01*
X271658712Y-173409500D01*
X271658711Y-173409500D01*
X271418214Y-173441161D01*
X271183895Y-173503947D01*
X270959794Y-173596773D01*
X270959785Y-173596777D01*
X270749706Y-173718067D01*
X270557263Y-173865733D01*
X270557256Y-173865739D01*
X270385739Y-174037256D01*
X270385733Y-174037263D01*
X270238067Y-174229706D01*
X270116777Y-174439785D01*
X270116773Y-174439794D01*
X270023947Y-174663895D01*
X269961161Y-174898214D01*
X269929500Y-175138711D01*
X242829697Y-175138711D01*
X242888606Y-174996493D01*
X242949693Y-174768514D01*
X242980500Y-174534511D01*
X242980500Y-174298489D01*
X242949693Y-174064486D01*
X242888606Y-173836507D01*
X242798284Y-173618451D01*
X242798282Y-173618448D01*
X242798280Y-173618443D01*
X242732174Y-173503946D01*
X242680273Y-173414050D01*
X242536592Y-173226801D01*
X242536587Y-173226795D01*
X242369704Y-173059912D01*
X242369697Y-173059906D01*
X242182454Y-172916230D01*
X242182453Y-172916229D01*
X242182450Y-172916227D01*
X242100957Y-172869177D01*
X241978056Y-172798219D01*
X241978045Y-172798214D01*
X241759993Y-172707894D01*
X241532010Y-172646806D01*
X241298020Y-172616001D01*
X241298017Y-172616000D01*
X241298011Y-172616000D01*
X241061989Y-172616000D01*
X241061983Y-172616000D01*
X241061979Y-172616001D01*
X240827989Y-172646806D01*
X240600006Y-172707894D01*
X240381954Y-172798214D01*
X240381943Y-172798219D01*
X240177545Y-172916230D01*
X239990302Y-173059906D01*
X239990295Y-173059912D01*
X239823412Y-173226795D01*
X239823406Y-173226802D01*
X239679730Y-173414045D01*
X239561719Y-173618443D01*
X239561714Y-173618454D01*
X239471394Y-173836506D01*
X239410306Y-174064489D01*
X239379501Y-174298479D01*
X239379500Y-174298495D01*
X237980500Y-174298495D01*
X237980500Y-174298489D01*
X237949693Y-174064486D01*
X237888606Y-173836507D01*
X237798284Y-173618451D01*
X237798282Y-173618448D01*
X237798280Y-173618443D01*
X237732174Y-173503946D01*
X237680273Y-173414050D01*
X237536592Y-173226801D01*
X237536587Y-173226795D01*
X237369704Y-173059912D01*
X237369697Y-173059906D01*
X237182454Y-172916230D01*
X237182453Y-172916229D01*
X237182450Y-172916227D01*
X237100957Y-172869177D01*
X236978056Y-172798219D01*
X236978045Y-172798214D01*
X236759993Y-172707894D01*
X236532010Y-172646806D01*
X236298020Y-172616001D01*
X236298017Y-172616000D01*
X236298011Y-172616000D01*
X236061989Y-172616000D01*
X236061983Y-172616000D01*
X236061979Y-172616001D01*
X235827989Y-172646806D01*
X235600006Y-172707894D01*
X235381954Y-172798214D01*
X235381943Y-172798219D01*
X235177545Y-172916230D01*
X234990302Y-173059906D01*
X234990295Y-173059912D01*
X234823412Y-173226795D01*
X234823406Y-173226802D01*
X234679730Y-173414045D01*
X234561719Y-173618443D01*
X234561714Y-173618454D01*
X234471394Y-173836506D01*
X234410306Y-174064489D01*
X234379501Y-174298479D01*
X234379500Y-174298495D01*
X232980500Y-174298495D01*
X232980500Y-174298489D01*
X232949693Y-174064486D01*
X232888606Y-173836507D01*
X232798284Y-173618451D01*
X232798282Y-173618448D01*
X232798280Y-173618443D01*
X232732174Y-173503946D01*
X232680273Y-173414050D01*
X232536592Y-173226801D01*
X232536587Y-173226795D01*
X232369704Y-173059912D01*
X232369697Y-173059906D01*
X232182454Y-172916230D01*
X232182453Y-172916229D01*
X232182450Y-172916227D01*
X232100957Y-172869177D01*
X231978056Y-172798219D01*
X231978045Y-172798214D01*
X231759993Y-172707894D01*
X231532010Y-172646806D01*
X231298020Y-172616001D01*
X231298017Y-172616000D01*
X231298011Y-172616000D01*
X231061989Y-172616000D01*
X231061983Y-172616000D01*
X231061979Y-172616001D01*
X230827989Y-172646806D01*
X230600006Y-172707894D01*
X230381954Y-172798214D01*
X230381943Y-172798219D01*
X230177545Y-172916230D01*
X229990302Y-173059906D01*
X229990295Y-173059912D01*
X229823412Y-173226795D01*
X229823406Y-173226802D01*
X229679730Y-173414045D01*
X229561719Y-173618443D01*
X229561714Y-173618454D01*
X229471394Y-173836506D01*
X229410306Y-174064489D01*
X229379501Y-174298479D01*
X229379500Y-174298495D01*
X227980499Y-174298495D01*
X227980499Y-173316492D01*
X227969999Y-173213703D01*
X227914814Y-173047166D01*
X227822712Y-172897844D01*
X227698656Y-172773788D01*
X227549334Y-172681686D01*
X227382797Y-172626501D01*
X227382795Y-172626500D01*
X227280010Y-172616000D01*
X225079998Y-172616000D01*
X225079981Y-172616001D01*
X224977203Y-172626500D01*
X224977200Y-172626501D01*
X224810668Y-172681685D01*
X224810663Y-172681687D01*
X224661342Y-172773789D01*
X224537289Y-172897842D01*
X224445187Y-173047163D01*
X224445185Y-173047168D01*
X224440962Y-173059912D01*
X224390001Y-173213703D01*
X224390001Y-173213704D01*
X224390000Y-173213704D01*
X224379500Y-173316483D01*
X185265500Y-173316483D01*
X185265500Y-166465995D01*
X189715500Y-166465995D01*
X189715500Y-166702004D01*
X189715501Y-166702020D01*
X189746306Y-166936010D01*
X189807394Y-167163993D01*
X189897714Y-167382045D01*
X189897719Y-167382056D01*
X189968677Y-167504957D01*
X190015727Y-167586450D01*
X190015729Y-167586453D01*
X190015730Y-167586454D01*
X190159406Y-167773697D01*
X190159412Y-167773704D01*
X190326295Y-167940587D01*
X190326302Y-167940593D01*
X190342909Y-167953336D01*
X190513550Y-168084273D01*
X190644918Y-168160118D01*
X190717943Y-168202280D01*
X190717948Y-168202282D01*
X190717951Y-168202284D01*
X190936007Y-168292606D01*
X191163986Y-168353693D01*
X191397989Y-168384500D01*
X191397996Y-168384500D01*
X191634004Y-168384500D01*
X191634011Y-168384500D01*
X191868014Y-168353693D01*
X192095993Y-168292606D01*
X192314049Y-168202284D01*
X192518450Y-168084273D01*
X192705699Y-167940592D01*
X192872592Y-167773699D01*
X193016273Y-167586450D01*
X193134284Y-167382049D01*
X193224606Y-167163993D01*
X193285693Y-166936014D01*
X193316500Y-166702011D01*
X193316500Y-166465989D01*
X193285693Y-166231986D01*
X193224606Y-166004007D01*
X193134284Y-165785951D01*
X193134282Y-165785948D01*
X193134280Y-165785943D01*
X193092118Y-165712918D01*
X193016273Y-165581550D01*
X192872592Y-165394301D01*
X192872587Y-165394295D01*
X192705704Y-165227412D01*
X192705697Y-165227406D01*
X192518454Y-165083730D01*
X192518453Y-165083729D01*
X192518450Y-165083727D01*
X192314049Y-164965716D01*
X192314045Y-164965714D01*
X192294572Y-164957648D01*
X221711500Y-164957648D01*
X221711500Y-165162351D01*
X221743522Y-165364534D01*
X221806781Y-165559223D01*
X221899715Y-165741613D01*
X222020028Y-165907213D01*
X222164786Y-166051971D01*
X222319749Y-166164556D01*
X222330390Y-166172287D01*
X222446607Y-166231503D01*
X222512776Y-166265218D01*
X222512778Y-166265218D01*
X222512781Y-166265220D01*
X222617137Y-166299127D01*
X222707465Y-166328477D01*
X222808557Y-166344488D01*
X222909648Y-166360500D01*
X222909649Y-166360500D01*
X223114351Y-166360500D01*
X223114352Y-166360500D01*
X223316534Y-166328477D01*
X223511219Y-166265220D01*
X223693610Y-166172287D01*
X223795883Y-166097982D01*
X223859213Y-166051971D01*
X223859215Y-166051968D01*
X223859219Y-166051966D01*
X224003966Y-165907219D01*
X224003968Y-165907215D01*
X224003971Y-165907213D01*
X224092069Y-165785954D01*
X224124287Y-165741610D01*
X224217220Y-165559219D01*
X224280477Y-165364534D01*
X224312500Y-165162352D01*
X224312500Y-164957648D01*
X224289797Y-164814307D01*
X224280477Y-164755465D01*
X224250694Y-164663804D01*
X224239267Y-164628634D01*
X230347500Y-164628634D01*
X230347500Y-165828652D01*
X230347501Y-165828669D01*
X230358000Y-165931447D01*
X230358001Y-165931450D01*
X230397937Y-166051966D01*
X230413186Y-166097985D01*
X230505288Y-166247307D01*
X230629344Y-166371363D01*
X230778666Y-166463465D01*
X230945203Y-166518650D01*
X231047991Y-166529151D01*
X232248008Y-166529150D01*
X232350797Y-166518650D01*
X232517334Y-166463465D01*
X232666656Y-166371363D01*
X232790712Y-166247307D01*
X232882814Y-166097985D01*
X232937999Y-165931448D01*
X232948500Y-165828660D01*
X232948499Y-165483983D01*
X268628000Y-165483983D01*
X268628000Y-167684001D01*
X268628001Y-167684018D01*
X268638500Y-167786796D01*
X268638501Y-167786799D01*
X268689462Y-167940587D01*
X268693686Y-167953334D01*
X268785788Y-168102656D01*
X268909844Y-168226712D01*
X269059166Y-168318814D01*
X269225703Y-168373999D01*
X269328491Y-168384500D01*
X271528508Y-168384499D01*
X271631297Y-168373999D01*
X271797834Y-168318814D01*
X271947156Y-168226712D01*
X272071212Y-168102656D01*
X272163314Y-167953334D01*
X272218499Y-167786797D01*
X272229000Y-167684009D01*
X272228999Y-165483992D01*
X272228676Y-165480834D01*
X272218499Y-165381203D01*
X272218498Y-165381200D01*
X272212975Y-165364534D01*
X272163314Y-165214666D01*
X272071212Y-165065344D01*
X271947156Y-164941288D01*
X271797834Y-164849186D01*
X271631297Y-164794001D01*
X271631295Y-164794000D01*
X271528510Y-164783500D01*
X269328498Y-164783500D01*
X269328481Y-164783501D01*
X269225703Y-164794000D01*
X269225700Y-164794001D01*
X269059168Y-164849185D01*
X269059163Y-164849187D01*
X268909842Y-164941289D01*
X268785789Y-165065342D01*
X268693687Y-165214663D01*
X268693685Y-165214668D01*
X268689462Y-165227412D01*
X268638501Y-165381203D01*
X268638501Y-165381204D01*
X268638500Y-165381204D01*
X268628000Y-165483983D01*
X232948499Y-165483983D01*
X232948499Y-165227412D01*
X232948499Y-164628649D01*
X232948498Y-164628632D01*
X232937999Y-164525854D01*
X232937998Y-164525851D01*
X232889134Y-164378390D01*
X232882814Y-164359317D01*
X232790712Y-164209995D01*
X232666656Y-164085939D01*
X232517334Y-163993837D01*
X232350797Y-163938652D01*
X232350795Y-163938651D01*
X232248010Y-163928151D01*
X231047998Y-163928151D01*
X231047981Y-163928152D01*
X230945203Y-163938651D01*
X230945200Y-163938652D01*
X230778668Y-163993836D01*
X230778663Y-163993838D01*
X230629342Y-164085940D01*
X230505289Y-164209993D01*
X230413187Y-164359314D01*
X230413186Y-164359317D01*
X230358001Y-164525854D01*
X230358001Y-164525855D01*
X230358000Y-164525855D01*
X230347500Y-164628634D01*
X224239267Y-164628634D01*
X224217220Y-164560781D01*
X224217218Y-164560778D01*
X224217218Y-164560776D01*
X224183503Y-164494607D01*
X224124287Y-164378390D01*
X224110428Y-164359314D01*
X224003971Y-164212786D01*
X223859213Y-164068028D01*
X223693613Y-163947715D01*
X223693612Y-163947714D01*
X223693610Y-163947713D01*
X223636653Y-163918691D01*
X223511223Y-163854781D01*
X223316534Y-163791522D01*
X223141995Y-163763878D01*
X223114352Y-163759500D01*
X222909648Y-163759500D01*
X222885329Y-163763351D01*
X222707465Y-163791522D01*
X222512776Y-163854781D01*
X222330386Y-163947715D01*
X222164786Y-164068028D01*
X222020028Y-164212786D01*
X221899715Y-164378386D01*
X221806781Y-164560776D01*
X221743522Y-164755465D01*
X221711500Y-164957648D01*
X192294572Y-164957648D01*
X192095993Y-164875394D01*
X191868010Y-164814306D01*
X191634020Y-164783501D01*
X191634017Y-164783500D01*
X191634011Y-164783500D01*
X191397989Y-164783500D01*
X191397983Y-164783500D01*
X191397979Y-164783501D01*
X191163989Y-164814306D01*
X190936006Y-164875394D01*
X190717954Y-164965714D01*
X190717943Y-164965719D01*
X190513545Y-165083730D01*
X190326302Y-165227406D01*
X190326295Y-165227412D01*
X190159412Y-165394295D01*
X190159406Y-165394302D01*
X190015730Y-165581545D01*
X189897719Y-165785943D01*
X189897714Y-165785954D01*
X189807394Y-166004006D01*
X189746306Y-166231989D01*
X189715501Y-166465979D01*
X189715500Y-166465995D01*
X185265500Y-166465995D01*
X185265500Y-160483983D01*
X189715500Y-160483983D01*
X189715500Y-162684001D01*
X189715501Y-162684018D01*
X189726000Y-162786796D01*
X189726001Y-162786799D01*
X189774736Y-162933869D01*
X189781186Y-162953334D01*
X189873288Y-163102656D01*
X189997344Y-163226712D01*
X190146666Y-163318814D01*
X190313203Y-163373999D01*
X190415991Y-163384500D01*
X192616008Y-163384499D01*
X192718797Y-163373999D01*
X192885334Y-163318814D01*
X193034656Y-163226712D01*
X193158712Y-163102656D01*
X193250814Y-162953334D01*
X193305999Y-162786797D01*
X193316500Y-162684009D01*
X193316499Y-161626299D01*
X230347500Y-161626299D01*
X230347500Y-161831002D01*
X230379522Y-162033185D01*
X230442781Y-162227874D01*
X230535715Y-162410264D01*
X230656028Y-162575864D01*
X230800786Y-162720622D01*
X230891873Y-162786799D01*
X230966390Y-162840938D01*
X231082607Y-162900154D01*
X231148776Y-162933869D01*
X231148778Y-162933869D01*
X231148781Y-162933871D01*
X231253137Y-162967778D01*
X231343465Y-162997128D01*
X231444557Y-163013139D01*
X231545648Y-163029151D01*
X231545649Y-163029151D01*
X231750351Y-163029151D01*
X231750352Y-163029151D01*
X231952534Y-162997128D01*
X232147219Y-162933871D01*
X232329610Y-162840938D01*
X232422590Y-162773383D01*
X232495213Y-162720622D01*
X232495215Y-162720619D01*
X232495219Y-162720617D01*
X232639966Y-162575870D01*
X232639968Y-162575866D01*
X232639971Y-162575864D01*
X232692732Y-162503241D01*
X232760287Y-162410261D01*
X232853220Y-162227870D01*
X232916477Y-162033185D01*
X232948500Y-161831003D01*
X232948500Y-161626299D01*
X232923109Y-161465989D01*
X232916477Y-161424116D01*
X232864848Y-161265220D01*
X232853220Y-161229432D01*
X232853218Y-161229429D01*
X232853218Y-161229427D01*
X232783909Y-161093402D01*
X232760287Y-161047041D01*
X232752556Y-161036400D01*
X232639971Y-160881437D01*
X232495213Y-160736679D01*
X232329613Y-160616366D01*
X232329612Y-160616365D01*
X232329610Y-160616364D01*
X232261274Y-160581545D01*
X232147223Y-160523432D01*
X231952534Y-160460173D01*
X231777995Y-160432529D01*
X231750352Y-160428151D01*
X231545648Y-160428151D01*
X231521329Y-160432002D01*
X231343465Y-160460173D01*
X231148776Y-160523432D01*
X230966386Y-160616366D01*
X230800786Y-160736679D01*
X230656028Y-160881437D01*
X230535715Y-161047037D01*
X230442781Y-161229427D01*
X230379522Y-161424116D01*
X230347500Y-161626299D01*
X193316499Y-161626299D01*
X193316499Y-161558109D01*
X193316499Y-160483998D01*
X193316498Y-160483981D01*
X193305999Y-160381203D01*
X193305998Y-160381200D01*
X193300475Y-160364534D01*
X193250814Y-160214666D01*
X193158712Y-160065344D01*
X193034656Y-159941288D01*
X193021850Y-159933389D01*
X217339500Y-159933389D01*
X217339500Y-160106610D01*
X217356614Y-160214668D01*
X217366598Y-160277701D01*
X217420127Y-160442445D01*
X217498768Y-160596788D01*
X217600586Y-160736928D01*
X217723072Y-160859414D01*
X217863212Y-160961232D01*
X218017555Y-161039873D01*
X218182299Y-161093402D01*
X218353389Y-161120500D01*
X218353390Y-161120500D01*
X218526610Y-161120500D01*
X218526611Y-161120500D01*
X218697701Y-161093402D01*
X218862445Y-161039873D01*
X219016788Y-160961232D01*
X219156928Y-160859414D01*
X219279414Y-160736928D01*
X219381232Y-160596788D01*
X219459873Y-160442445D01*
X219513402Y-160277701D01*
X219540500Y-160106611D01*
X219540500Y-159957648D01*
X221711500Y-159957648D01*
X221711500Y-160162351D01*
X221743522Y-160364534D01*
X221806781Y-160559223D01*
X221845029Y-160634287D01*
X221897328Y-160736930D01*
X221899715Y-160741613D01*
X222020028Y-160907213D01*
X222164786Y-161051971D01*
X222319749Y-161164556D01*
X222330390Y-161172287D01*
X222442533Y-161229427D01*
X222512776Y-161265218D01*
X222512778Y-161265218D01*
X222512781Y-161265220D01*
X222617137Y-161299127D01*
X222707465Y-161328477D01*
X222808557Y-161344488D01*
X222909648Y-161360500D01*
X222909649Y-161360500D01*
X223114351Y-161360500D01*
X223114352Y-161360500D01*
X223316534Y-161328477D01*
X223511219Y-161265220D01*
X223693610Y-161172287D01*
X223802187Y-161093402D01*
X223859213Y-161051971D01*
X223859215Y-161051968D01*
X223859219Y-161051966D01*
X224003966Y-160907219D01*
X224003968Y-160907215D01*
X224003971Y-160907213D01*
X224092069Y-160785954D01*
X224124287Y-160741610D01*
X224217220Y-160559219D01*
X224280477Y-160364534D01*
X224312500Y-160162352D01*
X224312500Y-159957648D01*
X224293831Y-159839777D01*
X224280477Y-159755465D01*
X224245627Y-159648208D01*
X224217220Y-159560781D01*
X224217218Y-159560778D01*
X224217218Y-159560776D01*
X224183503Y-159494607D01*
X224124287Y-159378390D01*
X224069566Y-159303072D01*
X224003971Y-159212786D01*
X223859213Y-159068028D01*
X223693613Y-158947715D01*
X223693612Y-158947714D01*
X223693610Y-158947713D01*
X223636653Y-158918691D01*
X223511223Y-158854781D01*
X223316534Y-158791522D01*
X223141995Y-158763878D01*
X223114352Y-158759500D01*
X222909648Y-158759500D01*
X222885329Y-158763351D01*
X222707465Y-158791522D01*
X222512776Y-158854781D01*
X222330386Y-158947715D01*
X222164786Y-159068028D01*
X222020028Y-159212786D01*
X221899715Y-159378386D01*
X221806781Y-159560776D01*
X221743522Y-159755465D01*
X221711500Y-159957648D01*
X219540500Y-159957648D01*
X219540500Y-159933389D01*
X219513402Y-159762299D01*
X219459873Y-159597555D01*
X219381232Y-159443212D01*
X219279414Y-159303072D01*
X219156928Y-159180586D01*
X219016788Y-159078768D01*
X218862445Y-159000127D01*
X218697701Y-158946598D01*
X218697699Y-158946597D01*
X218697698Y-158946597D01*
X218566271Y-158925781D01*
X218526611Y-158919500D01*
X218353389Y-158919500D01*
X218313728Y-158925781D01*
X218182302Y-158946597D01*
X218017552Y-159000128D01*
X217863211Y-159078768D01*
X217783256Y-159136859D01*
X217723072Y-159180586D01*
X217723070Y-159180588D01*
X217723069Y-159180588D01*
X217600588Y-159303069D01*
X217600588Y-159303070D01*
X217600586Y-159303072D01*
X217556859Y-159363256D01*
X217498768Y-159443211D01*
X217420128Y-159597552D01*
X217366597Y-159762302D01*
X217339500Y-159933389D01*
X193021850Y-159933389D01*
X192885334Y-159849186D01*
X192718797Y-159794001D01*
X192718795Y-159794000D01*
X192616010Y-159783500D01*
X190415998Y-159783500D01*
X190415981Y-159783501D01*
X190313203Y-159794000D01*
X190313200Y-159794001D01*
X190146668Y-159849185D01*
X190146663Y-159849187D01*
X189997342Y-159941289D01*
X189873289Y-160065342D01*
X189781187Y-160214663D01*
X189781185Y-160214668D01*
X189760298Y-160277701D01*
X189726001Y-160381203D01*
X189726001Y-160381204D01*
X189726000Y-160381204D01*
X189715500Y-160483983D01*
X185265500Y-160483983D01*
X185265500Y-154821995D01*
X189715500Y-154821995D01*
X189715500Y-155058004D01*
X189715501Y-155058020D01*
X189746306Y-155292010D01*
X189807394Y-155519993D01*
X189897714Y-155738045D01*
X189897719Y-155738056D01*
X189968677Y-155860957D01*
X190015727Y-155942450D01*
X190015729Y-155942453D01*
X190015730Y-155942454D01*
X190159406Y-156129697D01*
X190159412Y-156129704D01*
X190326295Y-156296587D01*
X190326301Y-156296592D01*
X190513550Y-156440273D01*
X190644918Y-156516118D01*
X190717943Y-156558280D01*
X190717948Y-156558282D01*
X190717951Y-156558284D01*
X190936007Y-156648606D01*
X191163986Y-156709693D01*
X191397989Y-156740500D01*
X191397996Y-156740500D01*
X191634004Y-156740500D01*
X191634011Y-156740500D01*
X191868014Y-156709693D01*
X192095993Y-156648606D01*
X192314049Y-156558284D01*
X192518450Y-156440273D01*
X192705699Y-156296592D01*
X192872592Y-156129699D01*
X193016273Y-155942450D01*
X193134284Y-155738049D01*
X193224606Y-155519993D01*
X193285693Y-155292014D01*
X193316500Y-155058011D01*
X193316500Y-154821989D01*
X193285693Y-154587986D01*
X193224606Y-154360007D01*
X193134284Y-154141951D01*
X193134282Y-154141948D01*
X193134280Y-154141943D01*
X193077182Y-154043048D01*
X193016273Y-153937550D01*
X192872592Y-153750301D01*
X192872587Y-153750295D01*
X192705704Y-153583412D01*
X192705697Y-153583406D01*
X192518454Y-153439730D01*
X192518453Y-153439729D01*
X192518450Y-153439727D01*
X192436957Y-153392677D01*
X192314056Y-153321719D01*
X192314045Y-153321714D01*
X192095993Y-153231394D01*
X191994664Y-153204243D01*
X191868014Y-153170307D01*
X191868013Y-153170306D01*
X191868010Y-153170306D01*
X191634020Y-153139501D01*
X191634017Y-153139500D01*
X191634011Y-153139500D01*
X191397989Y-153139500D01*
X191397983Y-153139500D01*
X191397979Y-153139501D01*
X191163989Y-153170306D01*
X190936006Y-153231394D01*
X190717954Y-153321714D01*
X190717943Y-153321719D01*
X190513545Y-153439730D01*
X190326302Y-153583406D01*
X190326295Y-153583412D01*
X190159412Y-153750295D01*
X190159406Y-153750302D01*
X190015730Y-153937545D01*
X189897719Y-154141943D01*
X189897714Y-154141954D01*
X189807394Y-154360006D01*
X189746306Y-154587989D01*
X189715501Y-154821979D01*
X189715500Y-154821995D01*
X185265500Y-154821995D01*
X185265500Y-149821995D01*
X189715500Y-149821995D01*
X189715500Y-150058004D01*
X189715501Y-150058020D01*
X189746306Y-150292010D01*
X189807394Y-150519993D01*
X189897714Y-150738045D01*
X189897719Y-150738056D01*
X189946445Y-150822450D01*
X190015727Y-150942450D01*
X190015729Y-150942453D01*
X190015730Y-150942454D01*
X190159406Y-151129697D01*
X190159412Y-151129704D01*
X190326295Y-151296587D01*
X190326302Y-151296593D01*
X190376109Y-151334811D01*
X190513550Y-151440273D01*
X190630018Y-151507516D01*
X190717943Y-151558280D01*
X190717948Y-151558282D01*
X190717951Y-151558284D01*
X190936007Y-151648606D01*
X191163986Y-151709693D01*
X191397989Y-151740500D01*
X191397996Y-151740500D01*
X191634004Y-151740500D01*
X191634011Y-151740500D01*
X191868014Y-151709693D01*
X192095993Y-151648606D01*
X192314049Y-151558284D01*
X192518450Y-151440273D01*
X192705699Y-151296592D01*
X192872592Y-151129699D01*
X193016273Y-150942450D01*
X193134284Y-150738049D01*
X193224606Y-150519993D01*
X193285693Y-150292014D01*
X193316500Y-150058011D01*
X193316500Y-149821989D01*
X193285693Y-149587986D01*
X193224606Y-149360007D01*
X193134284Y-149141951D01*
X193134282Y-149141948D01*
X193134280Y-149141943D01*
X193086714Y-149059557D01*
X193016273Y-148937550D01*
X192872592Y-148750301D01*
X192872587Y-148750295D01*
X192705704Y-148583412D01*
X192705697Y-148583406D01*
X192518454Y-148439730D01*
X192518453Y-148439729D01*
X192518450Y-148439727D01*
X192436957Y-148392677D01*
X192314056Y-148321719D01*
X192314045Y-148321714D01*
X192095993Y-148231394D01*
X191985245Y-148201719D01*
X191868014Y-148170307D01*
X191868013Y-148170306D01*
X191868010Y-148170306D01*
X191634020Y-148139501D01*
X191634017Y-148139500D01*
X191634011Y-148139500D01*
X191397989Y-148139500D01*
X191397983Y-148139500D01*
X191397979Y-148139501D01*
X191163989Y-148170306D01*
X190936006Y-148231394D01*
X190717954Y-148321714D01*
X190717943Y-148321719D01*
X190513545Y-148439730D01*
X190326302Y-148583406D01*
X190326295Y-148583412D01*
X190159412Y-148750295D01*
X190159406Y-148750302D01*
X190015730Y-148937545D01*
X189897719Y-149141943D01*
X189897714Y-149141954D01*
X189807394Y-149360006D01*
X189746306Y-149587989D01*
X189715501Y-149821979D01*
X189715500Y-149821995D01*
X185265500Y-149821995D01*
X185265500Y-144821995D01*
X189715500Y-144821995D01*
X189715500Y-145058004D01*
X189715501Y-145058020D01*
X189746306Y-145292010D01*
X189807394Y-145519993D01*
X189897714Y-145738045D01*
X189897719Y-145738056D01*
X189946445Y-145822450D01*
X190015727Y-145942450D01*
X190015729Y-145942453D01*
X190015730Y-145942454D01*
X190159406Y-146129697D01*
X190159412Y-146129704D01*
X190326295Y-146296587D01*
X190326302Y-146296593D01*
X190357163Y-146320273D01*
X190513550Y-146440273D01*
X190644918Y-146516118D01*
X190717943Y-146558280D01*
X190717948Y-146558282D01*
X190717951Y-146558284D01*
X190936007Y-146648606D01*
X191163986Y-146709693D01*
X191397989Y-146740500D01*
X191397996Y-146740500D01*
X191634004Y-146740500D01*
X191634011Y-146740500D01*
X191868014Y-146709693D01*
X192095993Y-146648606D01*
X192314049Y-146558284D01*
X192518450Y-146440273D01*
X192705699Y-146296592D01*
X192872592Y-146129699D01*
X193016273Y-145942450D01*
X193134284Y-145738049D01*
X193224606Y-145519993D01*
X193285693Y-145292014D01*
X193316500Y-145058011D01*
X193316500Y-144821989D01*
X193285693Y-144587986D01*
X193224606Y-144360007D01*
X193145553Y-144169156D01*
X193138194Y-144151389D01*
X217847500Y-144151389D01*
X217847500Y-144324610D01*
X217870108Y-144467357D01*
X217874598Y-144495701D01*
X217928127Y-144660445D01*
X218006768Y-144814788D01*
X218108586Y-144954928D01*
X218231072Y-145077414D01*
X218371212Y-145179232D01*
X218525555Y-145257873D01*
X218690299Y-145311402D01*
X218861389Y-145338500D01*
X218861390Y-145338500D01*
X219034610Y-145338500D01*
X219034611Y-145338500D01*
X219205701Y-145311402D01*
X219370445Y-145257873D01*
X219524788Y-145179232D01*
X219664928Y-145077414D01*
X219787414Y-144954928D01*
X219889232Y-144814788D01*
X219967873Y-144660445D01*
X220021402Y-144495701D01*
X220048500Y-144324611D01*
X220048500Y-144151389D01*
X220021402Y-143980299D01*
X219967873Y-143815555D01*
X219889232Y-143661212D01*
X219787414Y-143521072D01*
X219664928Y-143398586D01*
X219524788Y-143296768D01*
X219370445Y-143218127D01*
X219205701Y-143164598D01*
X219205699Y-143164597D01*
X219205698Y-143164597D01*
X219074271Y-143143781D01*
X219034611Y-143137500D01*
X218861389Y-143137500D01*
X218821728Y-143143781D01*
X218690302Y-143164597D01*
X218525552Y-143218128D01*
X218371211Y-143296768D01*
X218291256Y-143354859D01*
X218231072Y-143398586D01*
X218231070Y-143398588D01*
X218231069Y-143398588D01*
X218108588Y-143521069D01*
X218108588Y-143521070D01*
X218108586Y-143521072D01*
X218064859Y-143581256D01*
X218006768Y-143661211D01*
X217928128Y-143815552D01*
X217874597Y-143980302D01*
X217847500Y-144151389D01*
X193138194Y-144151389D01*
X193134288Y-144141959D01*
X193134280Y-144141943D01*
X193071109Y-144032529D01*
X193016273Y-143937550D01*
X192878583Y-143758109D01*
X192872593Y-143750302D01*
X192872587Y-143750295D01*
X192705704Y-143583412D01*
X192705697Y-143583406D01*
X192518454Y-143439730D01*
X192518453Y-143439729D01*
X192518450Y-143439727D01*
X192436957Y-143392677D01*
X192314056Y-143321719D01*
X192314045Y-143321714D01*
X192095993Y-143231394D01*
X191985245Y-143201719D01*
X191868014Y-143170307D01*
X191868013Y-143170306D01*
X191868010Y-143170306D01*
X191634020Y-143139501D01*
X191634017Y-143139500D01*
X191634011Y-143139500D01*
X191397989Y-143139500D01*
X191397983Y-143139500D01*
X191397979Y-143139501D01*
X191163989Y-143170306D01*
X190936006Y-143231394D01*
X190717954Y-143321714D01*
X190717943Y-143321719D01*
X190513545Y-143439730D01*
X190326302Y-143583406D01*
X190326295Y-143583412D01*
X190159412Y-143750295D01*
X190159406Y-143750302D01*
X190015730Y-143937545D01*
X189897719Y-144141943D01*
X189897714Y-144141954D01*
X189807394Y-144360006D01*
X189746306Y-144587989D01*
X189715501Y-144821979D01*
X189715500Y-144821995D01*
X185265500Y-144821995D01*
X185265500Y-138839983D01*
X189715500Y-138839983D01*
X189715500Y-141040001D01*
X189715501Y-141040018D01*
X189726000Y-141142796D01*
X189726001Y-141142799D01*
X189781185Y-141309331D01*
X189781186Y-141309334D01*
X189873288Y-141458656D01*
X189997344Y-141582712D01*
X190146666Y-141674814D01*
X190313203Y-141729999D01*
X190415991Y-141740500D01*
X192616008Y-141740499D01*
X192718797Y-141729999D01*
X192885334Y-141674814D01*
X193034656Y-141582712D01*
X193158712Y-141458656D01*
X193250814Y-141309334D01*
X193305999Y-141142797D01*
X193316500Y-141040009D01*
X193316499Y-138839992D01*
X193315023Y-138825547D01*
X193305999Y-138737203D01*
X193305998Y-138737200D01*
X193297093Y-138710328D01*
X193250814Y-138570666D01*
X193158712Y-138421344D01*
X193034656Y-138297288D01*
X192885334Y-138205186D01*
X192718797Y-138150001D01*
X192718795Y-138150000D01*
X192616010Y-138139500D01*
X190415998Y-138139500D01*
X190415981Y-138139501D01*
X190313203Y-138150000D01*
X190313200Y-138150001D01*
X190146668Y-138205185D01*
X190146663Y-138205187D01*
X189997342Y-138297289D01*
X189873289Y-138421342D01*
X189781187Y-138570663D01*
X189781185Y-138570668D01*
X189757331Y-138642656D01*
X189726001Y-138737203D01*
X189726001Y-138737204D01*
X189726000Y-138737204D01*
X189715500Y-138839983D01*
X185265500Y-138839983D01*
X185265500Y-131469648D01*
X191485500Y-131469648D01*
X191485500Y-131674351D01*
X191517522Y-131876534D01*
X191580781Y-132071223D01*
X191673715Y-132253613D01*
X191794028Y-132419213D01*
X191938786Y-132563971D01*
X192049334Y-132644287D01*
X192104390Y-132684287D01*
X192220607Y-132743503D01*
X192286776Y-132777218D01*
X192286778Y-132777218D01*
X192286781Y-132777220D01*
X192391137Y-132811127D01*
X192481465Y-132840477D01*
X192568354Y-132854239D01*
X192683648Y-132872500D01*
X192683649Y-132872500D01*
X192888351Y-132872500D01*
X192888352Y-132872500D01*
X193090534Y-132840477D01*
X193285219Y-132777220D01*
X193467610Y-132684287D01*
X193560590Y-132616732D01*
X193633213Y-132563971D01*
X193633215Y-132563968D01*
X193633219Y-132563966D01*
X193777966Y-132419219D01*
X193777968Y-132419215D01*
X193777971Y-132419213D01*
X193830732Y-132346590D01*
X193898287Y-132253610D01*
X193991220Y-132071219D01*
X194054477Y-131876534D01*
X194086500Y-131674352D01*
X194086500Y-131469648D01*
X199105500Y-131469648D01*
X199105500Y-131674351D01*
X199137522Y-131876534D01*
X199200781Y-132071223D01*
X199293715Y-132253613D01*
X199414028Y-132419213D01*
X199558786Y-132563971D01*
X199669334Y-132644287D01*
X199724390Y-132684287D01*
X199840607Y-132743503D01*
X199906776Y-132777218D01*
X199906778Y-132777218D01*
X199906781Y-132777220D01*
X200011137Y-132811127D01*
X200101465Y-132840477D01*
X200188354Y-132854239D01*
X200303648Y-132872500D01*
X200303649Y-132872500D01*
X200508351Y-132872500D01*
X200508352Y-132872500D01*
X200710534Y-132840477D01*
X200905219Y-132777220D01*
X201087610Y-132684287D01*
X201180590Y-132616732D01*
X201253213Y-132563971D01*
X201253215Y-132563968D01*
X201253219Y-132563966D01*
X201397966Y-132419219D01*
X201397968Y-132419215D01*
X201397971Y-132419213D01*
X201450732Y-132346590D01*
X201518287Y-132253610D01*
X201611220Y-132071219D01*
X201674477Y-131876534D01*
X201706500Y-131674352D01*
X201706500Y-131469648D01*
X201700687Y-131432949D01*
X201674477Y-131267465D01*
X201612951Y-131078109D01*
X201611220Y-131072781D01*
X201611218Y-131072778D01*
X201611218Y-131072776D01*
X201537341Y-130927786D01*
X201518287Y-130890390D01*
X201509130Y-130877786D01*
X201397971Y-130724786D01*
X201253213Y-130580028D01*
X201087613Y-130459715D01*
X201087612Y-130459714D01*
X201087610Y-130459713D01*
X201030653Y-130430691D01*
X200905223Y-130366781D01*
X200710534Y-130303522D01*
X200535995Y-130275878D01*
X200508352Y-130271500D01*
X200303648Y-130271500D01*
X200279329Y-130275351D01*
X200101465Y-130303522D01*
X199906776Y-130366781D01*
X199724386Y-130459715D01*
X199558786Y-130580028D01*
X199414028Y-130724786D01*
X199293715Y-130890386D01*
X199200781Y-131072776D01*
X199137522Y-131267465D01*
X199105500Y-131469648D01*
X194086500Y-131469648D01*
X194080687Y-131432949D01*
X194054477Y-131267465D01*
X193992951Y-131078109D01*
X193991220Y-131072781D01*
X193991218Y-131072778D01*
X193991218Y-131072776D01*
X193917341Y-130927786D01*
X193898287Y-130890390D01*
X193889130Y-130877786D01*
X193777971Y-130724786D01*
X193633213Y-130580028D01*
X193467613Y-130459715D01*
X193467612Y-130459714D01*
X193467610Y-130459713D01*
X193410653Y-130430691D01*
X193285223Y-130366781D01*
X193090534Y-130303522D01*
X192915995Y-130275878D01*
X192888352Y-130271500D01*
X192683648Y-130271500D01*
X192659329Y-130275351D01*
X192481465Y-130303522D01*
X192286776Y-130366781D01*
X192104386Y-130459715D01*
X191938786Y-130580028D01*
X191794028Y-130724786D01*
X191673715Y-130890386D01*
X191580781Y-131072776D01*
X191517522Y-131267465D01*
X191485500Y-131469648D01*
X185265500Y-131469648D01*
X185265500Y-121641995D01*
X189715500Y-121641995D01*
X189715500Y-121878004D01*
X189715501Y-121878020D01*
X189746306Y-122112010D01*
X189807394Y-122339993D01*
X189897714Y-122558045D01*
X189897719Y-122558056D01*
X189960538Y-122666860D01*
X190015727Y-122762450D01*
X190015729Y-122762453D01*
X190015730Y-122762454D01*
X190159406Y-122949697D01*
X190159412Y-122949704D01*
X190326295Y-123116587D01*
X190326302Y-123116593D01*
X190395277Y-123169519D01*
X190513550Y-123260273D01*
X190607696Y-123314628D01*
X190717943Y-123378280D01*
X190717948Y-123378282D01*
X190717951Y-123378284D01*
X190936007Y-123468606D01*
X191163986Y-123529693D01*
X191397989Y-123560500D01*
X191397996Y-123560500D01*
X191634004Y-123560500D01*
X191634011Y-123560500D01*
X191868014Y-123529693D01*
X192095993Y-123468606D01*
X192314049Y-123378284D01*
X192518450Y-123260273D01*
X192705699Y-123116592D01*
X192872592Y-122949699D01*
X193016273Y-122762450D01*
X193134284Y-122558049D01*
X193224606Y-122339993D01*
X193285693Y-122112014D01*
X193316500Y-121878011D01*
X193316500Y-121641989D01*
X193285693Y-121407986D01*
X193224606Y-121180007D01*
X193134284Y-120961951D01*
X193134282Y-120961948D01*
X193134280Y-120961943D01*
X193080101Y-120868104D01*
X193016273Y-120757550D01*
X192957001Y-120680306D01*
X192872593Y-120570302D01*
X192872587Y-120570295D01*
X192705704Y-120403412D01*
X192705697Y-120403406D01*
X192518454Y-120259730D01*
X192518453Y-120259729D01*
X192518450Y-120259727D01*
X192422342Y-120204239D01*
X192314056Y-120141719D01*
X192314045Y-120141714D01*
X192095993Y-120051394D01*
X192087816Y-120049203D01*
X191868014Y-119990307D01*
X191868013Y-119990306D01*
X191868010Y-119990306D01*
X191634020Y-119959501D01*
X191634017Y-119959500D01*
X191634011Y-119959500D01*
X191397989Y-119959500D01*
X191397983Y-119959500D01*
X191397979Y-119959501D01*
X191163989Y-119990306D01*
X190936006Y-120051394D01*
X190717954Y-120141714D01*
X190717943Y-120141719D01*
X190513545Y-120259730D01*
X190326302Y-120403406D01*
X190326295Y-120403412D01*
X190159412Y-120570295D01*
X190159406Y-120570302D01*
X190015730Y-120757545D01*
X189897719Y-120961943D01*
X189897714Y-120961954D01*
X189807394Y-121180006D01*
X189746306Y-121407989D01*
X189715501Y-121641979D01*
X189715500Y-121641995D01*
X185265500Y-121641995D01*
X185265500Y-111641995D01*
X189715500Y-111641995D01*
X189715500Y-111878004D01*
X189715501Y-111878020D01*
X189746306Y-112112010D01*
X189807394Y-112339993D01*
X189897714Y-112558045D01*
X189897719Y-112558056D01*
X189955349Y-112657872D01*
X190015727Y-112762450D01*
X190015729Y-112762453D01*
X190015730Y-112762454D01*
X190159406Y-112949697D01*
X190159412Y-112949704D01*
X190326295Y-113116587D01*
X190326301Y-113116592D01*
X190513550Y-113260273D01*
X190717951Y-113378284D01*
X190737871Y-113386535D01*
X190738950Y-113386982D01*
X190793355Y-113430822D01*
X190815421Y-113497116D01*
X190815500Y-113501544D01*
X190815500Y-113723006D01*
X190815500Y-113860994D01*
X190815500Y-113860996D01*
X190815499Y-113860996D01*
X190842418Y-113996322D01*
X190842421Y-113996332D01*
X190895222Y-114123807D01*
X190971887Y-114238545D01*
X190971888Y-114238546D01*
X191481189Y-114747846D01*
X191514674Y-114809169D01*
X191509690Y-114878860D01*
X191467819Y-114934794D01*
X191402354Y-114959211D01*
X191401628Y-114959261D01*
X191397988Y-114959499D01*
X191163989Y-114990306D01*
X190936006Y-115051394D01*
X190717954Y-115141714D01*
X190717943Y-115141719D01*
X190513545Y-115259730D01*
X190326302Y-115403406D01*
X190326295Y-115403412D01*
X190159412Y-115570295D01*
X190159406Y-115570302D01*
X190015730Y-115757545D01*
X189897719Y-115961943D01*
X189897714Y-115961954D01*
X189807394Y-116180006D01*
X189746306Y-116407989D01*
X189715501Y-116641979D01*
X189715500Y-116641995D01*
X189715500Y-116878004D01*
X189715501Y-116878020D01*
X189746306Y-117112010D01*
X189807394Y-117339993D01*
X189897714Y-117558045D01*
X189897719Y-117558056D01*
X189950997Y-117650334D01*
X190015727Y-117762450D01*
X190015729Y-117762453D01*
X190015730Y-117762454D01*
X190159406Y-117949697D01*
X190159412Y-117949704D01*
X190326295Y-118116587D01*
X190326302Y-118116593D01*
X190436306Y-118201001D01*
X190513550Y-118260273D01*
X190644918Y-118336118D01*
X190717943Y-118378280D01*
X190717948Y-118378282D01*
X190717951Y-118378284D01*
X190936007Y-118468606D01*
X191163986Y-118529693D01*
X191397989Y-118560500D01*
X191397996Y-118560500D01*
X191634004Y-118560500D01*
X191634011Y-118560500D01*
X191868014Y-118529693D01*
X192095993Y-118468606D01*
X192314049Y-118378284D01*
X192518450Y-118260273D01*
X192705699Y-118116592D01*
X192872592Y-117949699D01*
X193016273Y-117762450D01*
X193134284Y-117558049D01*
X193224606Y-117339993D01*
X193285693Y-117112014D01*
X193316500Y-116878011D01*
X193316500Y-116878002D01*
X193316737Y-116874388D01*
X193340760Y-116808778D01*
X193396441Y-116766572D01*
X193466102Y-116761169D01*
X193527625Y-116794285D01*
X193528153Y-116794810D01*
X208951492Y-132218149D01*
X208984977Y-132279472D01*
X208986284Y-132325227D01*
X208961500Y-132481712D01*
X208961500Y-132694286D01*
X208994753Y-132904239D01*
X209060444Y-133106414D01*
X209156951Y-133295820D01*
X209281890Y-133467786D01*
X209432213Y-133618109D01*
X209604182Y-133743050D01*
X209612946Y-133747516D01*
X209663742Y-133795491D01*
X209680536Y-133863312D01*
X209657998Y-133929447D01*
X209612946Y-133968484D01*
X209604182Y-133972949D01*
X209432213Y-134097890D01*
X209281890Y-134248213D01*
X209156951Y-134420179D01*
X209060444Y-134609585D01*
X208994753Y-134811760D01*
X208961500Y-135021713D01*
X208961500Y-135234286D01*
X208986834Y-135394243D01*
X208994754Y-135444243D01*
X209052126Y-135620816D01*
X209060444Y-135646414D01*
X209156951Y-135835820D01*
X209281890Y-136007786D01*
X209432213Y-136158109D01*
X209604182Y-136283050D01*
X209612946Y-136287516D01*
X209663742Y-136335491D01*
X209680536Y-136403312D01*
X209657998Y-136469447D01*
X209612946Y-136508484D01*
X209604182Y-136512949D01*
X209432213Y-136637890D01*
X209281890Y-136788213D01*
X209156951Y-136960179D01*
X209060444Y-137149585D01*
X208994753Y-137351760D01*
X208961500Y-137561713D01*
X208961500Y-137774287D01*
X208994754Y-137984243D01*
X209059818Y-138184489D01*
X209060444Y-138186414D01*
X209156951Y-138375820D01*
X209281890Y-138547786D01*
X209432213Y-138698109D01*
X209604179Y-138823048D01*
X209604181Y-138823049D01*
X209604184Y-138823051D01*
X209793588Y-138919557D01*
X209995757Y-138985246D01*
X210205713Y-139018500D01*
X210205714Y-139018500D01*
X210418286Y-139018500D01*
X210418287Y-139018500D01*
X210628243Y-138985246D01*
X210830412Y-138919557D01*
X211019816Y-138823051D01*
X211041789Y-138807086D01*
X211191786Y-138698109D01*
X211191788Y-138698106D01*
X211191792Y-138698104D01*
X211342104Y-138547792D01*
X211342106Y-138547788D01*
X211342109Y-138547786D01*
X211467048Y-138375820D01*
X211467047Y-138375820D01*
X211467051Y-138375816D01*
X211563557Y-138186412D01*
X211629246Y-137984243D01*
X211662500Y-137774287D01*
X211662500Y-137561713D01*
X211629246Y-137351757D01*
X211563557Y-137149588D01*
X211467051Y-136960184D01*
X211467049Y-136960181D01*
X211467048Y-136960179D01*
X211342109Y-136788213D01*
X211191786Y-136637890D01*
X211019820Y-136512951D01*
X211019115Y-136512591D01*
X211011054Y-136508485D01*
X210960259Y-136460512D01*
X210943463Y-136392692D01*
X210965999Y-136326556D01*
X211011054Y-136287515D01*
X211019816Y-136283051D01*
X211178374Y-136167853D01*
X211191786Y-136158109D01*
X211191788Y-136158106D01*
X211191792Y-136158104D01*
X211342104Y-136007792D01*
X211342106Y-136007788D01*
X211342109Y-136007786D01*
X211462720Y-135841777D01*
X211467051Y-135835816D01*
X211563557Y-135646412D01*
X211629246Y-135444243D01*
X211662500Y-135234287D01*
X211662500Y-135021713D01*
X211629246Y-134811757D01*
X211563557Y-134609588D01*
X211467051Y-134420184D01*
X211467049Y-134420181D01*
X211467048Y-134420179D01*
X211342109Y-134248213D01*
X211191786Y-134097890D01*
X211019820Y-133972951D01*
X211019115Y-133972591D01*
X211011054Y-133968485D01*
X210960259Y-133920512D01*
X210943463Y-133852692D01*
X210965999Y-133786556D01*
X211011054Y-133747515D01*
X211019816Y-133743051D01*
X211110533Y-133677142D01*
X211191786Y-133618109D01*
X211191788Y-133618106D01*
X211191792Y-133618104D01*
X211342104Y-133467792D01*
X211342106Y-133467788D01*
X211342109Y-133467786D01*
X211467048Y-133295820D01*
X211467047Y-133295820D01*
X211467051Y-133295816D01*
X211563557Y-133106412D01*
X211629246Y-132904243D01*
X211662500Y-132694287D01*
X211662500Y-132481713D01*
X211629246Y-132271757D01*
X211563557Y-132069588D01*
X211467051Y-131880184D01*
X211467049Y-131880181D01*
X211467048Y-131880179D01*
X211342109Y-131708213D01*
X211191786Y-131557890D01*
X211019820Y-131432951D01*
X211019115Y-131432591D01*
X211011054Y-131428485D01*
X210960259Y-131380512D01*
X210943463Y-131312692D01*
X210965999Y-131246556D01*
X211011054Y-131207515D01*
X211019816Y-131203051D01*
X211088640Y-131153048D01*
X211191786Y-131078109D01*
X211191788Y-131078106D01*
X211191792Y-131078104D01*
X211342104Y-130927792D01*
X211342106Y-130927788D01*
X211342109Y-130927786D01*
X211467048Y-130755820D01*
X211467047Y-130755820D01*
X211467051Y-130755816D01*
X211563557Y-130566412D01*
X211629246Y-130364243D01*
X211662500Y-130154287D01*
X211662500Y-129941713D01*
X211637715Y-129785227D01*
X211646670Y-129715933D01*
X211672504Y-129678151D01*
X217760336Y-123590320D01*
X217821657Y-123556837D01*
X217891349Y-123561821D01*
X217947282Y-123603693D01*
X217969632Y-123653810D01*
X217985947Y-123735830D01*
X217985950Y-123735839D01*
X218061364Y-123917907D01*
X218061371Y-123917920D01*
X218170860Y-124081781D01*
X218170863Y-124081785D01*
X218211180Y-124122101D01*
X218244666Y-124183424D01*
X218247500Y-124209783D01*
X218247500Y-124266176D01*
X218247500Y-124266178D01*
X218247499Y-124266178D01*
X218274418Y-124401504D01*
X218274421Y-124401514D01*
X218327222Y-124528989D01*
X218403887Y-124643727D01*
X218403888Y-124643728D01*
X243213752Y-149453590D01*
X243247237Y-149514913D01*
X243242253Y-149584605D01*
X243226390Y-149614156D01*
X243192948Y-149660184D01*
X243096444Y-149849585D01*
X243030753Y-150051760D01*
X242997500Y-150261713D01*
X242997500Y-150474286D01*
X243027585Y-150664239D01*
X243030754Y-150684243D01*
X243089945Y-150866414D01*
X243096444Y-150886414D01*
X243192951Y-151075820D01*
X243317889Y-151247784D01*
X243317894Y-151247790D01*
X243468213Y-151398109D01*
X243640182Y-151523050D01*
X243648946Y-151527516D01*
X243699742Y-151575491D01*
X243716536Y-151643312D01*
X243693998Y-151709447D01*
X243648946Y-151748484D01*
X243640182Y-151752949D01*
X243468213Y-151877890D01*
X243317890Y-152028213D01*
X243192951Y-152200179D01*
X243096444Y-152389585D01*
X243030753Y-152591760D01*
X242997500Y-152801713D01*
X242997500Y-153014286D01*
X243027585Y-153204239D01*
X243030754Y-153224243D01*
X243089945Y-153406414D01*
X243096444Y-153426414D01*
X243192951Y-153615820D01*
X243317890Y-153787786D01*
X243468213Y-153938109D01*
X243640182Y-154063050D01*
X243648946Y-154067516D01*
X243699742Y-154115491D01*
X243716536Y-154183312D01*
X243693998Y-154249447D01*
X243648946Y-154288484D01*
X243640182Y-154292949D01*
X243468213Y-154417890D01*
X243317890Y-154568213D01*
X243192951Y-154740179D01*
X243096444Y-154929585D01*
X243030753Y-155131760D01*
X242997500Y-155341713D01*
X242997500Y-155554286D01*
X243027585Y-155744239D01*
X243030754Y-155764243D01*
X243089945Y-155946414D01*
X243096444Y-155966414D01*
X243192951Y-156155820D01*
X243317890Y-156327786D01*
X243468213Y-156478109D01*
X243640182Y-156603050D01*
X243648946Y-156607516D01*
X243699742Y-156655491D01*
X243716536Y-156723312D01*
X243693998Y-156789447D01*
X243648946Y-156828484D01*
X243640182Y-156832949D01*
X243468213Y-156957890D01*
X243317890Y-157108213D01*
X243192951Y-157280179D01*
X243096444Y-157469585D01*
X243030753Y-157671760D01*
X242997500Y-157881713D01*
X242997500Y-158094286D01*
X243027585Y-158284239D01*
X243030754Y-158304243D01*
X243076817Y-158446011D01*
X243096444Y-158506414D01*
X243192951Y-158695820D01*
X243317890Y-158867786D01*
X243468213Y-159018109D01*
X243640182Y-159143050D01*
X243648946Y-159147516D01*
X243699742Y-159195491D01*
X243716536Y-159263312D01*
X243693998Y-159329447D01*
X243648946Y-159368484D01*
X243640182Y-159372949D01*
X243468213Y-159497890D01*
X243317890Y-159648213D01*
X243192951Y-159820179D01*
X243096444Y-160009585D01*
X243030753Y-160211760D01*
X242997500Y-160421713D01*
X242997500Y-160634287D01*
X243030754Y-160844243D01*
X243094318Y-161039873D01*
X243096444Y-161046414D01*
X243192951Y-161235820D01*
X243317890Y-161407786D01*
X243468213Y-161558109D01*
X243640179Y-161683048D01*
X243640181Y-161683049D01*
X243640184Y-161683051D01*
X243829588Y-161779557D01*
X244031757Y-161845246D01*
X244241713Y-161878500D01*
X244241714Y-161878500D01*
X244454286Y-161878500D01*
X244454287Y-161878500D01*
X244664243Y-161845246D01*
X244866412Y-161779557D01*
X245055816Y-161683051D01*
X245169666Y-161600335D01*
X245227786Y-161558109D01*
X245227788Y-161558106D01*
X245227792Y-161558104D01*
X245378104Y-161407792D01*
X245378106Y-161407788D01*
X245378109Y-161407786D01*
X245503048Y-161235820D01*
X245503047Y-161235820D01*
X245503051Y-161235816D01*
X245599557Y-161046412D01*
X245665246Y-160844243D01*
X245698500Y-160634287D01*
X245698500Y-160421713D01*
X245665246Y-160211757D01*
X245599557Y-160009588D01*
X245503051Y-159820184D01*
X245503049Y-159820181D01*
X245503048Y-159820179D01*
X245378109Y-159648213D01*
X245227786Y-159497890D01*
X245055820Y-159372951D01*
X245055115Y-159372591D01*
X245047054Y-159368485D01*
X244996259Y-159320512D01*
X244979463Y-159252692D01*
X245001999Y-159186556D01*
X245047054Y-159147515D01*
X245055816Y-159143051D01*
X245159069Y-159068034D01*
X245227786Y-159018109D01*
X245227788Y-159018106D01*
X245227792Y-159018104D01*
X245378104Y-158867792D01*
X245378106Y-158867788D01*
X245378109Y-158867786D01*
X245503048Y-158695820D01*
X245503047Y-158695820D01*
X245503051Y-158695816D01*
X245599557Y-158506412D01*
X245665246Y-158304243D01*
X245698500Y-158094287D01*
X245698500Y-157881713D01*
X245665246Y-157671757D01*
X245599557Y-157469588D01*
X245503051Y-157280184D01*
X245503049Y-157280181D01*
X245503048Y-157280179D01*
X245378109Y-157108213D01*
X245227786Y-156957890D01*
X245055820Y-156832951D01*
X245055115Y-156832591D01*
X245047054Y-156828485D01*
X244996259Y-156780512D01*
X244979463Y-156712692D01*
X245001999Y-156646556D01*
X245047054Y-156607515D01*
X245055816Y-156603051D01*
X245117433Y-156558284D01*
X245227786Y-156478109D01*
X245227788Y-156478106D01*
X245227792Y-156478104D01*
X245378104Y-156327792D01*
X245378106Y-156327788D01*
X245378109Y-156327786D01*
X245503048Y-156155820D01*
X245503047Y-156155820D01*
X245503051Y-156155816D01*
X245599557Y-155966412D01*
X245665246Y-155764243D01*
X245698500Y-155554287D01*
X245698500Y-155341713D01*
X245665246Y-155131757D01*
X245599557Y-154929588D01*
X245503051Y-154740184D01*
X245503049Y-154740181D01*
X245503048Y-154740179D01*
X245378109Y-154568213D01*
X245227786Y-154417890D01*
X245055820Y-154292951D01*
X245055115Y-154292591D01*
X245047054Y-154288485D01*
X244996259Y-154240512D01*
X244979463Y-154172692D01*
X245001999Y-154106556D01*
X245047054Y-154067515D01*
X245055816Y-154063051D01*
X245083348Y-154043048D01*
X245227786Y-153938109D01*
X245227788Y-153938106D01*
X245227792Y-153938104D01*
X245378104Y-153787792D01*
X245378106Y-153787788D01*
X245378109Y-153787786D01*
X245487086Y-153637789D01*
X245503051Y-153615816D01*
X245599557Y-153426412D01*
X245665246Y-153224243D01*
X245698500Y-153014287D01*
X245698500Y-152801713D01*
X245665246Y-152591757D01*
X245599557Y-152389588D01*
X245503051Y-152200184D01*
X245503049Y-152200181D01*
X245503048Y-152200179D01*
X245378109Y-152028213D01*
X245227786Y-151877890D01*
X245055820Y-151752951D01*
X245055115Y-151752591D01*
X245047054Y-151748485D01*
X244996259Y-151700512D01*
X244979463Y-151632692D01*
X245001999Y-151566556D01*
X245047054Y-151527515D01*
X245055816Y-151523051D01*
X245095393Y-151494297D01*
X245227786Y-151398109D01*
X245227788Y-151398106D01*
X245227792Y-151398104D01*
X245378104Y-151247792D01*
X245378106Y-151247788D01*
X245378111Y-151247784D01*
X245503048Y-151075820D01*
X245503047Y-151075820D01*
X245503051Y-151075816D01*
X245550219Y-150983242D01*
X245598190Y-150932449D01*
X245666011Y-150915653D01*
X245732146Y-150938189D01*
X245748383Y-150951858D01*
X254559635Y-159763111D01*
X254559636Y-159763112D01*
X254674374Y-159839777D01*
X254801849Y-159892578D01*
X254801854Y-159892580D01*
X254801858Y-159892580D01*
X254801859Y-159892581D01*
X254937186Y-159919500D01*
X254937189Y-159919500D01*
X255075176Y-159919500D01*
X258342500Y-159919500D01*
X258409539Y-159939185D01*
X258455294Y-159991989D01*
X258466500Y-160043500D01*
X258466500Y-161405870D01*
X258466501Y-161405876D01*
X258472908Y-161465483D01*
X258523202Y-161600328D01*
X258523206Y-161600335D01*
X258609452Y-161715544D01*
X258609455Y-161715547D01*
X258724664Y-161801793D01*
X258724671Y-161801797D01*
X258859517Y-161852091D01*
X258859516Y-161852091D01*
X258866444Y-161852835D01*
X258919127Y-161858500D01*
X260714872Y-161858499D01*
X260774483Y-161852091D01*
X260909331Y-161801796D01*
X261024546Y-161715546D01*
X261110796Y-161600331D01*
X261160900Y-161465995D01*
X268628000Y-161465995D01*
X268628000Y-161702004D01*
X268628001Y-161702020D01*
X268658806Y-161936010D01*
X268719894Y-162163993D01*
X268810214Y-162382045D01*
X268810219Y-162382056D01*
X268881177Y-162504957D01*
X268928227Y-162586450D01*
X268928229Y-162586453D01*
X268928230Y-162586454D01*
X269071906Y-162773697D01*
X269071912Y-162773704D01*
X269238795Y-162940587D01*
X269238802Y-162940593D01*
X269255409Y-162953336D01*
X269426050Y-163084273D01*
X269557418Y-163160118D01*
X269630443Y-163202280D01*
X269630448Y-163202282D01*
X269630451Y-163202284D01*
X269848507Y-163292606D01*
X270076486Y-163353693D01*
X270310489Y-163384500D01*
X270310496Y-163384500D01*
X270546504Y-163384500D01*
X270546511Y-163384500D01*
X270780514Y-163353693D01*
X271008493Y-163292606D01*
X271226549Y-163202284D01*
X271430950Y-163084273D01*
X271618199Y-162940592D01*
X271785092Y-162773699D01*
X271928773Y-162586450D01*
X272046784Y-162382049D01*
X272137106Y-162163993D01*
X272198193Y-161936014D01*
X272229000Y-161702011D01*
X272229000Y-161465989D01*
X272198193Y-161231986D01*
X272137106Y-161004007D01*
X272046784Y-160785951D01*
X272046782Y-160785948D01*
X272046780Y-160785943D01*
X272004618Y-160712918D01*
X271928773Y-160581550D01*
X271785092Y-160394301D01*
X271785087Y-160394295D01*
X271618204Y-160227412D01*
X271618197Y-160227406D01*
X271430954Y-160083730D01*
X271430953Y-160083729D01*
X271430950Y-160083727D01*
X271302538Y-160009588D01*
X271226556Y-159965719D01*
X271226545Y-159965714D01*
X271008493Y-159875394D01*
X270875569Y-159839777D01*
X270780514Y-159814307D01*
X270780513Y-159814306D01*
X270780510Y-159814306D01*
X270546520Y-159783501D01*
X270546517Y-159783500D01*
X270546511Y-159783500D01*
X270310489Y-159783500D01*
X270310483Y-159783500D01*
X270310479Y-159783501D01*
X270076489Y-159814306D01*
X269848506Y-159875394D01*
X269630454Y-159965714D01*
X269630443Y-159965719D01*
X269426045Y-160083730D01*
X269238802Y-160227406D01*
X269238795Y-160227412D01*
X269071912Y-160394295D01*
X269071906Y-160394302D01*
X268928230Y-160581545D01*
X268810219Y-160785943D01*
X268810214Y-160785954D01*
X268719894Y-161004006D01*
X268658806Y-161231989D01*
X268628001Y-161465979D01*
X268628000Y-161465995D01*
X261160900Y-161465995D01*
X261161091Y-161465483D01*
X261167500Y-161405873D01*
X261167499Y-160043499D01*
X261187184Y-159976461D01*
X261239987Y-159930706D01*
X261291499Y-159919500D01*
X266098496Y-159919500D01*
X266189540Y-159901389D01*
X266233828Y-159892580D01*
X266297569Y-159866177D01*
X266361307Y-159839777D01*
X266361308Y-159839776D01*
X266361311Y-159839775D01*
X266476043Y-159763114D01*
X269582337Y-156656817D01*
X269643660Y-156623333D01*
X269670018Y-156620499D01*
X271528502Y-156620499D01*
X271528508Y-156620499D01*
X271631297Y-156609999D01*
X271797834Y-156554814D01*
X271947156Y-156462712D01*
X272071212Y-156338656D01*
X272163314Y-156189334D01*
X272218499Y-156022797D01*
X272229000Y-155920009D01*
X272228999Y-153719992D01*
X272218499Y-153617203D01*
X272163314Y-153450666D01*
X272071212Y-153301344D01*
X272051932Y-153282064D01*
X272018447Y-153220741D01*
X272023431Y-153151049D01*
X272065303Y-153095116D01*
X272105989Y-153076974D01*
X272105496Y-153075349D01*
X272111320Y-153073581D01*
X272111328Y-153073580D01*
X272175069Y-153047177D01*
X272238807Y-153020777D01*
X272238808Y-153020776D01*
X272238811Y-153020775D01*
X272353543Y-152944114D01*
X273848113Y-151449543D01*
X273902265Y-151368500D01*
X273924775Y-151334811D01*
X273960819Y-151247792D01*
X273977580Y-151207329D01*
X273993021Y-151129699D01*
X274004500Y-151071993D01*
X274004500Y-136075007D01*
X274004500Y-136075004D01*
X273977581Y-135939676D01*
X273977580Y-135939675D01*
X273977580Y-135939672D01*
X273971922Y-135926013D01*
X273958903Y-135894581D01*
X273937030Y-135841774D01*
X273924778Y-135812195D01*
X273924771Y-135812182D01*
X273848115Y-135697459D01*
X273848114Y-135697458D01*
X273750542Y-135599886D01*
X273287993Y-135137337D01*
X272793837Y-134643180D01*
X272760352Y-134581857D01*
X272765336Y-134512165D01*
X272807208Y-134456232D01*
X272872672Y-134431815D01*
X272881518Y-134431499D01*
X274176871Y-134431499D01*
X274176872Y-134431499D01*
X274236483Y-134425091D01*
X274371331Y-134374796D01*
X274486546Y-134288546D01*
X274572796Y-134173331D01*
X274623091Y-134038483D01*
X274629500Y-133978873D01*
X274629499Y-132183128D01*
X274623091Y-132123517D01*
X274572796Y-131988669D01*
X274572795Y-131988668D01*
X274572793Y-131988664D01*
X274486547Y-131873455D01*
X274486544Y-131873452D01*
X274371335Y-131787206D01*
X274371328Y-131787202D01*
X274239917Y-131738189D01*
X274183983Y-131696318D01*
X274159566Y-131630853D01*
X274174418Y-131562580D01*
X274195563Y-131534332D01*
X274309104Y-131420792D01*
X274434051Y-131248816D01*
X274530557Y-131059412D01*
X274596246Y-130857243D01*
X274629500Y-130647287D01*
X274629500Y-130434713D01*
X274596246Y-130224757D01*
X274530557Y-130022588D01*
X274434051Y-129833184D01*
X274434049Y-129833181D01*
X274434048Y-129833179D01*
X274309109Y-129661213D01*
X274158786Y-129510890D01*
X273986820Y-129385951D01*
X273986115Y-129385591D01*
X273978054Y-129381485D01*
X273927259Y-129333512D01*
X273910463Y-129265692D01*
X273932999Y-129199556D01*
X273978054Y-129160515D01*
X273986816Y-129156051D01*
X274086551Y-129083590D01*
X274158786Y-129031109D01*
X274158788Y-129031106D01*
X274158792Y-129031104D01*
X274309104Y-128880792D01*
X274309106Y-128880788D01*
X274309109Y-128880786D01*
X274434048Y-128708820D01*
X274434047Y-128708820D01*
X274434051Y-128708816D01*
X274530557Y-128519412D01*
X274596246Y-128317243D01*
X274629500Y-128107287D01*
X274629500Y-127894713D01*
X274596246Y-127684757D01*
X274530557Y-127482588D01*
X274434051Y-127293184D01*
X274434049Y-127293181D01*
X274434048Y-127293179D01*
X274309109Y-127121213D01*
X274158786Y-126970890D01*
X273986820Y-126845951D01*
X273797414Y-126749444D01*
X273797413Y-126749443D01*
X273797412Y-126749443D01*
X273595243Y-126683754D01*
X273595241Y-126683753D01*
X273595240Y-126683753D01*
X273433957Y-126658208D01*
X273385287Y-126650500D01*
X273172713Y-126650500D01*
X273124042Y-126658208D01*
X272962760Y-126683753D01*
X272760585Y-126749444D01*
X272571179Y-126845951D01*
X272399213Y-126970890D01*
X272248890Y-127121213D01*
X272123951Y-127293179D01*
X272027444Y-127482585D01*
X271961753Y-127684760D01*
X271928500Y-127894713D01*
X271928500Y-128107286D01*
X271961046Y-128312777D01*
X271961754Y-128317243D01*
X272006516Y-128455007D01*
X272027444Y-128519414D01*
X272123951Y-128708820D01*
X272248890Y-128880786D01*
X272399213Y-129031109D01*
X272571182Y-129156050D01*
X272579946Y-129160516D01*
X272630742Y-129208491D01*
X272647536Y-129276312D01*
X272624998Y-129342447D01*
X272579946Y-129381484D01*
X272571182Y-129385949D01*
X272399213Y-129510890D01*
X272248890Y-129661213D01*
X272123951Y-129833179D01*
X272027444Y-130022585D01*
X271961753Y-130224760D01*
X271939259Y-130366781D01*
X271928500Y-130434713D01*
X271928500Y-130647287D01*
X271961754Y-130857243D01*
X272017270Y-131028104D01*
X272027444Y-131059414D01*
X272123951Y-131248820D01*
X272248890Y-131420786D01*
X272362430Y-131534326D01*
X272395915Y-131595649D01*
X272390931Y-131665341D01*
X272349059Y-131721274D01*
X272318083Y-131738189D01*
X272186669Y-131787203D01*
X272186664Y-131787206D01*
X272071455Y-131873452D01*
X272071452Y-131873455D01*
X271985206Y-131988664D01*
X271985202Y-131988671D01*
X271934908Y-132123517D01*
X271928501Y-132183116D01*
X271928501Y-132183123D01*
X271928500Y-132183135D01*
X271928500Y-133478481D01*
X271908815Y-133545520D01*
X271856011Y-133591275D01*
X271786853Y-133601219D01*
X271723297Y-133572194D01*
X271716819Y-133566162D01*
X268452819Y-130302162D01*
X268419334Y-130240839D01*
X268416500Y-130214481D01*
X268416500Y-128865519D01*
X268436185Y-128798480D01*
X268452819Y-128777838D01*
X273340112Y-123890545D01*
X273340114Y-123890543D01*
X273416775Y-123775811D01*
X273469580Y-123648328D01*
X273481118Y-123590322D01*
X273496500Y-123512996D01*
X273496500Y-104579007D01*
X273490622Y-104549461D01*
X273490622Y-104549457D01*
X273475227Y-104472064D01*
X273469580Y-104443672D01*
X273469578Y-104443667D01*
X273416777Y-104316192D01*
X273340112Y-104201454D01*
X271210545Y-102071887D01*
X271095807Y-101995222D01*
X270968332Y-101942421D01*
X270968322Y-101942418D01*
X270832996Y-101915500D01*
X270832994Y-101915500D01*
X270832993Y-101915500D01*
X259780550Y-101915500D01*
X259713511Y-101895815D01*
X259667756Y-101843011D01*
X259657812Y-101773853D01*
X259658077Y-101772102D01*
X259668500Y-101706292D01*
X259668500Y-101493713D01*
X259651210Y-101384552D01*
X259635246Y-101283757D01*
X259569557Y-101081588D01*
X259473051Y-100892184D01*
X259473049Y-100892181D01*
X259473048Y-100892179D01*
X259348109Y-100720213D01*
X259197786Y-100569890D01*
X259025820Y-100444951D01*
X259025115Y-100444591D01*
X259017054Y-100440485D01*
X258966259Y-100392512D01*
X258949463Y-100324692D01*
X258971999Y-100258556D01*
X259017054Y-100219515D01*
X259025816Y-100215051D01*
X259109841Y-100154004D01*
X259197786Y-100090109D01*
X259197788Y-100090106D01*
X259197792Y-100090104D01*
X259348104Y-99939792D01*
X259348106Y-99939788D01*
X259348109Y-99939786D01*
X259473048Y-99767820D01*
X259473047Y-99767820D01*
X259473051Y-99767816D01*
X259569557Y-99578412D01*
X259635246Y-99376243D01*
X259668500Y-99166287D01*
X259668500Y-98953713D01*
X259635246Y-98743757D01*
X259569557Y-98541588D01*
X259566571Y-98535727D01*
X259538753Y-98481130D01*
X259538752Y-98481129D01*
X259511677Y-98427992D01*
X259511672Y-98427983D01*
X268628000Y-98427983D01*
X268628000Y-100628001D01*
X268628001Y-100628018D01*
X268638500Y-100730796D01*
X268638501Y-100730799D01*
X268693685Y-100897331D01*
X268693687Y-100897336D01*
X268728569Y-100953888D01*
X268785788Y-101046656D01*
X268909844Y-101170712D01*
X269059166Y-101262814D01*
X269225703Y-101317999D01*
X269328491Y-101328500D01*
X271528508Y-101328499D01*
X271631297Y-101317999D01*
X271797834Y-101262814D01*
X271947156Y-101170712D01*
X272071212Y-101046656D01*
X272163314Y-100897334D01*
X272218499Y-100730797D01*
X272229000Y-100628009D01*
X272228999Y-98427992D01*
X272218499Y-98325203D01*
X272163314Y-98158666D01*
X272071212Y-98009344D01*
X271947156Y-97885288D01*
X271797834Y-97793186D01*
X271631297Y-97738001D01*
X271631295Y-97738000D01*
X271528510Y-97727500D01*
X269328498Y-97727500D01*
X269328481Y-97727501D01*
X269225703Y-97738000D01*
X269225700Y-97738001D01*
X269059168Y-97793185D01*
X269059163Y-97793187D01*
X268909842Y-97885289D01*
X268785789Y-98009342D01*
X268693687Y-98158663D01*
X268693685Y-98158668D01*
X268686546Y-98180213D01*
X268638501Y-98325203D01*
X268638501Y-98325204D01*
X268638500Y-98325204D01*
X268628000Y-98427983D01*
X259511672Y-98427983D01*
X259473051Y-98352184D01*
X259453446Y-98325200D01*
X259348109Y-98180213D01*
X259197786Y-98029890D01*
X259025820Y-97904951D01*
X259025115Y-97904591D01*
X259017054Y-97900485D01*
X258966259Y-97852512D01*
X258949463Y-97784692D01*
X258971999Y-97718556D01*
X259017054Y-97679515D01*
X259025816Y-97675051D01*
X259125405Y-97602696D01*
X259197786Y-97550109D01*
X259197788Y-97550106D01*
X259197792Y-97550104D01*
X259348104Y-97399792D01*
X259348106Y-97399788D01*
X259348109Y-97399786D01*
X259473048Y-97227820D01*
X259473047Y-97227820D01*
X259473051Y-97227816D01*
X259569557Y-97038412D01*
X259635246Y-96836243D01*
X259668500Y-96626287D01*
X259668500Y-96413713D01*
X259635246Y-96203757D01*
X259569557Y-96001588D01*
X259473051Y-95812184D01*
X259473049Y-95812181D01*
X259473048Y-95812179D01*
X259348109Y-95640213D01*
X259197786Y-95489890D01*
X259025820Y-95364951D01*
X259025115Y-95364591D01*
X259017054Y-95360485D01*
X258966259Y-95312512D01*
X258949463Y-95244692D01*
X258971999Y-95178556D01*
X259017054Y-95139515D01*
X259025816Y-95135051D01*
X259112138Y-95072335D01*
X259197786Y-95010109D01*
X259197788Y-95010106D01*
X259197792Y-95010104D01*
X259348104Y-94859792D01*
X259348106Y-94859788D01*
X259348109Y-94859786D01*
X259473048Y-94687820D01*
X259473047Y-94687820D01*
X259473051Y-94687816D01*
X259569557Y-94498412D01*
X259598286Y-94409995D01*
X268628000Y-94409995D01*
X268628000Y-94646004D01*
X268628001Y-94646020D01*
X268658806Y-94880010D01*
X268719894Y-95107993D01*
X268810214Y-95326045D01*
X268810219Y-95326056D01*
X268870316Y-95430145D01*
X268928227Y-95530450D01*
X268928229Y-95530453D01*
X268928230Y-95530454D01*
X269071906Y-95717697D01*
X269071912Y-95717704D01*
X269238795Y-95884587D01*
X269238801Y-95884592D01*
X269426050Y-96028273D01*
X269557418Y-96104118D01*
X269630443Y-96146280D01*
X269630448Y-96146282D01*
X269630451Y-96146284D01*
X269848507Y-96236606D01*
X270076486Y-96297693D01*
X270310489Y-96328500D01*
X270310496Y-96328500D01*
X270546504Y-96328500D01*
X270546511Y-96328500D01*
X270780514Y-96297693D01*
X271008493Y-96236606D01*
X271226549Y-96146284D01*
X271430950Y-96028273D01*
X271618199Y-95884592D01*
X271785092Y-95717699D01*
X271928773Y-95530450D01*
X272046784Y-95326049D01*
X272137106Y-95107993D01*
X272198193Y-94880014D01*
X272229000Y-94646011D01*
X272229000Y-94409989D01*
X272198193Y-94175986D01*
X272137106Y-93948007D01*
X272046784Y-93729951D01*
X272046782Y-93729948D01*
X272046780Y-93729943D01*
X272004618Y-93656918D01*
X271928773Y-93525550D01*
X271785092Y-93338301D01*
X271785087Y-93338295D01*
X271618204Y-93171412D01*
X271618197Y-93171406D01*
X271430954Y-93027730D01*
X271430953Y-93027729D01*
X271430950Y-93027727D01*
X271349457Y-92980677D01*
X271226556Y-92909719D01*
X271226545Y-92909714D01*
X271008493Y-92819394D01*
X270833311Y-92772454D01*
X270780514Y-92758307D01*
X270780513Y-92758306D01*
X270780510Y-92758306D01*
X270546520Y-92727501D01*
X270546517Y-92727500D01*
X270546511Y-92727500D01*
X270310489Y-92727500D01*
X270310483Y-92727500D01*
X270310479Y-92727501D01*
X270076489Y-92758306D01*
X269848506Y-92819394D01*
X269630454Y-92909714D01*
X269630443Y-92909719D01*
X269426045Y-93027730D01*
X269238802Y-93171406D01*
X269238795Y-93171412D01*
X269071912Y-93338295D01*
X269071906Y-93338302D01*
X268928230Y-93525545D01*
X268810219Y-93729943D01*
X268810214Y-93729954D01*
X268719894Y-93948006D01*
X268658806Y-94175989D01*
X268628001Y-94409979D01*
X268628000Y-94409995D01*
X259598286Y-94409995D01*
X259635246Y-94296243D01*
X259668500Y-94086287D01*
X259668500Y-93873713D01*
X259635246Y-93663757D01*
X259569557Y-93461588D01*
X259473051Y-93272184D01*
X259473049Y-93272181D01*
X259473048Y-93272179D01*
X259348109Y-93100213D01*
X259197786Y-92949890D01*
X259025820Y-92824951D01*
X258836414Y-92728444D01*
X258836413Y-92728443D01*
X258836412Y-92728443D01*
X258634243Y-92662754D01*
X258634241Y-92662753D01*
X258634240Y-92662753D01*
X258472957Y-92637208D01*
X258424287Y-92629500D01*
X258211713Y-92629500D01*
X258163042Y-92637208D01*
X258001760Y-92662753D01*
X257799585Y-92728444D01*
X257610179Y-92824951D01*
X257438213Y-92949890D01*
X257287890Y-93100213D01*
X257162951Y-93272179D01*
X257066444Y-93461585D01*
X257000753Y-93663760D01*
X256967500Y-93873713D01*
X256967500Y-94086287D01*
X256967499Y-94086287D01*
X256992284Y-94242771D01*
X256983329Y-94312064D01*
X256957492Y-94349849D01*
X249193162Y-102114181D01*
X249131839Y-102147666D01*
X249105481Y-102150500D01*
X244235802Y-102150500D01*
X244168763Y-102130815D01*
X244123008Y-102078011D01*
X244113064Y-102008853D01*
X244117871Y-101988182D01*
X244141246Y-101916243D01*
X244174500Y-101706287D01*
X244174500Y-101493713D01*
X244141246Y-101283757D01*
X244075557Y-101081588D01*
X243979051Y-100892184D01*
X243979049Y-100892181D01*
X243979048Y-100892179D01*
X243854109Y-100720213D01*
X243703786Y-100569890D01*
X243531820Y-100444951D01*
X243531115Y-100444591D01*
X243523054Y-100440485D01*
X243472259Y-100392512D01*
X243455463Y-100324692D01*
X243477999Y-100258556D01*
X243523054Y-100219515D01*
X243531816Y-100215051D01*
X243615841Y-100154004D01*
X243703786Y-100090109D01*
X243703788Y-100090106D01*
X243703792Y-100090104D01*
X243854104Y-99939792D01*
X243854106Y-99939788D01*
X243854109Y-99939786D01*
X243979048Y-99767820D01*
X243979047Y-99767820D01*
X243979051Y-99767816D01*
X244075557Y-99578412D01*
X244141246Y-99376243D01*
X244174500Y-99166287D01*
X244174500Y-98953713D01*
X244141246Y-98743757D01*
X244075557Y-98541588D01*
X243979051Y-98352184D01*
X243979049Y-98352181D01*
X243979048Y-98352179D01*
X243854109Y-98180213D01*
X243703786Y-98029890D01*
X243531820Y-97904951D01*
X243531115Y-97904591D01*
X243523054Y-97900485D01*
X243472259Y-97852512D01*
X243455463Y-97784692D01*
X243477999Y-97718556D01*
X243523054Y-97679515D01*
X243531816Y-97675051D01*
X243631405Y-97602696D01*
X243703786Y-97550109D01*
X243703788Y-97550106D01*
X243703792Y-97550104D01*
X243854104Y-97399792D01*
X243854106Y-97399788D01*
X243854109Y-97399786D01*
X243979048Y-97227820D01*
X243979047Y-97227820D01*
X243979051Y-97227816D01*
X244075557Y-97038412D01*
X244141246Y-96836243D01*
X244174500Y-96626287D01*
X244174500Y-96413713D01*
X244141246Y-96203757D01*
X244075557Y-96001588D01*
X243979051Y-95812184D01*
X243979049Y-95812181D01*
X243979048Y-95812179D01*
X243854109Y-95640213D01*
X243740569Y-95526673D01*
X243707084Y-95465350D01*
X243712068Y-95395658D01*
X243753940Y-95339725D01*
X243784915Y-95322810D01*
X243916331Y-95273796D01*
X244031546Y-95187546D01*
X244117796Y-95072331D01*
X244168091Y-94937483D01*
X244174500Y-94877873D01*
X244174499Y-93082128D01*
X244168091Y-93022517D01*
X244126018Y-92909714D01*
X244117797Y-92887671D01*
X244117793Y-92887664D01*
X244031547Y-92772455D01*
X244031544Y-92772452D01*
X243916335Y-92686206D01*
X243916328Y-92686202D01*
X243781482Y-92635908D01*
X243781483Y-92635908D01*
X243721883Y-92629501D01*
X243721881Y-92629500D01*
X243721873Y-92629500D01*
X243721864Y-92629500D01*
X241926129Y-92629500D01*
X241926123Y-92629501D01*
X241866516Y-92635908D01*
X241731671Y-92686202D01*
X241731664Y-92686206D01*
X241616455Y-92772452D01*
X241616452Y-92772455D01*
X241530206Y-92887664D01*
X241530202Y-92887671D01*
X241479908Y-93022517D01*
X241473501Y-93082116D01*
X241473501Y-93082123D01*
X241473500Y-93082135D01*
X241473500Y-94877870D01*
X241473501Y-94877876D01*
X241479908Y-94937483D01*
X241530202Y-95072328D01*
X241530206Y-95072335D01*
X241616452Y-95187544D01*
X241616455Y-95187547D01*
X241731664Y-95273793D01*
X241731671Y-95273797D01*
X241863082Y-95322810D01*
X241919016Y-95364681D01*
X241943433Y-95430145D01*
X241928582Y-95498418D01*
X241907431Y-95526673D01*
X241793892Y-95640212D01*
X241737097Y-95718385D01*
X241681767Y-95761051D01*
X241636779Y-95769500D01*
X238385080Y-95769500D01*
X238240092Y-95798340D01*
X238240082Y-95798343D01*
X238103511Y-95854912D01*
X238103498Y-95854919D01*
X237980584Y-95937048D01*
X237980580Y-95937051D01*
X236301564Y-97616067D01*
X236240241Y-97649552D01*
X236170549Y-97644568D01*
X236114616Y-97602696D01*
X236090199Y-97537232D01*
X236099321Y-97480935D01*
X236166051Y-97319835D01*
X236204500Y-97126541D01*
X236204500Y-96929459D01*
X236204500Y-96929456D01*
X236166052Y-96736170D01*
X236166051Y-96736169D01*
X236166051Y-96736165D01*
X236160272Y-96722214D01*
X236090635Y-96554092D01*
X236090628Y-96554079D01*
X235981139Y-96390218D01*
X235981136Y-96390214D01*
X235841785Y-96250863D01*
X235841781Y-96250860D01*
X235677920Y-96141371D01*
X235677907Y-96141364D01*
X235495839Y-96065950D01*
X235495829Y-96065947D01*
X235302543Y-96027500D01*
X235302541Y-96027500D01*
X235105459Y-96027500D01*
X235105457Y-96027500D01*
X234912170Y-96065947D01*
X234912160Y-96065950D01*
X234730092Y-96141364D01*
X234730079Y-96141371D01*
X234566218Y-96250860D01*
X234566214Y-96250863D01*
X234525899Y-96291180D01*
X234464576Y-96324666D01*
X234438217Y-96327500D01*
X230563003Y-96327500D01*
X230454590Y-96349065D01*
X230454589Y-96349065D01*
X230441131Y-96351742D01*
X230427673Y-96354419D01*
X230427671Y-96354420D01*
X230374866Y-96376292D01*
X230374864Y-96376293D01*
X230374863Y-96376292D01*
X230300191Y-96407223D01*
X230201202Y-96473365D01*
X230201203Y-96473366D01*
X230185453Y-96483890D01*
X230185451Y-96483891D01*
X211874181Y-114795161D01*
X211812858Y-114828646D01*
X211743166Y-114823662D01*
X211687233Y-114781790D01*
X211662816Y-114716326D01*
X211662500Y-114707480D01*
X211662500Y-114701713D01*
X211651730Y-114633714D01*
X211629246Y-114491757D01*
X211563557Y-114289588D01*
X211467051Y-114100184D01*
X211467049Y-114100181D01*
X211467048Y-114100179D01*
X211342109Y-113928213D01*
X211191786Y-113777890D01*
X211019820Y-113652951D01*
X211019115Y-113652591D01*
X211011054Y-113648485D01*
X210960259Y-113600512D01*
X210943463Y-113532692D01*
X210965999Y-113466556D01*
X211011054Y-113427515D01*
X211019816Y-113423051D01*
X211081436Y-113378282D01*
X211191786Y-113298109D01*
X211191788Y-113298106D01*
X211191792Y-113298104D01*
X211342104Y-113147792D01*
X211435229Y-113019614D01*
X211490558Y-112976949D01*
X211535547Y-112968500D01*
X212920996Y-112968500D01*
X213015522Y-112949697D01*
X213056328Y-112941580D01*
X213120069Y-112915177D01*
X213183807Y-112888777D01*
X213183808Y-112888776D01*
X213183811Y-112888775D01*
X213298543Y-112812114D01*
X226096114Y-100014543D01*
X226172775Y-99899811D01*
X226225580Y-99772329D01*
X226233071Y-99734663D01*
X226243152Y-99683990D01*
X226243152Y-99683986D01*
X226252500Y-99636993D01*
X226252500Y-98125783D01*
X226272185Y-98058744D01*
X226288820Y-98038101D01*
X226329136Y-97997785D01*
X226329139Y-97997782D01*
X226438632Y-97833914D01*
X226514051Y-97651835D01*
X226536847Y-97537232D01*
X226552500Y-97458543D01*
X226552500Y-97261456D01*
X226514052Y-97068170D01*
X226514051Y-97068169D01*
X226514051Y-97068165D01*
X226514049Y-97068160D01*
X226438635Y-96886092D01*
X226438628Y-96886079D01*
X226329139Y-96722218D01*
X226329136Y-96722214D01*
X226189785Y-96582863D01*
X226189781Y-96582860D01*
X226025920Y-96473371D01*
X226025907Y-96473364D01*
X225843839Y-96397950D01*
X225843829Y-96397947D01*
X225650543Y-96359500D01*
X225650541Y-96359500D01*
X225453459Y-96359500D01*
X225453457Y-96359500D01*
X225260170Y-96397947D01*
X225260160Y-96397950D01*
X225078092Y-96473364D01*
X225078079Y-96473371D01*
X224914218Y-96582860D01*
X224914214Y-96582863D01*
X224774863Y-96722214D01*
X224774860Y-96722218D01*
X224665371Y-96886079D01*
X224665364Y-96886092D01*
X224589950Y-97068160D01*
X224589947Y-97068170D01*
X224551500Y-97261456D01*
X224551500Y-97261459D01*
X224551500Y-97458541D01*
X224551500Y-97458543D01*
X224551499Y-97458543D01*
X224589947Y-97651829D01*
X224589950Y-97651839D01*
X224665364Y-97833907D01*
X224665371Y-97833920D01*
X224774860Y-97997781D01*
X224774863Y-97997785D01*
X224815180Y-98038101D01*
X224848666Y-98099424D01*
X224851500Y-98125783D01*
X224851500Y-99226481D01*
X224831815Y-99293520D01*
X224815181Y-99314162D01*
X212598162Y-111531181D01*
X212536839Y-111564666D01*
X212510481Y-111567500D01*
X211535547Y-111567500D01*
X211468508Y-111547815D01*
X211435230Y-111516385D01*
X211382465Y-111443760D01*
X211342107Y-111388211D01*
X211191786Y-111237890D01*
X211019820Y-111112951D01*
X211019115Y-111112591D01*
X211011054Y-111108485D01*
X210960259Y-111060512D01*
X210943463Y-110992692D01*
X210965999Y-110926556D01*
X211011054Y-110887515D01*
X211019816Y-110883051D01*
X211103984Y-110821900D01*
X211191786Y-110758109D01*
X211191788Y-110758106D01*
X211191792Y-110758104D01*
X211342104Y-110607792D01*
X211342106Y-110607788D01*
X211342109Y-110607786D01*
X211467048Y-110435820D01*
X211467047Y-110435820D01*
X211467051Y-110435816D01*
X211563557Y-110246412D01*
X211629246Y-110044243D01*
X211662500Y-109834287D01*
X211662500Y-109621713D01*
X211637715Y-109465227D01*
X211646670Y-109395933D01*
X211672504Y-109358151D01*
X222965838Y-98064819D01*
X223027161Y-98031334D01*
X223053519Y-98028500D01*
X223110543Y-98028500D01*
X223264974Y-97997781D01*
X223303835Y-97990051D01*
X223485914Y-97914632D01*
X223649782Y-97805139D01*
X223789139Y-97665782D01*
X223898632Y-97501914D01*
X223974051Y-97319835D01*
X224012500Y-97126541D01*
X224012500Y-96929459D01*
X224012500Y-96929456D01*
X223974052Y-96736170D01*
X223974051Y-96736169D01*
X223974051Y-96736165D01*
X223968272Y-96722214D01*
X223898635Y-96554092D01*
X223898628Y-96554079D01*
X223789139Y-96390218D01*
X223789136Y-96390214D01*
X223649785Y-96250863D01*
X223649781Y-96250860D01*
X223485920Y-96141371D01*
X223485907Y-96141364D01*
X223303839Y-96065950D01*
X223303829Y-96065947D01*
X223110543Y-96027500D01*
X223110541Y-96027500D01*
X222913459Y-96027500D01*
X222913457Y-96027500D01*
X222720170Y-96065947D01*
X222720160Y-96065950D01*
X222538092Y-96141364D01*
X222538079Y-96141371D01*
X222374218Y-96250860D01*
X222374214Y-96250863D01*
X222234863Y-96390214D01*
X222234860Y-96390218D01*
X222125371Y-96554079D01*
X222125364Y-96554092D01*
X222049950Y-96736160D01*
X222049947Y-96736170D01*
X222011500Y-96929456D01*
X222011500Y-96986480D01*
X221991815Y-97053519D01*
X221975181Y-97074161D01*
X211874181Y-107175161D01*
X211812858Y-107208646D01*
X211743166Y-107203662D01*
X211687233Y-107161790D01*
X211662816Y-107096326D01*
X211662500Y-107087480D01*
X211662500Y-107081713D01*
X211651572Y-107012716D01*
X211629246Y-106871757D01*
X211563557Y-106669588D01*
X211467051Y-106480184D01*
X211467049Y-106480181D01*
X211467048Y-106480179D01*
X211342109Y-106308213D01*
X211191786Y-106157890D01*
X211019820Y-106032951D01*
X211019115Y-106032591D01*
X211011054Y-106028485D01*
X210960259Y-105980512D01*
X210943463Y-105912692D01*
X210965999Y-105846556D01*
X211011054Y-105807515D01*
X211019816Y-105803051D01*
X211088640Y-105753048D01*
X211191786Y-105678109D01*
X211191788Y-105678106D01*
X211191792Y-105678104D01*
X211342104Y-105527792D01*
X211342106Y-105527788D01*
X211342109Y-105527786D01*
X211467048Y-105355820D01*
X211467047Y-105355820D01*
X211467051Y-105355816D01*
X211563557Y-105166412D01*
X211629246Y-104964243D01*
X211662500Y-104754287D01*
X211662500Y-104541713D01*
X211629246Y-104331757D01*
X211563557Y-104129588D01*
X211467051Y-103940184D01*
X211467049Y-103940181D01*
X211467048Y-103940179D01*
X211342109Y-103768213D01*
X211228569Y-103654673D01*
X211195084Y-103593350D01*
X211200068Y-103523658D01*
X211241940Y-103467725D01*
X211272915Y-103450810D01*
X211404331Y-103401796D01*
X211519546Y-103315546D01*
X211605796Y-103200331D01*
X211656091Y-103065483D01*
X211662500Y-103005873D01*
X211662499Y-101210128D01*
X211656091Y-101150517D01*
X211634940Y-101093809D01*
X211605797Y-101015671D01*
X211605793Y-101015664D01*
X211519547Y-100900455D01*
X211519544Y-100900452D01*
X211404335Y-100814206D01*
X211404328Y-100814202D01*
X211269482Y-100763908D01*
X211269483Y-100763908D01*
X211209883Y-100757501D01*
X211209881Y-100757500D01*
X211209873Y-100757500D01*
X211209864Y-100757500D01*
X209414129Y-100757500D01*
X209414123Y-100757501D01*
X209354516Y-100763908D01*
X209219671Y-100814202D01*
X209219664Y-100814206D01*
X209104455Y-100900452D01*
X209104452Y-100900455D01*
X209018206Y-101015664D01*
X209018202Y-101015671D01*
X208967908Y-101150517D01*
X208964931Y-101178213D01*
X208961501Y-101210123D01*
X208961500Y-101210135D01*
X208961500Y-103005870D01*
X208961501Y-103005876D01*
X208967908Y-103065483D01*
X209018202Y-103200328D01*
X209018206Y-103200335D01*
X209104452Y-103315544D01*
X209104455Y-103315547D01*
X209219664Y-103401793D01*
X209219671Y-103401797D01*
X209351082Y-103450810D01*
X209407016Y-103492681D01*
X209431433Y-103558145D01*
X209416582Y-103626418D01*
X209395431Y-103654673D01*
X209281889Y-103768215D01*
X209156951Y-103940179D01*
X209060444Y-104129585D01*
X208994753Y-104331760D01*
X208961500Y-104541713D01*
X208961500Y-104754286D01*
X208994582Y-104963161D01*
X208994754Y-104964243D01*
X209026615Y-105062302D01*
X209060444Y-105166414D01*
X209156951Y-105355820D01*
X209281890Y-105527786D01*
X209432213Y-105678109D01*
X209604182Y-105803050D01*
X209612946Y-105807516D01*
X209663742Y-105855491D01*
X209680536Y-105923312D01*
X209657998Y-105989447D01*
X209612946Y-106028484D01*
X209604182Y-106032949D01*
X209432213Y-106157890D01*
X209281892Y-106308211D01*
X209236987Y-106370020D01*
X209188770Y-106436385D01*
X209133442Y-106479051D01*
X209088453Y-106487500D01*
X205489783Y-106487500D01*
X205422744Y-106467815D01*
X205402101Y-106451180D01*
X205361785Y-106410863D01*
X205361781Y-106410860D01*
X205197920Y-106301371D01*
X205197907Y-106301364D01*
X205015839Y-106225950D01*
X205015829Y-106225947D01*
X204822543Y-106187500D01*
X204822541Y-106187500D01*
X204625459Y-106187500D01*
X204625457Y-106187500D01*
X204432170Y-106225947D01*
X204432160Y-106225950D01*
X204250092Y-106301364D01*
X204250079Y-106301371D01*
X204086218Y-106410860D01*
X204086214Y-106410863D01*
X203946863Y-106550214D01*
X203946860Y-106550218D01*
X203837371Y-106714079D01*
X203837364Y-106714092D01*
X203761950Y-106896160D01*
X203761947Y-106896170D01*
X203723500Y-107089456D01*
X203723500Y-107089459D01*
X203723500Y-107286541D01*
X203723500Y-107286543D01*
X203723499Y-107286543D01*
X203761947Y-107479829D01*
X203761950Y-107479839D01*
X203837364Y-107661907D01*
X203837371Y-107661920D01*
X203946860Y-107825781D01*
X203946863Y-107825785D01*
X204086214Y-107965136D01*
X204086218Y-107965139D01*
X204250079Y-108074628D01*
X204250092Y-108074635D01*
X204382142Y-108129331D01*
X204432165Y-108150051D01*
X204432169Y-108150051D01*
X204432170Y-108150052D01*
X204625456Y-108188500D01*
X204625459Y-108188500D01*
X204822543Y-108188500D01*
X204952582Y-108162632D01*
X205015835Y-108150051D01*
X205197914Y-108074632D01*
X205361782Y-107965139D01*
X205402101Y-107924820D01*
X205463424Y-107891334D01*
X205489783Y-107888500D01*
X209088453Y-107888500D01*
X209155492Y-107908185D01*
X209188769Y-107939614D01*
X209205615Y-107962799D01*
X209281892Y-108067788D01*
X209432213Y-108218109D01*
X209604182Y-108343050D01*
X209612946Y-108347516D01*
X209663742Y-108395491D01*
X209680536Y-108463312D01*
X209657998Y-108529447D01*
X209612946Y-108568484D01*
X209604182Y-108572949D01*
X209432213Y-108697890D01*
X209281890Y-108848213D01*
X209156951Y-109020179D01*
X209060444Y-109209585D01*
X208994753Y-109411760D01*
X208961500Y-109621713D01*
X208961500Y-109834286D01*
X208986834Y-109994243D01*
X208994754Y-110044243D01*
X209049692Y-110213325D01*
X209060444Y-110246414D01*
X209156951Y-110435820D01*
X209281890Y-110607786D01*
X209432213Y-110758109D01*
X209604182Y-110883050D01*
X209612946Y-110887516D01*
X209663742Y-110935491D01*
X209680536Y-111003312D01*
X209657998Y-111069447D01*
X209612946Y-111108484D01*
X209604182Y-111112949D01*
X209432213Y-111237890D01*
X209281890Y-111388213D01*
X209156951Y-111560179D01*
X209060444Y-111749585D01*
X208994753Y-111951760D01*
X208961500Y-112161713D01*
X208961500Y-112374286D01*
X208990604Y-112558045D01*
X208994754Y-112584243D01*
X209052657Y-112762450D01*
X209060444Y-112786414D01*
X209156951Y-112975820D01*
X209281890Y-113147786D01*
X209432213Y-113298109D01*
X209604182Y-113423050D01*
X209612946Y-113427516D01*
X209663742Y-113475491D01*
X209680536Y-113543312D01*
X209657998Y-113609447D01*
X209612946Y-113648484D01*
X209604182Y-113652949D01*
X209432213Y-113777890D01*
X209281890Y-113928213D01*
X209156951Y-114100179D01*
X209060444Y-114289585D01*
X208994753Y-114491760D01*
X208961500Y-114701713D01*
X208961500Y-114914286D01*
X208986834Y-115074243D01*
X208994754Y-115124243D01*
X209056363Y-115313856D01*
X209060444Y-115326414D01*
X209156951Y-115515820D01*
X209281890Y-115687786D01*
X209432213Y-115838109D01*
X209604182Y-115963050D01*
X209612946Y-115967516D01*
X209663742Y-116015491D01*
X209680536Y-116083312D01*
X209657998Y-116149447D01*
X209612946Y-116188484D01*
X209604182Y-116192949D01*
X209432213Y-116317890D01*
X209281890Y-116468213D01*
X209156951Y-116640179D01*
X209060444Y-116829585D01*
X208994753Y-117031760D01*
X208961500Y-117241713D01*
X208961500Y-117454286D01*
X208990888Y-117639839D01*
X208994754Y-117664243D01*
X209045982Y-117821907D01*
X209060444Y-117866414D01*
X209156951Y-118055820D01*
X209281890Y-118227786D01*
X209432213Y-118378109D01*
X209604182Y-118503050D01*
X209612946Y-118507516D01*
X209663742Y-118555491D01*
X209680536Y-118623312D01*
X209657998Y-118689447D01*
X209612946Y-118728484D01*
X209604182Y-118732949D01*
X209432213Y-118857890D01*
X209281890Y-119008213D01*
X209156951Y-119180179D01*
X209060444Y-119369585D01*
X208994753Y-119571760D01*
X208961500Y-119781713D01*
X208961500Y-119994286D01*
X208986834Y-120154243D01*
X208994754Y-120204243D01*
X209059468Y-120403412D01*
X209060444Y-120406414D01*
X209156951Y-120595820D01*
X209281890Y-120767786D01*
X209432213Y-120918109D01*
X209604182Y-121043050D01*
X209612946Y-121047516D01*
X209663742Y-121095491D01*
X209680536Y-121163312D01*
X209657998Y-121229447D01*
X209612946Y-121268484D01*
X209604182Y-121272949D01*
X209432213Y-121397890D01*
X209281890Y-121548213D01*
X209156951Y-121720179D01*
X209060444Y-121909585D01*
X208994753Y-122111760D01*
X208961500Y-122321713D01*
X208961500Y-122534286D01*
X208990888Y-122719839D01*
X208994754Y-122744243D01*
X209057204Y-122936444D01*
X209060444Y-122946414D01*
X209156951Y-123135820D01*
X209281890Y-123307786D01*
X209432213Y-123458109D01*
X209604182Y-123583050D01*
X209612946Y-123587516D01*
X209663742Y-123635491D01*
X209680536Y-123703312D01*
X209657998Y-123769447D01*
X209612946Y-123808484D01*
X209604182Y-123812949D01*
X209432213Y-123937890D01*
X209281890Y-124088213D01*
X209156951Y-124260179D01*
X209060444Y-124449585D01*
X208994753Y-124651760D01*
X208961500Y-124861713D01*
X208961500Y-125074286D01*
X208986834Y-125234243D01*
X208994754Y-125284243D01*
X209038001Y-125417344D01*
X209060444Y-125486414D01*
X209156951Y-125675820D01*
X209281890Y-125847786D01*
X209432213Y-125998109D01*
X209604182Y-126123050D01*
X209612946Y-126127516D01*
X209663742Y-126175491D01*
X209680536Y-126243312D01*
X209657998Y-126309447D01*
X209612946Y-126348484D01*
X209604182Y-126352949D01*
X209432213Y-126477890D01*
X209281890Y-126628213D01*
X209156951Y-126800179D01*
X209060444Y-126989585D01*
X208994753Y-127191760D01*
X208978690Y-127293179D01*
X208961500Y-127401713D01*
X208961500Y-127614287D01*
X208994754Y-127824243D01*
X209017651Y-127894713D01*
X209060444Y-128026414D01*
X209156951Y-128215820D01*
X209281890Y-128387786D01*
X209432213Y-128538109D01*
X209604182Y-128663050D01*
X209612946Y-128667516D01*
X209663742Y-128715491D01*
X209680536Y-128783312D01*
X209657998Y-128849447D01*
X209612946Y-128888484D01*
X209604182Y-128892949D01*
X209432213Y-129017890D01*
X209281890Y-129168213D01*
X209156951Y-129340179D01*
X209060444Y-129529585D01*
X208994753Y-129731760D01*
X208961500Y-129941713D01*
X208961500Y-129947481D01*
X208941815Y-130014520D01*
X208889011Y-130060275D01*
X208819853Y-130070219D01*
X208756297Y-130041194D01*
X208749819Y-130035162D01*
X192288140Y-113573483D01*
X192254655Y-113512160D01*
X192259639Y-113442468D01*
X192301511Y-113386535D01*
X192313821Y-113378415D01*
X192314045Y-113378285D01*
X192314049Y-113378284D01*
X192518450Y-113260273D01*
X192705699Y-113116592D01*
X192872592Y-112949699D01*
X193016273Y-112762450D01*
X193134284Y-112558049D01*
X193224606Y-112339993D01*
X193285693Y-112112014D01*
X193316500Y-111878011D01*
X193316500Y-111641989D01*
X193285693Y-111407986D01*
X193224606Y-111180007D01*
X193134284Y-110961951D01*
X193134282Y-110961948D01*
X193134280Y-110961943D01*
X193088729Y-110883048D01*
X193016273Y-110757550D01*
X192872592Y-110570301D01*
X192872587Y-110570295D01*
X192705704Y-110403412D01*
X192705697Y-110403406D01*
X192518454Y-110259730D01*
X192518453Y-110259729D01*
X192518450Y-110259727D01*
X192436957Y-110212677D01*
X192314056Y-110141719D01*
X192314045Y-110141714D01*
X192095993Y-110051394D01*
X191868010Y-109990306D01*
X191634020Y-109959501D01*
X191634017Y-109959500D01*
X191634011Y-109959500D01*
X191397989Y-109959500D01*
X191397983Y-109959500D01*
X191397979Y-109959501D01*
X191163989Y-109990306D01*
X190936006Y-110051394D01*
X190717954Y-110141714D01*
X190717943Y-110141719D01*
X190513545Y-110259730D01*
X190326302Y-110403406D01*
X190326295Y-110403412D01*
X190159412Y-110570295D01*
X190159406Y-110570302D01*
X190015730Y-110757545D01*
X189897719Y-110961943D01*
X189897714Y-110961954D01*
X189807394Y-111180006D01*
X189746306Y-111407989D01*
X189715501Y-111641979D01*
X189715500Y-111641995D01*
X185265500Y-111641995D01*
X185265500Y-105659983D01*
X189715500Y-105659983D01*
X189715500Y-107860001D01*
X189715501Y-107860018D01*
X189726000Y-107962796D01*
X189726001Y-107962799D01*
X189781185Y-108129331D01*
X189781186Y-108129334D01*
X189873288Y-108278656D01*
X189997344Y-108402712D01*
X190146666Y-108494814D01*
X190313203Y-108549999D01*
X190415991Y-108560500D01*
X192616008Y-108560499D01*
X192718797Y-108549999D01*
X192885334Y-108494814D01*
X193034656Y-108402712D01*
X193158712Y-108278656D01*
X193250814Y-108129334D01*
X193305999Y-107962797D01*
X193316500Y-107860009D01*
X193316499Y-105659992D01*
X193305999Y-105557203D01*
X193250814Y-105390666D01*
X193158712Y-105241344D01*
X193034656Y-105117288D01*
X192885334Y-105025186D01*
X192718797Y-104970001D01*
X192718795Y-104970000D01*
X192616010Y-104959500D01*
X190415998Y-104959500D01*
X190415981Y-104959501D01*
X190313203Y-104970000D01*
X190313200Y-104970001D01*
X190146668Y-105025185D01*
X190146663Y-105025187D01*
X189997342Y-105117289D01*
X189873289Y-105241342D01*
X189781187Y-105390663D01*
X189781185Y-105390668D01*
X189776538Y-105404692D01*
X189726001Y-105557203D01*
X189726001Y-105557204D01*
X189726000Y-105557204D01*
X189715500Y-105659983D01*
X185265500Y-105659983D01*
X185265500Y-99917995D01*
X189543000Y-99917995D01*
X189543000Y-100154004D01*
X189543001Y-100154020D01*
X189573806Y-100388010D01*
X189634894Y-100615993D01*
X189725214Y-100834045D01*
X189725219Y-100834056D01*
X189780673Y-100930104D01*
X189843227Y-101038450D01*
X189843229Y-101038453D01*
X189843230Y-101038454D01*
X189986906Y-101225697D01*
X189986912Y-101225704D01*
X190153795Y-101392587D01*
X190153801Y-101392592D01*
X190341050Y-101536273D01*
X190424298Y-101584336D01*
X190545443Y-101654280D01*
X190545448Y-101654282D01*
X190545451Y-101654284D01*
X190763507Y-101744606D01*
X190991486Y-101805693D01*
X191225489Y-101836500D01*
X191225496Y-101836500D01*
X191461504Y-101836500D01*
X191461511Y-101836500D01*
X191695514Y-101805693D01*
X191923493Y-101744606D01*
X192141549Y-101654284D01*
X192345950Y-101536273D01*
X192533199Y-101392592D01*
X192700092Y-101225699D01*
X192843773Y-101038450D01*
X192961784Y-100834049D01*
X193052106Y-100615993D01*
X193113193Y-100388014D01*
X193144000Y-100154011D01*
X193144000Y-99917989D01*
X193113193Y-99683986D01*
X193052106Y-99456007D01*
X192961784Y-99237951D01*
X192961782Y-99237948D01*
X192961780Y-99237943D01*
X192919618Y-99164918D01*
X192843773Y-99033550D01*
X192700092Y-98846301D01*
X192700087Y-98846295D01*
X192533204Y-98679412D01*
X192533197Y-98679406D01*
X192345954Y-98535730D01*
X192345953Y-98535729D01*
X192345950Y-98535727D01*
X192251384Y-98481129D01*
X192141556Y-98417719D01*
X192141545Y-98417714D01*
X191923493Y-98327394D01*
X191695510Y-98266306D01*
X191461520Y-98235501D01*
X191461517Y-98235500D01*
X191461511Y-98235500D01*
X191225489Y-98235500D01*
X191225483Y-98235500D01*
X191225479Y-98235501D01*
X190991489Y-98266306D01*
X190763506Y-98327394D01*
X190545454Y-98417714D01*
X190545443Y-98417719D01*
X190341045Y-98535730D01*
X190153802Y-98679406D01*
X190153795Y-98679412D01*
X189986912Y-98846295D01*
X189986906Y-98846302D01*
X189843230Y-99033545D01*
X189843227Y-99033549D01*
X189843227Y-99033550D01*
X189839877Y-99039352D01*
X189725219Y-99237943D01*
X189725214Y-99237954D01*
X189634894Y-99456006D01*
X189573806Y-99683989D01*
X189543001Y-99917979D01*
X189543000Y-99917995D01*
X185265500Y-99917995D01*
X185265500Y-93935983D01*
X189543000Y-93935983D01*
X189543000Y-96136001D01*
X189543001Y-96136018D01*
X189553500Y-96238796D01*
X189553501Y-96238799D01*
X189591814Y-96354419D01*
X189608686Y-96405334D01*
X189700788Y-96554656D01*
X189824844Y-96678712D01*
X189974166Y-96770814D01*
X190140703Y-96825999D01*
X190243491Y-96836500D01*
X192443508Y-96836499D01*
X192546297Y-96825999D01*
X192712834Y-96770814D01*
X192862156Y-96678712D01*
X192986212Y-96554656D01*
X193078314Y-96405334D01*
X193133499Y-96238797D01*
X193144000Y-96136009D01*
X193143999Y-93935992D01*
X193133499Y-93833203D01*
X193078314Y-93666666D01*
X192986212Y-93517344D01*
X192862156Y-93393288D01*
X192712834Y-93301186D01*
X192546297Y-93246001D01*
X192546295Y-93246000D01*
X192443510Y-93235500D01*
X190243498Y-93235500D01*
X190243481Y-93235501D01*
X190140703Y-93246000D01*
X190140700Y-93246001D01*
X189974168Y-93301185D01*
X189974163Y-93301187D01*
X189824842Y-93393289D01*
X189700789Y-93517342D01*
X189608687Y-93666663D01*
X189608686Y-93666666D01*
X189553501Y-93833203D01*
X189553501Y-93833204D01*
X189553500Y-93833204D01*
X189543000Y-93935983D01*
X185265500Y-93935983D01*
X185265500Y-86238711D01*
X188649500Y-86238711D01*
X188649500Y-86481288D01*
X188681161Y-86721785D01*
X188743947Y-86956104D01*
X188836773Y-87180205D01*
X188836776Y-87180212D01*
X188958064Y-87390289D01*
X188958066Y-87390292D01*
X188958067Y-87390293D01*
X189105733Y-87582736D01*
X189105739Y-87582743D01*
X189277256Y-87754260D01*
X189277262Y-87754265D01*
X189469711Y-87901936D01*
X189679788Y-88023224D01*
X189903900Y-88116054D01*
X190138211Y-88178838D01*
X190318586Y-88202584D01*
X190378711Y-88210500D01*
X190378712Y-88210500D01*
X190621289Y-88210500D01*
X190669388Y-88204167D01*
X190861789Y-88178838D01*
X191096100Y-88116054D01*
X191320212Y-88023224D01*
X191530289Y-87901936D01*
X191722738Y-87754265D01*
X191894265Y-87582738D01*
X192041936Y-87390289D01*
X192163224Y-87180212D01*
X192256054Y-86956100D01*
X192318838Y-86721789D01*
X192350500Y-86481288D01*
X192350500Y-86238712D01*
X192350500Y-86238711D01*
X269929500Y-86238711D01*
X269929500Y-86481288D01*
X269961161Y-86721785D01*
X270023947Y-86956104D01*
X270116773Y-87180205D01*
X270116776Y-87180212D01*
X270238064Y-87390289D01*
X270238066Y-87390292D01*
X270238067Y-87390293D01*
X270385733Y-87582736D01*
X270385739Y-87582743D01*
X270557256Y-87754260D01*
X270557262Y-87754265D01*
X270749711Y-87901936D01*
X270959788Y-88023224D01*
X271183900Y-88116054D01*
X271418211Y-88178838D01*
X271598586Y-88202584D01*
X271658711Y-88210500D01*
X271658712Y-88210500D01*
X271901289Y-88210500D01*
X271949388Y-88204167D01*
X272141789Y-88178838D01*
X272376100Y-88116054D01*
X272600212Y-88023224D01*
X272810289Y-87901936D01*
X273002738Y-87754265D01*
X273174265Y-87582738D01*
X273321936Y-87390289D01*
X273443224Y-87180212D01*
X273536054Y-86956100D01*
X273598838Y-86721789D01*
X273630500Y-86481288D01*
X273630500Y-86238712D01*
X273598838Y-85998211D01*
X273536054Y-85763900D01*
X273443224Y-85539788D01*
X273321936Y-85329711D01*
X273174265Y-85137262D01*
X273174260Y-85137256D01*
X273002743Y-84965739D01*
X273002736Y-84965733D01*
X272810293Y-84818067D01*
X272810292Y-84818066D01*
X272810289Y-84818064D01*
X272600212Y-84696776D01*
X272600205Y-84696773D01*
X272376104Y-84603947D01*
X272141785Y-84541161D01*
X271901289Y-84509500D01*
X271901288Y-84509500D01*
X271658712Y-84509500D01*
X271658711Y-84509500D01*
X271418214Y-84541161D01*
X271183895Y-84603947D01*
X270959794Y-84696773D01*
X270959785Y-84696777D01*
X270749706Y-84818067D01*
X270557263Y-84965733D01*
X270557256Y-84965739D01*
X270385739Y-85137256D01*
X270385733Y-85137263D01*
X270238067Y-85329706D01*
X270116777Y-85539785D01*
X270116773Y-85539794D01*
X270023947Y-85763895D01*
X269961161Y-85998214D01*
X269929500Y-86238711D01*
X192350500Y-86238711D01*
X192318838Y-85998211D01*
X192256054Y-85763900D01*
X192163224Y-85539788D01*
X192041936Y-85329711D01*
X191894265Y-85137262D01*
X191894260Y-85137256D01*
X191722743Y-84965739D01*
X191722736Y-84965733D01*
X191530293Y-84818067D01*
X191530292Y-84818066D01*
X191530289Y-84818064D01*
X191320212Y-84696776D01*
X191320205Y-84696773D01*
X191096104Y-84603947D01*
X190861785Y-84541161D01*
X190621289Y-84509500D01*
X190621288Y-84509500D01*
X190378712Y-84509500D01*
X190378711Y-84509500D01*
X190138214Y-84541161D01*
X189903895Y-84603947D01*
X189679794Y-84696773D01*
X189679785Y-84696777D01*
X189469706Y-84818067D01*
X189277263Y-84965733D01*
X189277256Y-84965739D01*
X189105739Y-85137256D01*
X189105733Y-85137263D01*
X188958067Y-85329706D01*
X188836777Y-85539785D01*
X188836773Y-85539794D01*
X188743947Y-85763895D01*
X188681161Y-85998214D01*
X188649500Y-86238711D01*
X185265500Y-86238711D01*
X185265500Y-81444500D01*
X185285185Y-81377461D01*
X185337989Y-81331706D01*
X185389500Y-81320500D01*
X276485500Y-81320500D01*
X276552539Y-81340185D01*
G37*
%TD.AperFunction*%
%TA.AperFunction,NonConductor*%
G36*
X241703818Y-97290185D02*
G01*
X241737097Y-97321615D01*
X241793892Y-97399788D01*
X241944213Y-97550109D01*
X242116182Y-97675050D01*
X242124946Y-97679516D01*
X242175742Y-97727491D01*
X242192536Y-97795312D01*
X242169998Y-97861447D01*
X242124946Y-97900484D01*
X242116182Y-97904949D01*
X241944213Y-98029890D01*
X241793890Y-98180213D01*
X241668951Y-98352179D01*
X241572444Y-98541585D01*
X241506753Y-98743760D01*
X241473500Y-98953713D01*
X241473500Y-99166286D01*
X241498541Y-99324393D01*
X241506754Y-99376243D01*
X241512381Y-99393562D01*
X241572444Y-99578414D01*
X241668951Y-99767820D01*
X241793890Y-99939786D01*
X241944213Y-100090109D01*
X242116182Y-100215050D01*
X242124946Y-100219516D01*
X242175742Y-100267491D01*
X242192536Y-100335312D01*
X242169998Y-100401447D01*
X242124946Y-100440484D01*
X242116182Y-100444949D01*
X241944213Y-100569890D01*
X241793890Y-100720213D01*
X241668951Y-100892179D01*
X241572444Y-101081585D01*
X241506753Y-101283760D01*
X241473500Y-101493713D01*
X241473500Y-101706286D01*
X241494123Y-101836498D01*
X241506754Y-101916243D01*
X241572443Y-102118412D01*
X241668949Y-102307816D01*
X241673925Y-102314666D01*
X241697407Y-102380470D01*
X241681583Y-102448524D01*
X241661290Y-102475233D01*
X237607557Y-106528966D01*
X237546234Y-106562451D01*
X237476542Y-106557467D01*
X237420609Y-106515595D01*
X237409391Y-106497580D01*
X237400527Y-106480184D01*
X237375051Y-106430184D01*
X237331328Y-106370004D01*
X237250109Y-106258213D01*
X237099786Y-106107890D01*
X236927820Y-105982951D01*
X236923033Y-105980512D01*
X236919054Y-105978485D01*
X236868259Y-105930512D01*
X236851463Y-105862692D01*
X236873999Y-105796556D01*
X236919054Y-105757515D01*
X236927816Y-105753051D01*
X237030966Y-105678109D01*
X237099786Y-105628109D01*
X237099788Y-105628106D01*
X237099792Y-105628104D01*
X237250104Y-105477792D01*
X237250106Y-105477788D01*
X237250109Y-105477786D01*
X237375048Y-105305820D01*
X237375047Y-105305820D01*
X237375051Y-105305816D01*
X237471557Y-105116412D01*
X237537246Y-104914243D01*
X237570500Y-104704287D01*
X237570500Y-104491713D01*
X237537246Y-104281757D01*
X237471557Y-104079588D01*
X237375051Y-103890184D01*
X237375049Y-103890181D01*
X237375048Y-103890179D01*
X237250109Y-103718213D01*
X237099786Y-103567890D01*
X236927820Y-103442951D01*
X236927115Y-103442591D01*
X236919054Y-103438485D01*
X236868259Y-103390512D01*
X236851463Y-103322692D01*
X236873999Y-103256556D01*
X236919054Y-103217515D01*
X236927816Y-103213051D01*
X237069798Y-103109896D01*
X237099786Y-103088109D01*
X237099788Y-103088106D01*
X237099792Y-103088104D01*
X237250104Y-102937792D01*
X237250106Y-102937788D01*
X237250109Y-102937786D01*
X237375048Y-102765820D01*
X237375047Y-102765820D01*
X237375051Y-102765816D01*
X237471557Y-102576412D01*
X237537246Y-102374243D01*
X237570500Y-102164287D01*
X237570500Y-101951713D01*
X237537246Y-101741757D01*
X237471557Y-101539588D01*
X237375051Y-101350184D01*
X237375049Y-101350181D01*
X237375048Y-101350179D01*
X237250109Y-101178213D01*
X237099786Y-101027890D01*
X236927820Y-100902951D01*
X236738414Y-100806444D01*
X236738413Y-100806443D01*
X236738412Y-100806443D01*
X236536243Y-100740754D01*
X236536241Y-100740753D01*
X236536240Y-100740753D01*
X236374957Y-100715208D01*
X236326287Y-100707500D01*
X236113713Y-100707500D01*
X236065042Y-100715208D01*
X235903760Y-100740753D01*
X235701585Y-100806444D01*
X235512181Y-100902950D01*
X235416374Y-100972557D01*
X235350568Y-100996036D01*
X235282514Y-100980210D01*
X235233820Y-100930104D01*
X235219945Y-100861625D01*
X235245295Y-100796517D01*
X235255801Y-100784565D01*
X238733548Y-97306819D01*
X238794871Y-97273334D01*
X238821229Y-97270500D01*
X241636779Y-97270500D01*
X241703818Y-97290185D01*
G37*
%TD.AperFunction*%
%TA.AperFunction,NonConductor*%
G36*
X256864682Y-96502751D02*
G01*
X256886834Y-96504336D01*
X256897566Y-96512370D01*
X256910430Y-96516133D01*
X256924989Y-96532899D01*
X256942767Y-96546208D01*
X256947451Y-96558766D01*
X256956241Y-96568889D01*
X256966219Y-96602743D01*
X256967500Y-96611586D01*
X256967500Y-96626287D01*
X256992404Y-96783528D01*
X256992530Y-96784393D01*
X256987704Y-96818206D01*
X256983329Y-96852064D01*
X256982779Y-96852716D01*
X256982659Y-96853562D01*
X256957492Y-96889849D01*
X246615162Y-107232181D01*
X246553839Y-107265666D01*
X246527481Y-107268500D01*
X244223455Y-107268500D01*
X244156416Y-107248815D01*
X244110661Y-107196011D01*
X244100717Y-107126853D01*
X244105524Y-107106182D01*
X244141246Y-106996243D01*
X244174500Y-106786287D01*
X244174500Y-106573713D01*
X244141246Y-106363757D01*
X244075557Y-106161588D01*
X243979051Y-105972184D01*
X243979049Y-105972181D01*
X243979048Y-105972179D01*
X243854109Y-105800213D01*
X243703786Y-105649890D01*
X243531820Y-105524951D01*
X243531115Y-105524591D01*
X243523054Y-105520485D01*
X243472259Y-105472512D01*
X243455463Y-105404692D01*
X243477999Y-105338556D01*
X243523054Y-105299515D01*
X243531816Y-105295051D01*
X243605741Y-105241342D01*
X243703786Y-105170109D01*
X243703788Y-105170106D01*
X243703792Y-105170104D01*
X243854104Y-105019792D01*
X243854106Y-105019788D01*
X243854109Y-105019786D01*
X243979048Y-104847820D01*
X243979047Y-104847820D01*
X243979051Y-104847816D01*
X244075557Y-104658412D01*
X244141246Y-104456243D01*
X244174500Y-104246287D01*
X244174500Y-104033713D01*
X244141246Y-103823757D01*
X244105523Y-103713816D01*
X244103529Y-103643977D01*
X244139609Y-103584144D01*
X244202310Y-103553316D01*
X244223455Y-103551500D01*
X249515996Y-103551500D01*
X249607040Y-103533389D01*
X249651328Y-103524580D01*
X249728339Y-103492681D01*
X249778807Y-103471777D01*
X249778808Y-103471776D01*
X249778811Y-103471775D01*
X249893543Y-103395114D01*
X256755819Y-96532836D01*
X256767584Y-96526412D01*
X256776352Y-96516273D01*
X256797652Y-96509994D01*
X256817142Y-96499352D01*
X256830512Y-96500308D01*
X256843370Y-96496518D01*
X256864682Y-96502751D01*
G37*
%TD.AperFunction*%
%TA.AperFunction,NonConductor*%
G36*
X241544627Y-104675724D02*
G01*
X241600560Y-104717596D01*
X241611778Y-104735611D01*
X241668951Y-104847820D01*
X241793890Y-105019786D01*
X241944213Y-105170109D01*
X242116182Y-105295050D01*
X242124946Y-105299516D01*
X242175742Y-105347491D01*
X242192536Y-105415312D01*
X242169998Y-105481447D01*
X242124946Y-105520484D01*
X242116182Y-105524949D01*
X241944213Y-105649890D01*
X241793890Y-105800213D01*
X241668951Y-105972179D01*
X241572444Y-106161585D01*
X241506753Y-106363760D01*
X241473500Y-106573713D01*
X241473500Y-106786286D01*
X241498541Y-106944393D01*
X241506754Y-106996243D01*
X241539273Y-107096326D01*
X241542476Y-107106182D01*
X241544471Y-107176023D01*
X241508391Y-107235856D01*
X241445690Y-107266684D01*
X241424545Y-107268500D01*
X239629185Y-107268500D01*
X239520772Y-107290065D01*
X239520771Y-107290065D01*
X239499549Y-107294287D01*
X239493853Y-107295420D01*
X239366372Y-107348224D01*
X239251636Y-107424887D01*
X237607557Y-109068966D01*
X237586484Y-109080472D01*
X237567853Y-109095628D01*
X237556371Y-109096915D01*
X237546234Y-109102451D01*
X237522281Y-109100738D01*
X237498418Y-109103414D01*
X237488065Y-109098291D01*
X237476542Y-109097467D01*
X237457317Y-109083075D01*
X237435797Y-109072426D01*
X237426233Y-109059805D01*
X237420609Y-109055595D01*
X237413525Y-109045046D01*
X237411327Y-109041380D01*
X237375051Y-108970184D01*
X237338390Y-108919724D01*
X237335577Y-108915032D01*
X237328105Y-108886309D01*
X237318130Y-108858351D01*
X237319405Y-108852864D01*
X237317988Y-108847413D01*
X237327232Y-108819208D01*
X237333955Y-108790297D01*
X237338796Y-108783925D01*
X237339749Y-108781018D01*
X237343037Y-108778342D01*
X237354243Y-108763594D01*
X241413614Y-104704223D01*
X241474935Y-104670740D01*
X241544627Y-104675724D01*
G37*
%TD.AperFunction*%
%TA.AperFunction,NonConductor*%
G36*
X256937703Y-109324408D02*
G01*
X256975477Y-109383186D01*
X256978972Y-109398720D01*
X256981037Y-109411757D01*
X257000753Y-109536240D01*
X257005169Y-109549831D01*
X257032424Y-109633714D01*
X257066444Y-109738414D01*
X257162951Y-109927820D01*
X257287890Y-110099786D01*
X257401430Y-110213326D01*
X257434915Y-110274649D01*
X257429931Y-110344341D01*
X257388059Y-110400274D01*
X257357083Y-110417189D01*
X257225669Y-110466203D01*
X257225664Y-110466206D01*
X257110455Y-110552452D01*
X257110452Y-110552455D01*
X257024206Y-110667664D01*
X257024202Y-110667671D01*
X256972682Y-110805806D01*
X256930811Y-110861740D01*
X256865347Y-110886157D01*
X256797074Y-110871306D01*
X256747668Y-110821900D01*
X256732500Y-110762473D01*
X256732500Y-109418121D01*
X256752185Y-109351082D01*
X256804989Y-109305327D01*
X256874147Y-109295383D01*
X256937703Y-109324408D01*
G37*
%TD.AperFunction*%
%TA.AperFunction,NonConductor*%
G36*
X256864682Y-99042751D02*
G01*
X256886834Y-99044336D01*
X256897566Y-99052370D01*
X256910430Y-99056133D01*
X256924989Y-99072899D01*
X256942767Y-99086208D01*
X256947451Y-99098766D01*
X256956241Y-99108889D01*
X256966219Y-99142743D01*
X256967500Y-99151586D01*
X256967500Y-99166287D01*
X256992404Y-99323528D01*
X256992530Y-99324393D01*
X256987704Y-99358206D01*
X256983329Y-99392064D01*
X256982779Y-99392716D01*
X256982659Y-99393562D01*
X256957492Y-99429849D01*
X244379135Y-112008206D01*
X244317812Y-112041691D01*
X244248120Y-112036707D01*
X244192187Y-111994835D01*
X244167770Y-111929371D01*
X244168980Y-111901135D01*
X244174500Y-111866287D01*
X244174500Y-111653713D01*
X244141246Y-111443757D01*
X244075557Y-111241588D01*
X243979051Y-111052184D01*
X243979049Y-111052181D01*
X243979048Y-111052179D01*
X243854109Y-110880213D01*
X243703786Y-110729890D01*
X243531820Y-110604951D01*
X243531115Y-110604591D01*
X243523054Y-110600485D01*
X243472259Y-110552512D01*
X243455463Y-110484692D01*
X243477999Y-110418556D01*
X243523054Y-110379515D01*
X243531816Y-110375051D01*
X243623795Y-110308225D01*
X243703786Y-110250109D01*
X243703788Y-110250106D01*
X243703792Y-110250104D01*
X243854104Y-110099792D01*
X243854106Y-110099788D01*
X243854109Y-110099786D01*
X243979048Y-109927820D01*
X243979047Y-109927820D01*
X243979051Y-109927816D01*
X244075557Y-109738412D01*
X244141246Y-109536243D01*
X244174500Y-109326287D01*
X244174500Y-109113713D01*
X244141246Y-108903757D01*
X244117870Y-108831816D01*
X244115876Y-108761977D01*
X244151956Y-108702144D01*
X244214657Y-108671316D01*
X244235802Y-108669500D01*
X246937996Y-108669500D01*
X247029040Y-108651389D01*
X247073328Y-108642580D01*
X247137069Y-108616177D01*
X247200807Y-108589777D01*
X247200808Y-108589776D01*
X247200811Y-108589775D01*
X247315543Y-108513114D01*
X256755819Y-99072836D01*
X256767584Y-99066412D01*
X256776352Y-99056273D01*
X256797652Y-99049994D01*
X256817142Y-99039352D01*
X256830512Y-99040308D01*
X256843370Y-99036518D01*
X256864682Y-99042751D01*
G37*
%TD.AperFunction*%
%TA.AperFunction,NonConductor*%
G36*
X241439188Y-108677425D02*
G01*
X241466910Y-108682223D01*
X241472264Y-108687137D01*
X241479237Y-108689185D01*
X241497656Y-108710442D01*
X241518385Y-108729467D01*
X241520232Y-108736496D01*
X241524992Y-108741989D01*
X241528995Y-108769835D01*
X241536147Y-108797041D01*
X241534377Y-108807264D01*
X241534936Y-108811147D01*
X241530130Y-108831812D01*
X241512423Y-108886309D01*
X241506753Y-108903760D01*
X241473500Y-109113713D01*
X241473500Y-109326286D01*
X241506753Y-109536239D01*
X241506753Y-109536241D01*
X241506754Y-109536243D01*
X241538424Y-109633714D01*
X241572444Y-109738414D01*
X241668951Y-109927820D01*
X241793890Y-110099786D01*
X241944213Y-110250109D01*
X242116182Y-110375050D01*
X242124946Y-110379516D01*
X242175742Y-110427491D01*
X242192536Y-110495312D01*
X242169998Y-110561447D01*
X242124946Y-110600484D01*
X242116182Y-110604949D01*
X241944213Y-110729890D01*
X241793890Y-110880213D01*
X241668951Y-111052179D01*
X241572444Y-111241585D01*
X241506753Y-111443760D01*
X241473500Y-111653713D01*
X241473500Y-111866286D01*
X241505395Y-112067666D01*
X241506754Y-112076243D01*
X241564657Y-112254450D01*
X241572444Y-112278414D01*
X241668951Y-112467820D01*
X241744362Y-112571615D01*
X241767842Y-112637422D01*
X241752016Y-112705475D01*
X241701910Y-112754170D01*
X241644044Y-112768500D01*
X237631802Y-112768500D01*
X237564763Y-112748815D01*
X237519008Y-112696011D01*
X237509064Y-112626853D01*
X237513871Y-112606182D01*
X237537246Y-112534243D01*
X237570500Y-112324287D01*
X237570500Y-112111713D01*
X237537246Y-111901757D01*
X237471557Y-111699588D01*
X237375051Y-111510184D01*
X237341609Y-111464155D01*
X237318130Y-111398351D01*
X237333955Y-111330297D01*
X237354243Y-111303594D01*
X239952020Y-108705819D01*
X240013343Y-108672334D01*
X240039701Y-108669500D01*
X241412198Y-108669500D01*
X241439188Y-108677425D01*
G37*
%TD.AperFunction*%
%TA.AperFunction,NonConductor*%
G36*
X234887584Y-111649185D02*
G01*
X234933339Y-111701989D01*
X234943283Y-111771147D01*
X234938477Y-111791812D01*
X234925911Y-111830488D01*
X234902753Y-111901760D01*
X234869500Y-112111713D01*
X234869500Y-112324286D01*
X234892233Y-112467820D01*
X234902754Y-112534243D01*
X234912194Y-112563297D01*
X234926129Y-112606182D01*
X234928124Y-112676023D01*
X234892044Y-112735856D01*
X234829343Y-112766684D01*
X234808198Y-112768500D01*
X223801519Y-112768500D01*
X223734480Y-112748815D01*
X223688725Y-112696011D01*
X223678781Y-112626853D01*
X223707806Y-112563297D01*
X223713838Y-112556819D01*
X224604838Y-111665819D01*
X224666161Y-111632334D01*
X224692519Y-111629500D01*
X234820545Y-111629500D01*
X234887584Y-111649185D01*
G37*
%TD.AperFunction*%
%TA.AperFunction,NonConductor*%
G36*
X256886834Y-101584336D02*
G01*
X256942767Y-101626208D01*
X256967184Y-101691672D01*
X256967500Y-101700518D01*
X256967500Y-101706286D01*
X256988123Y-101836498D01*
X257000754Y-101916243D01*
X257065068Y-102114181D01*
X257066444Y-102118414D01*
X257162951Y-102307820D01*
X257287890Y-102479786D01*
X257438213Y-102630109D01*
X257610182Y-102755050D01*
X257618946Y-102759516D01*
X257669742Y-102807491D01*
X257686536Y-102875312D01*
X257663998Y-102941447D01*
X257618946Y-102980484D01*
X257610182Y-102984949D01*
X257438213Y-103109890D01*
X257287890Y-103260213D01*
X257162951Y-103432179D01*
X257066444Y-103621585D01*
X257000753Y-103823760D01*
X256967500Y-104033713D01*
X256967500Y-104246287D01*
X256967499Y-104246287D01*
X256992284Y-104402771D01*
X256983329Y-104472064D01*
X256957492Y-104509849D01*
X246157162Y-115310181D01*
X246095839Y-115343666D01*
X246069481Y-115346500D01*
X237619455Y-115346500D01*
X237552416Y-115326815D01*
X237506661Y-115274011D01*
X237496717Y-115204853D01*
X237501524Y-115184182D01*
X237537246Y-115074243D01*
X237570500Y-114864287D01*
X237570500Y-114651713D01*
X237537246Y-114441757D01*
X237501523Y-114331816D01*
X237499529Y-114261977D01*
X237535609Y-114202144D01*
X237598310Y-114171316D01*
X237619455Y-114169500D01*
X243977996Y-114169500D01*
X244069040Y-114151389D01*
X244113328Y-114142580D01*
X244177069Y-114116177D01*
X244240807Y-114089777D01*
X244240808Y-114089776D01*
X244240811Y-114089775D01*
X244355543Y-114013114D01*
X256755819Y-101612836D01*
X256817142Y-101579352D01*
X256886834Y-101584336D01*
G37*
%TD.AperFunction*%
%TA.AperFunction,NonConductor*%
G36*
X256864682Y-106662751D02*
G01*
X256886834Y-106664336D01*
X256897566Y-106672370D01*
X256910430Y-106676133D01*
X256924989Y-106692899D01*
X256942767Y-106706208D01*
X256947451Y-106718766D01*
X256956241Y-106728889D01*
X256966219Y-106762743D01*
X256967500Y-106771586D01*
X256967500Y-106786287D01*
X256992404Y-106943528D01*
X256992530Y-106944393D01*
X256987704Y-106978206D01*
X256983329Y-107012064D01*
X256982779Y-107012716D01*
X256982659Y-107013562D01*
X256957492Y-107049849D01*
X255487887Y-108519454D01*
X255411222Y-108634192D01*
X255358421Y-108761667D01*
X255358418Y-108761677D01*
X255331500Y-108897004D01*
X255331500Y-111418481D01*
X255311815Y-111485520D01*
X255295181Y-111506162D01*
X250591162Y-116210181D01*
X250529839Y-116243666D01*
X250503481Y-116246500D01*
X247501519Y-116246500D01*
X247434480Y-116226815D01*
X247388725Y-116174011D01*
X247378781Y-116104853D01*
X247407806Y-116041297D01*
X247413838Y-116034819D01*
X256755819Y-106692837D01*
X256767584Y-106686412D01*
X256776352Y-106676273D01*
X256797652Y-106669994D01*
X256817142Y-106659352D01*
X256830512Y-106660308D01*
X256843370Y-106656518D01*
X256864682Y-106662751D01*
G37*
%TD.AperFunction*%
%TA.AperFunction,NonConductor*%
G36*
X234467654Y-97737144D02*
G01*
X234497645Y-97743668D01*
X234502660Y-97747422D01*
X234505256Y-97748185D01*
X234525899Y-97764820D01*
X234566214Y-97805136D01*
X234566218Y-97805139D01*
X234730079Y-97914628D01*
X234730092Y-97914635D01*
X234912160Y-97990049D01*
X234912165Y-97990051D01*
X234912169Y-97990051D01*
X234912170Y-97990052D01*
X235105456Y-98028500D01*
X235105459Y-98028500D01*
X235302543Y-98028500D01*
X235456974Y-97997781D01*
X235495835Y-97990051D01*
X235656934Y-97923321D01*
X235726403Y-97915853D01*
X235788882Y-97947128D01*
X235824534Y-98007217D01*
X235822040Y-98077042D01*
X235792067Y-98125564D01*
X233247451Y-100670181D01*
X233186128Y-100703666D01*
X233159770Y-100706500D01*
X233085389Y-100706500D01*
X233045728Y-100712781D01*
X232914302Y-100733597D01*
X232749552Y-100787128D01*
X232595211Y-100865768D01*
X232544034Y-100902951D01*
X232455072Y-100967586D01*
X232455070Y-100967588D01*
X232455069Y-100967588D01*
X232332588Y-101090069D01*
X232332588Y-101090070D01*
X232332586Y-101090072D01*
X232329871Y-101093809D01*
X232230768Y-101230211D01*
X232152128Y-101384552D01*
X232098597Y-101549302D01*
X232071500Y-101720389D01*
X232071500Y-101893610D01*
X232089752Y-102008853D01*
X232098598Y-102064701D01*
X232152127Y-102229445D01*
X232230768Y-102383788D01*
X232332586Y-102523928D01*
X232455072Y-102646414D01*
X232595212Y-102748232D01*
X232749555Y-102826873D01*
X232914299Y-102880402D01*
X233085389Y-102907500D01*
X233085390Y-102907500D01*
X233258610Y-102907500D01*
X233258611Y-102907500D01*
X233429701Y-102880402D01*
X233594445Y-102826873D01*
X233748788Y-102748232D01*
X233888928Y-102646414D01*
X234011414Y-102523928D01*
X234113232Y-102383788D01*
X234191873Y-102229445D01*
X234245402Y-102064701D01*
X234272500Y-101893611D01*
X234272500Y-101819229D01*
X234292185Y-101752190D01*
X234308819Y-101731548D01*
X234546654Y-101493713D01*
X234946559Y-101093807D01*
X235007880Y-101060324D01*
X235077571Y-101065308D01*
X235133505Y-101107179D01*
X235157922Y-101172644D01*
X235143070Y-101240917D01*
X235134557Y-101254374D01*
X235064950Y-101350181D01*
X234968444Y-101539585D01*
X234902753Y-101741760D01*
X234869500Y-101951713D01*
X234869500Y-102164286D01*
X234893317Y-102314664D01*
X234902754Y-102374243D01*
X234951390Y-102523930D01*
X234968444Y-102576414D01*
X235064951Y-102765820D01*
X235189890Y-102937786D01*
X235340213Y-103088109D01*
X235512182Y-103213050D01*
X235520946Y-103217516D01*
X235571742Y-103265491D01*
X235588536Y-103333312D01*
X235565998Y-103399447D01*
X235520946Y-103438484D01*
X235512182Y-103442949D01*
X235340213Y-103567890D01*
X235189890Y-103718213D01*
X235064951Y-103890179D01*
X234968444Y-104079585D01*
X234902753Y-104281760D01*
X234869500Y-104491713D01*
X234869500Y-104704286D01*
X234899770Y-104895408D01*
X234902754Y-104914243D01*
X234950861Y-105062301D01*
X234968444Y-105116414D01*
X235064951Y-105305820D01*
X235189890Y-105477786D01*
X235340213Y-105628109D01*
X235512182Y-105753050D01*
X235520946Y-105757516D01*
X235571742Y-105805491D01*
X235588536Y-105873312D01*
X235565998Y-105939447D01*
X235520946Y-105978484D01*
X235512182Y-105982949D01*
X235340213Y-106107890D01*
X235189890Y-106258213D01*
X235064951Y-106430179D01*
X234968444Y-106619585D01*
X234902753Y-106821760D01*
X234869500Y-107031713D01*
X234869500Y-107244286D01*
X234894837Y-107404261D01*
X234902754Y-107454243D01*
X234911069Y-107479835D01*
X234926129Y-107526182D01*
X234928124Y-107596023D01*
X234892044Y-107655856D01*
X234829343Y-107686684D01*
X234808198Y-107688500D01*
X221742004Y-107688500D01*
X221606677Y-107715418D01*
X221606667Y-107715421D01*
X221479192Y-107768222D01*
X221364454Y-107844887D01*
X221364453Y-107844888D01*
X211874181Y-117335161D01*
X211812858Y-117368646D01*
X211743166Y-117363662D01*
X211687233Y-117321790D01*
X211663781Y-117265256D01*
X211662500Y-117256412D01*
X211662500Y-117241713D01*
X211637586Y-117084419D01*
X211637469Y-117083605D01*
X211642293Y-117049796D01*
X211646670Y-117015933D01*
X211647246Y-117015089D01*
X211647340Y-117014436D01*
X211649030Y-117012480D01*
X211672504Y-116978151D01*
X224572114Y-104078543D01*
X224572114Y-104078542D01*
X230885837Y-97764819D01*
X230947160Y-97731334D01*
X230973518Y-97728500D01*
X234438217Y-97728500D01*
X234467654Y-97737144D01*
G37*
%TD.AperFunction*%
%TA.AperFunction,NonConductor*%
G36*
X234887584Y-109109185D02*
G01*
X234933339Y-109161989D01*
X234943283Y-109231147D01*
X234938477Y-109251812D01*
X234914279Y-109326286D01*
X234902753Y-109361760D01*
X234869500Y-109571713D01*
X234869500Y-109784286D01*
X234902130Y-109990307D01*
X234902754Y-109994243D01*
X234924867Y-110062301D01*
X234926129Y-110066182D01*
X234928124Y-110136023D01*
X234892044Y-110195856D01*
X234829343Y-110226684D01*
X234808198Y-110228500D01*
X224282005Y-110228500D01*
X224216250Y-110241580D01*
X224176182Y-110249550D01*
X224146671Y-110255420D01*
X224146670Y-110255420D01*
X224019190Y-110308224D01*
X223904454Y-110384887D01*
X223904453Y-110384888D01*
X211874181Y-122415161D01*
X211812858Y-122448646D01*
X211743166Y-122443662D01*
X211687233Y-122401790D01*
X211662816Y-122336326D01*
X211662500Y-122327480D01*
X211662500Y-122321713D01*
X211652145Y-122256334D01*
X211629246Y-122111757D01*
X211563557Y-121909588D01*
X211467051Y-121720184D01*
X211467049Y-121720181D01*
X211467048Y-121720179D01*
X211342109Y-121548213D01*
X211191786Y-121397890D01*
X211019820Y-121272951D01*
X211019115Y-121272591D01*
X211011054Y-121268485D01*
X210960259Y-121220512D01*
X210943463Y-121152692D01*
X210965999Y-121086556D01*
X211011054Y-121047515D01*
X211019816Y-121043051D01*
X211088640Y-120993048D01*
X211191786Y-120918109D01*
X211191788Y-120918106D01*
X211191792Y-120918104D01*
X211342104Y-120767792D01*
X211342106Y-120767788D01*
X211342109Y-120767786D01*
X211467048Y-120595820D01*
X211467047Y-120595820D01*
X211467051Y-120595816D01*
X211563557Y-120406412D01*
X211629246Y-120204243D01*
X211662500Y-119994287D01*
X211662500Y-119781713D01*
X211637715Y-119625227D01*
X211646670Y-119555933D01*
X211672504Y-119518151D01*
X222064838Y-109125819D01*
X222126161Y-109092334D01*
X222152519Y-109089500D01*
X234820545Y-109089500D01*
X234887584Y-109109185D01*
G37*
%TD.AperFunction*%
%TA.AperFunction,NonConductor*%
G36*
X237775703Y-124924806D02*
G01*
X237782181Y-124930838D01*
X239397162Y-126545819D01*
X239430647Y-126607142D01*
X239425663Y-126676834D01*
X239383791Y-126732767D01*
X239318327Y-126757184D01*
X239309481Y-126757500D01*
X237443547Y-126757500D01*
X237376508Y-126737815D01*
X237343230Y-126706385D01*
X237271126Y-126607142D01*
X237250107Y-126578211D01*
X237099786Y-126427890D01*
X236927820Y-126302951D01*
X236923033Y-126300512D01*
X236919054Y-126298485D01*
X236868259Y-126250512D01*
X236851463Y-126182692D01*
X236873999Y-126116556D01*
X236919054Y-126077515D01*
X236927816Y-126073051D01*
X237003461Y-126018092D01*
X237099786Y-125948109D01*
X237099788Y-125948106D01*
X237099792Y-125948104D01*
X237250104Y-125797792D01*
X237250106Y-125797788D01*
X237250109Y-125797786D01*
X237375048Y-125625820D01*
X237375047Y-125625820D01*
X237375051Y-125625816D01*
X237471557Y-125436412D01*
X237537246Y-125234243D01*
X237570500Y-125024287D01*
X237570500Y-125018519D01*
X237590185Y-124951480D01*
X237642989Y-124905725D01*
X237712147Y-124895781D01*
X237775703Y-124924806D01*
G37*
%TD.AperFunction*%
%TA.AperFunction,NonConductor*%
G36*
X234835188Y-116755425D02*
G01*
X234862910Y-116760223D01*
X234868264Y-116765137D01*
X234875237Y-116767185D01*
X234893656Y-116788442D01*
X234914385Y-116807467D01*
X234916232Y-116814496D01*
X234920992Y-116819989D01*
X234924995Y-116847835D01*
X234932147Y-116875041D01*
X234930377Y-116885264D01*
X234930936Y-116889147D01*
X234926130Y-116909812D01*
X234910443Y-116958092D01*
X234902753Y-116981760D01*
X234885751Y-117089110D01*
X234869500Y-117191713D01*
X234869500Y-117404287D01*
X234875425Y-117441697D01*
X234898087Y-117584781D01*
X234902754Y-117614243D01*
X234911069Y-117639835D01*
X234968444Y-117816414D01*
X235064951Y-118005820D01*
X235189890Y-118177786D01*
X235340213Y-118328109D01*
X235512182Y-118453050D01*
X235520946Y-118457516D01*
X235571742Y-118505491D01*
X235588536Y-118573312D01*
X235565998Y-118639447D01*
X235520946Y-118678484D01*
X235512182Y-118682949D01*
X235340213Y-118807890D01*
X235189890Y-118958213D01*
X235064951Y-119130179D01*
X234968444Y-119319585D01*
X234902753Y-119521760D01*
X234869500Y-119731713D01*
X234869500Y-119944286D01*
X234902753Y-120154239D01*
X234968444Y-120356414D01*
X235064951Y-120545820D01*
X235189890Y-120717786D01*
X235340213Y-120868109D01*
X235512182Y-120993050D01*
X235520946Y-120997516D01*
X235571742Y-121045491D01*
X235588536Y-121113312D01*
X235565998Y-121179447D01*
X235520946Y-121218484D01*
X235512182Y-121222949D01*
X235340213Y-121347890D01*
X235189890Y-121498213D01*
X235064951Y-121670179D01*
X234968444Y-121859585D01*
X234902753Y-122061760D01*
X234869500Y-122271713D01*
X234869500Y-122484286D01*
X234894837Y-122644261D01*
X234902754Y-122694243D01*
X234958036Y-122864384D01*
X234968444Y-122896414D01*
X235064951Y-123085820D01*
X235189890Y-123257786D01*
X235340213Y-123408109D01*
X235512182Y-123533050D01*
X235520946Y-123537516D01*
X235571742Y-123585491D01*
X235588536Y-123653312D01*
X235565998Y-123719447D01*
X235520946Y-123758484D01*
X235512182Y-123762949D01*
X235340213Y-123887890D01*
X235189890Y-124038213D01*
X235064951Y-124210179D01*
X234968444Y-124399585D01*
X234902753Y-124601760D01*
X234894834Y-124651760D01*
X234869500Y-124811713D01*
X234869500Y-125024287D01*
X234902754Y-125234243D01*
X234962247Y-125417344D01*
X234968444Y-125436414D01*
X235064951Y-125625820D01*
X235189890Y-125797786D01*
X235340213Y-125948109D01*
X235512182Y-126073050D01*
X235520946Y-126077516D01*
X235571742Y-126125491D01*
X235588536Y-126193312D01*
X235565998Y-126259447D01*
X235520946Y-126298484D01*
X235512182Y-126302949D01*
X235340213Y-126427890D01*
X235189890Y-126578213D01*
X235064949Y-126750182D01*
X235030607Y-126817582D01*
X234982633Y-126868377D01*
X234914812Y-126885172D01*
X234848677Y-126862634D01*
X234832442Y-126848967D01*
X233400819Y-125417344D01*
X233367334Y-125356021D01*
X233364500Y-125329663D01*
X233364500Y-118113783D01*
X233384185Y-118046744D01*
X233400820Y-118026101D01*
X233441136Y-117985785D01*
X233441139Y-117985782D01*
X233550632Y-117821914D01*
X233626051Y-117639835D01*
X233655634Y-117491112D01*
X233664500Y-117446543D01*
X233664500Y-117249456D01*
X233626052Y-117056170D01*
X233626051Y-117056169D01*
X233626051Y-117056165D01*
X233569215Y-116918951D01*
X233561747Y-116849483D01*
X233593022Y-116787004D01*
X233653111Y-116751352D01*
X233683777Y-116747500D01*
X234808198Y-116747500D01*
X234835188Y-116755425D01*
G37*
%TD.AperFunction*%
%TA.AperFunction,NonConductor*%
G36*
X234887584Y-114189185D02*
G01*
X234933339Y-114241989D01*
X234943283Y-114311147D01*
X234938476Y-114331818D01*
X234902753Y-114441760D01*
X234869500Y-114651713D01*
X234869500Y-114864286D01*
X234900862Y-115062302D01*
X234902754Y-115074243D01*
X234924678Y-115141719D01*
X234938476Y-115184182D01*
X234940471Y-115254023D01*
X234904391Y-115313856D01*
X234841690Y-115344684D01*
X234820545Y-115346500D01*
X224244004Y-115346500D01*
X224108677Y-115373418D01*
X224108667Y-115373421D01*
X223981192Y-115426222D01*
X223866454Y-115502887D01*
X223866453Y-115502888D01*
X211874181Y-127495161D01*
X211812858Y-127528646D01*
X211743166Y-127523662D01*
X211687233Y-127481790D01*
X211662816Y-127416326D01*
X211662500Y-127407480D01*
X211662500Y-127401713D01*
X211629246Y-127191757D01*
X211563557Y-126989588D01*
X211467051Y-126800184D01*
X211467049Y-126800181D01*
X211467048Y-126800179D01*
X211342109Y-126628213D01*
X211191786Y-126477890D01*
X211019820Y-126352951D01*
X211019115Y-126352591D01*
X211011054Y-126348485D01*
X210960259Y-126300512D01*
X210943463Y-126232692D01*
X210965999Y-126166556D01*
X211011054Y-126127515D01*
X211019816Y-126123051D01*
X211164281Y-126018092D01*
X211191786Y-125998109D01*
X211191788Y-125998106D01*
X211191792Y-125998104D01*
X211342104Y-125847792D01*
X211342106Y-125847788D01*
X211342109Y-125847786D01*
X211467048Y-125675820D01*
X211467047Y-125675820D01*
X211467051Y-125675816D01*
X211563557Y-125486412D01*
X211629246Y-125284243D01*
X211662500Y-125074287D01*
X211662500Y-124861713D01*
X211637715Y-124705227D01*
X211646670Y-124635933D01*
X211672504Y-124598151D01*
X213334213Y-122936442D01*
X213395534Y-122902959D01*
X213465226Y-122907943D01*
X213521159Y-122949815D01*
X213524994Y-122955234D01*
X213598860Y-123065781D01*
X213598863Y-123065785D01*
X213738214Y-123205136D01*
X213738218Y-123205139D01*
X213902079Y-123314628D01*
X213902092Y-123314635D01*
X214055759Y-123378285D01*
X214084165Y-123390051D01*
X214084169Y-123390051D01*
X214084170Y-123390052D01*
X214277456Y-123428500D01*
X214277459Y-123428500D01*
X214474543Y-123428500D01*
X214604582Y-123402632D01*
X214667835Y-123390051D01*
X214849914Y-123314632D01*
X215013782Y-123205139D01*
X215153139Y-123065782D01*
X215262632Y-122901914D01*
X215338051Y-122719835D01*
X215357645Y-122621331D01*
X215376500Y-122526543D01*
X215376500Y-122469519D01*
X215396185Y-122402480D01*
X215412819Y-122381838D01*
X223588838Y-114205819D01*
X223650161Y-114172334D01*
X223676519Y-114169500D01*
X234820545Y-114169500D01*
X234887584Y-114189185D01*
G37*
%TD.AperFunction*%
%TA.AperFunction,NonConductor*%
G36*
X237775703Y-119844805D02*
G01*
X237782166Y-119850823D01*
X245052552Y-127121208D01*
X252240163Y-134308819D01*
X252273648Y-134370142D01*
X252268664Y-134439834D01*
X252226792Y-134495767D01*
X252161328Y-134520184D01*
X252152482Y-134520500D01*
X250290990Y-134520500D01*
X250223951Y-134500815D01*
X250203309Y-134484181D01*
X242633017Y-126913888D01*
X242633016Y-126913887D01*
X242518278Y-126837222D01*
X242390803Y-126784421D01*
X242390793Y-126784418D01*
X242255467Y-126757500D01*
X242255465Y-126757500D01*
X242255464Y-126757500D01*
X241910384Y-126757500D01*
X241843345Y-126737815D01*
X241797590Y-126685011D01*
X241787646Y-126615853D01*
X241788767Y-126609306D01*
X241789198Y-126607142D01*
X241792500Y-126590541D01*
X241792500Y-126393459D01*
X241792500Y-126393456D01*
X241754052Y-126200170D01*
X241754051Y-126200169D01*
X241754051Y-126200165D01*
X241754049Y-126200160D01*
X241678635Y-126018092D01*
X241678628Y-126018079D01*
X241569139Y-125854218D01*
X241569136Y-125854214D01*
X241429785Y-125714863D01*
X241429781Y-125714860D01*
X241265920Y-125605371D01*
X241265907Y-125605364D01*
X241083839Y-125529950D01*
X241083829Y-125529947D01*
X240890543Y-125491500D01*
X240890541Y-125491500D01*
X240693459Y-125491500D01*
X240693457Y-125491500D01*
X240500166Y-125529948D01*
X240500160Y-125529950D01*
X240479437Y-125538533D01*
X240409967Y-125545999D01*
X240347489Y-125514721D01*
X240344308Y-125511651D01*
X237580507Y-122747850D01*
X237547022Y-122686527D01*
X237545715Y-122640771D01*
X237558925Y-122557371D01*
X237570500Y-122484287D01*
X237570500Y-122271713D01*
X237537246Y-122061757D01*
X237471557Y-121859588D01*
X237375051Y-121670184D01*
X237375049Y-121670181D01*
X237375048Y-121670179D01*
X237250109Y-121498213D01*
X237099786Y-121347890D01*
X236927820Y-121222951D01*
X236923033Y-121220512D01*
X236919054Y-121218485D01*
X236868259Y-121170512D01*
X236851463Y-121102692D01*
X236873999Y-121036556D01*
X236919054Y-120997515D01*
X236927816Y-120993051D01*
X237030966Y-120918109D01*
X237099786Y-120868109D01*
X237099788Y-120868106D01*
X237099792Y-120868104D01*
X237250104Y-120717792D01*
X237250106Y-120717788D01*
X237250109Y-120717786D01*
X237375048Y-120545820D01*
X237375047Y-120545820D01*
X237375051Y-120545816D01*
X237471557Y-120356412D01*
X237537246Y-120154243D01*
X237570500Y-119944287D01*
X237570500Y-119938518D01*
X237590185Y-119871479D01*
X237642989Y-119825724D01*
X237712147Y-119815780D01*
X237775703Y-119844805D01*
G37*
%TD.AperFunction*%
%TA.AperFunction,NonConductor*%
G36*
X245558916Y-143989459D02*
G01*
X245571312Y-143987488D01*
X245592411Y-143996745D01*
X245614925Y-144001643D01*
X245623800Y-144010517D01*
X245635294Y-144015561D01*
X245648039Y-144034756D01*
X245664331Y-144051048D01*
X245667749Y-144064442D01*
X245673942Y-144073768D01*
X245674179Y-144089629D01*
X245679500Y-144110476D01*
X245679500Y-144253692D01*
X245679500Y-144391680D01*
X245687631Y-144432560D01*
X245687860Y-144433844D01*
X245684172Y-144467357D01*
X245681166Y-144500955D01*
X245680361Y-144501990D01*
X245680218Y-144503294D01*
X245658995Y-144529494D01*
X245638303Y-144556133D01*
X245637066Y-144556569D01*
X245636241Y-144557588D01*
X245604205Y-144568161D01*
X245572413Y-144579377D01*
X245571138Y-144579075D01*
X245569892Y-144579487D01*
X245537224Y-144571061D01*
X245504416Y-144563309D01*
X245503303Y-144562313D01*
X245502236Y-144562038D01*
X245498548Y-144558057D01*
X245465458Y-144528440D01*
X245378109Y-144408214D01*
X245378105Y-144408209D01*
X245264569Y-144294673D01*
X245250290Y-144268524D01*
X245233808Y-144243700D01*
X245233725Y-144238187D01*
X245231084Y-144233350D01*
X245233209Y-144203632D01*
X245232764Y-144173838D01*
X245235674Y-144169156D01*
X245236068Y-144163658D01*
X245253924Y-144139805D01*
X245269657Y-144114502D01*
X245275511Y-144110969D01*
X245277940Y-144107725D01*
X245299059Y-144094980D01*
X245305043Y-144092138D01*
X245305483Y-144092091D01*
X245440331Y-144041796D01*
X245491113Y-144003780D01*
X245502309Y-143998464D01*
X245525063Y-143994844D01*
X245546652Y-143986792D01*
X245558916Y-143989459D01*
G37*
%TD.AperFunction*%
%TA.AperFunction,NonConductor*%
G36*
X231711262Y-116767185D02*
G01*
X231757017Y-116819989D01*
X231766961Y-116889147D01*
X231758784Y-116918953D01*
X231701949Y-117056164D01*
X231701947Y-117056170D01*
X231663500Y-117249456D01*
X231663500Y-117249459D01*
X231663500Y-117446541D01*
X231663500Y-117446543D01*
X231663499Y-117446543D01*
X231701947Y-117639829D01*
X231701950Y-117639839D01*
X231777364Y-117821907D01*
X231777371Y-117821920D01*
X231886860Y-117985781D01*
X231886863Y-117985785D01*
X231927180Y-118026101D01*
X231960666Y-118087424D01*
X231963500Y-118113783D01*
X231963500Y-125602188D01*
X231963500Y-125740176D01*
X231963500Y-125740178D01*
X231963499Y-125740178D01*
X231990418Y-125875504D01*
X231990421Y-125875514D01*
X232043222Y-126002989D01*
X232119887Y-126117727D01*
X232119888Y-126117728D01*
X235085751Y-129083590D01*
X235119236Y-129144913D01*
X235114252Y-129214605D01*
X235098390Y-129244153D01*
X235064951Y-129290179D01*
X234968444Y-129479585D01*
X234902753Y-129681760D01*
X234869500Y-129891713D01*
X234869500Y-130104286D01*
X234900840Y-130302162D01*
X234902754Y-130314243D01*
X234958888Y-130487006D01*
X234968444Y-130516414D01*
X235064951Y-130705820D01*
X235189890Y-130877786D01*
X235340213Y-131028109D01*
X235512182Y-131153050D01*
X235520946Y-131157516D01*
X235571742Y-131205491D01*
X235588536Y-131273312D01*
X235565998Y-131339447D01*
X235520946Y-131378484D01*
X235512182Y-131382949D01*
X235340213Y-131507890D01*
X235189890Y-131658213D01*
X235064951Y-131830179D01*
X234968444Y-132019585D01*
X234902753Y-132221760D01*
X234869500Y-132431713D01*
X234869500Y-132644286D01*
X234902753Y-132854239D01*
X234968444Y-133056414D01*
X235064951Y-133245820D01*
X235189890Y-133417786D01*
X235340213Y-133568109D01*
X235512182Y-133693050D01*
X235520946Y-133697516D01*
X235571742Y-133745491D01*
X235588536Y-133813312D01*
X235565998Y-133879447D01*
X235520946Y-133918484D01*
X235512182Y-133922949D01*
X235340213Y-134047890D01*
X235189890Y-134198213D01*
X235064951Y-134370179D01*
X234968444Y-134559585D01*
X234902753Y-134761760D01*
X234894834Y-134811760D01*
X234869500Y-134971713D01*
X234869500Y-135184287D01*
X234902754Y-135394243D01*
X234963776Y-135582049D01*
X234968444Y-135596414D01*
X235064951Y-135785820D01*
X235189890Y-135957786D01*
X235303430Y-136071326D01*
X235336915Y-136132649D01*
X235331931Y-136202341D01*
X235290059Y-136258274D01*
X235259083Y-136275189D01*
X235127669Y-136324203D01*
X235127664Y-136324206D01*
X235012455Y-136410452D01*
X235012452Y-136410455D01*
X234926206Y-136525664D01*
X234926202Y-136525671D01*
X234875908Y-136660517D01*
X234869501Y-136720116D01*
X234869501Y-136720123D01*
X234869500Y-136720135D01*
X234869500Y-138515870D01*
X234869501Y-138515876D01*
X234875908Y-138575483D01*
X234926202Y-138710328D01*
X234926206Y-138710335D01*
X235012452Y-138825544D01*
X235012455Y-138825547D01*
X235127664Y-138911793D01*
X235127671Y-138911797D01*
X235262517Y-138962091D01*
X235262516Y-138962091D01*
X235269444Y-138962835D01*
X235322127Y-138968500D01*
X237117872Y-138968499D01*
X237177483Y-138962091D01*
X237312331Y-138911796D01*
X237427546Y-138825546D01*
X237513796Y-138710331D01*
X237564091Y-138575483D01*
X237570500Y-138515873D01*
X237570499Y-136720128D01*
X237564091Y-136660517D01*
X237513796Y-136525669D01*
X237513795Y-136525668D01*
X237513793Y-136525664D01*
X237427547Y-136410455D01*
X237427544Y-136410452D01*
X237312335Y-136324206D01*
X237312328Y-136324202D01*
X237180917Y-136275189D01*
X237124983Y-136233318D01*
X237100566Y-136167853D01*
X237115418Y-136099580D01*
X237136563Y-136071332D01*
X237250104Y-135957792D01*
X237276472Y-135921500D01*
X237375048Y-135785820D01*
X237375047Y-135785820D01*
X237375051Y-135785816D01*
X237471557Y-135596412D01*
X237537246Y-135394243D01*
X237570500Y-135184287D01*
X237570500Y-134971713D01*
X237537246Y-134761757D01*
X237471557Y-134559588D01*
X237375051Y-134370184D01*
X237375049Y-134370181D01*
X237375048Y-134370179D01*
X237250109Y-134198213D01*
X237099786Y-134047890D01*
X236927820Y-133922951D01*
X236923033Y-133920512D01*
X236919054Y-133918485D01*
X236868259Y-133870512D01*
X236851463Y-133802692D01*
X236873999Y-133736556D01*
X236919054Y-133697515D01*
X236927816Y-133693051D01*
X237030966Y-133618109D01*
X237099786Y-133568109D01*
X237099788Y-133568106D01*
X237099792Y-133568104D01*
X237250104Y-133417792D01*
X237250106Y-133417788D01*
X237250109Y-133417786D01*
X237375048Y-133245820D01*
X237375047Y-133245820D01*
X237375051Y-133245816D01*
X237471557Y-133056412D01*
X237537246Y-132854243D01*
X237570500Y-132644287D01*
X237570500Y-132431713D01*
X237537246Y-132221757D01*
X237471557Y-132019588D01*
X237375051Y-131830184D01*
X237375049Y-131830181D01*
X237375048Y-131830179D01*
X237250109Y-131658213D01*
X237099786Y-131507890D01*
X236927820Y-131382951D01*
X236923033Y-131380512D01*
X236919054Y-131378485D01*
X236868259Y-131330512D01*
X236851463Y-131262692D01*
X236873999Y-131196556D01*
X236919054Y-131157515D01*
X236927816Y-131153051D01*
X237030966Y-131078109D01*
X237099786Y-131028109D01*
X237099788Y-131028106D01*
X237099792Y-131028104D01*
X237250104Y-130877792D01*
X237250106Y-130877788D01*
X237250109Y-130877786D01*
X237338724Y-130755816D01*
X237375051Y-130705816D01*
X237409391Y-130638418D01*
X237457365Y-130587623D01*
X237525185Y-130570827D01*
X237591321Y-130593364D01*
X237607557Y-130607032D01*
X240616344Y-133615819D01*
X240649829Y-133677142D01*
X240644845Y-133746834D01*
X240602973Y-133802767D01*
X240537509Y-133827184D01*
X240528663Y-133827500D01*
X240435648Y-133827500D01*
X240411329Y-133831351D01*
X240233465Y-133859522D01*
X240038776Y-133922781D01*
X239856386Y-134015715D01*
X239690786Y-134136028D01*
X239546028Y-134280786D01*
X239425715Y-134446386D01*
X239332781Y-134628776D01*
X239269522Y-134823465D01*
X239237500Y-135025648D01*
X239237500Y-135230351D01*
X239269522Y-135432534D01*
X239332781Y-135627223D01*
X239383770Y-135727292D01*
X239413591Y-135785820D01*
X239425715Y-135809613D01*
X239546028Y-135975213D01*
X239690786Y-136119971D01*
X239804161Y-136202341D01*
X239856390Y-136240287D01*
X239940319Y-136283051D01*
X240038776Y-136333218D01*
X240038778Y-136333218D01*
X240038781Y-136333220D01*
X240143137Y-136367127D01*
X240233465Y-136396477D01*
X240321699Y-136410452D01*
X240435648Y-136428500D01*
X240435649Y-136428500D01*
X240640351Y-136428500D01*
X240640352Y-136428500D01*
X240842534Y-136396477D01*
X241037219Y-136333220D01*
X241219610Y-136240287D01*
X241332726Y-136158104D01*
X241385213Y-136119971D01*
X241385215Y-136119968D01*
X241385219Y-136119966D01*
X241529966Y-135975219D01*
X241529968Y-135975215D01*
X241529971Y-135975213D01*
X241626916Y-135841777D01*
X241650287Y-135809610D01*
X241743220Y-135627219D01*
X241806477Y-135432534D01*
X241838500Y-135230352D01*
X241838500Y-135137337D01*
X241858185Y-135070298D01*
X241910989Y-135024543D01*
X241980147Y-135014599D01*
X242043703Y-135043624D01*
X242050181Y-135049656D01*
X245643181Y-138642656D01*
X245676666Y-138703979D01*
X245679500Y-138730337D01*
X245679500Y-141385523D01*
X245659815Y-141452562D01*
X245607011Y-141498317D01*
X245537853Y-141508261D01*
X245481189Y-141484790D01*
X245440331Y-141454204D01*
X245440328Y-141454202D01*
X245305482Y-141403908D01*
X245305483Y-141403908D01*
X245245883Y-141397501D01*
X245245881Y-141397500D01*
X245245873Y-141397500D01*
X245245864Y-141397500D01*
X243450129Y-141397500D01*
X243450123Y-141397501D01*
X243390516Y-141403908D01*
X243255671Y-141454202D01*
X243255664Y-141454206D01*
X243140455Y-141540452D01*
X243140452Y-141540455D01*
X243054206Y-141655664D01*
X243054202Y-141655671D01*
X243003908Y-141790517D01*
X242997501Y-141850116D01*
X242997500Y-141850135D01*
X242997500Y-143645870D01*
X242997501Y-143645876D01*
X243003908Y-143705483D01*
X243054202Y-143840328D01*
X243054206Y-143840335D01*
X243140452Y-143955544D01*
X243140455Y-143955547D01*
X243255664Y-144041793D01*
X243255671Y-144041797D01*
X243387082Y-144090810D01*
X243443016Y-144132681D01*
X243467433Y-144198145D01*
X243452582Y-144266418D01*
X243431431Y-144294673D01*
X243317889Y-144408215D01*
X243192951Y-144580179D01*
X243096444Y-144769585D01*
X243030753Y-144971760D01*
X242997500Y-145181713D01*
X242997500Y-145394286D01*
X243027585Y-145584239D01*
X243030754Y-145604243D01*
X243089945Y-145786414D01*
X243096444Y-145806414D01*
X243192951Y-145995820D01*
X243317890Y-146167786D01*
X243468213Y-146318109D01*
X243640182Y-146443050D01*
X243648946Y-146447516D01*
X243699742Y-146495491D01*
X243716536Y-146563312D01*
X243693998Y-146629447D01*
X243648946Y-146668484D01*
X243640182Y-146672949D01*
X243468213Y-146797890D01*
X243317890Y-146948213D01*
X243192951Y-147120180D01*
X243158608Y-147187582D01*
X243110633Y-147238378D01*
X243042812Y-147255173D01*
X242976677Y-147232636D01*
X242960442Y-147218968D01*
X219836397Y-124094922D01*
X219802912Y-124033599D01*
X219807896Y-123963907D01*
X219820972Y-123938356D01*
X219834632Y-123917914D01*
X219910051Y-123735835D01*
X219944928Y-123560498D01*
X219948500Y-123542543D01*
X219948500Y-123345456D01*
X219910052Y-123152170D01*
X219910051Y-123152169D01*
X219910051Y-123152165D01*
X219874272Y-123065785D01*
X219834635Y-122970092D01*
X219834628Y-122970079D01*
X219725139Y-122806218D01*
X219725136Y-122806214D01*
X219585785Y-122666863D01*
X219585781Y-122666860D01*
X219421920Y-122557371D01*
X219421907Y-122557364D01*
X219239839Y-122481950D01*
X219239830Y-122481947D01*
X219157810Y-122465632D01*
X219095900Y-122433246D01*
X219061326Y-122372530D01*
X219065067Y-122302761D01*
X219094320Y-122256336D01*
X224566838Y-116783819D01*
X224628161Y-116750334D01*
X224654519Y-116747500D01*
X231644223Y-116747500D01*
X231711262Y-116767185D01*
G37*
%TD.AperFunction*%
%TA.AperFunction,NonConductor*%
G36*
X270489520Y-103336185D02*
G01*
X270510162Y-103352819D01*
X272059181Y-104901838D01*
X272092666Y-104963161D01*
X272095500Y-104989519D01*
X272095500Y-105374333D01*
X272075815Y-105441372D01*
X272023011Y-105487127D01*
X271953853Y-105497071D01*
X271890297Y-105468046D01*
X271864113Y-105436334D01*
X271838261Y-105391557D01*
X271756273Y-105249550D01*
X271654785Y-105117288D01*
X271612593Y-105062302D01*
X271612587Y-105062295D01*
X271445704Y-104895412D01*
X271445697Y-104895406D01*
X271258454Y-104751730D01*
X271258453Y-104751729D01*
X271258450Y-104751727D01*
X271176174Y-104704225D01*
X271054056Y-104633719D01*
X271054045Y-104633714D01*
X270835993Y-104543394D01*
X270710802Y-104509849D01*
X270608014Y-104482307D01*
X270608013Y-104482306D01*
X270608010Y-104482306D01*
X270374020Y-104451501D01*
X270374017Y-104451500D01*
X270374011Y-104451500D01*
X270137989Y-104451500D01*
X270137983Y-104451500D01*
X270137979Y-104451501D01*
X269903989Y-104482306D01*
X269676006Y-104543394D01*
X269457954Y-104633714D01*
X269457943Y-104633719D01*
X269253545Y-104751730D01*
X269066302Y-104895406D01*
X269066295Y-104895412D01*
X268899412Y-105062295D01*
X268899406Y-105062302D01*
X268755730Y-105249545D01*
X268637719Y-105453943D01*
X268637714Y-105453954D01*
X268547394Y-105672006D01*
X268486306Y-105899989D01*
X268455501Y-106133979D01*
X268455500Y-106133995D01*
X268455500Y-106370004D01*
X268455501Y-106370020D01*
X268482317Y-106573713D01*
X268486307Y-106604014D01*
X268501135Y-106659352D01*
X268547394Y-106831993D01*
X268637714Y-107050045D01*
X268637719Y-107050056D01*
X268683683Y-107129666D01*
X268755727Y-107254450D01*
X268755729Y-107254453D01*
X268755730Y-107254454D01*
X268899406Y-107441697D01*
X268899412Y-107441704D01*
X269066295Y-107608587D01*
X269066302Y-107608593D01*
X269168073Y-107686684D01*
X269253550Y-107752273D01*
X269384918Y-107828118D01*
X269457943Y-107870280D01*
X269457948Y-107870282D01*
X269457951Y-107870284D01*
X269676007Y-107960606D01*
X269903986Y-108021693D01*
X270137989Y-108052500D01*
X270137996Y-108052500D01*
X270374004Y-108052500D01*
X270374011Y-108052500D01*
X270608014Y-108021693D01*
X270835993Y-107960606D01*
X271054049Y-107870284D01*
X271258450Y-107752273D01*
X271445699Y-107608592D01*
X271612592Y-107441699D01*
X271756273Y-107254450D01*
X271864113Y-107067666D01*
X271914680Y-107019450D01*
X271983287Y-107006228D01*
X272048152Y-107032196D01*
X272088680Y-107089110D01*
X272095500Y-107129666D01*
X272095500Y-110374333D01*
X272075815Y-110441372D01*
X272023011Y-110487127D01*
X271953853Y-110497071D01*
X271890297Y-110468046D01*
X271864113Y-110436334D01*
X271845102Y-110403406D01*
X271756273Y-110249550D01*
X271753865Y-110246412D01*
X271612593Y-110062302D01*
X271612587Y-110062295D01*
X271445704Y-109895412D01*
X271445697Y-109895406D01*
X271258454Y-109751730D01*
X271258453Y-109751729D01*
X271258450Y-109751727D01*
X271176957Y-109704677D01*
X271054056Y-109633719D01*
X271054045Y-109633714D01*
X270835993Y-109543394D01*
X270608010Y-109482306D01*
X270374020Y-109451501D01*
X270374017Y-109451500D01*
X270374011Y-109451500D01*
X270137989Y-109451500D01*
X270137983Y-109451500D01*
X270137979Y-109451501D01*
X269903989Y-109482306D01*
X269676006Y-109543394D01*
X269457954Y-109633714D01*
X269457943Y-109633719D01*
X269253545Y-109751730D01*
X269066302Y-109895406D01*
X269066295Y-109895412D01*
X268899412Y-110062295D01*
X268899406Y-110062302D01*
X268755730Y-110249545D01*
X268755727Y-110249549D01*
X268755727Y-110249550D01*
X268755407Y-110250104D01*
X268637719Y-110453943D01*
X268637714Y-110453954D01*
X268547394Y-110672006D01*
X268486306Y-110899989D01*
X268455501Y-111133979D01*
X268455500Y-111133995D01*
X268455500Y-111370004D01*
X268455501Y-111370020D01*
X268486306Y-111604010D01*
X268547394Y-111831993D01*
X268637714Y-112050045D01*
X268637719Y-112050056D01*
X268683683Y-112129666D01*
X268755727Y-112254450D01*
X268755729Y-112254453D01*
X268755730Y-112254454D01*
X268899406Y-112441697D01*
X268899412Y-112441704D01*
X269066295Y-112608587D01*
X269066302Y-112608593D01*
X269130521Y-112657870D01*
X269253550Y-112752273D01*
X269357198Y-112812114D01*
X269457943Y-112870280D01*
X269457948Y-112870282D01*
X269457951Y-112870284D01*
X269676007Y-112960606D01*
X269903986Y-113021693D01*
X270137989Y-113052500D01*
X270137996Y-113052500D01*
X270374004Y-113052500D01*
X270374011Y-113052500D01*
X270608014Y-113021693D01*
X270835993Y-112960606D01*
X271054049Y-112870284D01*
X271258450Y-112752273D01*
X271445699Y-112608592D01*
X271612592Y-112441699D01*
X271756273Y-112254450D01*
X271864113Y-112067666D01*
X271914680Y-112019450D01*
X271983287Y-112006228D01*
X272048152Y-112032196D01*
X272088680Y-112089110D01*
X272095500Y-112129666D01*
X272095500Y-115374333D01*
X272075815Y-115441372D01*
X272023011Y-115487127D01*
X271953853Y-115497071D01*
X271890297Y-115468046D01*
X271864113Y-115436334D01*
X271829536Y-115376446D01*
X271756273Y-115249550D01*
X271721976Y-115204853D01*
X271612593Y-115062302D01*
X271612587Y-115062295D01*
X271445704Y-114895412D01*
X271445697Y-114895406D01*
X271258454Y-114751730D01*
X271258453Y-114751729D01*
X271258450Y-114751727D01*
X271171823Y-114701713D01*
X271054056Y-114633719D01*
X271054045Y-114633714D01*
X270835993Y-114543394D01*
X270608010Y-114482306D01*
X270374020Y-114451501D01*
X270374017Y-114451500D01*
X270374011Y-114451500D01*
X270137989Y-114451500D01*
X270137983Y-114451500D01*
X270137979Y-114451501D01*
X269903989Y-114482306D01*
X269676006Y-114543394D01*
X269457954Y-114633714D01*
X269457943Y-114633719D01*
X269253545Y-114751730D01*
X269066302Y-114895406D01*
X269066295Y-114895412D01*
X268899412Y-115062295D01*
X268899406Y-115062302D01*
X268755730Y-115249545D01*
X268637719Y-115453943D01*
X268637714Y-115453954D01*
X268547394Y-115672006D01*
X268486306Y-115899989D01*
X268455501Y-116133979D01*
X268455500Y-116133995D01*
X268455500Y-116370004D01*
X268455501Y-116370020D01*
X268486306Y-116604010D01*
X268547394Y-116831993D01*
X268637714Y-117050045D01*
X268637719Y-117050056D01*
X268683683Y-117129666D01*
X268755727Y-117254450D01*
X268755729Y-117254453D01*
X268755730Y-117254454D01*
X268899406Y-117441697D01*
X268899412Y-117441704D01*
X269066295Y-117608587D01*
X269066302Y-117608593D01*
X269081921Y-117620578D01*
X269253550Y-117752273D01*
X269374160Y-117821907D01*
X269457943Y-117870280D01*
X269457948Y-117870282D01*
X269457951Y-117870284D01*
X269676007Y-117960606D01*
X269903986Y-118021693D01*
X270137989Y-118052500D01*
X270137996Y-118052500D01*
X270374004Y-118052500D01*
X270374011Y-118052500D01*
X270608014Y-118021693D01*
X270835993Y-117960606D01*
X271054049Y-117870284D01*
X271258450Y-117752273D01*
X271445699Y-117608592D01*
X271612592Y-117441699D01*
X271756273Y-117254450D01*
X271864113Y-117067666D01*
X271914680Y-117019450D01*
X271983287Y-117006228D01*
X272048152Y-117032196D01*
X272088680Y-117089110D01*
X272095500Y-117129666D01*
X272095500Y-119630770D01*
X272075815Y-119697809D01*
X272023011Y-119743564D01*
X271953853Y-119753508D01*
X271890297Y-119724483D01*
X271883819Y-119718451D01*
X271774657Y-119609289D01*
X271774656Y-119609288D01*
X271625334Y-119517186D01*
X271458797Y-119462001D01*
X271458795Y-119462000D01*
X271356010Y-119451500D01*
X269155998Y-119451500D01*
X269155981Y-119451501D01*
X269053203Y-119462000D01*
X269053200Y-119462001D01*
X268886668Y-119517185D01*
X268886663Y-119517187D01*
X268737342Y-119609289D01*
X268613289Y-119733342D01*
X268521187Y-119882663D01*
X268521186Y-119882666D01*
X268466001Y-120049203D01*
X268466001Y-120049204D01*
X268466000Y-120049204D01*
X268455500Y-120151983D01*
X268455500Y-122352001D01*
X268455501Y-122352018D01*
X268466000Y-122454796D01*
X268466001Y-122454799D01*
X268521185Y-122621331D01*
X268521186Y-122621334D01*
X268613288Y-122770656D01*
X268737344Y-122894712D01*
X268886666Y-122986814D01*
X269053203Y-123041999D01*
X269155991Y-123052500D01*
X271356008Y-123052499D01*
X271458797Y-123041999D01*
X271625334Y-122986814D01*
X271774656Y-122894712D01*
X271883819Y-122785549D01*
X271903255Y-122774936D01*
X271919989Y-122760436D01*
X271933320Y-122758519D01*
X271945142Y-122752064D01*
X271967228Y-122753643D01*
X271989147Y-122750492D01*
X272001398Y-122756087D01*
X272014834Y-122757048D01*
X272032560Y-122770318D01*
X272052703Y-122779517D01*
X272059985Y-122790848D01*
X272070767Y-122798920D01*
X272078504Y-122819665D01*
X272090477Y-122838295D01*
X272093628Y-122860213D01*
X272095184Y-122864384D01*
X272095500Y-122873230D01*
X272095500Y-123102480D01*
X272075815Y-123169519D01*
X272059181Y-123190161D01*
X267171888Y-128077453D01*
X267171884Y-128077458D01*
X267151954Y-128107287D01*
X267126233Y-128145782D01*
X267117735Y-128158500D01*
X267095223Y-128192191D01*
X267042421Y-128319667D01*
X267042418Y-128319677D01*
X267015500Y-128455004D01*
X267015500Y-128455007D01*
X267015500Y-130487006D01*
X267015500Y-130624994D01*
X267015500Y-130624996D01*
X267015499Y-130624996D01*
X267042418Y-130760322D01*
X267042421Y-130760332D01*
X267095222Y-130887807D01*
X267171887Y-131002545D01*
X267171888Y-131002546D01*
X272567181Y-136397837D01*
X272600666Y-136459160D01*
X272603500Y-136485518D01*
X272603500Y-150661481D01*
X272583815Y-150728520D01*
X272567181Y-150749162D01*
X271653162Y-151663181D01*
X271591839Y-151696666D01*
X271565481Y-151699500D01*
X271219308Y-151699500D01*
X271152269Y-151679815D01*
X271106514Y-151627011D01*
X271096570Y-151557853D01*
X271125595Y-151494297D01*
X271171856Y-151460939D01*
X271226540Y-151438288D01*
X271226543Y-151438286D01*
X271226549Y-151438284D01*
X271430950Y-151320273D01*
X271618199Y-151176592D01*
X271785092Y-151009699D01*
X271928773Y-150822450D01*
X272046784Y-150618049D01*
X272137106Y-150399993D01*
X272198193Y-150172014D01*
X272229000Y-149938011D01*
X272229000Y-149701989D01*
X272198193Y-149467986D01*
X272137106Y-149240007D01*
X272046784Y-149021951D01*
X272046782Y-149021948D01*
X272046780Y-149021943D01*
X271998052Y-148937545D01*
X271928773Y-148817550D01*
X271785092Y-148630301D01*
X271785087Y-148630295D01*
X271618204Y-148463412D01*
X271618197Y-148463406D01*
X271430954Y-148319730D01*
X271430953Y-148319729D01*
X271430950Y-148319727D01*
X271349457Y-148272677D01*
X271226556Y-148201719D01*
X271226545Y-148201714D01*
X271008493Y-148111394D01*
X270780510Y-148050306D01*
X270546520Y-148019501D01*
X270546517Y-148019500D01*
X270546511Y-148019500D01*
X270310489Y-148019500D01*
X270310483Y-148019500D01*
X270310479Y-148019501D01*
X270076489Y-148050306D01*
X269848503Y-148111395D01*
X269827502Y-148120094D01*
X269758033Y-148127561D01*
X269695554Y-148096286D01*
X269692370Y-148093213D01*
X266301152Y-144701995D01*
X268628000Y-144701995D01*
X268628000Y-144938004D01*
X268628001Y-144938020D01*
X268658806Y-145172010D01*
X268719894Y-145399993D01*
X268810214Y-145618045D01*
X268810219Y-145618056D01*
X268879496Y-145738045D01*
X268928227Y-145822450D01*
X268928229Y-145822453D01*
X268928230Y-145822454D01*
X269071906Y-146009697D01*
X269071912Y-146009704D01*
X269238795Y-146176587D01*
X269238801Y-146176592D01*
X269426050Y-146320273D01*
X269557418Y-146396118D01*
X269630443Y-146438280D01*
X269630448Y-146438282D01*
X269630451Y-146438284D01*
X269848507Y-146528606D01*
X270076486Y-146589693D01*
X270310489Y-146620500D01*
X270310496Y-146620500D01*
X270546504Y-146620500D01*
X270546511Y-146620500D01*
X270780514Y-146589693D01*
X271008493Y-146528606D01*
X271226549Y-146438284D01*
X271430950Y-146320273D01*
X271618199Y-146176592D01*
X271785092Y-146009699D01*
X271928773Y-145822450D01*
X272046784Y-145618049D01*
X272137106Y-145399993D01*
X272198193Y-145172014D01*
X272229000Y-144938011D01*
X272229000Y-144701989D01*
X272198193Y-144467986D01*
X272137106Y-144240007D01*
X272046784Y-144021951D01*
X272046782Y-144021948D01*
X272046780Y-144021943D01*
X271996866Y-143935491D01*
X271928773Y-143817550D01*
X271797040Y-143645872D01*
X271785093Y-143630302D01*
X271785087Y-143630295D01*
X271618204Y-143463412D01*
X271618197Y-143463406D01*
X271430954Y-143319730D01*
X271430953Y-143319729D01*
X271430950Y-143319727D01*
X271349457Y-143272677D01*
X271226556Y-143201719D01*
X271226545Y-143201714D01*
X271008493Y-143111394D01*
X270780510Y-143050306D01*
X270546520Y-143019501D01*
X270546517Y-143019500D01*
X270546511Y-143019500D01*
X270310489Y-143019500D01*
X270310483Y-143019500D01*
X270310479Y-143019501D01*
X270076489Y-143050306D01*
X269848506Y-143111394D01*
X269630454Y-143201714D01*
X269630443Y-143201719D01*
X269426045Y-143319730D01*
X269238802Y-143463406D01*
X269238795Y-143463412D01*
X269071912Y-143630295D01*
X269071906Y-143630302D01*
X268928230Y-143817545D01*
X268810219Y-144021943D01*
X268810214Y-144021954D01*
X268719894Y-144240006D01*
X268658806Y-144467989D01*
X268628001Y-144701979D01*
X268628000Y-144701995D01*
X266301152Y-144701995D01*
X261301152Y-139701995D01*
X268628000Y-139701995D01*
X268628000Y-139938004D01*
X268628001Y-139938020D01*
X268658806Y-140172010D01*
X268719894Y-140399993D01*
X268810214Y-140618045D01*
X268810219Y-140618056D01*
X268881177Y-140740957D01*
X268928227Y-140822450D01*
X268928229Y-140822453D01*
X268928230Y-140822454D01*
X269071906Y-141009697D01*
X269071912Y-141009704D01*
X269238795Y-141176587D01*
X269238801Y-141176592D01*
X269426050Y-141320273D01*
X269557418Y-141396118D01*
X269630443Y-141438280D01*
X269630448Y-141438282D01*
X269630451Y-141438284D01*
X269848507Y-141528606D01*
X270076486Y-141589693D01*
X270310489Y-141620500D01*
X270310496Y-141620500D01*
X270546504Y-141620500D01*
X270546511Y-141620500D01*
X270780514Y-141589693D01*
X271008493Y-141528606D01*
X271226549Y-141438284D01*
X271430950Y-141320273D01*
X271618199Y-141176592D01*
X271785092Y-141009699D01*
X271928773Y-140822450D01*
X272046784Y-140618049D01*
X272137106Y-140399993D01*
X272198193Y-140172014D01*
X272229000Y-139938011D01*
X272229000Y-139701989D01*
X272198193Y-139467986D01*
X272137106Y-139240007D01*
X272046784Y-139021951D01*
X272046782Y-139021948D01*
X272046780Y-139021943D01*
X271987667Y-138919557D01*
X271928773Y-138817550D01*
X271822441Y-138678975D01*
X271785093Y-138630302D01*
X271785087Y-138630295D01*
X271618204Y-138463412D01*
X271618197Y-138463406D01*
X271430954Y-138319730D01*
X271430953Y-138319729D01*
X271430950Y-138319727D01*
X271349457Y-138272677D01*
X271226556Y-138201719D01*
X271226545Y-138201714D01*
X271008493Y-138111394D01*
X270805522Y-138057008D01*
X270780514Y-138050307D01*
X270780513Y-138050306D01*
X270780510Y-138050306D01*
X270546520Y-138019501D01*
X270546517Y-138019500D01*
X270546511Y-138019500D01*
X270310489Y-138019500D01*
X270310483Y-138019500D01*
X270310479Y-138019501D01*
X270076489Y-138050306D01*
X269848506Y-138111394D01*
X269630454Y-138201714D01*
X269630443Y-138201719D01*
X269426045Y-138319730D01*
X269238802Y-138463406D01*
X269238795Y-138463412D01*
X269071912Y-138630295D01*
X269071906Y-138630302D01*
X268928230Y-138817545D01*
X268810219Y-139021943D01*
X268810214Y-139021954D01*
X268719894Y-139240006D01*
X268658806Y-139467989D01*
X268628001Y-139701979D01*
X268628000Y-139701995D01*
X261301152Y-139701995D01*
X257431338Y-135832181D01*
X257397853Y-135770858D01*
X257402837Y-135701166D01*
X257444709Y-135645233D01*
X257510173Y-135620816D01*
X257519019Y-135620500D01*
X257654543Y-135620500D01*
X257784582Y-135594632D01*
X257847835Y-135582051D01*
X258029914Y-135506632D01*
X258193782Y-135397139D01*
X258333139Y-135257782D01*
X258442632Y-135093914D01*
X258518051Y-134911835D01*
X258556500Y-134718541D01*
X258556500Y-134521459D01*
X258556500Y-134521456D01*
X258518052Y-134328170D01*
X258518051Y-134328169D01*
X258518051Y-134328165D01*
X258501641Y-134288547D01*
X258442635Y-134146092D01*
X258442628Y-134146079D01*
X258333139Y-133982218D01*
X258333136Y-133982214D01*
X258193785Y-133842863D01*
X258193781Y-133842860D01*
X258029920Y-133733371D01*
X258029907Y-133733364D01*
X257847839Y-133657950D01*
X257847829Y-133657947D01*
X257654543Y-133619500D01*
X257654541Y-133619500D01*
X257457459Y-133619500D01*
X257457457Y-133619500D01*
X257264170Y-133657947D01*
X257264160Y-133657950D01*
X257082092Y-133733364D01*
X257082079Y-133733371D01*
X256918218Y-133842860D01*
X256918214Y-133842863D01*
X256877899Y-133883180D01*
X256816576Y-133916666D01*
X256790217Y-133919500D01*
X253883518Y-133919500D01*
X253816479Y-133899815D01*
X253795837Y-133883181D01*
X237580507Y-117667850D01*
X237547022Y-117606527D01*
X237545715Y-117560771D01*
X237563808Y-117446541D01*
X237570500Y-117404287D01*
X237570500Y-117191713D01*
X237537246Y-116981757D01*
X237513870Y-116909816D01*
X237511876Y-116839977D01*
X237547956Y-116780144D01*
X237610657Y-116749316D01*
X237631802Y-116747500D01*
X241191500Y-116747500D01*
X241258539Y-116767185D01*
X241304294Y-116819989D01*
X241315500Y-116871500D01*
X241315500Y-117045541D01*
X241315500Y-117045543D01*
X241315499Y-117045543D01*
X241353947Y-117238829D01*
X241353950Y-117238839D01*
X241429364Y-117420907D01*
X241429371Y-117420920D01*
X241538860Y-117584781D01*
X241538863Y-117584785D01*
X241678214Y-117724136D01*
X241678218Y-117724139D01*
X241842079Y-117833628D01*
X241842092Y-117833635D01*
X242024160Y-117909049D01*
X242024165Y-117909051D01*
X242024169Y-117909051D01*
X242024170Y-117909052D01*
X242217456Y-117947500D01*
X242217459Y-117947500D01*
X242414543Y-117947500D01*
X242544582Y-117921632D01*
X242607835Y-117909051D01*
X242789914Y-117833632D01*
X242953782Y-117724139D01*
X242994101Y-117683820D01*
X243055424Y-117650334D01*
X243081783Y-117647500D01*
X250913996Y-117647500D01*
X251019903Y-117626433D01*
X251049328Y-117620580D01*
X251135745Y-117584785D01*
X251176807Y-117567777D01*
X251176808Y-117567776D01*
X251176811Y-117567775D01*
X251291543Y-117491114D01*
X251714991Y-117067666D01*
X252060756Y-116721902D01*
X254531500Y-116721902D01*
X254531500Y-116958097D01*
X254568446Y-117191368D01*
X254641433Y-117415996D01*
X254739567Y-117608593D01*
X254748657Y-117626433D01*
X254887483Y-117817510D01*
X255054490Y-117984517D01*
X255245567Y-118123343D01*
X255344991Y-118174002D01*
X255456003Y-118230566D01*
X255456005Y-118230566D01*
X255456008Y-118230568D01*
X255576412Y-118269689D01*
X255680631Y-118303553D01*
X255913903Y-118340500D01*
X255913908Y-118340500D01*
X256150097Y-118340500D01*
X256383368Y-118303553D01*
X256607992Y-118230568D01*
X256818433Y-118123343D01*
X257009510Y-117984517D01*
X257176517Y-117817510D01*
X257315343Y-117626433D01*
X257422568Y-117415992D01*
X257495553Y-117191368D01*
X257505326Y-117129666D01*
X257532500Y-116958097D01*
X257532500Y-116721902D01*
X257495553Y-116488631D01*
X257422566Y-116264003D01*
X257356315Y-116133979D01*
X257315343Y-116053567D01*
X257176517Y-115862490D01*
X257009510Y-115695483D01*
X256818433Y-115556657D01*
X256607996Y-115449433D01*
X256383368Y-115376446D01*
X256150097Y-115339500D01*
X256150092Y-115339500D01*
X255913908Y-115339500D01*
X255913903Y-115339500D01*
X255680631Y-115376446D01*
X255456003Y-115449433D01*
X255245566Y-115556657D01*
X255136550Y-115635862D01*
X255054490Y-115695483D01*
X255054488Y-115695485D01*
X255054487Y-115695485D01*
X254887485Y-115862487D01*
X254887485Y-115862488D01*
X254887483Y-115862490D01*
X254827862Y-115944550D01*
X254748657Y-116053566D01*
X254641433Y-116264003D01*
X254568446Y-116488631D01*
X254531500Y-116721902D01*
X252060756Y-116721902D01*
X252153303Y-116629355D01*
X256576111Y-112206546D01*
X256576112Y-112206545D01*
X256576114Y-112206543D01*
X256652775Y-112091811D01*
X256659224Y-112076243D01*
X256687405Y-112008206D01*
X256705580Y-111964328D01*
X256721883Y-111882367D01*
X256754267Y-111820457D01*
X256814983Y-111785883D01*
X256884752Y-111789622D01*
X256941425Y-111830488D01*
X256967006Y-111895506D01*
X256967500Y-111906559D01*
X256967500Y-112657870D01*
X256967501Y-112657876D01*
X256973908Y-112717483D01*
X257024202Y-112852328D01*
X257024206Y-112852335D01*
X257110452Y-112967544D01*
X257110455Y-112967547D01*
X257225664Y-113053793D01*
X257225671Y-113053797D01*
X257360517Y-113104091D01*
X257360516Y-113104091D01*
X257367444Y-113104835D01*
X257420127Y-113110500D01*
X259215872Y-113110499D01*
X259275483Y-113104091D01*
X259410331Y-113053796D01*
X259525546Y-112967546D01*
X259611796Y-112852331D01*
X259662091Y-112717483D01*
X259668500Y-112657873D01*
X259668499Y-110862128D01*
X259662091Y-110802517D01*
X259645319Y-110757550D01*
X259611797Y-110667671D01*
X259611793Y-110667664D01*
X259525547Y-110552455D01*
X259525544Y-110552452D01*
X259410335Y-110466206D01*
X259410328Y-110466202D01*
X259278917Y-110417189D01*
X259222983Y-110375318D01*
X259198566Y-110309853D01*
X259213418Y-110241580D01*
X259234563Y-110213332D01*
X259348104Y-110099792D01*
X259388463Y-110044243D01*
X259473048Y-109927820D01*
X259473047Y-109927820D01*
X259473051Y-109927816D01*
X259569557Y-109738412D01*
X259635246Y-109536243D01*
X259668500Y-109326287D01*
X259668500Y-109113713D01*
X259635246Y-108903757D01*
X259569557Y-108701588D01*
X259473051Y-108512184D01*
X259473049Y-108512181D01*
X259473048Y-108512179D01*
X259348109Y-108340213D01*
X259197786Y-108189890D01*
X259025820Y-108064951D01*
X259025115Y-108064591D01*
X259017054Y-108060485D01*
X258966259Y-108012512D01*
X258949463Y-107944692D01*
X258971999Y-107878556D01*
X259017054Y-107839515D01*
X259025816Y-107835051D01*
X259139751Y-107752273D01*
X259197786Y-107710109D01*
X259197788Y-107710106D01*
X259197792Y-107710104D01*
X259348104Y-107559792D01*
X259348106Y-107559788D01*
X259348109Y-107559786D01*
X259473048Y-107387820D01*
X259473047Y-107387820D01*
X259473051Y-107387816D01*
X259569557Y-107198412D01*
X259635246Y-106996243D01*
X259668500Y-106786287D01*
X259668500Y-106573713D01*
X259635246Y-106363757D01*
X259569557Y-106161588D01*
X259473051Y-105972184D01*
X259473049Y-105972181D01*
X259473048Y-105972179D01*
X259348109Y-105800213D01*
X259197786Y-105649890D01*
X259025820Y-105524951D01*
X259025115Y-105524591D01*
X259017054Y-105520485D01*
X258966259Y-105472512D01*
X258949463Y-105404692D01*
X258971999Y-105338556D01*
X259017054Y-105299515D01*
X259025816Y-105295051D01*
X259099741Y-105241342D01*
X259197786Y-105170109D01*
X259197788Y-105170106D01*
X259197792Y-105170104D01*
X259348104Y-105019792D01*
X259348106Y-105019788D01*
X259348109Y-105019786D01*
X259473048Y-104847820D01*
X259473047Y-104847820D01*
X259473051Y-104847816D01*
X259569557Y-104658412D01*
X259635246Y-104456243D01*
X259668500Y-104246287D01*
X259668500Y-104033713D01*
X259635246Y-103823757D01*
X259569557Y-103621588D01*
X259505972Y-103496795D01*
X259493076Y-103428126D01*
X259519352Y-103363385D01*
X259576459Y-103323128D01*
X259616457Y-103316500D01*
X270422481Y-103316500D01*
X270489520Y-103336185D01*
G37*
%TD.AperFunction*%
%TA.AperFunction,NonConductor*%
G36*
X241911991Y-128178185D02*
G01*
X241932633Y-128194819D01*
X247539299Y-133801485D01*
X247572784Y-133862808D01*
X247567800Y-133932500D01*
X247525928Y-133988433D01*
X247507914Y-133999650D01*
X247476388Y-134015713D01*
X247310786Y-134136028D01*
X247166028Y-134280786D01*
X247045715Y-134446386D01*
X246952781Y-134628776D01*
X246889522Y-134823465D01*
X246857500Y-135025648D01*
X246857500Y-135230351D01*
X246889522Y-135432534D01*
X246952781Y-135627223D01*
X247003770Y-135727292D01*
X247033591Y-135785820D01*
X247045715Y-135809613D01*
X247166028Y-135975213D01*
X247310786Y-136119971D01*
X247424161Y-136202341D01*
X247476390Y-136240287D01*
X247560319Y-136283051D01*
X247658776Y-136333218D01*
X247658778Y-136333218D01*
X247658781Y-136333220D01*
X247763137Y-136367127D01*
X247853465Y-136396477D01*
X247941699Y-136410452D01*
X248055648Y-136428500D01*
X248055649Y-136428500D01*
X248260351Y-136428500D01*
X248260352Y-136428500D01*
X248462534Y-136396477D01*
X248657219Y-136333220D01*
X248839610Y-136240287D01*
X248952726Y-136158104D01*
X249005213Y-136119971D01*
X249005215Y-136119968D01*
X249005219Y-136119966D01*
X249149966Y-135975219D01*
X249149968Y-135975215D01*
X249149971Y-135975213D01*
X249270284Y-135809614D01*
X249270285Y-135809613D01*
X249270287Y-135809610D01*
X249286348Y-135778087D01*
X249334321Y-135727292D01*
X249402142Y-135710496D01*
X249468277Y-135733032D01*
X249484514Y-135746701D01*
X249502925Y-135765112D01*
X249617663Y-135841777D01*
X249745138Y-135894578D01*
X249745143Y-135894580D01*
X249745147Y-135894580D01*
X249745148Y-135894581D01*
X249880474Y-135921500D01*
X249880477Y-135921500D01*
X249880478Y-135921500D01*
X255487981Y-135921500D01*
X255555020Y-135941185D01*
X255575662Y-135957819D01*
X268701713Y-149083870D01*
X268735198Y-149145193D01*
X268730214Y-149214885D01*
X268728594Y-149219002D01*
X268719895Y-149240003D01*
X268658806Y-149467989D01*
X268628001Y-149701979D01*
X268628000Y-149701995D01*
X268628000Y-149938004D01*
X268628001Y-149938020D01*
X268658806Y-150172010D01*
X268719894Y-150399993D01*
X268810214Y-150618045D01*
X268810219Y-150618056D01*
X268848433Y-150684243D01*
X268928227Y-150822450D01*
X268928229Y-150822453D01*
X268928230Y-150822454D01*
X269071906Y-151009697D01*
X269071912Y-151009704D01*
X269238795Y-151176587D01*
X269238801Y-151176592D01*
X269426050Y-151320273D01*
X269526225Y-151378109D01*
X269630443Y-151438280D01*
X269630459Y-151438288D01*
X269685144Y-151460939D01*
X269739548Y-151504780D01*
X269761613Y-151571074D01*
X269744334Y-151638773D01*
X269693197Y-151686384D01*
X269637692Y-151699500D01*
X262210519Y-151699500D01*
X262143480Y-151679815D01*
X262122838Y-151663181D01*
X261177507Y-150717850D01*
X261144022Y-150656527D01*
X261142715Y-150610771D01*
X261167500Y-150454286D01*
X261167500Y-150241713D01*
X261156460Y-150172010D01*
X261134246Y-150031757D01*
X261068557Y-149829588D01*
X260972051Y-149640184D01*
X260972049Y-149640181D01*
X260972048Y-149640179D01*
X260847109Y-149468213D01*
X260696786Y-149317890D01*
X260524820Y-149192951D01*
X260524115Y-149192591D01*
X260516054Y-149188485D01*
X260465259Y-149140512D01*
X260448463Y-149072692D01*
X260470999Y-149006556D01*
X260516054Y-148967515D01*
X260524816Y-148963051D01*
X260559922Y-148937545D01*
X260696786Y-148838109D01*
X260696788Y-148838106D01*
X260696792Y-148838104D01*
X260847104Y-148687792D01*
X260847106Y-148687788D01*
X260847109Y-148687786D01*
X260972048Y-148515820D01*
X260972047Y-148515820D01*
X260972051Y-148515816D01*
X261068557Y-148326412D01*
X261134246Y-148124243D01*
X261167500Y-147914287D01*
X261167500Y-147701713D01*
X261134246Y-147491757D01*
X261068557Y-147289588D01*
X260972051Y-147100184D01*
X260972049Y-147100181D01*
X260972048Y-147100179D01*
X260847109Y-146928213D01*
X260696786Y-146777890D01*
X260524820Y-146652951D01*
X260516290Y-146648605D01*
X260516054Y-146648485D01*
X260465259Y-146600512D01*
X260448463Y-146532692D01*
X260470999Y-146466556D01*
X260516054Y-146427515D01*
X260524816Y-146423051D01*
X260666279Y-146320273D01*
X260696786Y-146298109D01*
X260696788Y-146298106D01*
X260696792Y-146298104D01*
X260847104Y-146147792D01*
X260847106Y-146147788D01*
X260847109Y-146147786D01*
X260972048Y-145975820D01*
X260972047Y-145975820D01*
X260972051Y-145975816D01*
X261068557Y-145786412D01*
X261134246Y-145584243D01*
X261167500Y-145374287D01*
X261167500Y-145161713D01*
X261134246Y-144951757D01*
X261068557Y-144749588D01*
X260972051Y-144560184D01*
X260972049Y-144560181D01*
X260972048Y-144560179D01*
X260847109Y-144388213D01*
X260696786Y-144237890D01*
X260524820Y-144112951D01*
X260519962Y-144110476D01*
X260516054Y-144108485D01*
X260465259Y-144060512D01*
X260448463Y-143992692D01*
X260470999Y-143926556D01*
X260516054Y-143887515D01*
X260524816Y-143883051D01*
X260583610Y-143840335D01*
X260696786Y-143758109D01*
X260696788Y-143758106D01*
X260696792Y-143758104D01*
X260847104Y-143607792D01*
X260847106Y-143607788D01*
X260847109Y-143607786D01*
X260969207Y-143439730D01*
X260972051Y-143435816D01*
X261068557Y-143246412D01*
X261134246Y-143044243D01*
X261167500Y-142834287D01*
X261167500Y-142621713D01*
X261134246Y-142411757D01*
X261068557Y-142209588D01*
X260972051Y-142020184D01*
X260972049Y-142020181D01*
X260972048Y-142020179D01*
X260847109Y-141848213D01*
X260696786Y-141697890D01*
X260524820Y-141572951D01*
X260335414Y-141476444D01*
X260335413Y-141476443D01*
X260335412Y-141476443D01*
X260133243Y-141410754D01*
X260133241Y-141410753D01*
X260133240Y-141410753D01*
X259971957Y-141385208D01*
X259923287Y-141377500D01*
X259710713Y-141377500D01*
X259662042Y-141385208D01*
X259500760Y-141410753D01*
X259500757Y-141410754D01*
X259353331Y-141458656D01*
X259298585Y-141476444D01*
X259109179Y-141572951D01*
X258937213Y-141697890D01*
X258786890Y-141848213D01*
X258661951Y-142020179D01*
X258565444Y-142209585D01*
X258499753Y-142411760D01*
X258466500Y-142621713D01*
X258466500Y-142834287D01*
X258499754Y-143044243D01*
X258560563Y-143231394D01*
X258565444Y-143246414D01*
X258661951Y-143435820D01*
X258786890Y-143607786D01*
X258937213Y-143758109D01*
X259109182Y-143883050D01*
X259117946Y-143887516D01*
X259168742Y-143935491D01*
X259185536Y-144003312D01*
X259162998Y-144069447D01*
X259117946Y-144108484D01*
X259109182Y-144112949D01*
X258937213Y-144237890D01*
X258786890Y-144388213D01*
X258661951Y-144560179D01*
X258565444Y-144749585D01*
X258499753Y-144951760D01*
X258482926Y-145058004D01*
X258466500Y-145161713D01*
X258466500Y-145374287D01*
X258499754Y-145584243D01*
X258510738Y-145618049D01*
X258565444Y-145786414D01*
X258661951Y-145975820D01*
X258786890Y-146147786D01*
X258937213Y-146298109D01*
X259109182Y-146423050D01*
X259117946Y-146427516D01*
X259168742Y-146475491D01*
X259185536Y-146543312D01*
X259162998Y-146609447D01*
X259117946Y-146648484D01*
X259109182Y-146652949D01*
X258937213Y-146777890D01*
X258786890Y-146928213D01*
X258661951Y-147100179D01*
X258565444Y-147289585D01*
X258499753Y-147491760D01*
X258466500Y-147701713D01*
X258466500Y-147914286D01*
X258488043Y-148050307D01*
X258499754Y-148124243D01*
X258563917Y-148321716D01*
X258565444Y-148326414D01*
X258661951Y-148515820D01*
X258786890Y-148687786D01*
X258937213Y-148838109D01*
X259109182Y-148963050D01*
X259117946Y-148967516D01*
X259168742Y-149015491D01*
X259185536Y-149083312D01*
X259162998Y-149149447D01*
X259117946Y-149188484D01*
X259109182Y-149192949D01*
X258937213Y-149317890D01*
X258786890Y-149468213D01*
X258661951Y-149640179D01*
X258565444Y-149829585D01*
X258499753Y-150031760D01*
X258466500Y-150241713D01*
X258466500Y-150454286D01*
X258499316Y-150661481D01*
X258499754Y-150664243D01*
X258523737Y-150738056D01*
X258565444Y-150866414D01*
X258661951Y-151055820D01*
X258786890Y-151227786D01*
X258937213Y-151378109D01*
X259109182Y-151503050D01*
X259117946Y-151507516D01*
X259168742Y-151555491D01*
X259185536Y-151623312D01*
X259162998Y-151689447D01*
X259117946Y-151728484D01*
X259109182Y-151732949D01*
X258937213Y-151857890D01*
X258786890Y-152008213D01*
X258661951Y-152180179D01*
X258565444Y-152369585D01*
X258499753Y-152571760D01*
X258483918Y-152671738D01*
X258466500Y-152781713D01*
X258466500Y-152994287D01*
X258470696Y-153020777D01*
X258495484Y-153177288D01*
X258499754Y-153204243D01*
X258537924Y-153321719D01*
X258565444Y-153406414D01*
X258661951Y-153595820D01*
X258786890Y-153767786D01*
X258937213Y-153918109D01*
X259109182Y-154043050D01*
X259117946Y-154047516D01*
X259168742Y-154095491D01*
X259185536Y-154163312D01*
X259162998Y-154229447D01*
X259117946Y-154268484D01*
X259109182Y-154272949D01*
X258937213Y-154397890D01*
X258786890Y-154548213D01*
X258661951Y-154720179D01*
X258565444Y-154909585D01*
X258499753Y-155111758D01*
X258491332Y-155164926D01*
X258461401Y-155228060D01*
X258402089Y-155264990D01*
X258332227Y-155263992D01*
X258281178Y-155233207D01*
X247116819Y-144068848D01*
X247083334Y-144007525D01*
X247080500Y-143981167D01*
X247080500Y-138319822D01*
X247057006Y-138201716D01*
X247057004Y-138201708D01*
X247053580Y-138184489D01*
X247053579Y-138184488D01*
X247034945Y-138139501D01*
X247000775Y-138057007D01*
X246924114Y-137942275D01*
X246924112Y-137942272D01*
X246924111Y-137942271D01*
X237354247Y-128372408D01*
X237337910Y-128342490D01*
X237321142Y-128312777D01*
X237321193Y-128311875D01*
X237320762Y-128311085D01*
X237323192Y-128277096D01*
X237325151Y-128243023D01*
X237325704Y-128241974D01*
X237325746Y-128241393D01*
X237341625Y-128211822D01*
X237343252Y-128209583D01*
X237398592Y-128166936D01*
X237443547Y-128158500D01*
X241844952Y-128158500D01*
X241911991Y-128178185D01*
G37*
%TD.AperFunction*%
%TA.AperFunction,NonConductor*%
G36*
X261295815Y-152867697D02*
G01*
X261309147Y-152865781D01*
X261329289Y-152874979D01*
X261350928Y-152879687D01*
X261368652Y-152892956D01*
X261372703Y-152894806D01*
X261379182Y-152900839D01*
X261422453Y-152944111D01*
X261422454Y-152944112D01*
X261537190Y-153020776D01*
X261635790Y-153061617D01*
X261664671Y-153073580D01*
X261664672Y-153073580D01*
X261664677Y-153073582D01*
X261691545Y-153078925D01*
X261691551Y-153078926D01*
X261691591Y-153078934D01*
X261772941Y-153095116D01*
X261800006Y-153100500D01*
X261800007Y-153100500D01*
X268688469Y-153100500D01*
X268755508Y-153120185D01*
X268801263Y-153172989D01*
X268811207Y-153242147D01*
X268788652Y-153294624D01*
X268789580Y-153295197D01*
X268693687Y-153450663D01*
X268693686Y-153450666D01*
X268638501Y-153617203D01*
X268638501Y-153617204D01*
X268638500Y-153617204D01*
X268628000Y-153719983D01*
X268628000Y-155578480D01*
X268608315Y-155645519D01*
X268591681Y-155666161D01*
X265775662Y-158482181D01*
X265714339Y-158515666D01*
X265687981Y-158518500D01*
X261228802Y-158518500D01*
X261161763Y-158498815D01*
X261116008Y-158446011D01*
X261106064Y-158376853D01*
X261110871Y-158356182D01*
X261134246Y-158284243D01*
X261167500Y-158074287D01*
X261167500Y-157861713D01*
X261134246Y-157651757D01*
X261068557Y-157449588D01*
X260972051Y-157260184D01*
X260972049Y-157260181D01*
X260972048Y-157260179D01*
X260847109Y-157088213D01*
X260696786Y-156937890D01*
X260524820Y-156812951D01*
X260524115Y-156812591D01*
X260516054Y-156808485D01*
X260465259Y-156760512D01*
X260448463Y-156692692D01*
X260470999Y-156626556D01*
X260516054Y-156587515D01*
X260524816Y-156583051D01*
X260563684Y-156554812D01*
X260696786Y-156458109D01*
X260696788Y-156458106D01*
X260696792Y-156458104D01*
X260847104Y-156307792D01*
X260847106Y-156307788D01*
X260847109Y-156307786D01*
X260972048Y-156135820D01*
X260972047Y-156135820D01*
X260972051Y-156135816D01*
X261068557Y-155946412D01*
X261134246Y-155744243D01*
X261167500Y-155534287D01*
X261167500Y-155321713D01*
X261134246Y-155111757D01*
X261068557Y-154909588D01*
X260972051Y-154720184D01*
X260972049Y-154720181D01*
X260972048Y-154720179D01*
X260847109Y-154548213D01*
X260696786Y-154397890D01*
X260524820Y-154272951D01*
X260524115Y-154272591D01*
X260516054Y-154268485D01*
X260465259Y-154220512D01*
X260448463Y-154152692D01*
X260470999Y-154086556D01*
X260516054Y-154047515D01*
X260524816Y-154043051D01*
X260546789Y-154027086D01*
X260696786Y-153918109D01*
X260696788Y-153918106D01*
X260696792Y-153918104D01*
X260847104Y-153767792D01*
X260847106Y-153767788D01*
X260847109Y-153767786D01*
X260972048Y-153595820D01*
X260972047Y-153595820D01*
X260972051Y-153595816D01*
X261068557Y-153406412D01*
X261134246Y-153204243D01*
X261167500Y-152994287D01*
X261167500Y-152988519D01*
X261173739Y-152967271D01*
X261175319Y-152945184D01*
X261183390Y-152934401D01*
X261187185Y-152921480D01*
X261203918Y-152906979D01*
X261217191Y-152889251D01*
X261229811Y-152884544D01*
X261239989Y-152875725D01*
X261261906Y-152872573D01*
X261282655Y-152864835D01*
X261295815Y-152867697D01*
G37*
%TD.AperFunction*%
%TA.AperFunction,NonConductor*%
G36*
X245811444Y-144757662D02*
G01*
X245850856Y-144784200D01*
X258499645Y-157432988D01*
X258533130Y-157494311D01*
X258529896Y-157558985D01*
X258499753Y-157651757D01*
X258466500Y-157861713D01*
X258466500Y-158074287D01*
X258499754Y-158284243D01*
X258506252Y-158304243D01*
X258523129Y-158356182D01*
X258525124Y-158426023D01*
X258489044Y-158485856D01*
X258426343Y-158516684D01*
X258405198Y-158518500D01*
X255347701Y-158518500D01*
X255280662Y-158498815D01*
X255260020Y-158482181D01*
X245498238Y-148720399D01*
X245464753Y-148659076D01*
X245469737Y-148589384D01*
X245485600Y-148559834D01*
X245503051Y-148535816D01*
X245599557Y-148346412D01*
X245665246Y-148144243D01*
X245698500Y-147934287D01*
X245698500Y-147721713D01*
X245665246Y-147511757D01*
X245599557Y-147309588D01*
X245503051Y-147120184D01*
X245503049Y-147120181D01*
X245503048Y-147120179D01*
X245378109Y-146948213D01*
X245227786Y-146797890D01*
X245055820Y-146672951D01*
X245055115Y-146672591D01*
X245047054Y-146668485D01*
X244996259Y-146620512D01*
X244979463Y-146552692D01*
X245001999Y-146486556D01*
X245047054Y-146447515D01*
X245055816Y-146443051D01*
X245224807Y-146320273D01*
X245227786Y-146318109D01*
X245227788Y-146318106D01*
X245227792Y-146318104D01*
X245378104Y-146167792D01*
X245378106Y-146167788D01*
X245378109Y-146167786D01*
X245503048Y-145995820D01*
X245503047Y-145995820D01*
X245503051Y-145995816D01*
X245599557Y-145806412D01*
X245665246Y-145604243D01*
X245698500Y-145394287D01*
X245698500Y-145181713D01*
X245665246Y-144971757D01*
X245645243Y-144910197D01*
X245643249Y-144840358D01*
X245679329Y-144780525D01*
X245742030Y-144749697D01*
X245811444Y-144757662D01*
G37*
%TD.AperFunction*%
M02*
