M48
; DRILL file {KiCad 9.0.6} date 2026-03-31T20:41:14+0200
; FORMAT={-:-/ absolute / metric / decimal}
; #@! TF.CreationDate,2026-03-31T20:41:14+02:00
; #@! TF.GenerationSoftware,Kicad,Pcbnew,9.0.6
; #@! TF.FileFunction,Plated,1,4,PTH
FMAT,2
METRIC
; #@! TA.AperFunction,Plated,PTH,ViaDrill
T1C0.400
; #@! TA.AperFunction,Plated,PTH,ViaDrill
T2C0.600
; #@! TA.AperFunction,Plated,PTH,ComponentDrill
T3C0.800
; #@! TA.AperFunction,Plated,PTH,ComponentDrill
T4C1.000
; #@! TA.AperFunction,Plated,PTH,ViaDrill
T5C1.200
; #@! TA.AperFunction,Plated,PTH,ComponentDrill
T6C1.300
%
G90
G05
T1
X204.724Y-107.188
X214.376Y-122.428
X218.948Y-123.444
X223.012Y-97.028
X225.552Y-97.36
X232.664Y-117.348
X235.204Y-97.028
X240.792Y-126.492
X242.316Y-116.947
X257.556Y-134.62
T2
X218.44Y-160.02
X218.948Y-144.238
X233.172Y-101.807
T3
X192.786Y-131.572
X200.406Y-131.572
X223.012Y-160.06
X223.012Y-165.06
X231.648Y-161.729
X231.648Y-165.229
X240.538Y-135.128
X248.158Y-135.128
T4
X210.312Y-102.108
X210.312Y-104.648
X210.312Y-107.188
X210.312Y-109.728
X210.312Y-112.268
X210.312Y-114.808
X210.312Y-117.348
X210.312Y-119.888
X210.312Y-122.428
X210.312Y-124.968
X210.312Y-127.508
X210.312Y-130.048
X210.312Y-132.588
X210.312Y-135.128
X210.312Y-137.668
X236.22Y-102.058
X236.22Y-104.598
X236.22Y-107.138
X236.22Y-109.678
X236.22Y-112.218
X236.22Y-114.758
X236.22Y-117.298
X236.22Y-119.838
X236.22Y-122.378
X236.22Y-124.918
X236.22Y-127.458
X236.22Y-129.998
X236.22Y-132.538
X236.22Y-135.078
X236.22Y-137.618
X242.824Y-93.98
X242.824Y-96.52
X242.824Y-99.06
X242.824Y-101.6
X242.824Y-104.14
X242.824Y-106.68
X242.824Y-109.22
X242.824Y-111.76
X244.348Y-142.748
X244.348Y-145.288
X244.348Y-147.828
X244.348Y-150.368
X244.348Y-152.908
X244.348Y-155.448
X244.348Y-157.988
X244.348Y-160.528
X258.318Y-93.98
X258.318Y-96.52
X258.318Y-99.06
X258.318Y-101.6
X258.318Y-104.14
X258.318Y-106.68
X258.318Y-109.22
X258.318Y-111.76
X259.817Y-142.728
X259.817Y-145.268
X259.817Y-147.808
X259.817Y-150.348
X259.817Y-152.888
X259.817Y-155.428
X259.817Y-157.968
X259.817Y-160.508
X273.279Y-128.001
X273.279Y-130.541
X273.279Y-133.081
T5
X256.032Y-116.84
T6
X191.343Y-95.036
X191.343Y-100.036
X191.516Y-106.76
X191.516Y-111.76
X191.516Y-116.76
X191.516Y-121.76
X191.516Y-139.94
X191.516Y-144.94
X191.516Y-149.94
X191.516Y-154.94
X191.516Y-161.584
X191.516Y-166.584
X226.18Y-174.416
X231.18Y-174.416
X236.18Y-174.416
X241.18Y-174.416
X270.256Y-106.252
X270.256Y-111.252
X270.256Y-116.252
X270.256Y-121.252
X270.428Y-94.528
X270.428Y-99.528
X270.428Y-139.82
X270.428Y-144.82
X270.428Y-149.82
X270.428Y-154.82
X270.428Y-161.584
X270.428Y-166.584
M30
