%TF.GenerationSoftware,KiCad,Pcbnew,9.0.6*%
%TF.CreationDate,2026-03-31T20:41:09+02:00*%
%TF.ProjectId,pcbMotori,7063624d-6f74-46f7-9269-2e6b69636164,rev?*%
%TF.SameCoordinates,Original*%
%TF.FileFunction,Copper,L1,Top*%
%TF.FilePolarity,Positive*%
%FSLAX46Y46*%
G04 Gerber Fmt 4.6, Leading zero omitted, Abs format (unit mm)*
G04 Created by KiCad (PCBNEW 9.0.6) date 2026-03-31 20:41:09*
%MOMM*%
%LPD*%
G01*
G04 APERTURE LIST*
G04 Aperture macros list*
%AMRoundRect*
0 Rectangle with rounded corners*
0 $1 Rounding radius*
0 $2 $3 $4 $5 $6 $7 $8 $9 X,Y pos of 4 corners*
0 Add a 4 corners polygon primitive as box body*
4,1,4,$2,$3,$4,$5,$6,$7,$8,$9,$2,$3,0*
0 Add four circle primitives for the rounded corners*
1,1,$1+$1,$2,$3*
1,1,$1+$1,$4,$5*
1,1,$1+$1,$6,$7*
1,1,$1+$1,$8,$9*
0 Add four rect primitives between the rounded corners*
20,1,$1+$1,$2,$3,$4,$5,0*
20,1,$1+$1,$4,$5,$6,$7,0*
20,1,$1+$1,$6,$7,$8,$9,0*
20,1,$1+$1,$8,$9,$2,$3,0*%
G04 Aperture macros list end*
%ADD10C,0.150000*%
%TA.AperFunction,NonConductor*%
%ADD11C,0.150000*%
%TD*%
%TA.AperFunction,ComponentPad*%
%ADD12RoundRect,0.250000X-1.050000X1.050000X-1.050000X-1.050000X1.050000X-1.050000X1.050000X1.050000X0*%
%TD*%
%TA.AperFunction,ComponentPad*%
%ADD13C,2.600000*%
%TD*%
%TA.AperFunction,ComponentPad*%
%ADD14RoundRect,0.250000X-1.050000X-1.050000X1.050000X-1.050000X1.050000X1.050000X-1.050000X1.050000X0*%
%TD*%
%TA.AperFunction,ComponentPad*%
%ADD15R,1.700000X1.700000*%
%TD*%
%TA.AperFunction,ComponentPad*%
%ADD16C,1.700000*%
%TD*%
%TA.AperFunction,ComponentPad*%
%ADD17RoundRect,0.250000X1.050000X-1.050000X1.050000X1.050000X-1.050000X1.050000X-1.050000X-1.050000X0*%
%TD*%
%TA.AperFunction,ComponentPad*%
%ADD18C,1.600000*%
%TD*%
%TA.AperFunction,ComponentPad*%
%ADD19RoundRect,0.250000X0.550000X-0.550000X0.550000X0.550000X-0.550000X0.550000X-0.550000X-0.550000X0*%
%TD*%
%TA.AperFunction,ViaPad*%
%ADD20C,1.200000*%
%TD*%
%TA.AperFunction,ViaPad*%
%ADD21C,1.000000*%
%TD*%
%TA.AperFunction,ViaPad*%
%ADD22C,2.000000*%
%TD*%
%TA.AperFunction,Conductor*%
%ADD23C,1.000000*%
%TD*%
%TA.AperFunction,Conductor*%
%ADD24C,2.500000*%
%TD*%
%TA.AperFunction,Conductor*%
%ADD25C,0.500000*%
%TD*%
%TA.AperFunction,Conductor*%
%ADD26C,0.400000*%
%TD*%
%TA.AperFunction,Conductor*%
%ADD27C,2.000000*%
%TD*%
G04 APERTURE END LIST*
D10*
D11*
X189166666Y-82664819D02*
X188833333Y-82188628D01*
X188595238Y-82664819D02*
X188595238Y-81664819D01*
X188595238Y-81664819D02*
X188976190Y-81664819D01*
X188976190Y-81664819D02*
X189071428Y-81712438D01*
X189071428Y-81712438D02*
X189119047Y-81760057D01*
X189119047Y-81760057D02*
X189166666Y-81855295D01*
X189166666Y-81855295D02*
X189166666Y-81998152D01*
X189166666Y-81998152D02*
X189119047Y-82093390D01*
X189119047Y-82093390D02*
X189071428Y-82141009D01*
X189071428Y-82141009D02*
X188976190Y-82188628D01*
X188976190Y-82188628D02*
X188595238Y-82188628D01*
X189595238Y-82141009D02*
X189928571Y-82141009D01*
X190071428Y-82664819D02*
X189595238Y-82664819D01*
X189595238Y-82664819D02*
X189595238Y-81664819D01*
X189595238Y-81664819D02*
X190071428Y-81664819D01*
X190833333Y-82141009D02*
X190500000Y-82141009D01*
X190500000Y-82664819D02*
X190500000Y-81664819D01*
X190500000Y-81664819D02*
X190976190Y-81664819D01*
X191500000Y-81664819D02*
X191500000Y-81902914D01*
X191261905Y-81807676D02*
X191500000Y-81902914D01*
X191500000Y-81902914D02*
X191738095Y-81807676D01*
X191357143Y-82093390D02*
X191500000Y-81902914D01*
X191500000Y-81902914D02*
X191642857Y-82093390D01*
X192261905Y-81664819D02*
X192261905Y-81902914D01*
X192023810Y-81807676D02*
X192261905Y-81902914D01*
X192261905Y-81902914D02*
X192500000Y-81807676D01*
X192119048Y-82093390D02*
X192261905Y-81902914D01*
X192261905Y-81902914D02*
X192404762Y-82093390D01*
D10*
D11*
X270446666Y-171564819D02*
X270113333Y-171088628D01*
X269875238Y-171564819D02*
X269875238Y-170564819D01*
X269875238Y-170564819D02*
X270256190Y-170564819D01*
X270256190Y-170564819D02*
X270351428Y-170612438D01*
X270351428Y-170612438D02*
X270399047Y-170660057D01*
X270399047Y-170660057D02*
X270446666Y-170755295D01*
X270446666Y-170755295D02*
X270446666Y-170898152D01*
X270446666Y-170898152D02*
X270399047Y-170993390D01*
X270399047Y-170993390D02*
X270351428Y-171041009D01*
X270351428Y-171041009D02*
X270256190Y-171088628D01*
X270256190Y-171088628D02*
X269875238Y-171088628D01*
X270875238Y-171041009D02*
X271208571Y-171041009D01*
X271351428Y-171564819D02*
X270875238Y-171564819D01*
X270875238Y-171564819D02*
X270875238Y-170564819D01*
X270875238Y-170564819D02*
X271351428Y-170564819D01*
X272113333Y-171041009D02*
X271780000Y-171041009D01*
X271780000Y-171564819D02*
X271780000Y-170564819D01*
X271780000Y-170564819D02*
X272256190Y-170564819D01*
X272780000Y-170564819D02*
X272780000Y-170802914D01*
X272541905Y-170707676D02*
X272780000Y-170802914D01*
X272780000Y-170802914D02*
X273018095Y-170707676D01*
X272637143Y-170993390D02*
X272780000Y-170802914D01*
X272780000Y-170802914D02*
X272922857Y-170993390D01*
X273541905Y-170564819D02*
X273541905Y-170802914D01*
X273303810Y-170707676D02*
X273541905Y-170802914D01*
X273541905Y-170802914D02*
X273780000Y-170707676D01*
X273399048Y-170993390D02*
X273541905Y-170802914D01*
X273541905Y-170802914D02*
X273684762Y-170993390D01*
D10*
D11*
X189166666Y-171564819D02*
X188833333Y-171088628D01*
X188595238Y-171564819D02*
X188595238Y-170564819D01*
X188595238Y-170564819D02*
X188976190Y-170564819D01*
X188976190Y-170564819D02*
X189071428Y-170612438D01*
X189071428Y-170612438D02*
X189119047Y-170660057D01*
X189119047Y-170660057D02*
X189166666Y-170755295D01*
X189166666Y-170755295D02*
X189166666Y-170898152D01*
X189166666Y-170898152D02*
X189119047Y-170993390D01*
X189119047Y-170993390D02*
X189071428Y-171041009D01*
X189071428Y-171041009D02*
X188976190Y-171088628D01*
X188976190Y-171088628D02*
X188595238Y-171088628D01*
X189595238Y-171041009D02*
X189928571Y-171041009D01*
X190071428Y-171564819D02*
X189595238Y-171564819D01*
X189595238Y-171564819D02*
X189595238Y-170564819D01*
X189595238Y-170564819D02*
X190071428Y-170564819D01*
X190833333Y-171041009D02*
X190500000Y-171041009D01*
X190500000Y-171564819D02*
X190500000Y-170564819D01*
X190500000Y-170564819D02*
X190976190Y-170564819D01*
X191500000Y-170564819D02*
X191500000Y-170802914D01*
X191261905Y-170707676D02*
X191500000Y-170802914D01*
X191500000Y-170802914D02*
X191738095Y-170707676D01*
X191357143Y-170993390D02*
X191500000Y-170802914D01*
X191500000Y-170802914D02*
X191642857Y-170993390D01*
X192261905Y-170564819D02*
X192261905Y-170802914D01*
X192023810Y-170707676D02*
X192261905Y-170802914D01*
X192261905Y-170802914D02*
X192500000Y-170707676D01*
X192119048Y-170993390D02*
X192261905Y-170802914D01*
X192261905Y-170802914D02*
X192404762Y-170993390D01*
D10*
D11*
X270446666Y-82664819D02*
X270113333Y-82188628D01*
X269875238Y-82664819D02*
X269875238Y-81664819D01*
X269875238Y-81664819D02*
X270256190Y-81664819D01*
X270256190Y-81664819D02*
X270351428Y-81712438D01*
X270351428Y-81712438D02*
X270399047Y-81760057D01*
X270399047Y-81760057D02*
X270446666Y-81855295D01*
X270446666Y-81855295D02*
X270446666Y-81998152D01*
X270446666Y-81998152D02*
X270399047Y-82093390D01*
X270399047Y-82093390D02*
X270351428Y-82141009D01*
X270351428Y-82141009D02*
X270256190Y-82188628D01*
X270256190Y-82188628D02*
X269875238Y-82188628D01*
X270875238Y-82141009D02*
X271208571Y-82141009D01*
X271351428Y-82664819D02*
X270875238Y-82664819D01*
X270875238Y-82664819D02*
X270875238Y-81664819D01*
X270875238Y-81664819D02*
X271351428Y-81664819D01*
X272113333Y-82141009D02*
X271780000Y-82141009D01*
X271780000Y-82664819D02*
X271780000Y-81664819D01*
X271780000Y-81664819D02*
X272256190Y-81664819D01*
X272780000Y-81664819D02*
X272780000Y-81902914D01*
X272541905Y-81807676D02*
X272780000Y-81902914D01*
X272780000Y-81902914D02*
X273018095Y-81807676D01*
X272637143Y-82093390D02*
X272780000Y-81902914D01*
X272780000Y-81902914D02*
X272922857Y-82093390D01*
X273541905Y-81664819D02*
X273541905Y-81902914D01*
X273303810Y-81807676D02*
X273541905Y-81902914D01*
X273541905Y-81902914D02*
X273780000Y-81807676D01*
X273399048Y-82093390D02*
X273541905Y-81902914D01*
X273541905Y-81902914D02*
X273684762Y-82093390D01*
D12*
%TO.P,J13,1,Pin_1*%
%TO.N,/D15*%
X191516000Y-106760000D03*
D13*
%TO.P,J13,2,Pin_2*%
%TO.N,/D13*%
X191516000Y-111760000D03*
%TO.P,J13,3,Pin_3*%
%TO.N,/Aout2*%
X191516000Y-116760000D03*
%TO.P,J13,4,Pin_4*%
%TO.N,/Aout1*%
X191516000Y-121760000D03*
%TD*%
D14*
%TO.P,J12,1,Pin_1*%
%TO.N,/5V*%
X226180000Y-174416500D03*
D13*
%TO.P,J12,2,Pin_2*%
%TO.N,GND*%
X231180000Y-174416500D03*
%TO.P,J12,3,Pin_3*%
%TO.N,+12V*%
X236180000Y-174416500D03*
%TO.P,J12,4,Pin_4*%
%TO.N,GND*%
X241180000Y-174416500D03*
%TD*%
D15*
%TO.P,J4,1,Pin_1*%
%TO.N,GND*%
X258318000Y-111760000D03*
D16*
%TO.P,J4,2,Pin_2*%
%TO.N,/D33*%
X258318000Y-109220000D03*
%TO.P,J4,3,Pin_3*%
%TO.N,/BIN2*%
X258318000Y-106680000D03*
%TO.P,J4,4,Pin_4*%
%TO.N,/BIN1*%
X258318000Y-104140000D03*
%TO.P,J4,5,Pin_5*%
%TO.N,/D14*%
X258318000Y-101600000D03*
%TO.P,J4,6,Pin_6*%
%TO.N,/D26*%
X258318000Y-99060000D03*
%TO.P,J4,7,Pin_7*%
%TO.N,/D27*%
X258318000Y-96520000D03*
%TO.P,J4,8,Pin_8*%
%TO.N,/D25*%
X258318000Y-93980000D03*
%TD*%
D17*
%TO.P,J10,1,Pin_1*%
%TO.N,/D32*%
X270428500Y-154820000D03*
D13*
%TO.P,J10,2,Pin_2*%
%TO.N,/D4*%
X270428500Y-149820000D03*
%TO.P,J10,3,Pin_3*%
%TO.N,/BO2*%
X270428500Y-144820000D03*
%TO.P,J10,4,Pin_4*%
%TO.N,/BO1*%
X270428500Y-139820000D03*
%TD*%
D15*
%TO.P,J2,1,Pin_1*%
%TO.N,+12V*%
X242824000Y-93980000D03*
D16*
%TO.P,J2,2,Pin_2*%
%TO.N,/5V*%
X242824000Y-96520000D03*
%TO.P,J2,3,Pin_3*%
%TO.N,GND*%
X242824000Y-99060000D03*
%TO.P,J2,4,Pin_4*%
%TO.N,/Aout1*%
X242824000Y-101600000D03*
%TO.P,J2,5,Pin_5*%
%TO.N,/Aout2*%
X242824000Y-104140000D03*
%TO.P,J2,6,Pin_6*%
%TO.N,/Bout2*%
X242824000Y-106680000D03*
%TO.P,J2,7,Pin_7*%
%TO.N,/Bout1*%
X242824000Y-109220000D03*
%TO.P,J2,8,Pin_8*%
%TO.N,GND*%
X242824000Y-111760000D03*
%TD*%
D15*
%TO.P,J9,1,Pin_1*%
%TO.N,+3.3V*%
X236220000Y-137618000D03*
D16*
%TO.P,J9,2,Pin_2*%
%TO.N,GND*%
X236220000Y-135078000D03*
%TO.P,J9,3,Pin_3*%
%TO.N,/D15*%
X236220000Y-132538000D03*
%TO.P,J9,4,Pin_4*%
%TO.N,/BIN2*%
X236220000Y-129998000D03*
%TO.P,J9,5,Pin_5*%
%TO.N,/D4*%
X236220000Y-127458000D03*
%TO.P,J9,6,Pin_6*%
%TO.N,/D16*%
X236220000Y-124918000D03*
%TO.P,J9,7,Pin_7*%
%TO.N,/D17*%
X236220000Y-122378000D03*
%TO.P,J9,8,Pin_8*%
%TO.N,/D5*%
X236220000Y-119838000D03*
%TO.P,J9,9,Pin_9*%
%TO.N,/BIN2 (2)*%
X236220000Y-117298000D03*
%TO.P,J9,10,Pin_10*%
%TO.N,/BIN1 (2)*%
X236220000Y-114758000D03*
%TO.P,J9,11,Pin_11*%
%TO.N,/D21*%
X236220000Y-112218000D03*
%TO.P,J9,12,Pin_12*%
%TO.N,unconnected-(J9-Pin_12-Pad12)*%
X236220000Y-109678000D03*
%TO.P,J9,13,Pin_13*%
%TO.N,unconnected-(J9-Pin_13-Pad13)*%
X236220000Y-107138000D03*
%TO.P,J9,14,Pin_14*%
%TO.N,/D22*%
X236220000Y-104598000D03*
%TO.P,J9,15,Pin_15*%
%TO.N,/D23*%
X236220000Y-102058000D03*
%TD*%
D17*
%TO.P,J3,1,Pin_1*%
%TO.N,GND*%
X270428500Y-99528000D03*
D13*
%TO.P,J3,2,Pin_2*%
%TO.N,+3.3V*%
X270428500Y-94528000D03*
%TD*%
D12*
%TO.P,J7,1,Pin_1*%
%TO.N,/VN*%
X191516000Y-139940000D03*
D13*
%TO.P,J7,2,Pin_2*%
%TO.N,/VP*%
X191516000Y-144940000D03*
%TO.P,J7,3,Pin_3*%
%TO.N,/AO2*%
X191516000Y-149940000D03*
%TO.P,J7,4,Pin_4*%
%TO.N,/AO1*%
X191516000Y-154940000D03*
%TD*%
D18*
%TO.P,C2,1*%
%TO.N,+12V*%
X223012000Y-165060000D03*
%TO.P,C2,2*%
%TO.N,GND*%
X223012000Y-160060000D03*
%TD*%
%TO.P,R2,1*%
%TO.N,/BIN2*%
X240538000Y-135128000D03*
%TO.P,R2,2*%
%TO.N,GND*%
X248158000Y-135128000D03*
%TD*%
D15*
%TO.P,J5,1,Pin_1*%
%TO.N,unconnected-(J5-Pin_1-Pad1)*%
X210312000Y-102108000D03*
D16*
%TO.P,J5,2,Pin_2*%
%TO.N,/VP*%
X210312000Y-104648000D03*
%TO.P,J5,3,Pin_3*%
%TO.N,/VN*%
X210312000Y-107188000D03*
%TO.P,J5,4,Pin_4*%
%TO.N,/D34*%
X210312000Y-109728000D03*
%TO.P,J5,5,Pin_5*%
%TO.N,/D35*%
X210312000Y-112268000D03*
%TO.P,J5,6,Pin_6*%
%TO.N,/D32*%
X210312000Y-114808000D03*
%TO.P,J5,7,Pin_7*%
%TO.N,/D33*%
X210312000Y-117348000D03*
%TO.P,J5,8,Pin_8*%
%TO.N,/D25*%
X210312000Y-119888000D03*
%TO.P,J5,9,Pin_9*%
%TO.N,/D26*%
X210312000Y-122428000D03*
%TO.P,J5,10,Pin_10*%
%TO.N,/D27*%
X210312000Y-124968000D03*
%TO.P,J5,11,Pin_11*%
%TO.N,/D14*%
X210312000Y-127508000D03*
%TO.P,J5,12,Pin_12*%
%TO.N,/BIN1*%
X210312000Y-130048000D03*
%TO.P,J5,13,Pin_13*%
%TO.N,/D13*%
X210312000Y-132588000D03*
%TO.P,J5,14,Pin_14*%
%TO.N,unconnected-(J5-Pin_14-Pad14)*%
X210312000Y-135128000D03*
%TO.P,J5,15,Pin_15*%
%TO.N,/5V*%
X210312000Y-137668000D03*
%TD*%
D15*
%TO.P,J11,1,Pin_1*%
%TO.N,/D21*%
X273279000Y-133081000D03*
D16*
%TO.P,J11,2,Pin_2*%
%TO.N,/D22*%
X273279000Y-130541000D03*
%TO.P,J11,3,Pin_3*%
%TO.N,GND*%
X273279000Y-128001000D03*
%TD*%
D17*
%TO.P,J1,1,Pin_1*%
%TO.N,/D35*%
X270256000Y-121252000D03*
D13*
%TO.P,J1,2,Pin_2*%
%TO.N,/D34*%
X270256000Y-116252000D03*
%TO.P,J1,3,Pin_3*%
%TO.N,/Bout2*%
X270256000Y-111252000D03*
%TO.P,J1,4,Pin_4*%
%TO.N,/Bout1*%
X270256000Y-106252000D03*
%TD*%
D12*
%TO.P,J15,1,Pin_1*%
%TO.N,GND*%
X191516000Y-161584000D03*
D13*
%TO.P,J15,2,Pin_2*%
%TO.N,+3.3V*%
X191516000Y-166584000D03*
%TD*%
D15*
%TO.P,J8,1,Pin_1*%
%TO.N,GND*%
X259817000Y-160508000D03*
D16*
%TO.P,J8,2,Pin_2*%
%TO.N,/D23*%
X259817000Y-157968000D03*
%TO.P,J8,3,Pin_3*%
%TO.N,/BIN2 (2)*%
X259817000Y-155428000D03*
%TO.P,J8,4,Pin_4*%
%TO.N,/BIN1 (2)*%
X259817000Y-152888000D03*
%TO.P,J8,5,Pin_5*%
%TO.N,/D14*%
X259817000Y-150348000D03*
%TO.P,J8,6,Pin_6*%
%TO.N,/D17*%
X259817000Y-147808000D03*
%TO.P,J8,7,Pin_7*%
%TO.N,/D5*%
X259817000Y-145268000D03*
%TO.P,J8,8,Pin_8*%
%TO.N,/D16*%
X259817000Y-142728000D03*
%TD*%
D17*
%TO.P,J16,1,Pin_1*%
%TO.N,GND*%
X270428500Y-166584000D03*
D13*
%TO.P,J16,2,Pin_2*%
%TO.N,+3.3V*%
X270428500Y-161584000D03*
%TD*%
D18*
%TO.P,R1,1*%
%TO.N,GND*%
X192786000Y-131572000D03*
%TO.P,R1,2*%
%TO.N,/BIN1*%
X200406000Y-131572000D03*
%TD*%
D15*
%TO.P,J6,1,Pin_1*%
%TO.N,+12V*%
X244348000Y-142748000D03*
D16*
%TO.P,J6,2,Pin_2*%
%TO.N,/5V*%
X244348000Y-145288000D03*
%TO.P,J6,3,Pin_3*%
%TO.N,GND*%
X244348000Y-147828000D03*
%TO.P,J6,4,Pin_4*%
%TO.N,/AO1*%
X244348000Y-150368000D03*
%TO.P,J6,5,Pin_5*%
%TO.N,/AO2*%
X244348000Y-152908000D03*
%TO.P,J6,6,Pin_6*%
%TO.N,/BO2*%
X244348000Y-155448000D03*
%TO.P,J6,7,Pin_7*%
%TO.N,/BO1*%
X244348000Y-157988000D03*
%TO.P,J6,8,Pin_8*%
%TO.N,GND*%
X244348000Y-160528000D03*
%TD*%
D12*
%TO.P,J14,1,Pin_1*%
%TO.N,GND*%
X191343500Y-95036000D03*
D13*
%TO.P,J14,2,Pin_2*%
%TO.N,+3.3V*%
X191343500Y-100036000D03*
%TD*%
D19*
%TO.P,C1,1*%
%TO.N,+12V*%
X231648000Y-165228651D03*
D18*
%TO.P,C1,2*%
%TO.N,GND*%
X231648000Y-161728651D03*
%TD*%
D20*
%TO.N,+3.3V*%
X218948000Y-144238000D03*
%TO.N,/5V*%
X218440000Y-160020000D03*
X233172000Y-101807000D03*
D21*
%TO.N,/D26*%
X214376000Y-122428000D03*
%TO.N,/D33*%
X235204000Y-97028000D03*
%TO.N,/BIN2*%
X242316000Y-116947000D03*
%TO.N,/D23*%
X232664000Y-117348000D03*
%TO.N,/BIN2 (2)*%
X257556000Y-134620000D03*
%TO.N,/D17*%
X240792000Y-126492000D03*
%TO.N,/D35*%
X225552000Y-97360000D03*
%TO.N,/D34*%
X223012000Y-97028000D03*
%TO.N,/VN*%
X204724000Y-107188000D03*
%TO.N,/D32*%
X218948000Y-123444000D03*
D22*
%TO.N,/Bout2*%
X256032000Y-116840000D03*
%TD*%
D23*
%TO.N,+3.3V*%
X191343500Y-100036000D02*
X206168000Y-85211500D01*
X275336000Y-99435500D02*
X275336000Y-156676500D01*
X225568000Y-137618000D02*
X218948000Y-144238000D01*
X186944000Y-162012000D02*
X191516000Y-166584000D01*
X191343500Y-100036000D02*
X186944000Y-104435500D01*
X236220000Y-137618000D02*
X225568000Y-137618000D01*
X261112000Y-85211500D02*
X270428500Y-94528000D01*
X270428500Y-94528000D02*
X275336000Y-99435500D01*
X275336000Y-156676500D02*
X270428500Y-161584000D01*
X186944000Y-104435500D02*
X186944000Y-162012000D01*
X261112000Y-85211500D02*
X206168000Y-85211500D01*
D24*
%TO.N,+12V*%
X223180651Y-165228651D02*
X223012000Y-165060000D01*
D25*
%TO.N,/5V*%
X233172000Y-114808000D02*
X233172000Y-101807000D01*
X244348000Y-145288000D02*
X217932000Y-145288000D01*
X217932000Y-145288000D02*
X210312000Y-137668000D01*
D23*
X218440000Y-166676500D02*
X218440000Y-160020000D01*
X226180000Y-174416500D02*
X218440000Y-166676500D01*
D25*
X210312000Y-137668000D02*
X233172000Y-114808000D01*
D26*
%TO.N,/BIN2*%
X238252000Y-121011000D02*
X242316000Y-116947000D01*
X236220000Y-129998000D02*
X236778000Y-129998000D01*
X236778000Y-129998000D02*
X238252000Y-128524000D01*
X238252000Y-128524000D02*
X238252000Y-121011000D01*
%TO.N,/D35*%
X231521000Y-91567000D02*
X225552000Y-97536000D01*
X258699000Y-91567000D02*
X231521000Y-91567000D01*
X273304000Y-118204000D02*
X273304000Y-106172000D01*
X273304000Y-106172000D02*
X258699000Y-91567000D01*
X270256000Y-121252000D02*
X273304000Y-118204000D01*
X225552000Y-97536000D02*
X225552000Y-97360000D01*
D27*
%TO.N,/AO1*%
X191516000Y-154940000D02*
X196088000Y-150368000D01*
X196088000Y-150368000D02*
X244348000Y-150368000D01*
D26*
%TO.N,/D32*%
X218948000Y-123444000D02*
X210312000Y-114808000D01*
D27*
%TO.N,/Aout2*%
X241974447Y-103651000D02*
X242081000Y-103651000D01*
X240773000Y-102449553D02*
X241974447Y-103651000D01*
X191516000Y-116760000D02*
X209089000Y-99187000D01*
X240773000Y-102343000D02*
X240773000Y-102449553D01*
X242081000Y-103651000D02*
X242570000Y-104140000D01*
X237617000Y-99187000D02*
X240773000Y-102343000D01*
X209089000Y-99187000D02*
X237617000Y-99187000D01*
X242570000Y-104140000D02*
X242824000Y-104140000D01*
%TO.N,/Bout2*%
X264668000Y-116840000D02*
X256032000Y-116840000D01*
X270256000Y-111252000D02*
X264668000Y-116840000D01*
%TO.N,/BO1*%
X252400000Y-144600000D02*
X252400000Y-151138081D01*
X270208500Y-139600000D02*
X257400000Y-139600000D01*
X252400000Y-151138081D02*
X245550081Y-157988000D01*
X245550081Y-157988000D02*
X244348000Y-157988000D01*
X257400000Y-139600000D02*
X252400000Y-144600000D01*
X270428500Y-139820000D02*
X270208500Y-139600000D01*
%TD*%
%TA.AperFunction,Conductor*%
%TO.N,+12V*%
G36*
X187957777Y-81340185D02*
G01*
X188003532Y-81392989D01*
X188014738Y-81444500D01*
X188014738Y-83246695D01*
X193080676Y-83246695D01*
X193080676Y-81444500D01*
X193100361Y-81377461D01*
X193153165Y-81331706D01*
X193204676Y-81320500D01*
X269170738Y-81320500D01*
X269237777Y-81340185D01*
X269283532Y-81392989D01*
X269294738Y-81444500D01*
X269294738Y-83246695D01*
X274360676Y-83246695D01*
X274360676Y-81444500D01*
X274380361Y-81377461D01*
X274433165Y-81331706D01*
X274484676Y-81320500D01*
X276485500Y-81320500D01*
X276552539Y-81340185D01*
X276598294Y-81392989D01*
X276609500Y-81444500D01*
X276609500Y-180195500D01*
X276589815Y-180262539D01*
X276537011Y-180308294D01*
X276485500Y-180319500D01*
X185389500Y-180319500D01*
X185322461Y-180299815D01*
X185276706Y-180247011D01*
X185265500Y-180195500D01*
X185265500Y-175138711D01*
X188649500Y-175138711D01*
X188649500Y-175381288D01*
X188681161Y-175621785D01*
X188743947Y-175856104D01*
X188836773Y-176080205D01*
X188836776Y-176080212D01*
X188958064Y-176290289D01*
X188958066Y-176290292D01*
X188958067Y-176290293D01*
X189105733Y-176482736D01*
X189105739Y-176482743D01*
X189277256Y-176654260D01*
X189277262Y-176654265D01*
X189469711Y-176801936D01*
X189679788Y-176923224D01*
X189903900Y-177016054D01*
X190138211Y-177078838D01*
X190318586Y-177102584D01*
X190378711Y-177110500D01*
X190378712Y-177110500D01*
X190621289Y-177110500D01*
X190669388Y-177104167D01*
X190861789Y-177078838D01*
X191096100Y-177016054D01*
X191320212Y-176923224D01*
X191530289Y-176801936D01*
X191722738Y-176654265D01*
X191894265Y-176482738D01*
X192041936Y-176290289D01*
X192163224Y-176080212D01*
X192256054Y-175856100D01*
X192318838Y-175621789D01*
X192350500Y-175381288D01*
X192350500Y-175138712D01*
X192318838Y-174898211D01*
X192256054Y-174663900D01*
X192163224Y-174439788D01*
X192041936Y-174229711D01*
X191894265Y-174037262D01*
X191894260Y-174037256D01*
X191722743Y-173865739D01*
X191722736Y-173865733D01*
X191530293Y-173718067D01*
X191530292Y-173718066D01*
X191530289Y-173718064D01*
X191320212Y-173596776D01*
X191320205Y-173596773D01*
X191096104Y-173503947D01*
X190861785Y-173441161D01*
X190621289Y-173409500D01*
X190621288Y-173409500D01*
X190378712Y-173409500D01*
X190378711Y-173409500D01*
X190138214Y-173441161D01*
X189903895Y-173503947D01*
X189679794Y-173596773D01*
X189679785Y-173596777D01*
X189469706Y-173718067D01*
X189277263Y-173865733D01*
X189277256Y-173865739D01*
X189105739Y-174037256D01*
X189105733Y-174037263D01*
X188958067Y-174229706D01*
X188836777Y-174439785D01*
X188836773Y-174439794D01*
X188743947Y-174663895D01*
X188681161Y-174898214D01*
X188649500Y-175138711D01*
X185265500Y-175138711D01*
X185265500Y-172146695D01*
X188014738Y-172146695D01*
X193080676Y-172146695D01*
X193080676Y-169983463D01*
X188014738Y-169983463D01*
X188014738Y-172146695D01*
X185265500Y-172146695D01*
X185265500Y-162110543D01*
X185943499Y-162110543D01*
X185981947Y-162303829D01*
X185981950Y-162303839D01*
X186057364Y-162485907D01*
X186057371Y-162485920D01*
X186166859Y-162649780D01*
X186166860Y-162649781D01*
X186166861Y-162649782D01*
X186306218Y-162789139D01*
X186306219Y-162789139D01*
X186313286Y-162796206D01*
X186313285Y-162796206D01*
X186313289Y-162796209D01*
X189703388Y-166186309D01*
X189736873Y-166247632D01*
X189738646Y-166290175D01*
X189715501Y-166465978D01*
X189715500Y-166465995D01*
X189715500Y-166702004D01*
X189715501Y-166702020D01*
X189725114Y-166775041D01*
X189746307Y-166936014D01*
X189803754Y-167150407D01*
X189807394Y-167163993D01*
X189897714Y-167382045D01*
X189897719Y-167382056D01*
X189941554Y-167457979D01*
X190015727Y-167586450D01*
X190015729Y-167586453D01*
X190015730Y-167586454D01*
X190159406Y-167773697D01*
X190159412Y-167773704D01*
X190326295Y-167940587D01*
X190326302Y-167940593D01*
X190342909Y-167953336D01*
X190513550Y-168084273D01*
X190644918Y-168160118D01*
X190717943Y-168202280D01*
X190717948Y-168202282D01*
X190717951Y-168202284D01*
X190936007Y-168292606D01*
X191163986Y-168353693D01*
X191397989Y-168384500D01*
X191397996Y-168384500D01*
X191634004Y-168384500D01*
X191634011Y-168384500D01*
X191868014Y-168353693D01*
X192095993Y-168292606D01*
X192314049Y-168202284D01*
X192518450Y-168084273D01*
X192705699Y-167940592D01*
X192872592Y-167773699D01*
X193016273Y-167586450D01*
X193134284Y-167382049D01*
X193224606Y-167163993D01*
X193285693Y-166936014D01*
X193316500Y-166702011D01*
X193316500Y-166465989D01*
X193285693Y-166231986D01*
X193224606Y-166004007D01*
X193134284Y-165785951D01*
X193134282Y-165785948D01*
X193134280Y-165785943D01*
X193092118Y-165712918D01*
X193016273Y-165581550D01*
X192872592Y-165394301D01*
X192872587Y-165394295D01*
X192705704Y-165227412D01*
X192705697Y-165227406D01*
X192518454Y-165083730D01*
X192518453Y-165083729D01*
X192518450Y-165083727D01*
X192436957Y-165036677D01*
X192314056Y-164965719D01*
X192314045Y-164965714D01*
X192095993Y-164875394D01*
X191870186Y-164814889D01*
X191868014Y-164814307D01*
X191868013Y-164814306D01*
X191868010Y-164814306D01*
X191634020Y-164783501D01*
X191634017Y-164783500D01*
X191634011Y-164783500D01*
X191397989Y-164783500D01*
X191397983Y-164783500D01*
X191397978Y-164783501D01*
X191222175Y-164806646D01*
X191153140Y-164795880D01*
X191118309Y-164771388D01*
X187980819Y-161633898D01*
X187947334Y-161572575D01*
X187944500Y-161546217D01*
X187944500Y-160483983D01*
X189715500Y-160483983D01*
X189715500Y-162684001D01*
X189715501Y-162684018D01*
X189726000Y-162786796D01*
X189726001Y-162786799D01*
X189774736Y-162933869D01*
X189781186Y-162953334D01*
X189873288Y-163102656D01*
X189997344Y-163226712D01*
X190146666Y-163318814D01*
X190313203Y-163373999D01*
X190415991Y-163384500D01*
X192616008Y-163384499D01*
X192718797Y-163373999D01*
X192885334Y-163318814D01*
X193034656Y-163226712D01*
X193158712Y-163102656D01*
X193250814Y-162953334D01*
X193305999Y-162786797D01*
X193316500Y-162684009D01*
X193316499Y-160483992D01*
X193305999Y-160381203D01*
X193250814Y-160214666D01*
X193158712Y-160065344D01*
X193034656Y-159941288D01*
X193021850Y-159933389D01*
X217339500Y-159933389D01*
X217339500Y-160106610D01*
X217366597Y-160277697D01*
X217415482Y-160428151D01*
X217420127Y-160442445D01*
X217425983Y-160453939D01*
X217439500Y-160510235D01*
X217439500Y-166775041D01*
X217439500Y-166775043D01*
X217439499Y-166775043D01*
X217477947Y-166968329D01*
X217477950Y-166968339D01*
X217553364Y-167150407D01*
X217553371Y-167150420D01*
X217662860Y-167314281D01*
X217662863Y-167314285D01*
X217806537Y-167457959D01*
X217806559Y-167457979D01*
X224343181Y-173994601D01*
X224376666Y-174055924D01*
X224379500Y-174082282D01*
X224379500Y-175516501D01*
X224379501Y-175516518D01*
X224390000Y-175619296D01*
X224390001Y-175619299D01*
X224440962Y-175773087D01*
X224445186Y-175785834D01*
X224537288Y-175935156D01*
X224661344Y-176059212D01*
X224810666Y-176151314D01*
X224977203Y-176206499D01*
X225079991Y-176217000D01*
X227280008Y-176216999D01*
X227382797Y-176206499D01*
X227549334Y-176151314D01*
X227698656Y-176059212D01*
X227822712Y-175935156D01*
X227914814Y-175785834D01*
X227969999Y-175619297D01*
X227980500Y-175516509D01*
X227980499Y-174298495D01*
X229379500Y-174298495D01*
X229379500Y-174534504D01*
X229379501Y-174534520D01*
X229410306Y-174768510D01*
X229471394Y-174996493D01*
X229561714Y-175214545D01*
X229561719Y-175214556D01*
X229632677Y-175337457D01*
X229679727Y-175418950D01*
X229679729Y-175418953D01*
X229679730Y-175418954D01*
X229823406Y-175606197D01*
X229823412Y-175606204D01*
X229990295Y-175773087D01*
X229990302Y-175773093D01*
X230100306Y-175857501D01*
X230177550Y-175916773D01*
X230308918Y-175992618D01*
X230381943Y-176034780D01*
X230381948Y-176034782D01*
X230381951Y-176034784D01*
X230600007Y-176125106D01*
X230827986Y-176186193D01*
X231061989Y-176217000D01*
X231061996Y-176217000D01*
X231298004Y-176217000D01*
X231298011Y-176217000D01*
X231532014Y-176186193D01*
X231759993Y-176125106D01*
X231978049Y-176034784D01*
X232182450Y-175916773D01*
X232369699Y-175773092D01*
X232369704Y-175773087D01*
X232424648Y-175718144D01*
X232536587Y-175606204D01*
X232536592Y-175606199D01*
X232680273Y-175418950D01*
X232798284Y-175214549D01*
X232888606Y-174996493D01*
X232949693Y-174768514D01*
X232980500Y-174534511D01*
X232980500Y-174298514D01*
X234380000Y-174298514D01*
X234380000Y-174534485D01*
X234410799Y-174768414D01*
X234471870Y-174996337D01*
X234562160Y-175214319D01*
X234562165Y-175214328D01*
X234680144Y-175418671D01*
X234680145Y-175418672D01*
X234742721Y-175500223D01*
X235578958Y-174663987D01*
X235603978Y-174724390D01*
X235675112Y-174830851D01*
X235765649Y-174921388D01*
X235872110Y-174992522D01*
X235932511Y-175017541D01*
X235096275Y-175853777D01*
X235177827Y-175916354D01*
X235177828Y-175916355D01*
X235382171Y-176034334D01*
X235382180Y-176034339D01*
X235600163Y-176124629D01*
X235600161Y-176124629D01*
X235828085Y-176185700D01*
X236062014Y-176216499D01*
X236062029Y-176216500D01*
X236297971Y-176216500D01*
X236297985Y-176216499D01*
X236531914Y-176185700D01*
X236759837Y-176124629D01*
X236977819Y-176034339D01*
X236977828Y-176034334D01*
X237182181Y-175916350D01*
X237263723Y-175853779D01*
X237263723Y-175853776D01*
X236427487Y-175017541D01*
X236487890Y-174992522D01*
X236594351Y-174921388D01*
X236684888Y-174830851D01*
X236756022Y-174724390D01*
X236781041Y-174663988D01*
X237617276Y-175500223D01*
X237617279Y-175500223D01*
X237679850Y-175418681D01*
X237797834Y-175214328D01*
X237797839Y-175214319D01*
X237888129Y-174996337D01*
X237949200Y-174768414D01*
X237979999Y-174534485D01*
X237980000Y-174534471D01*
X237980000Y-174298521D01*
X237979997Y-174298495D01*
X239379500Y-174298495D01*
X239379500Y-174534504D01*
X239379501Y-174534520D01*
X239410306Y-174768510D01*
X239471394Y-174996493D01*
X239561714Y-175214545D01*
X239561719Y-175214556D01*
X239632677Y-175337457D01*
X239679727Y-175418950D01*
X239679729Y-175418953D01*
X239679730Y-175418954D01*
X239823406Y-175606197D01*
X239823412Y-175606204D01*
X239990295Y-175773087D01*
X239990302Y-175773093D01*
X240100306Y-175857501D01*
X240177550Y-175916773D01*
X240308918Y-175992618D01*
X240381943Y-176034780D01*
X240381948Y-176034782D01*
X240381951Y-176034784D01*
X240600007Y-176125106D01*
X240827986Y-176186193D01*
X241061989Y-176217000D01*
X241061996Y-176217000D01*
X241298004Y-176217000D01*
X241298011Y-176217000D01*
X241532014Y-176186193D01*
X241759993Y-176125106D01*
X241978049Y-176034784D01*
X242182450Y-175916773D01*
X242369699Y-175773092D01*
X242536592Y-175606199D01*
X242680273Y-175418950D01*
X242798284Y-175214549D01*
X242829697Y-175138711D01*
X269929500Y-175138711D01*
X269929500Y-175381288D01*
X269961161Y-175621785D01*
X270023947Y-175856104D01*
X270116773Y-176080205D01*
X270116776Y-176080212D01*
X270238064Y-176290289D01*
X270238066Y-176290292D01*
X270238067Y-176290293D01*
X270385733Y-176482736D01*
X270385739Y-176482743D01*
X270557256Y-176654260D01*
X270557262Y-176654265D01*
X270749711Y-176801936D01*
X270959788Y-176923224D01*
X271183900Y-177016054D01*
X271418211Y-177078838D01*
X271598586Y-177102584D01*
X271658711Y-177110500D01*
X271658712Y-177110500D01*
X271901289Y-177110500D01*
X271949388Y-177104167D01*
X272141789Y-177078838D01*
X272376100Y-177016054D01*
X272600212Y-176923224D01*
X272810289Y-176801936D01*
X273002738Y-176654265D01*
X273174265Y-176482738D01*
X273321936Y-176290289D01*
X273443224Y-176080212D01*
X273536054Y-175856100D01*
X273598838Y-175621789D01*
X273630500Y-175381288D01*
X273630500Y-175138712D01*
X273598838Y-174898211D01*
X273536054Y-174663900D01*
X273443224Y-174439788D01*
X273321936Y-174229711D01*
X273174265Y-174037262D01*
X273174260Y-174037256D01*
X273002743Y-173865739D01*
X273002736Y-173865733D01*
X272810293Y-173718067D01*
X272810292Y-173718066D01*
X272810289Y-173718064D01*
X272600212Y-173596776D01*
X272600205Y-173596773D01*
X272376104Y-173503947D01*
X272141785Y-173441161D01*
X271901289Y-173409500D01*
X271901288Y-173409500D01*
X271658712Y-173409500D01*
X271658711Y-173409500D01*
X271418214Y-173441161D01*
X271183895Y-173503947D01*
X270959794Y-173596773D01*
X270959785Y-173596777D01*
X270749706Y-173718067D01*
X270557263Y-173865733D01*
X270557256Y-173865739D01*
X270385739Y-174037256D01*
X270385733Y-174037263D01*
X270238067Y-174229706D01*
X270116777Y-174439785D01*
X270116773Y-174439794D01*
X270023947Y-174663895D01*
X269961161Y-174898214D01*
X269929500Y-175138711D01*
X242829697Y-175138711D01*
X242888606Y-174996493D01*
X242949693Y-174768514D01*
X242980500Y-174534511D01*
X242980500Y-174298489D01*
X242949693Y-174064486D01*
X242888606Y-173836507D01*
X242798284Y-173618451D01*
X242798282Y-173618448D01*
X242798280Y-173618443D01*
X242732174Y-173503946D01*
X242680273Y-173414050D01*
X242536592Y-173226801D01*
X242536587Y-173226795D01*
X242369704Y-173059912D01*
X242369697Y-173059906D01*
X242182454Y-172916230D01*
X242182453Y-172916229D01*
X242182450Y-172916227D01*
X242100957Y-172869177D01*
X241978056Y-172798219D01*
X241978045Y-172798214D01*
X241759993Y-172707894D01*
X241532010Y-172646806D01*
X241298020Y-172616001D01*
X241298017Y-172616000D01*
X241298011Y-172616000D01*
X241061989Y-172616000D01*
X241061983Y-172616000D01*
X241061979Y-172616001D01*
X240827989Y-172646806D01*
X240600006Y-172707894D01*
X240381954Y-172798214D01*
X240381943Y-172798219D01*
X240177545Y-172916230D01*
X239990302Y-173059906D01*
X239990295Y-173059912D01*
X239823412Y-173226795D01*
X239823406Y-173226802D01*
X239679730Y-173414045D01*
X239679727Y-173414049D01*
X239679727Y-173414050D01*
X239672014Y-173427409D01*
X239561719Y-173618443D01*
X239561714Y-173618454D01*
X239471394Y-173836506D01*
X239410306Y-174064489D01*
X239379501Y-174298479D01*
X239379500Y-174298495D01*
X237979997Y-174298495D01*
X237949200Y-174064585D01*
X237888129Y-173836662D01*
X237797839Y-173618680D01*
X237797834Y-173618671D01*
X237679855Y-173414328D01*
X237679854Y-173414327D01*
X237617277Y-173332775D01*
X236781041Y-174169011D01*
X236756022Y-174108610D01*
X236684888Y-174002149D01*
X236594351Y-173911612D01*
X236487890Y-173840478D01*
X236427488Y-173815458D01*
X237263723Y-172979221D01*
X237182172Y-172916645D01*
X237182171Y-172916644D01*
X236977828Y-172798665D01*
X236977819Y-172798660D01*
X236759836Y-172708370D01*
X236759838Y-172708370D01*
X236531914Y-172647299D01*
X236297985Y-172616500D01*
X236062014Y-172616500D01*
X235828085Y-172647299D01*
X235600162Y-172708370D01*
X235382180Y-172798660D01*
X235382171Y-172798665D01*
X235177828Y-172916644D01*
X235177818Y-172916650D01*
X235096275Y-172979220D01*
X235096275Y-172979221D01*
X235932512Y-173815458D01*
X235872110Y-173840478D01*
X235765649Y-173911612D01*
X235675112Y-174002149D01*
X235603978Y-174108610D01*
X235578958Y-174169012D01*
X234742721Y-173332775D01*
X234742720Y-173332775D01*
X234680150Y-173414318D01*
X234680144Y-173414328D01*
X234562165Y-173618671D01*
X234562160Y-173618680D01*
X234471870Y-173836662D01*
X234410799Y-174064585D01*
X234380000Y-174298514D01*
X232980500Y-174298514D01*
X232980500Y-174298489D01*
X232949693Y-174064486D01*
X232888606Y-173836507D01*
X232798284Y-173618451D01*
X232798282Y-173618448D01*
X232798280Y-173618443D01*
X232732174Y-173503946D01*
X232680273Y-173414050D01*
X232536592Y-173226801D01*
X232536587Y-173226795D01*
X232369704Y-173059912D01*
X232369697Y-173059906D01*
X232182454Y-172916230D01*
X232182453Y-172916229D01*
X232182450Y-172916227D01*
X232100957Y-172869177D01*
X231978056Y-172798219D01*
X231978045Y-172798214D01*
X231759993Y-172707894D01*
X231532010Y-172646806D01*
X231298020Y-172616001D01*
X231298017Y-172616000D01*
X231298011Y-172616000D01*
X231061989Y-172616000D01*
X231061983Y-172616000D01*
X231061979Y-172616001D01*
X230827989Y-172646806D01*
X230600006Y-172707894D01*
X230381954Y-172798214D01*
X230381943Y-172798219D01*
X230177545Y-172916230D01*
X229990302Y-173059906D01*
X229990295Y-173059912D01*
X229823412Y-173226795D01*
X229823406Y-173226802D01*
X229679730Y-173414045D01*
X229679727Y-173414049D01*
X229679727Y-173414050D01*
X229672014Y-173427409D01*
X229561719Y-173618443D01*
X229561714Y-173618454D01*
X229471394Y-173836506D01*
X229410306Y-174064489D01*
X229379501Y-174298479D01*
X229379500Y-174298495D01*
X227980499Y-174298495D01*
X227980499Y-173316492D01*
X227969999Y-173213703D01*
X227914814Y-173047166D01*
X227822712Y-172897844D01*
X227698656Y-172773788D01*
X227549334Y-172681686D01*
X227382797Y-172626501D01*
X227382795Y-172626500D01*
X227280016Y-172616000D01*
X227280009Y-172616000D01*
X225845782Y-172616000D01*
X225778743Y-172596315D01*
X225758101Y-172579681D01*
X225325115Y-172146695D01*
X269294738Y-172146695D01*
X274360676Y-172146695D01*
X274360676Y-169983463D01*
X269294738Y-169983463D01*
X269294738Y-172146695D01*
X225325115Y-172146695D01*
X219476819Y-166298399D01*
X219462115Y-166271471D01*
X219445523Y-166245653D01*
X219444631Y-166239452D01*
X219443334Y-166237076D01*
X219440500Y-166210718D01*
X219440500Y-164957682D01*
X221712000Y-164957682D01*
X221712000Y-165162317D01*
X221744009Y-165364417D01*
X221807244Y-165559031D01*
X221900141Y-165741350D01*
X221900147Y-165741359D01*
X221932523Y-165785921D01*
X221932524Y-165785922D01*
X222612000Y-165106446D01*
X222612000Y-165112661D01*
X222639259Y-165214394D01*
X222691920Y-165305606D01*
X222766394Y-165380080D01*
X222857606Y-165432741D01*
X222959339Y-165460000D01*
X222965553Y-165460000D01*
X222286076Y-166139474D01*
X222330650Y-166171859D01*
X222512968Y-166264755D01*
X222707582Y-166327990D01*
X222909683Y-166360000D01*
X223114317Y-166360000D01*
X223316417Y-166327990D01*
X223511031Y-166264755D01*
X223693349Y-166171859D01*
X223737921Y-166139474D01*
X223058447Y-165460000D01*
X223064661Y-165460000D01*
X223166394Y-165432741D01*
X223257606Y-165380080D01*
X223332080Y-165305606D01*
X223384741Y-165214394D01*
X223412000Y-165112661D01*
X223412000Y-165106447D01*
X224091474Y-165785921D01*
X224123859Y-165741349D01*
X224216754Y-165559031D01*
X224272012Y-165388970D01*
X224272013Y-165388968D01*
X224279988Y-165364424D01*
X224279989Y-165364418D01*
X224312000Y-165162317D01*
X224312000Y-164957682D01*
X224279989Y-164755581D01*
X224279989Y-164755578D01*
X224250179Y-164663833D01*
X224238752Y-164628664D01*
X230348000Y-164628664D01*
X230348000Y-164978651D01*
X231332314Y-164978651D01*
X231327920Y-164983045D01*
X231275259Y-165074257D01*
X231248000Y-165175990D01*
X231248000Y-165281312D01*
X231275259Y-165383045D01*
X231327920Y-165474257D01*
X231332314Y-165478651D01*
X230348001Y-165478651D01*
X230348001Y-165828637D01*
X230358494Y-165931348D01*
X230413641Y-166097770D01*
X230413643Y-166097775D01*
X230505684Y-166246996D01*
X230629654Y-166370966D01*
X230778875Y-166463007D01*
X230778880Y-166463009D01*
X230945302Y-166518156D01*
X230945309Y-166518157D01*
X231048019Y-166528650D01*
X231397999Y-166528650D01*
X231398000Y-166528649D01*
X231398000Y-165544337D01*
X231402394Y-165548731D01*
X231493606Y-165601392D01*
X231595339Y-165628651D01*
X231700661Y-165628651D01*
X231802394Y-165601392D01*
X231893606Y-165548731D01*
X231898000Y-165544337D01*
X231898000Y-166528650D01*
X232247972Y-166528650D01*
X232247986Y-166528649D01*
X232350697Y-166518156D01*
X232517119Y-166463009D01*
X232517124Y-166463007D01*
X232666345Y-166370966D01*
X232790315Y-166246996D01*
X232882356Y-166097775D01*
X232882358Y-166097770D01*
X232937505Y-165931348D01*
X232937506Y-165931341D01*
X232947999Y-165828637D01*
X232948000Y-165828624D01*
X232948000Y-165483983D01*
X268628000Y-165483983D01*
X268628000Y-167684001D01*
X268628001Y-167684018D01*
X268638500Y-167786796D01*
X268638501Y-167786799D01*
X268689462Y-167940587D01*
X268693686Y-167953334D01*
X268785788Y-168102656D01*
X268909844Y-168226712D01*
X269059166Y-168318814D01*
X269225703Y-168373999D01*
X269328491Y-168384500D01*
X271528508Y-168384499D01*
X271631297Y-168373999D01*
X271797834Y-168318814D01*
X271947156Y-168226712D01*
X272071212Y-168102656D01*
X272163314Y-167953334D01*
X272218499Y-167786797D01*
X272229000Y-167684009D01*
X272228999Y-165483992D01*
X272228453Y-165478651D01*
X272218499Y-165381203D01*
X272218498Y-165381200D01*
X272212937Y-165364417D01*
X272163314Y-165214666D01*
X272071212Y-165065344D01*
X271947156Y-164941288D01*
X271840324Y-164875394D01*
X271797836Y-164849187D01*
X271797831Y-164849185D01*
X271796362Y-164848698D01*
X271631297Y-164794001D01*
X271631295Y-164794000D01*
X271528510Y-164783500D01*
X269328498Y-164783500D01*
X269328481Y-164783501D01*
X269225703Y-164794000D01*
X269225700Y-164794001D01*
X269059168Y-164849185D01*
X269059163Y-164849187D01*
X268909842Y-164941289D01*
X268785789Y-165065342D01*
X268693687Y-165214663D01*
X268693685Y-165214668D01*
X268689462Y-165227412D01*
X268638501Y-165381203D01*
X268638501Y-165381204D01*
X268638500Y-165381204D01*
X268628000Y-165483983D01*
X232948000Y-165483983D01*
X232948000Y-165478651D01*
X231963686Y-165478651D01*
X231968080Y-165474257D01*
X232020741Y-165383045D01*
X232048000Y-165281312D01*
X232048000Y-165175990D01*
X232020741Y-165074257D01*
X231968080Y-164983045D01*
X231963686Y-164978651D01*
X232947999Y-164978651D01*
X232947999Y-164628679D01*
X232947998Y-164628664D01*
X232937505Y-164525953D01*
X232882358Y-164359531D01*
X232882356Y-164359526D01*
X232790315Y-164210305D01*
X232666345Y-164086335D01*
X232517124Y-163994294D01*
X232517119Y-163994292D01*
X232350697Y-163939145D01*
X232350690Y-163939144D01*
X232247986Y-163928651D01*
X231898000Y-163928651D01*
X231898000Y-164912965D01*
X231893606Y-164908571D01*
X231802394Y-164855910D01*
X231700661Y-164828651D01*
X231595339Y-164828651D01*
X231493606Y-164855910D01*
X231402394Y-164908571D01*
X231398000Y-164912965D01*
X231398000Y-163928651D01*
X231048028Y-163928651D01*
X231048012Y-163928652D01*
X230945302Y-163939145D01*
X230778880Y-163994292D01*
X230778875Y-163994294D01*
X230629654Y-164086335D01*
X230505684Y-164210305D01*
X230413643Y-164359526D01*
X230413641Y-164359531D01*
X230358494Y-164525953D01*
X230358493Y-164525960D01*
X230348000Y-164628664D01*
X224238752Y-164628664D01*
X224216755Y-164560968D01*
X224123859Y-164378650D01*
X224091474Y-164334077D01*
X224091474Y-164334076D01*
X223412000Y-165013551D01*
X223412000Y-165007339D01*
X223384741Y-164905606D01*
X223332080Y-164814394D01*
X223257606Y-164739920D01*
X223166394Y-164687259D01*
X223064661Y-164660000D01*
X223058446Y-164660000D01*
X223737922Y-163980524D01*
X223737921Y-163980523D01*
X223693359Y-163948147D01*
X223693350Y-163948141D01*
X223511031Y-163855244D01*
X223316417Y-163792009D01*
X223114317Y-163760000D01*
X222909683Y-163760000D01*
X222707582Y-163792009D01*
X222512968Y-163855244D01*
X222330644Y-163948143D01*
X222286077Y-163980523D01*
X222286077Y-163980524D01*
X222965554Y-164660000D01*
X222959339Y-164660000D01*
X222857606Y-164687259D01*
X222766394Y-164739920D01*
X222691920Y-164814394D01*
X222639259Y-164905606D01*
X222612000Y-165007339D01*
X222612000Y-165013553D01*
X221932524Y-164334077D01*
X221932523Y-164334077D01*
X221900143Y-164378644D01*
X221807244Y-164560968D01*
X221744009Y-164755582D01*
X221712000Y-164957682D01*
X219440500Y-164957682D01*
X219440500Y-161626299D01*
X230347500Y-161626299D01*
X230347500Y-161831002D01*
X230379522Y-162033185D01*
X230442781Y-162227874D01*
X230535715Y-162410264D01*
X230656028Y-162575864D01*
X230800786Y-162720622D01*
X230904821Y-162796206D01*
X230966390Y-162840938D01*
X231082607Y-162900154D01*
X231148776Y-162933869D01*
X231148778Y-162933869D01*
X231148781Y-162933871D01*
X231253137Y-162967778D01*
X231343465Y-162997128D01*
X231444557Y-163013139D01*
X231545648Y-163029151D01*
X231545649Y-163029151D01*
X231750351Y-163029151D01*
X231750352Y-163029151D01*
X231952534Y-162997128D01*
X232147219Y-162933871D01*
X232329610Y-162840938D01*
X232422590Y-162773383D01*
X232495213Y-162720622D01*
X232495215Y-162720619D01*
X232495219Y-162720617D01*
X232639966Y-162575870D01*
X232639968Y-162575866D01*
X232639971Y-162575864D01*
X232705327Y-162485907D01*
X232760287Y-162410261D01*
X232853220Y-162227870D01*
X232916477Y-162033185D01*
X232948500Y-161831003D01*
X232948500Y-161626299D01*
X232923108Y-161465981D01*
X232916477Y-161424116D01*
X232864848Y-161265220D01*
X232853220Y-161229432D01*
X232853218Y-161229429D01*
X232853218Y-161229427D01*
X232819503Y-161163258D01*
X232760287Y-161047041D01*
X232752556Y-161036400D01*
X232639971Y-160881437D01*
X232495213Y-160736679D01*
X232329613Y-160616366D01*
X232329612Y-160616365D01*
X232329610Y-160616364D01*
X232261274Y-160581545D01*
X232147223Y-160523432D01*
X231952534Y-160460173D01*
X231777995Y-160432529D01*
X231750352Y-160428151D01*
X231545648Y-160428151D01*
X231521329Y-160432002D01*
X231343465Y-160460173D01*
X231148776Y-160523432D01*
X230966386Y-160616366D01*
X230800786Y-160736679D01*
X230656028Y-160881437D01*
X230535715Y-161047037D01*
X230442781Y-161229427D01*
X230379522Y-161424116D01*
X230347500Y-161626299D01*
X219440500Y-161626299D01*
X219440500Y-160510235D01*
X219454016Y-160453939D01*
X219459873Y-160442445D01*
X219513402Y-160277701D01*
X219540500Y-160106611D01*
X219540500Y-159957648D01*
X221711500Y-159957648D01*
X221711500Y-160162351D01*
X221743522Y-160364534D01*
X221806781Y-160559223D01*
X221899715Y-160741613D01*
X222020028Y-160907213D01*
X222164786Y-161051971D01*
X222319749Y-161164556D01*
X222330390Y-161172287D01*
X222442533Y-161229427D01*
X222512776Y-161265218D01*
X222512778Y-161265218D01*
X222512781Y-161265220D01*
X222589582Y-161290174D01*
X222707465Y-161328477D01*
X222808557Y-161344488D01*
X222909648Y-161360500D01*
X222909649Y-161360500D01*
X223114351Y-161360500D01*
X223114352Y-161360500D01*
X223316534Y-161328477D01*
X223511219Y-161265220D01*
X223693610Y-161172287D01*
X223786590Y-161104732D01*
X223859213Y-161051971D01*
X223859215Y-161051968D01*
X223859219Y-161051966D01*
X224003966Y-160907219D01*
X224003968Y-160907215D01*
X224003971Y-160907213D01*
X224092069Y-160785954D01*
X224124287Y-160741610D01*
X224217220Y-160559219D01*
X224280477Y-160364534D01*
X224312500Y-160162352D01*
X224312500Y-159957648D01*
X224295321Y-159849185D01*
X224280477Y-159755465D01*
X224245627Y-159648208D01*
X224217220Y-159560781D01*
X224217218Y-159560778D01*
X224217218Y-159560776D01*
X224161295Y-159451022D01*
X224124287Y-159378390D01*
X224069566Y-159303072D01*
X224003971Y-159212786D01*
X223859213Y-159068028D01*
X223693613Y-158947715D01*
X223693612Y-158947714D01*
X223693610Y-158947713D01*
X223636653Y-158918691D01*
X223511223Y-158854781D01*
X223316534Y-158791522D01*
X223141995Y-158763878D01*
X223114352Y-158759500D01*
X222909648Y-158759500D01*
X222885329Y-158763351D01*
X222707465Y-158791522D01*
X222512776Y-158854781D01*
X222330386Y-158947715D01*
X222164786Y-159068028D01*
X222020028Y-159212786D01*
X221899715Y-159378386D01*
X221806781Y-159560776D01*
X221743522Y-159755465D01*
X221711500Y-159957648D01*
X219540500Y-159957648D01*
X219540500Y-159933389D01*
X219513402Y-159762299D01*
X219459873Y-159597555D01*
X219381232Y-159443212D01*
X219279414Y-159303072D01*
X219156928Y-159180586D01*
X219016788Y-159078768D01*
X218862445Y-159000127D01*
X218697701Y-158946598D01*
X218697699Y-158946597D01*
X218697698Y-158946597D01*
X218566271Y-158925781D01*
X218526611Y-158919500D01*
X218353389Y-158919500D01*
X218313728Y-158925781D01*
X218182302Y-158946597D01*
X218017552Y-159000128D01*
X217863211Y-159078768D01*
X217844530Y-159092341D01*
X217723072Y-159180586D01*
X217723070Y-159180588D01*
X217723069Y-159180588D01*
X217600588Y-159303069D01*
X217600588Y-159303070D01*
X217600586Y-159303072D01*
X217572177Y-159342174D01*
X217498768Y-159443211D01*
X217420128Y-159597552D01*
X217366597Y-159762302D01*
X217339500Y-159933389D01*
X193021850Y-159933389D01*
X192885334Y-159849186D01*
X192718797Y-159794001D01*
X192718795Y-159794000D01*
X192616010Y-159783500D01*
X190415998Y-159783500D01*
X190415981Y-159783501D01*
X190313203Y-159794000D01*
X190313200Y-159794001D01*
X190146668Y-159849185D01*
X190146663Y-159849187D01*
X189997342Y-159941289D01*
X189873289Y-160065342D01*
X189781187Y-160214663D01*
X189781185Y-160214668D01*
X189760298Y-160277701D01*
X189726001Y-160381203D01*
X189726001Y-160381204D01*
X189726000Y-160381204D01*
X189715500Y-160483983D01*
X187944500Y-160483983D01*
X187944500Y-144821995D01*
X189715500Y-144821995D01*
X189715500Y-145058004D01*
X189715501Y-145058020D01*
X189746306Y-145292010D01*
X189807394Y-145519993D01*
X189897714Y-145738045D01*
X189897719Y-145738056D01*
X189946445Y-145822450D01*
X190015727Y-145942450D01*
X190015729Y-145942453D01*
X190015730Y-145942454D01*
X190159406Y-146129697D01*
X190159412Y-146129704D01*
X190326295Y-146296587D01*
X190326302Y-146296593D01*
X190357163Y-146320273D01*
X190513550Y-146440273D01*
X190644918Y-146516118D01*
X190717943Y-146558280D01*
X190717948Y-146558282D01*
X190717951Y-146558284D01*
X190936007Y-146648606D01*
X191163986Y-146709693D01*
X191397989Y-146740500D01*
X191397996Y-146740500D01*
X191634004Y-146740500D01*
X191634011Y-146740500D01*
X191868014Y-146709693D01*
X192095993Y-146648606D01*
X192314049Y-146558284D01*
X192518450Y-146440273D01*
X192705699Y-146296592D01*
X192872592Y-146129699D01*
X193016273Y-145942450D01*
X193134284Y-145738049D01*
X193224606Y-145519993D01*
X193285693Y-145292014D01*
X193316500Y-145058011D01*
X193316500Y-144821989D01*
X193285693Y-144587986D01*
X193224606Y-144360007D01*
X193134284Y-144141951D01*
X193134282Y-144141948D01*
X193134280Y-144141943D01*
X193073369Y-144036443D01*
X193016273Y-143937550D01*
X192878583Y-143758109D01*
X192872593Y-143750302D01*
X192872587Y-143750295D01*
X192705704Y-143583412D01*
X192705697Y-143583406D01*
X192518454Y-143439730D01*
X192518453Y-143439729D01*
X192518450Y-143439727D01*
X192436957Y-143392677D01*
X192314056Y-143321719D01*
X192314045Y-143321714D01*
X192095993Y-143231394D01*
X191985245Y-143201719D01*
X191868014Y-143170307D01*
X191868013Y-143170306D01*
X191868010Y-143170306D01*
X191634020Y-143139501D01*
X191634017Y-143139500D01*
X191634011Y-143139500D01*
X191397989Y-143139500D01*
X191397983Y-143139500D01*
X191397979Y-143139501D01*
X191163989Y-143170306D01*
X190936006Y-143231394D01*
X190717954Y-143321714D01*
X190717943Y-143321719D01*
X190513545Y-143439730D01*
X190326302Y-143583406D01*
X190326295Y-143583412D01*
X190159412Y-143750295D01*
X190159406Y-143750302D01*
X190015730Y-143937545D01*
X189897719Y-144141943D01*
X189897714Y-144141954D01*
X189807394Y-144360006D01*
X189746306Y-144587989D01*
X189715501Y-144821979D01*
X189715500Y-144821995D01*
X187944500Y-144821995D01*
X187944500Y-138839983D01*
X189715500Y-138839983D01*
X189715500Y-141040001D01*
X189715501Y-141040018D01*
X189726000Y-141142796D01*
X189726001Y-141142799D01*
X189781185Y-141309331D01*
X189781186Y-141309334D01*
X189873288Y-141458656D01*
X189997344Y-141582712D01*
X190146666Y-141674814D01*
X190313203Y-141729999D01*
X190415991Y-141740500D01*
X192616008Y-141740499D01*
X192718797Y-141729999D01*
X192885334Y-141674814D01*
X193034656Y-141582712D01*
X193158712Y-141458656D01*
X193250814Y-141309334D01*
X193305999Y-141142797D01*
X193316500Y-141040009D01*
X193316499Y-138839992D01*
X193315023Y-138825547D01*
X193305999Y-138737203D01*
X193305998Y-138737200D01*
X193293396Y-138699169D01*
X193250814Y-138570666D01*
X193158712Y-138421344D01*
X193034656Y-138297288D01*
X192885334Y-138205186D01*
X192718797Y-138150001D01*
X192718795Y-138150000D01*
X192616010Y-138139500D01*
X190415998Y-138139500D01*
X190415981Y-138139501D01*
X190313203Y-138150000D01*
X190313200Y-138150001D01*
X190146668Y-138205185D01*
X190146663Y-138205187D01*
X189997342Y-138297289D01*
X189873289Y-138421342D01*
X189781187Y-138570663D01*
X189781185Y-138570668D01*
X189758812Y-138638185D01*
X189726001Y-138737203D01*
X189726001Y-138737204D01*
X189726000Y-138737204D01*
X189715500Y-138839983D01*
X187944500Y-138839983D01*
X187944500Y-131469648D01*
X191485500Y-131469648D01*
X191485500Y-131674351D01*
X191517522Y-131876534D01*
X191580781Y-132071223D01*
X191673715Y-132253613D01*
X191794028Y-132419213D01*
X191938786Y-132563971D01*
X192049334Y-132644287D01*
X192104390Y-132684287D01*
X192220607Y-132743503D01*
X192286776Y-132777218D01*
X192286778Y-132777218D01*
X192286781Y-132777220D01*
X192391137Y-132811127D01*
X192481465Y-132840477D01*
X192568354Y-132854239D01*
X192683648Y-132872500D01*
X192683649Y-132872500D01*
X192888351Y-132872500D01*
X192888352Y-132872500D01*
X193090534Y-132840477D01*
X193285219Y-132777220D01*
X193467610Y-132684287D01*
X193560590Y-132616732D01*
X193633213Y-132563971D01*
X193633215Y-132563968D01*
X193633219Y-132563966D01*
X193777966Y-132419219D01*
X193777968Y-132419215D01*
X193777971Y-132419213D01*
X193885100Y-132271760D01*
X193898287Y-132253610D01*
X193991220Y-132071219D01*
X194054477Y-131876534D01*
X194086500Y-131674352D01*
X194086500Y-131469648D01*
X199105500Y-131469648D01*
X199105500Y-131674351D01*
X199137522Y-131876534D01*
X199200781Y-132071223D01*
X199293715Y-132253613D01*
X199414028Y-132419213D01*
X199558786Y-132563971D01*
X199669334Y-132644287D01*
X199724390Y-132684287D01*
X199840607Y-132743503D01*
X199906776Y-132777218D01*
X199906778Y-132777218D01*
X199906781Y-132777220D01*
X200011137Y-132811127D01*
X200101465Y-132840477D01*
X200188354Y-132854239D01*
X200303648Y-132872500D01*
X200303649Y-132872500D01*
X200508351Y-132872500D01*
X200508352Y-132872500D01*
X200710534Y-132840477D01*
X200905219Y-132777220D01*
X201087610Y-132684287D01*
X201180590Y-132616732D01*
X201253213Y-132563971D01*
X201253215Y-132563968D01*
X201253219Y-132563966D01*
X201397966Y-132419219D01*
X201397968Y-132419215D01*
X201397971Y-132419213D01*
X201505100Y-132271760D01*
X201518287Y-132253610D01*
X201611220Y-132071219D01*
X201674477Y-131876534D01*
X201706500Y-131674352D01*
X201706500Y-131469648D01*
X201700687Y-131432949D01*
X201674477Y-131267465D01*
X201612951Y-131078109D01*
X201611220Y-131072781D01*
X201611218Y-131072778D01*
X201611218Y-131072776D01*
X201537341Y-130927786D01*
X201518287Y-130890390D01*
X201509130Y-130877786D01*
X201397971Y-130724786D01*
X201253213Y-130580028D01*
X201087613Y-130459715D01*
X201087612Y-130459714D01*
X201087610Y-130459713D01*
X201030653Y-130430691D01*
X200905223Y-130366781D01*
X200710534Y-130303522D01*
X200535995Y-130275878D01*
X200508352Y-130271500D01*
X200303648Y-130271500D01*
X200279329Y-130275351D01*
X200101465Y-130303522D01*
X199906776Y-130366781D01*
X199724386Y-130459715D01*
X199558786Y-130580028D01*
X199414028Y-130724786D01*
X199293715Y-130890386D01*
X199200781Y-131072776D01*
X199137522Y-131267465D01*
X199105500Y-131469648D01*
X194086500Y-131469648D01*
X194080687Y-131432949D01*
X194054477Y-131267465D01*
X193992951Y-131078109D01*
X193991220Y-131072781D01*
X193991218Y-131072778D01*
X193991218Y-131072776D01*
X193917341Y-130927786D01*
X193898287Y-130890390D01*
X193889130Y-130877786D01*
X193777971Y-130724786D01*
X193633213Y-130580028D01*
X193467613Y-130459715D01*
X193467612Y-130459714D01*
X193467610Y-130459713D01*
X193410653Y-130430691D01*
X193285223Y-130366781D01*
X193090534Y-130303522D01*
X192915995Y-130275878D01*
X192888352Y-130271500D01*
X192683648Y-130271500D01*
X192659329Y-130275351D01*
X192481465Y-130303522D01*
X192286776Y-130366781D01*
X192104386Y-130459715D01*
X191938786Y-130580028D01*
X191794028Y-130724786D01*
X191673715Y-130890386D01*
X191580781Y-131072776D01*
X191517522Y-131267465D01*
X191485500Y-131469648D01*
X187944500Y-131469648D01*
X187944500Y-121641995D01*
X189715500Y-121641995D01*
X189715500Y-121878004D01*
X189715501Y-121878020D01*
X189746306Y-122112010D01*
X189807394Y-122339993D01*
X189897714Y-122558045D01*
X189897719Y-122558056D01*
X189960538Y-122666860D01*
X190015727Y-122762450D01*
X190015729Y-122762453D01*
X190015730Y-122762454D01*
X190159406Y-122949697D01*
X190159412Y-122949704D01*
X190326295Y-123116587D01*
X190326302Y-123116593D01*
X190372654Y-123152160D01*
X190513550Y-123260273D01*
X190607696Y-123314628D01*
X190717943Y-123378280D01*
X190717948Y-123378282D01*
X190717951Y-123378284D01*
X190936007Y-123468606D01*
X191163986Y-123529693D01*
X191397989Y-123560500D01*
X191397996Y-123560500D01*
X191634004Y-123560500D01*
X191634011Y-123560500D01*
X191868014Y-123529693D01*
X192095993Y-123468606D01*
X192314049Y-123378284D01*
X192518450Y-123260273D01*
X192705699Y-123116592D01*
X192872592Y-122949699D01*
X193016273Y-122762450D01*
X193134284Y-122558049D01*
X193224606Y-122339993D01*
X193285693Y-122112014D01*
X193316500Y-121878011D01*
X193316500Y-121641989D01*
X193285693Y-121407986D01*
X193224606Y-121180007D01*
X193134284Y-120961951D01*
X193134282Y-120961948D01*
X193134280Y-120961943D01*
X193080101Y-120868104D01*
X193016273Y-120757550D01*
X192956145Y-120679189D01*
X192872593Y-120570302D01*
X192872587Y-120570295D01*
X192705704Y-120403412D01*
X192705697Y-120403406D01*
X192518454Y-120259730D01*
X192518453Y-120259729D01*
X192518450Y-120259727D01*
X192422342Y-120204239D01*
X192314056Y-120141719D01*
X192314045Y-120141714D01*
X192095993Y-120051394D01*
X192087816Y-120049203D01*
X191868014Y-119990307D01*
X191868013Y-119990306D01*
X191868010Y-119990306D01*
X191634020Y-119959501D01*
X191634017Y-119959500D01*
X191634011Y-119959500D01*
X191397989Y-119959500D01*
X191397983Y-119959500D01*
X191397979Y-119959501D01*
X191163989Y-119990306D01*
X190936006Y-120051394D01*
X190717954Y-120141714D01*
X190717943Y-120141719D01*
X190513545Y-120259730D01*
X190326302Y-120403406D01*
X190326295Y-120403412D01*
X190159412Y-120570295D01*
X190159406Y-120570302D01*
X190015730Y-120757545D01*
X189897719Y-120961943D01*
X189897714Y-120961954D01*
X189807394Y-121180006D01*
X189746306Y-121407989D01*
X189715501Y-121641979D01*
X189715500Y-121641995D01*
X187944500Y-121641995D01*
X187944500Y-111641995D01*
X189715500Y-111641995D01*
X189715500Y-111878004D01*
X189715501Y-111878020D01*
X189746306Y-112112010D01*
X189807394Y-112339993D01*
X189897714Y-112558045D01*
X189897719Y-112558056D01*
X189955349Y-112657872D01*
X190015727Y-112762450D01*
X190015729Y-112762453D01*
X190015730Y-112762454D01*
X190159406Y-112949697D01*
X190159412Y-112949704D01*
X190326295Y-113116587D01*
X190326301Y-113116592D01*
X190513550Y-113260273D01*
X190644918Y-113336118D01*
X190717943Y-113378280D01*
X190717948Y-113378282D01*
X190717951Y-113378284D01*
X190936007Y-113468606D01*
X191163986Y-113529693D01*
X191397989Y-113560500D01*
X191397996Y-113560500D01*
X191634004Y-113560500D01*
X191634011Y-113560500D01*
X191868014Y-113529693D01*
X192095993Y-113468606D01*
X192314049Y-113378284D01*
X192518450Y-113260273D01*
X192630302Y-113174445D01*
X192695468Y-113149253D01*
X192763913Y-113163291D01*
X192813903Y-113212105D01*
X192829567Y-113280196D01*
X192805931Y-113345947D01*
X192793467Y-113360504D01*
X191187042Y-114966929D01*
X191131455Y-114999023D01*
X190936006Y-115051394D01*
X190717954Y-115141714D01*
X190717943Y-115141719D01*
X190513545Y-115259730D01*
X190326302Y-115403406D01*
X190326295Y-115403412D01*
X190159412Y-115570295D01*
X190159406Y-115570302D01*
X190015730Y-115757545D01*
X189897719Y-115961943D01*
X189897714Y-115961954D01*
X189807394Y-116180006D01*
X189746306Y-116407989D01*
X189715501Y-116641979D01*
X189715500Y-116641995D01*
X189715500Y-116878004D01*
X189715501Y-116878020D01*
X189746306Y-117112010D01*
X189807394Y-117339993D01*
X189897714Y-117558045D01*
X189897719Y-117558056D01*
X189944933Y-117639831D01*
X190015727Y-117762450D01*
X190015729Y-117762453D01*
X190015730Y-117762454D01*
X190159406Y-117949697D01*
X190159412Y-117949704D01*
X190326295Y-118116587D01*
X190326302Y-118116593D01*
X190436306Y-118201001D01*
X190513550Y-118260273D01*
X190644918Y-118336118D01*
X190717943Y-118378280D01*
X190717948Y-118378282D01*
X190717951Y-118378284D01*
X190936007Y-118468606D01*
X191163986Y-118529693D01*
X191397989Y-118560500D01*
X191397996Y-118560500D01*
X191634004Y-118560500D01*
X191634011Y-118560500D01*
X191868014Y-118529693D01*
X192095993Y-118468606D01*
X192314049Y-118378284D01*
X192518450Y-118260273D01*
X192705699Y-118116592D01*
X192872592Y-117949699D01*
X193016273Y-117762450D01*
X193134284Y-117558049D01*
X193224606Y-117339993D01*
X193276976Y-117144541D01*
X193309067Y-117088958D01*
X203537485Y-106860540D01*
X203598806Y-106827057D01*
X203668498Y-106832041D01*
X203724431Y-106873913D01*
X203748848Y-106939377D01*
X203746781Y-106972414D01*
X203723500Y-107089454D01*
X203723500Y-107089459D01*
X203723500Y-107286541D01*
X203723500Y-107286543D01*
X203723499Y-107286543D01*
X203761947Y-107479829D01*
X203761950Y-107479839D01*
X203837364Y-107661907D01*
X203837371Y-107661920D01*
X203946860Y-107825781D01*
X203946863Y-107825785D01*
X204086214Y-107965136D01*
X204086218Y-107965139D01*
X204250079Y-108074628D01*
X204250092Y-108074635D01*
X204382142Y-108129331D01*
X204432165Y-108150051D01*
X204432169Y-108150051D01*
X204432170Y-108150052D01*
X204625456Y-108188500D01*
X204625459Y-108188500D01*
X204822543Y-108188500D01*
X204952582Y-108162632D01*
X205015835Y-108150051D01*
X205197914Y-108074632D01*
X205361782Y-107965139D01*
X205501139Y-107825782D01*
X205610632Y-107661914D01*
X205686051Y-107479835D01*
X205704355Y-107387816D01*
X205724500Y-107286543D01*
X205724500Y-107089456D01*
X205686052Y-106896170D01*
X205686051Y-106896169D01*
X205686051Y-106896165D01*
X205659490Y-106832041D01*
X205610635Y-106714092D01*
X205610628Y-106714079D01*
X205501139Y-106550218D01*
X205501136Y-106550214D01*
X205361785Y-106410863D01*
X205361781Y-106410860D01*
X205197920Y-106301371D01*
X205197907Y-106301364D01*
X205015839Y-106225950D01*
X205015829Y-106225947D01*
X204822543Y-106187500D01*
X204822541Y-106187500D01*
X204625459Y-106187500D01*
X204625454Y-106187500D01*
X204508414Y-106210781D01*
X204438823Y-106204554D01*
X204383645Y-106161691D01*
X204360401Y-106095801D01*
X204376469Y-106027804D01*
X204396538Y-106001487D01*
X208749821Y-101648204D01*
X208811142Y-101614721D01*
X208880834Y-101619705D01*
X208936767Y-101661577D01*
X208961184Y-101727041D01*
X208961500Y-101735887D01*
X208961500Y-103005870D01*
X208961501Y-103005876D01*
X208967908Y-103065483D01*
X209018202Y-103200328D01*
X209018206Y-103200335D01*
X209104452Y-103315544D01*
X209104455Y-103315547D01*
X209219664Y-103401793D01*
X209219671Y-103401797D01*
X209351082Y-103450810D01*
X209407016Y-103492681D01*
X209431433Y-103558145D01*
X209416582Y-103626418D01*
X209395431Y-103654673D01*
X209281889Y-103768215D01*
X209156951Y-103940179D01*
X209060444Y-104129585D01*
X208994753Y-104331760D01*
X208961500Y-104541713D01*
X208961500Y-104754286D01*
X208994002Y-104959500D01*
X208994754Y-104964243D01*
X209044554Y-105117512D01*
X209060444Y-105166414D01*
X209156951Y-105355820D01*
X209281890Y-105527786D01*
X209432213Y-105678109D01*
X209604182Y-105803050D01*
X209612946Y-105807516D01*
X209663742Y-105855491D01*
X209680536Y-105923312D01*
X209657998Y-105989447D01*
X209612946Y-106028484D01*
X209604182Y-106032949D01*
X209432213Y-106157890D01*
X209281890Y-106308213D01*
X209156951Y-106480179D01*
X209060444Y-106669585D01*
X208994753Y-106871760D01*
X208961500Y-107081713D01*
X208961500Y-107294286D01*
X208990888Y-107479839D01*
X208994754Y-107504243D01*
X209045982Y-107661907D01*
X209060444Y-107706414D01*
X209156951Y-107895820D01*
X209281890Y-108067786D01*
X209432213Y-108218109D01*
X209604182Y-108343050D01*
X209612946Y-108347516D01*
X209663742Y-108395491D01*
X209680536Y-108463312D01*
X209657998Y-108529447D01*
X209612946Y-108568484D01*
X209604182Y-108572949D01*
X209432213Y-108697890D01*
X209281890Y-108848213D01*
X209156951Y-109020179D01*
X209060444Y-109209585D01*
X208994753Y-109411760D01*
X208961500Y-109621713D01*
X208961500Y-109834286D01*
X208986834Y-109994243D01*
X208994754Y-110044243D01*
X209049692Y-110213325D01*
X209060444Y-110246414D01*
X209156951Y-110435820D01*
X209281890Y-110607786D01*
X209432213Y-110758109D01*
X209604182Y-110883050D01*
X209612946Y-110887516D01*
X209663742Y-110935491D01*
X209680536Y-111003312D01*
X209657998Y-111069447D01*
X209612946Y-111108484D01*
X209604182Y-111112949D01*
X209432213Y-111237890D01*
X209281890Y-111388213D01*
X209156951Y-111560179D01*
X209060444Y-111749585D01*
X208994753Y-111951760D01*
X208961500Y-112161713D01*
X208961500Y-112374286D01*
X208990604Y-112558045D01*
X208994754Y-112584243D01*
X209052657Y-112762450D01*
X209060444Y-112786414D01*
X209156951Y-112975820D01*
X209281890Y-113147786D01*
X209432213Y-113298109D01*
X209604182Y-113423050D01*
X209612946Y-113427516D01*
X209663742Y-113475491D01*
X209680536Y-113543312D01*
X209657998Y-113609447D01*
X209612946Y-113648484D01*
X209604182Y-113652949D01*
X209432213Y-113777890D01*
X209281890Y-113928213D01*
X209156951Y-114100179D01*
X209060444Y-114289585D01*
X208994753Y-114491760D01*
X208961500Y-114701713D01*
X208961500Y-114914287D01*
X208966527Y-114946025D01*
X208994340Y-115121634D01*
X208994754Y-115124243D01*
X209047447Y-115286416D01*
X209060444Y-115326414D01*
X209156951Y-115515820D01*
X209281890Y-115687786D01*
X209432213Y-115838109D01*
X209604182Y-115963050D01*
X209612946Y-115967516D01*
X209663742Y-116015491D01*
X209680536Y-116083312D01*
X209657998Y-116149447D01*
X209612946Y-116188484D01*
X209604182Y-116192949D01*
X209432213Y-116317890D01*
X209281890Y-116468213D01*
X209156951Y-116640179D01*
X209060444Y-116829585D01*
X208994753Y-117031760D01*
X208961500Y-117241713D01*
X208961500Y-117454286D01*
X208990888Y-117639839D01*
X208994754Y-117664243D01*
X209059165Y-117862480D01*
X209060444Y-117866414D01*
X209156951Y-118055820D01*
X209281890Y-118227786D01*
X209432213Y-118378109D01*
X209604182Y-118503050D01*
X209612946Y-118507516D01*
X209663742Y-118555491D01*
X209680536Y-118623312D01*
X209657998Y-118689447D01*
X209612946Y-118728484D01*
X209604182Y-118732949D01*
X209432213Y-118857890D01*
X209281890Y-119008213D01*
X209156951Y-119180179D01*
X209060444Y-119369585D01*
X208994753Y-119571760D01*
X208961500Y-119781713D01*
X208961500Y-119994286D01*
X208986834Y-120154243D01*
X208994754Y-120204243D01*
X209060256Y-120405838D01*
X209060444Y-120406414D01*
X209156951Y-120595820D01*
X209281890Y-120767786D01*
X209432213Y-120918109D01*
X209604182Y-121043050D01*
X209612946Y-121047516D01*
X209663742Y-121095491D01*
X209680536Y-121163312D01*
X209657998Y-121229447D01*
X209612946Y-121268484D01*
X209604182Y-121272949D01*
X209432213Y-121397890D01*
X209281890Y-121548213D01*
X209156951Y-121720179D01*
X209060444Y-121909585D01*
X208994753Y-122111760D01*
X208961500Y-122321713D01*
X208961500Y-122534286D01*
X208990888Y-122719839D01*
X208994754Y-122744243D01*
X209045982Y-122901907D01*
X209060444Y-122946414D01*
X209156951Y-123135820D01*
X209281890Y-123307786D01*
X209432213Y-123458109D01*
X209604182Y-123583050D01*
X209612946Y-123587516D01*
X209663742Y-123635491D01*
X209680536Y-123703312D01*
X209657998Y-123769447D01*
X209612946Y-123808484D01*
X209604182Y-123812949D01*
X209432213Y-123937890D01*
X209281890Y-124088213D01*
X209156951Y-124260179D01*
X209060444Y-124449585D01*
X208994753Y-124651760D01*
X208961500Y-124861713D01*
X208961500Y-125074286D01*
X208994753Y-125284239D01*
X209060444Y-125486414D01*
X209156951Y-125675820D01*
X209281890Y-125847786D01*
X209432213Y-125998109D01*
X209604182Y-126123050D01*
X209612946Y-126127516D01*
X209663742Y-126175491D01*
X209680536Y-126243312D01*
X209657998Y-126309447D01*
X209612946Y-126348484D01*
X209604182Y-126352949D01*
X209432213Y-126477890D01*
X209281890Y-126628213D01*
X209156951Y-126800179D01*
X209060444Y-126989585D01*
X208994753Y-127191760D01*
X208961500Y-127401713D01*
X208961500Y-127614286D01*
X208986834Y-127774243D01*
X208994754Y-127824243D01*
X209017651Y-127894713D01*
X209060444Y-128026414D01*
X209156951Y-128215820D01*
X209281890Y-128387786D01*
X209432213Y-128538109D01*
X209604182Y-128663050D01*
X209612946Y-128667516D01*
X209663742Y-128715491D01*
X209680536Y-128783312D01*
X209657998Y-128849447D01*
X209612946Y-128888484D01*
X209604182Y-128892949D01*
X209432213Y-129017890D01*
X209281890Y-129168213D01*
X209156951Y-129340179D01*
X209060444Y-129529585D01*
X208994753Y-129731760D01*
X208961500Y-129941713D01*
X208961500Y-130154286D01*
X208986835Y-130314249D01*
X208994754Y-130364243D01*
X209044198Y-130516416D01*
X209060444Y-130566414D01*
X209156951Y-130755820D01*
X209281890Y-130927786D01*
X209432213Y-131078109D01*
X209604182Y-131203050D01*
X209612946Y-131207516D01*
X209663742Y-131255491D01*
X209680536Y-131323312D01*
X209657998Y-131389447D01*
X209612946Y-131428484D01*
X209604182Y-131432949D01*
X209432213Y-131557890D01*
X209281890Y-131708213D01*
X209156951Y-131880179D01*
X209060444Y-132069585D01*
X208994753Y-132271760D01*
X208961500Y-132481713D01*
X208961500Y-132694286D01*
X208994753Y-132904239D01*
X209060444Y-133106414D01*
X209156951Y-133295820D01*
X209281890Y-133467786D01*
X209432213Y-133618109D01*
X209604182Y-133743050D01*
X209612946Y-133747516D01*
X209663742Y-133795491D01*
X209680536Y-133863312D01*
X209657998Y-133929447D01*
X209612946Y-133968484D01*
X209604182Y-133972949D01*
X209432213Y-134097890D01*
X209281890Y-134248213D01*
X209156951Y-134420179D01*
X209060444Y-134609585D01*
X208994753Y-134811760D01*
X208961500Y-135021713D01*
X208961500Y-135234286D01*
X208986834Y-135394243D01*
X208994754Y-135444243D01*
X209015026Y-135506635D01*
X209060444Y-135646414D01*
X209156951Y-135835820D01*
X209281890Y-136007786D01*
X209432213Y-136158109D01*
X209604182Y-136283050D01*
X209612946Y-136287516D01*
X209663742Y-136335491D01*
X209680536Y-136403312D01*
X209657998Y-136469447D01*
X209612946Y-136508484D01*
X209604182Y-136512949D01*
X209432213Y-136637890D01*
X209281890Y-136788213D01*
X209156951Y-136960179D01*
X209060444Y-137149585D01*
X208994753Y-137351760D01*
X208961500Y-137561713D01*
X208961500Y-137774286D01*
X208983863Y-137915484D01*
X208994754Y-137984243D01*
X209048612Y-138150001D01*
X209060444Y-138186414D01*
X209156951Y-138375820D01*
X209281890Y-138547786D01*
X209432213Y-138698109D01*
X209604179Y-138823048D01*
X209604181Y-138823049D01*
X209604184Y-138823051D01*
X209793588Y-138919557D01*
X209995757Y-138985246D01*
X210205713Y-139018500D01*
X210205714Y-139018500D01*
X210418286Y-139018500D01*
X210418287Y-139018500D01*
X210513728Y-139003383D01*
X210583021Y-139012337D01*
X210620807Y-139038175D01*
X217453580Y-145870948D01*
X217453584Y-145870951D01*
X217576498Y-145953080D01*
X217576511Y-145953087D01*
X217679669Y-145995816D01*
X217713087Y-146009658D01*
X217713091Y-146009658D01*
X217713092Y-146009659D01*
X217858079Y-146038500D01*
X217858082Y-146038500D01*
X218005917Y-146038500D01*
X243160779Y-146038500D01*
X243227818Y-146058185D01*
X243261097Y-146089615D01*
X243317892Y-146167788D01*
X243468213Y-146318109D01*
X243640182Y-146443050D01*
X243648946Y-146447516D01*
X243699742Y-146495491D01*
X243716536Y-146563312D01*
X243693998Y-146629447D01*
X243648946Y-146668484D01*
X243640182Y-146672949D01*
X243468213Y-146797890D01*
X243317890Y-146948213D01*
X243192951Y-147120179D01*
X243096444Y-147309585D01*
X243030753Y-147511760D01*
X242997500Y-147721713D01*
X242997500Y-147934286D01*
X243030002Y-148139500D01*
X243030754Y-148144243D01*
X243096443Y-148346412D01*
X243156057Y-148463412D01*
X243192951Y-148535819D01*
X243290885Y-148670615D01*
X243314365Y-148736421D01*
X243298539Y-148804475D01*
X243248433Y-148853170D01*
X243190567Y-148867500D01*
X195969903Y-148867500D01*
X195736630Y-148904447D01*
X195584993Y-148953716D01*
X195584992Y-148953717D01*
X195512007Y-148977432D01*
X195512001Y-148977434D01*
X195301565Y-149084657D01*
X195110488Y-149223484D01*
X193116503Y-151217469D01*
X193055180Y-151250954D01*
X192985488Y-151245970D01*
X192929555Y-151204098D01*
X192905138Y-151138634D01*
X192919990Y-151070361D01*
X192930446Y-151054302D01*
X192964671Y-151009699D01*
X193016273Y-150942450D01*
X193134284Y-150738049D01*
X193224606Y-150519993D01*
X193285693Y-150292014D01*
X193316500Y-150058011D01*
X193316500Y-149821989D01*
X193285693Y-149587986D01*
X193224606Y-149360007D01*
X193134284Y-149141951D01*
X193134282Y-149141948D01*
X193134280Y-149141943D01*
X193081359Y-149050283D01*
X193016273Y-148937550D01*
X192872592Y-148750301D01*
X192872587Y-148750295D01*
X192705704Y-148583412D01*
X192705697Y-148583406D01*
X192518454Y-148439730D01*
X192518453Y-148439729D01*
X192518450Y-148439727D01*
X192436957Y-148392677D01*
X192314056Y-148321719D01*
X192314045Y-148321714D01*
X192095993Y-148231394D01*
X191985245Y-148201719D01*
X191868014Y-148170307D01*
X191868013Y-148170306D01*
X191868010Y-148170306D01*
X191634020Y-148139501D01*
X191634017Y-148139500D01*
X191634011Y-148139500D01*
X191397989Y-148139500D01*
X191397983Y-148139500D01*
X191397979Y-148139501D01*
X191163989Y-148170306D01*
X190936006Y-148231394D01*
X190717954Y-148321714D01*
X190717943Y-148321719D01*
X190513545Y-148439730D01*
X190326302Y-148583406D01*
X190326295Y-148583412D01*
X190159412Y-148750295D01*
X190159406Y-148750302D01*
X190015730Y-148937545D01*
X189897719Y-149141943D01*
X189897714Y-149141954D01*
X189807394Y-149360006D01*
X189746306Y-149587989D01*
X189715501Y-149821979D01*
X189715500Y-149821995D01*
X189715500Y-150058004D01*
X189715501Y-150058020D01*
X189746306Y-150292010D01*
X189807394Y-150519993D01*
X189897714Y-150738045D01*
X189897719Y-150738056D01*
X189946445Y-150822450D01*
X190015727Y-150942450D01*
X190015729Y-150942453D01*
X190015730Y-150942454D01*
X190159406Y-151129697D01*
X190159412Y-151129704D01*
X190326295Y-151296587D01*
X190326302Y-151296593D01*
X190390055Y-151345512D01*
X190513550Y-151440273D01*
X190622283Y-151503050D01*
X190717943Y-151558280D01*
X190717948Y-151558282D01*
X190717951Y-151558284D01*
X190936007Y-151648606D01*
X191163986Y-151709693D01*
X191397989Y-151740500D01*
X191397996Y-151740500D01*
X191634004Y-151740500D01*
X191634011Y-151740500D01*
X191868014Y-151709693D01*
X192095993Y-151648606D01*
X192314049Y-151558284D01*
X192518450Y-151440273D01*
X192630301Y-151354446D01*
X192695469Y-151329252D01*
X192763914Y-151343290D01*
X192813904Y-151392104D01*
X192829568Y-151460195D01*
X192805932Y-151525945D01*
X192793468Y-151540503D01*
X191187042Y-153146929D01*
X191131455Y-153179023D01*
X190936006Y-153231394D01*
X190717954Y-153321714D01*
X190717943Y-153321719D01*
X190513545Y-153439730D01*
X190326302Y-153583406D01*
X190326295Y-153583412D01*
X190159412Y-153750295D01*
X190159406Y-153750302D01*
X190015730Y-153937545D01*
X189897719Y-154141943D01*
X189897714Y-154141954D01*
X189807394Y-154360006D01*
X189746306Y-154587989D01*
X189715501Y-154821979D01*
X189715500Y-154821995D01*
X189715500Y-155058004D01*
X189715501Y-155058020D01*
X189746306Y-155292010D01*
X189807394Y-155519993D01*
X189897714Y-155738045D01*
X189897719Y-155738056D01*
X189968677Y-155860957D01*
X190015727Y-155942450D01*
X190015729Y-155942453D01*
X190015730Y-155942454D01*
X190159406Y-156129697D01*
X190159412Y-156129704D01*
X190326295Y-156296587D01*
X190326302Y-156296593D01*
X190340889Y-156307786D01*
X190513550Y-156440273D01*
X190644918Y-156516118D01*
X190717943Y-156558280D01*
X190717948Y-156558282D01*
X190717951Y-156558284D01*
X190936007Y-156648606D01*
X191163986Y-156709693D01*
X191397989Y-156740500D01*
X191397996Y-156740500D01*
X191634004Y-156740500D01*
X191634011Y-156740500D01*
X191868014Y-156709693D01*
X192095993Y-156648606D01*
X192314049Y-156558284D01*
X192518450Y-156440273D01*
X192705699Y-156296592D01*
X192872592Y-156129699D01*
X193016273Y-155942450D01*
X193134284Y-155738049D01*
X193224606Y-155519993D01*
X193276976Y-155324541D01*
X193309067Y-155268958D01*
X196673208Y-151904819D01*
X196734531Y-151871334D01*
X196760889Y-151868500D01*
X243190567Y-151868500D01*
X243257606Y-151888185D01*
X243303361Y-151940989D01*
X243313305Y-152010147D01*
X243290885Y-152065385D01*
X243192951Y-152200180D01*
X243096444Y-152389585D01*
X243030753Y-152591760D01*
X242997500Y-152801713D01*
X242997500Y-153014286D01*
X243027585Y-153204239D01*
X243030754Y-153224243D01*
X243089945Y-153406414D01*
X243096444Y-153426414D01*
X243192951Y-153615820D01*
X243317890Y-153787786D01*
X243468213Y-153938109D01*
X243640182Y-154063050D01*
X243648946Y-154067516D01*
X243699742Y-154115491D01*
X243716536Y-154183312D01*
X243693998Y-154249447D01*
X243648946Y-154288484D01*
X243640182Y-154292949D01*
X243468213Y-154417890D01*
X243317890Y-154568213D01*
X243192951Y-154740179D01*
X243096444Y-154929585D01*
X243030753Y-155131760D01*
X242997500Y-155341713D01*
X242997500Y-155554286D01*
X243028225Y-155748279D01*
X243030754Y-155764243D01*
X243089945Y-155946414D01*
X243096444Y-155966414D01*
X243192951Y-156155820D01*
X243317890Y-156327786D01*
X243468209Y-156478105D01*
X243468214Y-156478109D01*
X243532722Y-156524977D01*
X243575388Y-156580307D01*
X243581367Y-156649920D01*
X243548762Y-156711715D01*
X243532723Y-156725613D01*
X243370488Y-156843484D01*
X243203485Y-157010487D01*
X243203485Y-157010488D01*
X243203483Y-157010490D01*
X243147017Y-157088208D01*
X243064657Y-157201566D01*
X242957433Y-157412003D01*
X242884446Y-157636631D01*
X242847500Y-157869902D01*
X242847500Y-158106097D01*
X242884446Y-158339368D01*
X242957433Y-158563996D01*
X243014409Y-158675816D01*
X243064657Y-158774433D01*
X243203483Y-158965510D01*
X243370490Y-159132517D01*
X243532723Y-159250387D01*
X243575388Y-159305716D01*
X243581367Y-159375329D01*
X243548761Y-159437124D01*
X243532723Y-159451022D01*
X243468209Y-159497894D01*
X243317890Y-159648213D01*
X243192951Y-159820179D01*
X243096444Y-160009585D01*
X243030753Y-160211760D01*
X242997500Y-160421713D01*
X242997500Y-160634287D01*
X243030754Y-160844243D01*
X243082664Y-161004006D01*
X243096444Y-161046414D01*
X243192951Y-161235820D01*
X243317890Y-161407786D01*
X243468213Y-161558109D01*
X243640179Y-161683048D01*
X243640181Y-161683049D01*
X243640184Y-161683051D01*
X243829588Y-161779557D01*
X244031757Y-161845246D01*
X244241713Y-161878500D01*
X244241714Y-161878500D01*
X244454286Y-161878500D01*
X244454287Y-161878500D01*
X244664243Y-161845246D01*
X244866412Y-161779557D01*
X245055816Y-161683051D01*
X245169666Y-161600335D01*
X245227786Y-161558109D01*
X245227788Y-161558106D01*
X245227792Y-161558104D01*
X245378104Y-161407792D01*
X245378106Y-161407788D01*
X245378109Y-161407786D01*
X245503048Y-161235820D01*
X245503047Y-161235820D01*
X245503051Y-161235816D01*
X245599557Y-161046412D01*
X245665246Y-160844243D01*
X245698500Y-160634287D01*
X245698500Y-160421713D01*
X245665246Y-160211757D01*
X245599557Y-160009588D01*
X245503051Y-159820184D01*
X245484027Y-159794000D01*
X245405115Y-159685385D01*
X245381635Y-159619579D01*
X245397461Y-159551525D01*
X245447567Y-159502830D01*
X245505433Y-159488500D01*
X245668178Y-159488500D01*
X245901449Y-159451553D01*
X245927123Y-159443211D01*
X246126073Y-159378568D01*
X246336515Y-159271343D01*
X246527591Y-159132517D01*
X253544517Y-152115591D01*
X253683343Y-151924515D01*
X253790568Y-151714073D01*
X253793165Y-151706079D01*
X253810950Y-151651344D01*
X253810950Y-151651343D01*
X253820058Y-151623312D01*
X253863553Y-151489449D01*
X253886350Y-151345512D01*
X253900500Y-151256178D01*
X253900500Y-145272889D01*
X253920185Y-145205850D01*
X253936819Y-145185208D01*
X256500315Y-142621713D01*
X258466500Y-142621713D01*
X258466500Y-142834287D01*
X258499754Y-143044243D01*
X258560563Y-143231394D01*
X258565444Y-143246414D01*
X258661951Y-143435820D01*
X258786890Y-143607786D01*
X258937213Y-143758109D01*
X259109182Y-143883050D01*
X259117946Y-143887516D01*
X259168742Y-143935491D01*
X259185536Y-144003312D01*
X259162998Y-144069447D01*
X259117946Y-144108484D01*
X259109182Y-144112949D01*
X258937213Y-144237890D01*
X258786890Y-144388213D01*
X258661951Y-144560179D01*
X258565444Y-144749585D01*
X258499753Y-144951760D01*
X258482926Y-145058004D01*
X258466500Y-145161713D01*
X258466500Y-145374287D01*
X258499754Y-145584243D01*
X258510738Y-145618049D01*
X258565444Y-145786414D01*
X258661951Y-145975820D01*
X258786890Y-146147786D01*
X258937213Y-146298109D01*
X259109182Y-146423050D01*
X259117946Y-146427516D01*
X259168742Y-146475491D01*
X259185536Y-146543312D01*
X259162998Y-146609447D01*
X259117946Y-146648484D01*
X259109182Y-146652949D01*
X258937213Y-146777890D01*
X258786890Y-146928213D01*
X258661951Y-147100179D01*
X258565444Y-147289585D01*
X258499753Y-147491760D01*
X258466500Y-147701713D01*
X258466500Y-147914286D01*
X258488043Y-148050307D01*
X258499754Y-148124243D01*
X258563917Y-148321716D01*
X258565444Y-148326414D01*
X258661951Y-148515820D01*
X258786890Y-148687786D01*
X258937213Y-148838109D01*
X259109182Y-148963050D01*
X259117946Y-148967516D01*
X259168742Y-149015491D01*
X259185536Y-149083312D01*
X259162998Y-149149447D01*
X259117946Y-149188484D01*
X259109182Y-149192949D01*
X258937213Y-149317890D01*
X258786890Y-149468213D01*
X258661951Y-149640179D01*
X258565444Y-149829585D01*
X258499753Y-150031760D01*
X258495594Y-150058020D01*
X258466500Y-150241713D01*
X258466500Y-150454287D01*
X258471538Y-150486097D01*
X258492438Y-150618056D01*
X258499754Y-150664243D01*
X258523737Y-150738056D01*
X258565444Y-150866414D01*
X258661951Y-151055820D01*
X258786890Y-151227786D01*
X258937213Y-151378109D01*
X259109182Y-151503050D01*
X259117946Y-151507516D01*
X259168742Y-151555491D01*
X259185536Y-151623312D01*
X259162998Y-151689447D01*
X259117946Y-151728484D01*
X259109182Y-151732949D01*
X258937213Y-151857890D01*
X258786890Y-152008213D01*
X258661951Y-152180179D01*
X258565444Y-152369585D01*
X258499753Y-152571760D01*
X258466500Y-152781713D01*
X258466500Y-152994286D01*
X258495759Y-153179023D01*
X258499754Y-153204243D01*
X258537924Y-153321719D01*
X258565444Y-153406414D01*
X258661951Y-153595820D01*
X258786890Y-153767786D01*
X258937213Y-153918109D01*
X259109182Y-154043050D01*
X259117946Y-154047516D01*
X259168742Y-154095491D01*
X259185536Y-154163312D01*
X259162998Y-154229447D01*
X259117946Y-154268484D01*
X259109182Y-154272949D01*
X258937213Y-154397890D01*
X258786890Y-154548213D01*
X258661951Y-154720179D01*
X258565444Y-154909585D01*
X258499753Y-155111760D01*
X258471204Y-155292014D01*
X258466500Y-155321713D01*
X258466500Y-155534287D01*
X258499754Y-155744243D01*
X258556866Y-155920016D01*
X258565444Y-155946414D01*
X258661951Y-156135820D01*
X258786890Y-156307786D01*
X258937213Y-156458109D01*
X259109182Y-156583050D01*
X259117946Y-156587516D01*
X259168742Y-156635491D01*
X259185536Y-156703312D01*
X259162998Y-156769447D01*
X259117946Y-156808484D01*
X259109182Y-156812949D01*
X258937213Y-156937890D01*
X258786890Y-157088213D01*
X258661951Y-157260179D01*
X258565444Y-157449585D01*
X258499753Y-157651760D01*
X258466500Y-157861713D01*
X258466500Y-158074287D01*
X258499754Y-158284243D01*
X258517665Y-158339368D01*
X258565444Y-158486414D01*
X258661951Y-158675820D01*
X258786890Y-158847786D01*
X258900430Y-158961326D01*
X258933915Y-159022649D01*
X258928931Y-159092341D01*
X258887059Y-159148274D01*
X258856083Y-159165189D01*
X258724669Y-159214203D01*
X258724664Y-159214206D01*
X258609455Y-159300452D01*
X258609452Y-159300455D01*
X258523206Y-159415664D01*
X258523202Y-159415671D01*
X258472908Y-159550517D01*
X258466501Y-159610116D01*
X258466501Y-159610123D01*
X258466500Y-159610135D01*
X258466500Y-161405870D01*
X258466501Y-161405876D01*
X258472908Y-161465483D01*
X258523202Y-161600328D01*
X258523206Y-161600335D01*
X258609452Y-161715544D01*
X258609455Y-161715547D01*
X258724664Y-161801793D01*
X258724671Y-161801797D01*
X258859517Y-161852091D01*
X258859516Y-161852091D01*
X258866444Y-161852835D01*
X258919127Y-161858500D01*
X260714872Y-161858499D01*
X260774483Y-161852091D01*
X260909331Y-161801796D01*
X261024546Y-161715546D01*
X261110796Y-161600331D01*
X261161091Y-161465483D01*
X261167500Y-161405873D01*
X261167499Y-159610128D01*
X261161091Y-159550517D01*
X261121068Y-159443211D01*
X261110797Y-159415671D01*
X261110793Y-159415664D01*
X261024547Y-159300455D01*
X261024544Y-159300452D01*
X260909335Y-159214206D01*
X260909328Y-159214202D01*
X260777917Y-159165189D01*
X260721983Y-159123318D01*
X260697566Y-159057853D01*
X260712418Y-158989580D01*
X260733563Y-158961332D01*
X260847104Y-158847792D01*
X260972051Y-158675816D01*
X261068557Y-158486412D01*
X261134246Y-158284243D01*
X261167500Y-158074287D01*
X261167500Y-157861713D01*
X261134246Y-157651757D01*
X261068557Y-157449588D01*
X260972051Y-157260184D01*
X260972049Y-157260181D01*
X260972048Y-157260179D01*
X260847109Y-157088213D01*
X260696786Y-156937890D01*
X260524820Y-156812951D01*
X260524115Y-156812591D01*
X260516054Y-156808485D01*
X260465259Y-156760512D01*
X260448463Y-156692692D01*
X260470999Y-156626556D01*
X260516054Y-156587515D01*
X260524816Y-156583051D01*
X260604749Y-156524977D01*
X260696786Y-156458109D01*
X260696788Y-156458106D01*
X260696792Y-156458104D01*
X260847104Y-156307792D01*
X260847106Y-156307788D01*
X260847109Y-156307786D01*
X260972048Y-156135820D01*
X260972047Y-156135820D01*
X260972051Y-156135816D01*
X261068557Y-155946412D01*
X261134246Y-155744243D01*
X261167500Y-155534287D01*
X261167500Y-155321713D01*
X261134246Y-155111757D01*
X261068557Y-154909588D01*
X260972051Y-154720184D01*
X260972049Y-154720181D01*
X260972048Y-154720179D01*
X260847109Y-154548213D01*
X260696786Y-154397890D01*
X260524820Y-154272951D01*
X260524115Y-154272591D01*
X260516054Y-154268485D01*
X260465259Y-154220512D01*
X260448463Y-154152692D01*
X260470999Y-154086556D01*
X260516054Y-154047515D01*
X260524816Y-154043051D01*
X260546789Y-154027086D01*
X260696786Y-153918109D01*
X260696788Y-153918106D01*
X260696792Y-153918104D01*
X260847104Y-153767792D01*
X260881839Y-153719983D01*
X268628000Y-153719983D01*
X268628000Y-155920001D01*
X268628001Y-155920018D01*
X268638500Y-156022796D01*
X268638501Y-156022799D01*
X268693685Y-156189331D01*
X268693686Y-156189334D01*
X268785788Y-156338656D01*
X268909844Y-156462712D01*
X269059166Y-156554814D01*
X269225703Y-156609999D01*
X269328491Y-156620500D01*
X271528508Y-156620499D01*
X271631297Y-156609999D01*
X271797834Y-156554814D01*
X271947156Y-156462712D01*
X272071212Y-156338656D01*
X272163314Y-156189334D01*
X272218499Y-156022797D01*
X272229000Y-155920009D01*
X272228999Y-153719992D01*
X272218499Y-153617203D01*
X272163314Y-153450666D01*
X272071212Y-153301344D01*
X271947156Y-153177288D01*
X271797834Y-153085186D01*
X271631297Y-153030001D01*
X271631295Y-153030000D01*
X271528510Y-153019500D01*
X269328498Y-153019500D01*
X269328481Y-153019501D01*
X269225703Y-153030000D01*
X269225700Y-153030001D01*
X269059168Y-153085185D01*
X269059163Y-153085187D01*
X268909842Y-153177289D01*
X268785789Y-153301342D01*
X268693687Y-153450663D01*
X268693686Y-153450666D01*
X268638501Y-153617203D01*
X268638501Y-153617204D01*
X268638500Y-153617204D01*
X268628000Y-153719983D01*
X260881839Y-153719983D01*
X260972051Y-153595816D01*
X261068557Y-153406412D01*
X261134246Y-153204243D01*
X261167500Y-152994287D01*
X261167500Y-152781713D01*
X261134246Y-152571757D01*
X261068557Y-152369588D01*
X260972051Y-152180184D01*
X260972049Y-152180181D01*
X260972048Y-152180179D01*
X260847109Y-152008213D01*
X260696786Y-151857890D01*
X260524820Y-151732951D01*
X260524115Y-151732591D01*
X260516054Y-151728485D01*
X260465259Y-151680512D01*
X260448463Y-151612692D01*
X260470999Y-151546556D01*
X260516054Y-151507515D01*
X260524816Y-151503051D01*
X260611229Y-151440269D01*
X260696786Y-151378109D01*
X260696788Y-151378106D01*
X260696792Y-151378104D01*
X260847104Y-151227792D01*
X260847106Y-151227788D01*
X260847109Y-151227786D01*
X260956086Y-151077789D01*
X260972051Y-151055816D01*
X261068557Y-150866412D01*
X261134246Y-150664243D01*
X261167500Y-150454287D01*
X261167500Y-150241713D01*
X261134246Y-150031757D01*
X261068557Y-149829588D01*
X261003545Y-149701995D01*
X268628000Y-149701995D01*
X268628000Y-149938004D01*
X268628001Y-149938020D01*
X268658806Y-150172010D01*
X268719894Y-150399993D01*
X268810214Y-150618045D01*
X268810219Y-150618056D01*
X268879496Y-150738045D01*
X268928227Y-150822450D01*
X268928229Y-150822453D01*
X268928230Y-150822454D01*
X269071906Y-151009697D01*
X269071912Y-151009704D01*
X269238795Y-151176587D01*
X269238802Y-151176593D01*
X269292073Y-151217469D01*
X269426050Y-151320273D01*
X269526225Y-151378109D01*
X269630443Y-151438280D01*
X269630448Y-151438282D01*
X269630451Y-151438284D01*
X269848507Y-151528606D01*
X270076486Y-151589693D01*
X270310489Y-151620500D01*
X270310496Y-151620500D01*
X270546504Y-151620500D01*
X270546511Y-151620500D01*
X270780514Y-151589693D01*
X271008493Y-151528606D01*
X271226549Y-151438284D01*
X271430950Y-151320273D01*
X271618199Y-151176592D01*
X271785092Y-151009699D01*
X271928773Y-150822450D01*
X272046784Y-150618049D01*
X272137106Y-150399993D01*
X272198193Y-150172014D01*
X272229000Y-149938011D01*
X272229000Y-149701989D01*
X272198193Y-149467986D01*
X272137106Y-149240007D01*
X272046784Y-149021951D01*
X272046782Y-149021948D01*
X272046780Y-149021943D01*
X271978943Y-148904447D01*
X271928773Y-148817550D01*
X271785092Y-148630301D01*
X271785087Y-148630295D01*
X271618204Y-148463412D01*
X271618197Y-148463406D01*
X271430954Y-148319730D01*
X271430953Y-148319729D01*
X271430950Y-148319727D01*
X271349457Y-148272677D01*
X271226556Y-148201719D01*
X271226545Y-148201714D01*
X271008493Y-148111394D01*
X270780510Y-148050306D01*
X270546520Y-148019501D01*
X270546517Y-148019500D01*
X270546511Y-148019500D01*
X270310489Y-148019500D01*
X270310483Y-148019500D01*
X270310479Y-148019501D01*
X270076489Y-148050306D01*
X269848506Y-148111394D01*
X269630454Y-148201714D01*
X269630443Y-148201719D01*
X269426045Y-148319730D01*
X269238802Y-148463406D01*
X269238795Y-148463412D01*
X269071912Y-148630295D01*
X269071906Y-148630302D01*
X268928230Y-148817545D01*
X268810219Y-149021943D01*
X268810214Y-149021954D01*
X268719894Y-149240006D01*
X268658806Y-149467989D01*
X268628001Y-149701979D01*
X268628000Y-149701995D01*
X261003545Y-149701995D01*
X260972051Y-149640184D01*
X260964023Y-149629134D01*
X260847109Y-149468213D01*
X260696786Y-149317890D01*
X260524820Y-149192951D01*
X260524115Y-149192591D01*
X260516054Y-149188485D01*
X260465259Y-149140512D01*
X260448463Y-149072692D01*
X260470999Y-149006556D01*
X260516054Y-148967515D01*
X260524816Y-148963051D01*
X260656332Y-148867500D01*
X260696786Y-148838109D01*
X260696788Y-148838106D01*
X260696792Y-148838104D01*
X260847104Y-148687792D01*
X260847106Y-148687788D01*
X260847109Y-148687786D01*
X260972048Y-148515820D01*
X260972047Y-148515820D01*
X260972051Y-148515816D01*
X261068557Y-148326412D01*
X261134246Y-148124243D01*
X261167500Y-147914287D01*
X261167500Y-147701713D01*
X261134246Y-147491757D01*
X261068557Y-147289588D01*
X260972051Y-147100184D01*
X260972049Y-147100181D01*
X260972048Y-147100179D01*
X260847109Y-146928213D01*
X260696786Y-146777890D01*
X260524820Y-146652951D01*
X260516290Y-146648605D01*
X260516054Y-146648485D01*
X260465259Y-146600512D01*
X260448463Y-146532692D01*
X260470999Y-146466556D01*
X260516054Y-146427515D01*
X260524816Y-146423051D01*
X260666279Y-146320273D01*
X260696786Y-146298109D01*
X260696788Y-146298106D01*
X260696792Y-146298104D01*
X260847104Y-146147792D01*
X260847106Y-146147788D01*
X260847109Y-146147786D01*
X260972048Y-145975820D01*
X260972047Y-145975820D01*
X260972051Y-145975816D01*
X261068557Y-145786412D01*
X261134246Y-145584243D01*
X261167500Y-145374287D01*
X261167500Y-145161713D01*
X261134246Y-144951757D01*
X261068557Y-144749588D01*
X261044307Y-144701995D01*
X268628000Y-144701995D01*
X268628000Y-144938004D01*
X268628001Y-144938020D01*
X268657450Y-145161713D01*
X268658807Y-145172014D01*
X268690960Y-145292010D01*
X268719894Y-145399993D01*
X268810214Y-145618045D01*
X268810219Y-145618056D01*
X268879496Y-145738045D01*
X268928227Y-145822450D01*
X268928229Y-145822453D01*
X268928230Y-145822454D01*
X269071906Y-146009697D01*
X269071912Y-146009704D01*
X269238795Y-146176587D01*
X269238801Y-146176592D01*
X269426050Y-146320273D01*
X269557418Y-146396118D01*
X269630443Y-146438280D01*
X269630448Y-146438282D01*
X269630451Y-146438284D01*
X269848507Y-146528606D01*
X270076486Y-146589693D01*
X270310489Y-146620500D01*
X270310496Y-146620500D01*
X270546504Y-146620500D01*
X270546511Y-146620500D01*
X270780514Y-146589693D01*
X271008493Y-146528606D01*
X271226549Y-146438284D01*
X271430950Y-146320273D01*
X271618199Y-146176592D01*
X271785092Y-146009699D01*
X271928773Y-145822450D01*
X272046784Y-145618049D01*
X272137106Y-145399993D01*
X272198193Y-145172014D01*
X272229000Y-144938011D01*
X272229000Y-144701989D01*
X272198193Y-144467986D01*
X272137106Y-144240007D01*
X272046784Y-144021951D01*
X272046782Y-144021948D01*
X272046780Y-144021943D01*
X271996866Y-143935491D01*
X271928773Y-143817550D01*
X271785092Y-143630301D01*
X271785087Y-143630295D01*
X271618204Y-143463412D01*
X271618197Y-143463406D01*
X271430954Y-143319730D01*
X271430953Y-143319729D01*
X271430950Y-143319727D01*
X271349457Y-143272677D01*
X271226556Y-143201719D01*
X271226545Y-143201714D01*
X271008493Y-143111394D01*
X270780514Y-143050307D01*
X270780513Y-143050306D01*
X270780510Y-143050306D01*
X270546520Y-143019501D01*
X270546517Y-143019500D01*
X270546511Y-143019500D01*
X270310489Y-143019500D01*
X270310483Y-143019500D01*
X270310479Y-143019501D01*
X270076489Y-143050306D01*
X269848506Y-143111394D01*
X269630454Y-143201714D01*
X269630443Y-143201719D01*
X269426045Y-143319730D01*
X269238802Y-143463406D01*
X269238795Y-143463412D01*
X269071912Y-143630295D01*
X269071906Y-143630302D01*
X268928230Y-143817545D01*
X268810219Y-144021943D01*
X268810214Y-144021954D01*
X268719894Y-144240006D01*
X268658806Y-144467989D01*
X268628001Y-144701979D01*
X268628000Y-144701995D01*
X261044307Y-144701995D01*
X260972051Y-144560184D01*
X260972049Y-144560181D01*
X260972048Y-144560179D01*
X260847109Y-144388213D01*
X260696786Y-144237890D01*
X260524820Y-144112951D01*
X260524115Y-144112591D01*
X260516054Y-144108485D01*
X260465259Y-144060512D01*
X260448463Y-143992692D01*
X260470999Y-143926556D01*
X260516054Y-143887515D01*
X260524816Y-143883051D01*
X260620456Y-143813565D01*
X260696786Y-143758109D01*
X260696788Y-143758106D01*
X260696792Y-143758104D01*
X260847104Y-143607792D01*
X260847106Y-143607788D01*
X260847109Y-143607786D01*
X260969207Y-143439730D01*
X260972051Y-143435816D01*
X261068557Y-143246412D01*
X261134246Y-143044243D01*
X261167500Y-142834287D01*
X261167500Y-142621713D01*
X261134246Y-142411757D01*
X261068557Y-142209588D01*
X260972051Y-142020184D01*
X260972049Y-142020181D01*
X260972048Y-142020179D01*
X260847109Y-141848213D01*
X260696786Y-141697890D01*
X260524820Y-141572951D01*
X260335414Y-141476444D01*
X260335413Y-141476443D01*
X260335412Y-141476443D01*
X260133243Y-141410754D01*
X260133241Y-141410753D01*
X260133240Y-141410753D01*
X259971957Y-141385208D01*
X259923287Y-141377500D01*
X259710713Y-141377500D01*
X259662042Y-141385208D01*
X259500760Y-141410753D01*
X259500757Y-141410754D01*
X259353331Y-141458656D01*
X259298585Y-141476444D01*
X259109179Y-141572951D01*
X258937213Y-141697890D01*
X258786890Y-141848213D01*
X258661951Y-142020179D01*
X258565444Y-142209585D01*
X258499753Y-142411760D01*
X258495123Y-142440993D01*
X258466500Y-142621713D01*
X256500315Y-142621713D01*
X256592868Y-142529160D01*
X257985209Y-141136819D01*
X258046532Y-141103334D01*
X258072890Y-141100500D01*
X269111347Y-141100500D01*
X269178386Y-141120185D01*
X269199029Y-141136820D01*
X269238796Y-141176588D01*
X269238801Y-141176592D01*
X269426050Y-141320273D01*
X269557418Y-141396118D01*
X269630443Y-141438280D01*
X269630448Y-141438282D01*
X269630451Y-141438284D01*
X269848507Y-141528606D01*
X270076486Y-141589693D01*
X270310489Y-141620500D01*
X270310496Y-141620500D01*
X270546504Y-141620500D01*
X270546511Y-141620500D01*
X270780514Y-141589693D01*
X271008493Y-141528606D01*
X271226549Y-141438284D01*
X271430950Y-141320273D01*
X271618199Y-141176592D01*
X271785092Y-141009699D01*
X271928773Y-140822450D01*
X272046784Y-140618049D01*
X272137106Y-140399993D01*
X272198193Y-140172014D01*
X272229000Y-139938011D01*
X272229000Y-139701989D01*
X272198193Y-139467986D01*
X272137106Y-139240007D01*
X272046784Y-139021951D01*
X272046782Y-139021948D01*
X272046780Y-139021943D01*
X271987667Y-138919557D01*
X271928773Y-138817550D01*
X271837119Y-138698104D01*
X271785093Y-138630302D01*
X271785087Y-138630295D01*
X271618204Y-138463412D01*
X271618197Y-138463406D01*
X271430954Y-138319730D01*
X271430953Y-138319729D01*
X271430950Y-138319727D01*
X271349457Y-138272677D01*
X271226556Y-138201719D01*
X271226545Y-138201714D01*
X271008493Y-138111394D01*
X270780510Y-138050306D01*
X270546520Y-138019501D01*
X270546517Y-138019500D01*
X270546511Y-138019500D01*
X270310489Y-138019500D01*
X270310483Y-138019500D01*
X270310479Y-138019501D01*
X270076487Y-138050306D01*
X269908663Y-138095275D01*
X269876570Y-138099500D01*
X257281903Y-138099500D01*
X257048631Y-138136446D01*
X256824003Y-138209433D01*
X256613563Y-138316659D01*
X256422496Y-138455476D01*
X256422491Y-138455480D01*
X251255485Y-143622487D01*
X251255484Y-143622488D01*
X251116657Y-143813565D01*
X251050989Y-143942447D01*
X251009434Y-144024003D01*
X250936446Y-144248631D01*
X250899500Y-144481902D01*
X250899500Y-150465191D01*
X250879815Y-150532230D01*
X250863181Y-150552872D01*
X245910181Y-155505872D01*
X245848858Y-155539357D01*
X245779166Y-155534373D01*
X245723233Y-155492501D01*
X245698816Y-155427037D01*
X245698500Y-155418191D01*
X245698500Y-155341713D01*
X245695332Y-155321713D01*
X245665246Y-155131757D01*
X245599557Y-154929588D01*
X245503051Y-154740184D01*
X245503049Y-154740181D01*
X245503048Y-154740179D01*
X245378109Y-154568213D01*
X245227786Y-154417890D01*
X245055820Y-154292951D01*
X245055115Y-154292591D01*
X245047054Y-154288485D01*
X244996259Y-154240512D01*
X244979463Y-154172692D01*
X245001999Y-154106556D01*
X245047054Y-154067515D01*
X245055816Y-154063051D01*
X245083348Y-154043048D01*
X245227786Y-153938109D01*
X245227788Y-153938106D01*
X245227792Y-153938104D01*
X245378104Y-153787792D01*
X245378106Y-153787788D01*
X245378109Y-153787786D01*
X245487086Y-153637789D01*
X245503051Y-153615816D01*
X245599557Y-153426412D01*
X245665246Y-153224243D01*
X245698500Y-153014287D01*
X245698500Y-152801713D01*
X245665246Y-152591757D01*
X245599557Y-152389588D01*
X245503051Y-152200184D01*
X245503049Y-152200181D01*
X245503048Y-152200179D01*
X245378109Y-152028213D01*
X245227790Y-151877894D01*
X245227785Y-151877890D01*
X245163277Y-151831022D01*
X245120611Y-151775692D01*
X245114632Y-151706079D01*
X245147238Y-151644284D01*
X245163273Y-151630389D01*
X245325510Y-151512517D01*
X245492517Y-151345510D01*
X245631343Y-151154433D01*
X245738568Y-150943992D01*
X245811553Y-150719368D01*
X245827599Y-150618056D01*
X245848500Y-150486097D01*
X245848500Y-150249902D01*
X245811553Y-150016631D01*
X245777689Y-149912412D01*
X245738568Y-149792008D01*
X245738566Y-149792005D01*
X245738566Y-149792003D01*
X245634615Y-149587989D01*
X245631343Y-149581567D01*
X245492517Y-149390490D01*
X245325510Y-149223483D01*
X245163275Y-149105612D01*
X245120611Y-149050283D01*
X245114632Y-148980669D01*
X245147238Y-148918874D01*
X245163278Y-148904976D01*
X245227788Y-148858107D01*
X245227788Y-148858106D01*
X245227792Y-148858104D01*
X245378104Y-148707792D01*
X245378106Y-148707788D01*
X245378109Y-148707786D01*
X245503048Y-148535820D01*
X245503049Y-148535819D01*
X245503051Y-148535816D01*
X245599557Y-148346412D01*
X245665246Y-148144243D01*
X245698500Y-147934287D01*
X245698500Y-147721713D01*
X245665246Y-147511757D01*
X245599557Y-147309588D01*
X245503051Y-147120184D01*
X245503049Y-147120181D01*
X245503048Y-147120179D01*
X245378109Y-146948213D01*
X245227786Y-146797890D01*
X245055820Y-146672951D01*
X245055115Y-146672591D01*
X245047054Y-146668485D01*
X244996259Y-146620512D01*
X244979463Y-146552692D01*
X245001999Y-146486556D01*
X245047054Y-146447515D01*
X245055816Y-146443051D01*
X245224807Y-146320273D01*
X245227786Y-146318109D01*
X245227788Y-146318106D01*
X245227792Y-146318104D01*
X245378104Y-146167792D01*
X245378106Y-146167788D01*
X245378109Y-146167786D01*
X245503048Y-145995820D01*
X245503047Y-145995820D01*
X245503051Y-145995816D01*
X245599557Y-145806412D01*
X245665246Y-145604243D01*
X245698500Y-145394287D01*
X245698500Y-145181713D01*
X245665246Y-144971757D01*
X245599557Y-144769588D01*
X245503051Y-144580184D01*
X245503049Y-144580181D01*
X245503048Y-144580179D01*
X245378109Y-144408213D01*
X245264181Y-144294285D01*
X245230696Y-144232962D01*
X245235680Y-144163270D01*
X245277552Y-144107337D01*
X245308529Y-144090422D01*
X245440086Y-144041354D01*
X245440093Y-144041350D01*
X245555187Y-143955190D01*
X245555190Y-143955187D01*
X245641350Y-143840093D01*
X245641354Y-143840086D01*
X245691596Y-143705379D01*
X245691598Y-143705372D01*
X245697999Y-143645844D01*
X245698000Y-143645827D01*
X245698000Y-142998000D01*
X244781012Y-142998000D01*
X244813925Y-142940993D01*
X244848000Y-142813826D01*
X244848000Y-142682174D01*
X244813925Y-142555007D01*
X244781012Y-142498000D01*
X245698000Y-142498000D01*
X245698000Y-141850172D01*
X245697999Y-141850155D01*
X245691598Y-141790627D01*
X245691596Y-141790620D01*
X245641354Y-141655913D01*
X245641350Y-141655906D01*
X245555190Y-141540812D01*
X245555187Y-141540809D01*
X245440093Y-141454649D01*
X245440086Y-141454645D01*
X245305379Y-141404403D01*
X245305372Y-141404401D01*
X245245844Y-141398000D01*
X244598000Y-141398000D01*
X244598000Y-142314988D01*
X244540993Y-142282075D01*
X244413826Y-142248000D01*
X244282174Y-142248000D01*
X244155007Y-142282075D01*
X244098000Y-142314988D01*
X244098000Y-141398000D01*
X243450155Y-141398000D01*
X243390627Y-141404401D01*
X243390620Y-141404403D01*
X243255913Y-141454645D01*
X243255906Y-141454649D01*
X243140812Y-141540809D01*
X243140809Y-141540812D01*
X243054649Y-141655906D01*
X243054645Y-141655913D01*
X243004403Y-141790620D01*
X243004401Y-141790627D01*
X242998000Y-141850155D01*
X242998000Y-142498000D01*
X243914988Y-142498000D01*
X243882075Y-142555007D01*
X243848000Y-142682174D01*
X243848000Y-142813826D01*
X243882075Y-142940993D01*
X243914988Y-142998000D01*
X242998000Y-142998000D01*
X242998000Y-143645844D01*
X243004401Y-143705372D01*
X243004403Y-143705379D01*
X243054645Y-143840086D01*
X243054649Y-143840093D01*
X243140809Y-143955187D01*
X243140812Y-143955190D01*
X243255906Y-144041350D01*
X243255913Y-144041354D01*
X243387470Y-144090422D01*
X243443404Y-144132293D01*
X243467821Y-144197758D01*
X243452969Y-144266031D01*
X243431819Y-144294285D01*
X243317892Y-144408212D01*
X243261097Y-144486385D01*
X243205767Y-144529051D01*
X243160779Y-144537500D01*
X220362782Y-144537500D01*
X220295743Y-144517815D01*
X220249988Y-144465011D01*
X220240044Y-144395853D01*
X220269069Y-144332297D01*
X220275101Y-144325819D01*
X225946101Y-138654819D01*
X226007424Y-138621334D01*
X226033782Y-138618500D01*
X234805859Y-138618500D01*
X234872898Y-138638185D01*
X234918653Y-138690989D01*
X234922030Y-138699140D01*
X234926204Y-138710331D01*
X234926205Y-138710332D01*
X234926206Y-138710335D01*
X235012452Y-138825544D01*
X235012455Y-138825547D01*
X235127664Y-138911793D01*
X235127671Y-138911797D01*
X235262517Y-138962091D01*
X235262516Y-138962091D01*
X235269444Y-138962835D01*
X235322127Y-138968500D01*
X237117872Y-138968499D01*
X237177483Y-138962091D01*
X237312331Y-138911796D01*
X237427546Y-138825546D01*
X237513796Y-138710331D01*
X237564091Y-138575483D01*
X237570500Y-138515873D01*
X237570499Y-136720128D01*
X237564091Y-136660517D01*
X237562387Y-136655949D01*
X237513797Y-136525671D01*
X237513793Y-136525664D01*
X237427547Y-136410455D01*
X237427544Y-136410452D01*
X237312335Y-136324206D01*
X237312328Y-136324202D01*
X237180917Y-136275189D01*
X237124983Y-136233318D01*
X237100566Y-136167853D01*
X237115418Y-136099580D01*
X237136563Y-136071332D01*
X237250104Y-135957792D01*
X237375051Y-135785816D01*
X237471557Y-135596412D01*
X237537246Y-135394243D01*
X237570500Y-135184287D01*
X237570500Y-135025648D01*
X239237500Y-135025648D01*
X239237500Y-135230351D01*
X239269522Y-135432534D01*
X239332781Y-135627223D01*
X239396691Y-135752653D01*
X239413591Y-135785820D01*
X239425715Y-135809613D01*
X239546028Y-135975213D01*
X239690786Y-136119971D01*
X239804161Y-136202341D01*
X239856390Y-136240287D01*
X239940319Y-136283051D01*
X240038776Y-136333218D01*
X240038778Y-136333218D01*
X240038781Y-136333220D01*
X240143137Y-136367127D01*
X240233465Y-136396477D01*
X240321699Y-136410452D01*
X240435648Y-136428500D01*
X240435649Y-136428500D01*
X240640351Y-136428500D01*
X240640352Y-136428500D01*
X240842534Y-136396477D01*
X241037219Y-136333220D01*
X241219610Y-136240287D01*
X241332726Y-136158104D01*
X241385213Y-136119971D01*
X241385215Y-136119968D01*
X241385219Y-136119966D01*
X241529966Y-135975219D01*
X241529968Y-135975215D01*
X241529971Y-135975213D01*
X241631247Y-135835816D01*
X241650287Y-135809610D01*
X241743220Y-135627219D01*
X241806477Y-135432534D01*
X241838500Y-135230352D01*
X241838500Y-135025648D01*
X246857500Y-135025648D01*
X246857500Y-135230351D01*
X246889522Y-135432534D01*
X246952781Y-135627223D01*
X247016691Y-135752653D01*
X247033591Y-135785820D01*
X247045715Y-135809613D01*
X247166028Y-135975213D01*
X247310786Y-136119971D01*
X247424161Y-136202341D01*
X247476390Y-136240287D01*
X247560319Y-136283051D01*
X247658776Y-136333218D01*
X247658778Y-136333218D01*
X247658781Y-136333220D01*
X247763137Y-136367127D01*
X247853465Y-136396477D01*
X247941699Y-136410452D01*
X248055648Y-136428500D01*
X248055649Y-136428500D01*
X248260351Y-136428500D01*
X248260352Y-136428500D01*
X248462534Y-136396477D01*
X248657219Y-136333220D01*
X248839610Y-136240287D01*
X248952726Y-136158104D01*
X249005213Y-136119971D01*
X249005215Y-136119968D01*
X249005219Y-136119966D01*
X249149966Y-135975219D01*
X249149968Y-135975215D01*
X249149971Y-135975213D01*
X249251247Y-135835816D01*
X249270287Y-135809610D01*
X249363220Y-135627219D01*
X249426477Y-135432534D01*
X249458500Y-135230352D01*
X249458500Y-135025648D01*
X249426477Y-134823466D01*
X249422673Y-134811760D01*
X249406910Y-134763245D01*
X249392385Y-134718543D01*
X256555499Y-134718543D01*
X256593947Y-134911829D01*
X256593950Y-134911839D01*
X256669364Y-135093907D01*
X256669371Y-135093920D01*
X256778860Y-135257781D01*
X256778863Y-135257785D01*
X256918214Y-135397136D01*
X256918218Y-135397139D01*
X257082079Y-135506628D01*
X257082092Y-135506635D01*
X257264160Y-135582049D01*
X257264165Y-135582051D01*
X257264169Y-135582051D01*
X257264170Y-135582052D01*
X257457456Y-135620500D01*
X257457459Y-135620500D01*
X257654543Y-135620500D01*
X257784582Y-135594632D01*
X257847835Y-135582051D01*
X258029914Y-135506632D01*
X258193782Y-135397139D01*
X258333139Y-135257782D01*
X258442632Y-135093914D01*
X258446126Y-135085480D01*
X258518049Y-134911839D01*
X258518051Y-134911835D01*
X258556500Y-134718541D01*
X258556500Y-134521459D01*
X258556500Y-134521456D01*
X258518052Y-134328170D01*
X258518051Y-134328169D01*
X258518051Y-134328165D01*
X258501641Y-134288547D01*
X258442635Y-134146092D01*
X258442628Y-134146079D01*
X258333139Y-133982218D01*
X258333136Y-133982214D01*
X258193785Y-133842863D01*
X258193781Y-133842860D01*
X258029920Y-133733371D01*
X258029907Y-133733364D01*
X257847839Y-133657950D01*
X257847829Y-133657947D01*
X257654543Y-133619500D01*
X257654541Y-133619500D01*
X257457459Y-133619500D01*
X257457457Y-133619500D01*
X257264170Y-133657947D01*
X257264160Y-133657950D01*
X257082092Y-133733364D01*
X257082079Y-133733371D01*
X256918218Y-133842860D01*
X256918214Y-133842863D01*
X256778863Y-133982214D01*
X256778860Y-133982218D01*
X256669371Y-134146079D01*
X256669364Y-134146092D01*
X256593950Y-134328160D01*
X256593947Y-134328170D01*
X256555500Y-134521456D01*
X256555500Y-134521459D01*
X256555500Y-134718541D01*
X256555500Y-134718543D01*
X256555499Y-134718543D01*
X249392385Y-134718543D01*
X249363220Y-134628781D01*
X249363217Y-134628777D01*
X249363217Y-134628774D01*
X249334117Y-134571663D01*
X249334116Y-134571662D01*
X249327964Y-134559588D01*
X249270287Y-134446390D01*
X249270285Y-134446387D01*
X249270284Y-134446385D01*
X249149971Y-134280786D01*
X249005213Y-134136028D01*
X248839613Y-134015715D01*
X248839612Y-134015714D01*
X248839610Y-134015713D01*
X248782653Y-133986691D01*
X248657223Y-133922781D01*
X248462534Y-133859522D01*
X248287995Y-133831878D01*
X248260352Y-133827500D01*
X248055648Y-133827500D01*
X248031329Y-133831351D01*
X247853465Y-133859522D01*
X247658776Y-133922781D01*
X247476386Y-134015715D01*
X247310786Y-134136028D01*
X247166028Y-134280786D01*
X247045715Y-134446386D01*
X246952781Y-134628776D01*
X246889522Y-134823465D01*
X246857500Y-135025648D01*
X241838500Y-135025648D01*
X241806477Y-134823466D01*
X241802673Y-134811760D01*
X241743218Y-134628776D01*
X241704348Y-134552491D01*
X241650287Y-134446390D01*
X241637799Y-134429202D01*
X241529971Y-134280786D01*
X241385213Y-134136028D01*
X241219613Y-134015715D01*
X241219612Y-134015714D01*
X241219610Y-134015713D01*
X241162653Y-133986691D01*
X241037223Y-133922781D01*
X240842534Y-133859522D01*
X240667995Y-133831878D01*
X240640352Y-133827500D01*
X240435648Y-133827500D01*
X240411329Y-133831351D01*
X240233465Y-133859522D01*
X240038776Y-133922781D01*
X239856386Y-134015715D01*
X239690786Y-134136028D01*
X239546028Y-134280786D01*
X239425715Y-134446386D01*
X239332781Y-134628776D01*
X239269522Y-134823465D01*
X239237500Y-135025648D01*
X237570500Y-135025648D01*
X237570500Y-134971713D01*
X237537246Y-134761757D01*
X237471557Y-134559588D01*
X237375051Y-134370184D01*
X237375049Y-134370181D01*
X237375048Y-134370179D01*
X237250109Y-134198213D01*
X237099786Y-134047890D01*
X236927820Y-133922951D01*
X236923033Y-133920512D01*
X236919054Y-133918485D01*
X236868259Y-133870512D01*
X236851463Y-133802692D01*
X236873999Y-133736556D01*
X236919054Y-133697515D01*
X236927816Y-133693051D01*
X237030966Y-133618109D01*
X237099786Y-133568109D01*
X237099788Y-133568106D01*
X237099792Y-133568104D01*
X237250104Y-133417792D01*
X237250106Y-133417788D01*
X237250109Y-133417786D01*
X237375048Y-133245820D01*
X237375047Y-133245820D01*
X237375051Y-133245816D01*
X237471557Y-133056412D01*
X237537246Y-132854243D01*
X237570500Y-132644287D01*
X237570500Y-132431713D01*
X237537246Y-132221757D01*
X237471557Y-132019588D01*
X237375051Y-131830184D01*
X237375049Y-131830181D01*
X237375048Y-131830179D01*
X237250109Y-131658213D01*
X237099786Y-131507890D01*
X236927820Y-131382951D01*
X236923033Y-131380512D01*
X236919054Y-131378485D01*
X236868259Y-131330512D01*
X236851463Y-131262692D01*
X236873999Y-131196556D01*
X236919054Y-131157515D01*
X236927816Y-131153051D01*
X237030966Y-131078109D01*
X237099786Y-131028109D01*
X237099788Y-131028106D01*
X237099792Y-131028104D01*
X237250104Y-130877792D01*
X237250106Y-130877788D01*
X237250109Y-130877786D01*
X237375048Y-130705820D01*
X237375047Y-130705820D01*
X237375051Y-130705816D01*
X237471557Y-130516412D01*
X237537246Y-130314243D01*
X237546908Y-130253236D01*
X237576835Y-130190106D01*
X237581681Y-130184974D01*
X238796114Y-128970543D01*
X238872775Y-128855811D01*
X238925580Y-128728328D01*
X238934389Y-128684040D01*
X238952500Y-128592996D01*
X238952500Y-126590543D01*
X239791499Y-126590543D01*
X239829947Y-126783829D01*
X239829950Y-126783839D01*
X239905364Y-126965907D01*
X239905371Y-126965920D01*
X240014860Y-127129781D01*
X240014863Y-127129785D01*
X240154214Y-127269136D01*
X240154218Y-127269139D01*
X240318079Y-127378628D01*
X240318092Y-127378635D01*
X240500160Y-127454049D01*
X240500165Y-127454051D01*
X240500169Y-127454051D01*
X240500170Y-127454052D01*
X240693456Y-127492500D01*
X240693459Y-127492500D01*
X240890543Y-127492500D01*
X241020582Y-127466632D01*
X241083835Y-127454051D01*
X241265914Y-127378632D01*
X241429782Y-127269139D01*
X241569139Y-127129782D01*
X241678632Y-126965914D01*
X241754051Y-126783835D01*
X241780573Y-126650500D01*
X241792500Y-126590543D01*
X241792500Y-126393456D01*
X241754052Y-126200170D01*
X241754051Y-126200169D01*
X241754051Y-126200165D01*
X241754049Y-126200160D01*
X241678635Y-126018092D01*
X241678628Y-126018079D01*
X241569139Y-125854218D01*
X241569136Y-125854214D01*
X241429785Y-125714863D01*
X241429781Y-125714860D01*
X241265920Y-125605371D01*
X241265907Y-125605364D01*
X241083839Y-125529950D01*
X241083829Y-125529947D01*
X240890543Y-125491500D01*
X240890541Y-125491500D01*
X240693459Y-125491500D01*
X240693457Y-125491500D01*
X240500170Y-125529947D01*
X240500160Y-125529950D01*
X240318092Y-125605364D01*
X240318079Y-125605371D01*
X240154218Y-125714860D01*
X240154214Y-125714863D01*
X240014863Y-125854214D01*
X240014860Y-125854218D01*
X239905371Y-126018079D01*
X239905364Y-126018092D01*
X239829950Y-126200160D01*
X239829947Y-126200170D01*
X239791500Y-126393456D01*
X239791500Y-126393459D01*
X239791500Y-126590541D01*
X239791500Y-126590543D01*
X239791499Y-126590543D01*
X238952500Y-126590543D01*
X238952500Y-121352519D01*
X238972185Y-121285480D01*
X238988819Y-121264838D01*
X242269838Y-117983819D01*
X242331161Y-117950334D01*
X242357519Y-117947500D01*
X242414543Y-117947500D01*
X242583744Y-117913843D01*
X242607835Y-117909051D01*
X242789914Y-117833632D01*
X242953782Y-117724139D01*
X243093139Y-117584782D01*
X243202632Y-117420914D01*
X243209520Y-117404286D01*
X243220462Y-117377868D01*
X243278051Y-117238835D01*
X243303278Y-117112014D01*
X243316500Y-117045543D01*
X243316500Y-116848456D01*
X243316499Y-116848454D01*
X243295171Y-116741227D01*
X243291327Y-116721902D01*
X254531500Y-116721902D01*
X254531500Y-116958097D01*
X254568446Y-117191368D01*
X254641433Y-117415996D01*
X254739567Y-117608593D01*
X254748657Y-117626433D01*
X254887483Y-117817510D01*
X255054490Y-117984517D01*
X255245567Y-118123343D01*
X255344991Y-118174002D01*
X255456003Y-118230566D01*
X255456005Y-118230566D01*
X255456008Y-118230568D01*
X255576412Y-118269689D01*
X255680631Y-118303553D01*
X255913903Y-118340500D01*
X255913908Y-118340500D01*
X264786097Y-118340500D01*
X265019368Y-118303553D01*
X265113412Y-118272996D01*
X265243992Y-118230568D01*
X265454434Y-118123343D01*
X265645510Y-117984517D01*
X268655500Y-114974525D01*
X268716823Y-114941041D01*
X268786515Y-114946025D01*
X268842448Y-114987897D01*
X268866865Y-115053361D01*
X268852013Y-115121634D01*
X268841557Y-115137693D01*
X268755730Y-115249545D01*
X268637719Y-115453943D01*
X268637714Y-115453954D01*
X268547394Y-115672006D01*
X268486306Y-115899989D01*
X268455501Y-116133979D01*
X268455500Y-116133995D01*
X268455500Y-116370004D01*
X268455501Y-116370020D01*
X268486306Y-116604010D01*
X268547394Y-116831993D01*
X268637714Y-117050045D01*
X268637719Y-117050056D01*
X268708677Y-117172957D01*
X268755727Y-117254450D01*
X268755729Y-117254453D01*
X268755730Y-117254454D01*
X268899406Y-117441697D01*
X268899412Y-117441704D01*
X269066295Y-117608587D01*
X269066302Y-117608593D01*
X269107018Y-117639835D01*
X269253550Y-117752273D01*
X269374160Y-117821907D01*
X269457943Y-117870280D01*
X269457948Y-117870282D01*
X269457951Y-117870284D01*
X269676007Y-117960606D01*
X269903986Y-118021693D01*
X270137989Y-118052500D01*
X270137996Y-118052500D01*
X270374004Y-118052500D01*
X270374011Y-118052500D01*
X270608014Y-118021693D01*
X270835993Y-117960606D01*
X271054049Y-117870284D01*
X271258450Y-117752273D01*
X271445699Y-117608592D01*
X271612592Y-117441699D01*
X271756273Y-117254450D01*
X271874284Y-117050049D01*
X271964606Y-116831993D01*
X272025693Y-116604014D01*
X272056500Y-116370011D01*
X272056500Y-116133989D01*
X272025693Y-115899986D01*
X271964606Y-115672007D01*
X271874284Y-115453951D01*
X271874282Y-115453948D01*
X271874280Y-115453943D01*
X271829536Y-115376446D01*
X271756273Y-115249550D01*
X271690237Y-115163490D01*
X271612593Y-115062302D01*
X271612587Y-115062295D01*
X271445704Y-114895412D01*
X271445697Y-114895406D01*
X271258454Y-114751730D01*
X271258453Y-114751729D01*
X271258450Y-114751727D01*
X271110064Y-114666056D01*
X271054056Y-114633719D01*
X271054045Y-114633714D01*
X270835993Y-114543394D01*
X270608010Y-114482306D01*
X270374020Y-114451501D01*
X270374017Y-114451500D01*
X270374011Y-114451500D01*
X270137989Y-114451500D01*
X270137983Y-114451500D01*
X270137979Y-114451501D01*
X269903989Y-114482306D01*
X269676006Y-114543394D01*
X269457954Y-114633714D01*
X269457943Y-114633719D01*
X269253545Y-114751730D01*
X269141692Y-114837557D01*
X269076522Y-114862751D01*
X269008078Y-114848712D01*
X268958088Y-114799898D01*
X268942425Y-114731806D01*
X268966062Y-114666056D01*
X268978517Y-114651509D01*
X270584958Y-113045067D01*
X270640541Y-113012976D01*
X270835993Y-112960606D01*
X271054049Y-112870284D01*
X271258450Y-112752273D01*
X271445699Y-112608592D01*
X271612592Y-112441699D01*
X271756273Y-112254450D01*
X271874284Y-112050049D01*
X271964606Y-111831993D01*
X272025693Y-111604014D01*
X272056500Y-111370011D01*
X272056500Y-111133989D01*
X272025693Y-110899986D01*
X271964606Y-110672007D01*
X271874284Y-110453951D01*
X271874282Y-110453948D01*
X271874280Y-110453943D01*
X271828729Y-110375048D01*
X271756273Y-110249550D01*
X271697001Y-110172306D01*
X271612593Y-110062302D01*
X271612587Y-110062295D01*
X271445704Y-109895412D01*
X271445697Y-109895406D01*
X271258454Y-109751730D01*
X271258453Y-109751729D01*
X271258450Y-109751727D01*
X271176957Y-109704677D01*
X271054056Y-109633719D01*
X271054045Y-109633714D01*
X270835993Y-109543394D01*
X270608010Y-109482306D01*
X270374020Y-109451501D01*
X270374017Y-109451500D01*
X270374011Y-109451500D01*
X270137989Y-109451500D01*
X270137983Y-109451500D01*
X270137979Y-109451501D01*
X269903989Y-109482306D01*
X269676006Y-109543394D01*
X269457954Y-109633714D01*
X269457943Y-109633719D01*
X269253545Y-109751730D01*
X269066302Y-109895406D01*
X269066295Y-109895412D01*
X268899412Y-110062295D01*
X268899406Y-110062302D01*
X268755730Y-110249545D01*
X268637719Y-110453943D01*
X268637714Y-110453954D01*
X268547394Y-110672006D01*
X268495023Y-110867455D01*
X268462929Y-110923042D01*
X264082792Y-115303181D01*
X264021469Y-115336666D01*
X263995111Y-115339500D01*
X255913903Y-115339500D01*
X255680631Y-115376446D01*
X255456003Y-115449433D01*
X255245566Y-115556657D01*
X255136550Y-115635862D01*
X255054490Y-115695483D01*
X255054488Y-115695485D01*
X255054487Y-115695485D01*
X254887485Y-115862487D01*
X254887485Y-115862488D01*
X254887483Y-115862490D01*
X254850749Y-115913050D01*
X254748657Y-116053566D01*
X254641433Y-116264003D01*
X254568446Y-116488631D01*
X254531500Y-116721902D01*
X243291327Y-116721902D01*
X243278052Y-116655170D01*
X243278051Y-116655169D01*
X243278051Y-116655165D01*
X243251133Y-116590179D01*
X243202635Y-116473092D01*
X243202628Y-116473079D01*
X243093139Y-116309218D01*
X243093136Y-116309214D01*
X242953785Y-116169863D01*
X242953781Y-116169860D01*
X242789920Y-116060371D01*
X242789907Y-116060364D01*
X242607839Y-115984950D01*
X242607829Y-115984947D01*
X242414543Y-115946500D01*
X242414541Y-115946500D01*
X242217459Y-115946500D01*
X242217457Y-115946500D01*
X242024170Y-115984947D01*
X242024160Y-115984950D01*
X241842092Y-116060364D01*
X241842079Y-116060371D01*
X241678218Y-116169860D01*
X241678214Y-116169863D01*
X241538863Y-116309214D01*
X241538860Y-116309218D01*
X241429371Y-116473079D01*
X241429364Y-116473092D01*
X241353950Y-116655160D01*
X241353947Y-116655170D01*
X241315500Y-116848456D01*
X241315500Y-116905480D01*
X241295815Y-116972519D01*
X241279181Y-116993161D01*
X237707888Y-120564453D01*
X237707887Y-120564454D01*
X237631222Y-120679192D01*
X237578421Y-120806667D01*
X237578418Y-120806679D01*
X237556255Y-120918102D01*
X237556255Y-120918106D01*
X237551500Y-120942007D01*
X237551500Y-121531411D01*
X237531815Y-121598450D01*
X237479011Y-121644205D01*
X237409853Y-121654149D01*
X237346297Y-121625124D01*
X237327182Y-121604296D01*
X237250109Y-121498214D01*
X237250105Y-121498209D01*
X237099786Y-121347890D01*
X236927820Y-121222951D01*
X236923033Y-121220512D01*
X236919054Y-121218485D01*
X236868259Y-121170512D01*
X236851463Y-121102692D01*
X236873999Y-121036556D01*
X236919054Y-120997515D01*
X236927816Y-120993051D01*
X237030970Y-120918106D01*
X237099786Y-120868109D01*
X237099788Y-120868106D01*
X237099792Y-120868104D01*
X237250104Y-120717792D01*
X237250106Y-120717788D01*
X237250109Y-120717786D01*
X237375048Y-120545820D01*
X237375047Y-120545820D01*
X237375051Y-120545816D01*
X237471557Y-120356412D01*
X237537246Y-120154243D01*
X237570500Y-119944287D01*
X237570500Y-119731713D01*
X237537246Y-119521757D01*
X237471557Y-119319588D01*
X237375051Y-119130184D01*
X237375049Y-119130181D01*
X237375048Y-119130179D01*
X237250109Y-118958213D01*
X237099786Y-118807890D01*
X236927820Y-118682951D01*
X236923033Y-118680512D01*
X236919054Y-118678485D01*
X236868259Y-118630512D01*
X236851463Y-118562692D01*
X236873999Y-118496556D01*
X236919054Y-118457515D01*
X236927816Y-118453051D01*
X236989367Y-118408332D01*
X237099786Y-118328109D01*
X237099788Y-118328106D01*
X237099792Y-118328104D01*
X237250104Y-118177792D01*
X237250106Y-118177788D01*
X237250109Y-118177786D01*
X237375048Y-118005820D01*
X237375047Y-118005820D01*
X237375051Y-118005816D01*
X237471557Y-117816412D01*
X237537246Y-117614243D01*
X237570500Y-117404287D01*
X237570500Y-117191713D01*
X237537246Y-116981757D01*
X237471557Y-116779588D01*
X237375051Y-116590184D01*
X237375049Y-116590181D01*
X237375048Y-116590179D01*
X237250109Y-116418213D01*
X237099786Y-116267890D01*
X236927820Y-116142951D01*
X236927115Y-116142591D01*
X236919054Y-116138485D01*
X236868259Y-116090512D01*
X236851463Y-116022692D01*
X236873999Y-115956556D01*
X236919054Y-115917515D01*
X236927816Y-115913051D01*
X236997408Y-115862490D01*
X237099786Y-115788109D01*
X237099788Y-115788106D01*
X237099792Y-115788104D01*
X237250104Y-115637792D01*
X237250106Y-115637788D01*
X237250109Y-115637786D01*
X237375048Y-115465820D01*
X237375047Y-115465820D01*
X237375051Y-115465816D01*
X237471557Y-115276412D01*
X237537246Y-115074243D01*
X237570500Y-114864287D01*
X237570500Y-114651713D01*
X237537246Y-114441757D01*
X237471557Y-114239588D01*
X237375051Y-114050184D01*
X237375049Y-114050181D01*
X237375048Y-114050179D01*
X237250109Y-113878213D01*
X237099786Y-113727890D01*
X236927820Y-113602951D01*
X236923033Y-113600512D01*
X236919054Y-113598485D01*
X236868259Y-113550512D01*
X236851463Y-113482692D01*
X236873999Y-113416556D01*
X236919054Y-113377515D01*
X236927816Y-113373051D01*
X237030966Y-113298109D01*
X237099786Y-113248109D01*
X237099788Y-113248106D01*
X237099792Y-113248104D01*
X237250104Y-113097792D01*
X237250106Y-113097788D01*
X237250109Y-113097786D01*
X237375048Y-112925820D01*
X237375047Y-112925820D01*
X237375051Y-112925816D01*
X237471557Y-112736412D01*
X237537246Y-112534243D01*
X237570500Y-112324287D01*
X237570500Y-112111713D01*
X237537246Y-111901757D01*
X237471557Y-111699588D01*
X237375051Y-111510184D01*
X237375049Y-111510181D01*
X237375048Y-111510179D01*
X237250109Y-111338213D01*
X237099786Y-111187890D01*
X236927820Y-111062951D01*
X236923033Y-111060512D01*
X236919054Y-111058485D01*
X236868259Y-111010512D01*
X236851463Y-110942692D01*
X236873999Y-110876556D01*
X236919054Y-110837515D01*
X236927816Y-110833051D01*
X237030966Y-110758109D01*
X237099786Y-110708109D01*
X237099788Y-110708106D01*
X237099792Y-110708104D01*
X237250104Y-110557792D01*
X237250106Y-110557788D01*
X237250109Y-110557786D01*
X237375048Y-110385820D01*
X237375047Y-110385820D01*
X237375051Y-110385816D01*
X237471557Y-110196412D01*
X237537246Y-109994243D01*
X237570500Y-109784287D01*
X237570500Y-109571713D01*
X237537246Y-109361757D01*
X237471557Y-109159588D01*
X237375051Y-108970184D01*
X237375049Y-108970181D01*
X237375048Y-108970179D01*
X237250109Y-108798213D01*
X237099786Y-108647890D01*
X236927820Y-108522951D01*
X236923033Y-108520512D01*
X236919054Y-108518485D01*
X236868259Y-108470512D01*
X236851463Y-108402692D01*
X236873999Y-108336556D01*
X236919054Y-108297515D01*
X236927816Y-108293051D01*
X237030966Y-108218109D01*
X237099786Y-108168109D01*
X237099788Y-108168106D01*
X237099792Y-108168104D01*
X237250104Y-108017792D01*
X237250106Y-108017788D01*
X237250109Y-108017786D01*
X237375048Y-107845820D01*
X237375047Y-107845820D01*
X237375051Y-107845816D01*
X237471557Y-107656412D01*
X237537246Y-107454243D01*
X237570500Y-107244287D01*
X237570500Y-107031713D01*
X237537246Y-106821757D01*
X237471557Y-106619588D01*
X237375051Y-106430184D01*
X237375049Y-106430181D01*
X237375048Y-106430179D01*
X237250109Y-106258213D01*
X237099786Y-106107890D01*
X236927820Y-105982951D01*
X236923033Y-105980512D01*
X236919054Y-105978485D01*
X236868259Y-105930512D01*
X236851463Y-105862692D01*
X236873999Y-105796556D01*
X236919054Y-105757515D01*
X236927816Y-105753051D01*
X237030966Y-105678109D01*
X237099786Y-105628109D01*
X237099788Y-105628106D01*
X237099792Y-105628104D01*
X237250104Y-105477792D01*
X237250106Y-105477788D01*
X237250109Y-105477786D01*
X237375048Y-105305820D01*
X237375047Y-105305820D01*
X237375051Y-105305816D01*
X237471557Y-105116412D01*
X237537246Y-104914243D01*
X237570500Y-104704287D01*
X237570500Y-104491713D01*
X237537246Y-104281757D01*
X237471557Y-104079588D01*
X237375051Y-103890184D01*
X237375049Y-103890181D01*
X237375048Y-103890179D01*
X237250109Y-103718213D01*
X237099786Y-103567890D01*
X236927820Y-103442951D01*
X236927115Y-103442591D01*
X236919054Y-103438485D01*
X236868259Y-103390512D01*
X236851463Y-103322692D01*
X236873999Y-103256556D01*
X236919054Y-103217515D01*
X236927816Y-103213051D01*
X236997408Y-103162490D01*
X237099786Y-103088109D01*
X237099788Y-103088106D01*
X237099792Y-103088104D01*
X237250104Y-102937792D01*
X237250106Y-102937788D01*
X237250109Y-102937786D01*
X237375048Y-102765820D01*
X237375047Y-102765820D01*
X237375051Y-102765816D01*
X237471557Y-102576412D01*
X237537246Y-102374243D01*
X237570500Y-102164287D01*
X237570500Y-101951713D01*
X237537246Y-101741757D01*
X237471557Y-101539588D01*
X237471555Y-101539585D01*
X237471554Y-101539580D01*
X237471553Y-101539579D01*
X237436380Y-101470548D01*
X237423483Y-101401879D01*
X237449759Y-101337139D01*
X237506865Y-101296881D01*
X237576671Y-101293889D01*
X237634545Y-101326572D01*
X239419356Y-103111383D01*
X239442160Y-103142769D01*
X239489657Y-103235987D01*
X239610125Y-103401796D01*
X239628484Y-103427064D01*
X239628485Y-103427065D01*
X240996938Y-104795519D01*
X240996943Y-104795523D01*
X241188009Y-104934340D01*
X241188011Y-104934341D01*
X241188014Y-104934343D01*
X241281230Y-104981839D01*
X241312615Y-105004642D01*
X241592490Y-105284517D01*
X241719874Y-105377067D01*
X241783567Y-105423344D01*
X241887997Y-105476553D01*
X241938794Y-105524527D01*
X241955589Y-105592348D01*
X241933052Y-105658483D01*
X241919385Y-105674719D01*
X241793889Y-105800215D01*
X241668951Y-105972179D01*
X241572444Y-106161585D01*
X241506753Y-106363760D01*
X241483034Y-106513519D01*
X241473500Y-106573713D01*
X241473500Y-106786287D01*
X241506754Y-106996243D01*
X241537040Y-107089454D01*
X241572444Y-107198414D01*
X241668951Y-107387820D01*
X241793890Y-107559786D01*
X241944213Y-107710109D01*
X242116182Y-107835050D01*
X242124946Y-107839516D01*
X242175742Y-107887491D01*
X242192536Y-107955312D01*
X242169998Y-108021447D01*
X242124946Y-108060484D01*
X242116182Y-108064949D01*
X241944213Y-108189890D01*
X241793890Y-108340213D01*
X241668951Y-108512179D01*
X241572444Y-108701585D01*
X241506753Y-108903760D01*
X241473500Y-109113713D01*
X241473500Y-109326287D01*
X241506754Y-109536243D01*
X241538424Y-109633714D01*
X241572444Y-109738414D01*
X241668951Y-109927820D01*
X241793890Y-110099786D01*
X241944213Y-110250109D01*
X242116182Y-110375050D01*
X242124946Y-110379516D01*
X242175742Y-110427491D01*
X242192536Y-110495312D01*
X242169998Y-110561447D01*
X242124946Y-110600484D01*
X242116182Y-110604949D01*
X241944213Y-110729890D01*
X241793890Y-110880213D01*
X241668951Y-111052179D01*
X241572444Y-111241585D01*
X241506753Y-111443760D01*
X241473500Y-111653713D01*
X241473500Y-111866286D01*
X241502604Y-112050045D01*
X241506754Y-112076243D01*
X241564657Y-112254450D01*
X241572444Y-112278414D01*
X241668951Y-112467820D01*
X241793890Y-112639786D01*
X241944213Y-112790109D01*
X242116179Y-112915048D01*
X242116181Y-112915049D01*
X242116184Y-112915051D01*
X242305588Y-113011557D01*
X242507757Y-113077246D01*
X242717713Y-113110500D01*
X242717714Y-113110500D01*
X242930286Y-113110500D01*
X242930287Y-113110500D01*
X243140243Y-113077246D01*
X243342412Y-113011557D01*
X243531816Y-112915051D01*
X243593433Y-112870284D01*
X243703786Y-112790109D01*
X243703788Y-112790106D01*
X243703792Y-112790104D01*
X243854104Y-112639792D01*
X243854106Y-112639788D01*
X243854109Y-112639786D01*
X243979048Y-112467820D01*
X243979047Y-112467820D01*
X243979051Y-112467816D01*
X244075557Y-112278412D01*
X244141246Y-112076243D01*
X244174500Y-111866287D01*
X244174500Y-111653713D01*
X244141246Y-111443757D01*
X244075557Y-111241588D01*
X243979051Y-111052184D01*
X243979049Y-111052181D01*
X243979048Y-111052179D01*
X243854109Y-110880213D01*
X243703786Y-110729890D01*
X243531820Y-110604951D01*
X243531115Y-110604591D01*
X243523054Y-110600485D01*
X243472259Y-110552512D01*
X243455463Y-110484692D01*
X243477999Y-110418556D01*
X243523054Y-110379515D01*
X243531816Y-110375051D01*
X243621554Y-110309853D01*
X243703786Y-110250109D01*
X243703788Y-110250106D01*
X243703792Y-110250104D01*
X243854104Y-110099792D01*
X243854106Y-110099788D01*
X243854109Y-110099786D01*
X243979048Y-109927820D01*
X243979047Y-109927820D01*
X243979051Y-109927816D01*
X244075557Y-109738412D01*
X244141246Y-109536243D01*
X244174500Y-109326287D01*
X244174500Y-109113713D01*
X244141246Y-108903757D01*
X244075557Y-108701588D01*
X243979051Y-108512184D01*
X243979049Y-108512181D01*
X243979048Y-108512179D01*
X243854109Y-108340213D01*
X243703786Y-108189890D01*
X243531820Y-108064951D01*
X243531115Y-108064591D01*
X243523054Y-108060485D01*
X243472259Y-108012512D01*
X243455463Y-107944692D01*
X243477999Y-107878556D01*
X243523054Y-107839515D01*
X243531816Y-107835051D01*
X243645751Y-107752273D01*
X243703786Y-107710109D01*
X243703788Y-107710106D01*
X243703792Y-107710104D01*
X243854104Y-107559792D01*
X243854106Y-107559788D01*
X243854109Y-107559786D01*
X243979048Y-107387820D01*
X243979047Y-107387820D01*
X243979051Y-107387816D01*
X244075557Y-107198412D01*
X244141246Y-106996243D01*
X244174500Y-106786287D01*
X244174500Y-106573713D01*
X244141246Y-106363757D01*
X244075557Y-106161588D01*
X243979051Y-105972184D01*
X243979049Y-105972181D01*
X243979048Y-105972179D01*
X243854109Y-105800213D01*
X243703790Y-105649894D01*
X243703785Y-105649890D01*
X243639277Y-105603022D01*
X243596611Y-105547692D01*
X243590632Y-105478079D01*
X243623238Y-105416284D01*
X243639273Y-105402389D01*
X243801510Y-105284517D01*
X243968517Y-105117510D01*
X244107343Y-104926433D01*
X244214568Y-104715992D01*
X244287553Y-104491368D01*
X244293867Y-104451501D01*
X244324500Y-104258097D01*
X244324500Y-104021902D01*
X244287553Y-103788631D01*
X244253689Y-103684412D01*
X244214568Y-103564008D01*
X244214566Y-103564005D01*
X244214566Y-103564003D01*
X244144792Y-103427065D01*
X244107343Y-103353567D01*
X243968517Y-103162490D01*
X243801510Y-102995483D01*
X243639275Y-102877612D01*
X243596611Y-102822283D01*
X243590632Y-102752669D01*
X243623238Y-102690874D01*
X243639278Y-102676976D01*
X243703788Y-102630107D01*
X243703788Y-102630106D01*
X243703792Y-102630104D01*
X243854104Y-102479792D01*
X243854106Y-102479788D01*
X243854109Y-102479786D01*
X243979048Y-102307820D01*
X243979047Y-102307820D01*
X243979051Y-102307816D01*
X244075557Y-102118412D01*
X244141246Y-101916243D01*
X244174500Y-101706287D01*
X244174500Y-101493713D01*
X244141246Y-101283757D01*
X244075557Y-101081588D01*
X243979051Y-100892184D01*
X243979049Y-100892181D01*
X243979048Y-100892179D01*
X243854109Y-100720213D01*
X243703786Y-100569890D01*
X243531820Y-100444951D01*
X243531115Y-100444591D01*
X243523054Y-100440485D01*
X243472259Y-100392512D01*
X243455463Y-100324692D01*
X243477999Y-100258556D01*
X243523054Y-100219515D01*
X243531816Y-100215051D01*
X243553789Y-100199086D01*
X243703786Y-100090109D01*
X243703788Y-100090106D01*
X243703792Y-100090104D01*
X243854104Y-99939792D01*
X243854106Y-99939788D01*
X243854109Y-99939786D01*
X243979048Y-99767820D01*
X243979047Y-99767820D01*
X243979051Y-99767816D01*
X244075557Y-99578412D01*
X244141246Y-99376243D01*
X244174500Y-99166287D01*
X244174500Y-98953713D01*
X244141246Y-98743757D01*
X244075557Y-98541588D01*
X243979051Y-98352184D01*
X243979049Y-98352181D01*
X243979048Y-98352179D01*
X243854109Y-98180213D01*
X243703786Y-98029890D01*
X243531820Y-97904951D01*
X243529280Y-97903657D01*
X243523054Y-97900485D01*
X243472259Y-97852512D01*
X243455463Y-97784692D01*
X243477999Y-97718556D01*
X243523054Y-97679515D01*
X243531816Y-97675051D01*
X243624241Y-97607901D01*
X243703786Y-97550109D01*
X243703788Y-97550106D01*
X243703792Y-97550104D01*
X243854104Y-97399792D01*
X243854106Y-97399788D01*
X243854109Y-97399786D01*
X243979048Y-97227820D01*
X243979047Y-97227820D01*
X243979051Y-97227816D01*
X244075557Y-97038412D01*
X244141246Y-96836243D01*
X244174500Y-96626287D01*
X244174500Y-96413713D01*
X244141246Y-96203757D01*
X244075557Y-96001588D01*
X243979051Y-95812184D01*
X243979049Y-95812181D01*
X243979048Y-95812179D01*
X243854109Y-95640213D01*
X243740181Y-95526285D01*
X243706696Y-95464962D01*
X243711680Y-95395270D01*
X243753552Y-95339337D01*
X243784529Y-95322422D01*
X243916086Y-95273354D01*
X243916093Y-95273350D01*
X244031187Y-95187190D01*
X244031190Y-95187187D01*
X244117350Y-95072093D01*
X244117354Y-95072086D01*
X244167596Y-94937379D01*
X244167598Y-94937372D01*
X244173999Y-94877844D01*
X244174000Y-94877827D01*
X244174000Y-94230000D01*
X243257012Y-94230000D01*
X243289925Y-94172993D01*
X243324000Y-94045826D01*
X243324000Y-93914174D01*
X243289925Y-93787007D01*
X243257012Y-93730000D01*
X244174000Y-93730000D01*
X244174000Y-93082172D01*
X244173999Y-93082155D01*
X244167598Y-93022627D01*
X244167596Y-93022620D01*
X244117354Y-92887913D01*
X244117350Y-92887906D01*
X244031190Y-92772812D01*
X244031187Y-92772809D01*
X243916093Y-92686649D01*
X243916086Y-92686645D01*
X243781379Y-92636403D01*
X243781372Y-92636401D01*
X243721844Y-92630000D01*
X243074000Y-92630000D01*
X243074000Y-93546988D01*
X243016993Y-93514075D01*
X242889826Y-93480000D01*
X242758174Y-93480000D01*
X242631007Y-93514075D01*
X242574000Y-93546988D01*
X242574000Y-92630000D01*
X241926155Y-92630000D01*
X241866627Y-92636401D01*
X241866620Y-92636403D01*
X241731913Y-92686645D01*
X241731906Y-92686649D01*
X241616812Y-92772809D01*
X241616809Y-92772812D01*
X241530649Y-92887906D01*
X241530645Y-92887913D01*
X241480403Y-93022620D01*
X241480401Y-93022627D01*
X241474000Y-93082155D01*
X241474000Y-93730000D01*
X242390988Y-93730000D01*
X242358075Y-93787007D01*
X242324000Y-93914174D01*
X242324000Y-94045826D01*
X242358075Y-94172993D01*
X242390988Y-94230000D01*
X241474000Y-94230000D01*
X241474000Y-94877844D01*
X241480401Y-94937372D01*
X241480403Y-94937379D01*
X241530645Y-95072086D01*
X241530649Y-95072093D01*
X241616809Y-95187187D01*
X241616812Y-95187190D01*
X241731906Y-95273350D01*
X241731913Y-95273354D01*
X241863470Y-95322422D01*
X241919404Y-95364293D01*
X241943821Y-95429758D01*
X241928969Y-95498031D01*
X241907819Y-95526285D01*
X241793889Y-95640215D01*
X241668951Y-95812179D01*
X241572444Y-96001585D01*
X241506753Y-96203760D01*
X241473500Y-96413713D01*
X241473500Y-96626286D01*
X241506753Y-96836239D01*
X241572444Y-97038414D01*
X241668951Y-97227820D01*
X241793890Y-97399786D01*
X241944213Y-97550109D01*
X242116182Y-97675050D01*
X242124946Y-97679516D01*
X242175742Y-97727491D01*
X242192536Y-97795312D01*
X242169998Y-97861447D01*
X242124946Y-97900484D01*
X242116182Y-97904949D01*
X241944213Y-98029890D01*
X241793890Y-98180213D01*
X241668951Y-98352179D01*
X241572444Y-98541585D01*
X241506753Y-98743760D01*
X241473500Y-98953713D01*
X241473500Y-99166286D01*
X241506753Y-99376239D01*
X241572444Y-99578414D01*
X241668951Y-99767820D01*
X241793890Y-99939786D01*
X241944213Y-100090109D01*
X242116182Y-100215050D01*
X242124946Y-100219516D01*
X242175742Y-100267491D01*
X242192536Y-100335312D01*
X242169998Y-100401447D01*
X242124946Y-100440484D01*
X242116182Y-100444949D01*
X241944213Y-100569890D01*
X241793890Y-100720213D01*
X241668948Y-100892184D01*
X241666404Y-100896336D01*
X241664654Y-100895263D01*
X241622597Y-100939792D01*
X241554776Y-100956586D01*
X241488642Y-100934047D01*
X241472408Y-100920381D01*
X238594511Y-98042484D01*
X238577185Y-98029896D01*
X238403434Y-97903657D01*
X238367383Y-97885288D01*
X238192996Y-97796433D01*
X237968368Y-97723446D01*
X237735097Y-97686500D01*
X237735092Y-97686500D01*
X236198851Y-97686500D01*
X236131812Y-97666815D01*
X236086057Y-97614011D01*
X236076113Y-97544853D01*
X236088340Y-97507559D01*
X236088301Y-97507543D01*
X236088515Y-97507024D01*
X236089490Y-97504053D01*
X236090630Y-97501918D01*
X236099172Y-97481297D01*
X236166051Y-97319835D01*
X236204500Y-97126541D01*
X236204500Y-96929459D01*
X236204500Y-96929456D01*
X236166052Y-96736170D01*
X236166051Y-96736169D01*
X236166051Y-96736165D01*
X236160272Y-96722214D01*
X236090635Y-96554092D01*
X236090628Y-96554079D01*
X235981139Y-96390218D01*
X235981136Y-96390214D01*
X235841785Y-96250863D01*
X235841781Y-96250860D01*
X235677920Y-96141371D01*
X235677907Y-96141364D01*
X235495839Y-96065950D01*
X235495829Y-96065947D01*
X235302543Y-96027500D01*
X235302541Y-96027500D01*
X235105459Y-96027500D01*
X235105457Y-96027500D01*
X234912170Y-96065947D01*
X234912160Y-96065950D01*
X234730092Y-96141364D01*
X234730079Y-96141371D01*
X234566218Y-96250860D01*
X234566214Y-96250863D01*
X234426863Y-96390214D01*
X234426860Y-96390218D01*
X234317371Y-96554079D01*
X234317364Y-96554092D01*
X234241950Y-96736160D01*
X234241947Y-96736170D01*
X234203500Y-96929456D01*
X234203500Y-96929459D01*
X234203500Y-97126541D01*
X234203500Y-97126543D01*
X234203499Y-97126543D01*
X234241947Y-97319829D01*
X234241950Y-97319839D01*
X234317369Y-97501918D01*
X234318510Y-97504053D01*
X234318769Y-97505298D01*
X234319699Y-97507543D01*
X234319273Y-97507719D01*
X234332749Y-97572456D01*
X234307745Y-97637699D01*
X234251438Y-97679066D01*
X234209149Y-97686500D01*
X226691518Y-97686500D01*
X226624479Y-97666815D01*
X226578724Y-97614011D01*
X226568780Y-97544853D01*
X226597805Y-97481297D01*
X226603837Y-97474819D01*
X231087487Y-92991170D01*
X231774838Y-92303819D01*
X231836161Y-92270334D01*
X231862519Y-92267500D01*
X258357481Y-92267500D01*
X258424520Y-92287185D01*
X258445162Y-92303819D01*
X258566207Y-92424864D01*
X258599692Y-92486187D01*
X258594708Y-92555879D01*
X258552836Y-92611812D01*
X258487372Y-92636229D01*
X258459133Y-92635019D01*
X258424287Y-92629500D01*
X258211713Y-92629500D01*
X258163042Y-92637208D01*
X258001760Y-92662753D01*
X257799585Y-92728444D01*
X257610179Y-92824951D01*
X257438213Y-92949890D01*
X257287890Y-93100213D01*
X257162951Y-93272179D01*
X257066444Y-93461585D01*
X257000753Y-93663760D01*
X256967500Y-93873713D01*
X256967500Y-94086286D01*
X256981707Y-94175989D01*
X257000754Y-94296243D01*
X257037714Y-94409995D01*
X257066444Y-94498414D01*
X257162951Y-94687820D01*
X257287890Y-94859786D01*
X257438213Y-95010109D01*
X257610182Y-95135050D01*
X257618946Y-95139516D01*
X257669742Y-95187491D01*
X257686536Y-95255312D01*
X257663998Y-95321447D01*
X257618946Y-95360484D01*
X257610182Y-95364949D01*
X257438213Y-95489890D01*
X257287890Y-95640213D01*
X257162951Y-95812179D01*
X257066444Y-96001585D01*
X257000753Y-96203760D01*
X256967500Y-96413713D01*
X256967500Y-96626286D01*
X257000753Y-96836239D01*
X257066444Y-97038414D01*
X257162951Y-97227820D01*
X257287890Y-97399786D01*
X257438213Y-97550109D01*
X257610182Y-97675050D01*
X257618946Y-97679516D01*
X257669742Y-97727491D01*
X257686536Y-97795312D01*
X257663998Y-97861447D01*
X257618946Y-97900484D01*
X257610182Y-97904949D01*
X257438213Y-98029890D01*
X257287890Y-98180213D01*
X257162951Y-98352179D01*
X257066444Y-98541585D01*
X257000753Y-98743760D01*
X256967500Y-98953713D01*
X256967500Y-99166286D01*
X257000753Y-99376239D01*
X257066444Y-99578414D01*
X257162951Y-99767820D01*
X257287890Y-99939786D01*
X257438213Y-100090109D01*
X257610182Y-100215050D01*
X257618946Y-100219516D01*
X257669742Y-100267491D01*
X257686536Y-100335312D01*
X257663998Y-100401447D01*
X257618946Y-100440484D01*
X257610182Y-100444949D01*
X257438213Y-100569890D01*
X257287890Y-100720213D01*
X257162951Y-100892179D01*
X257066444Y-101081585D01*
X257000753Y-101283760D01*
X256967500Y-101493713D01*
X256967500Y-101706286D01*
X257000753Y-101916239D01*
X257066444Y-102118414D01*
X257162951Y-102307820D01*
X257287890Y-102479786D01*
X257438213Y-102630109D01*
X257610182Y-102755050D01*
X257618946Y-102759516D01*
X257669742Y-102807491D01*
X257686536Y-102875312D01*
X257663998Y-102941447D01*
X257618946Y-102980484D01*
X257610182Y-102984949D01*
X257438213Y-103109890D01*
X257287890Y-103260213D01*
X257162951Y-103432179D01*
X257066444Y-103621585D01*
X257000753Y-103823760D01*
X256967500Y-104033713D01*
X256967500Y-104246286D01*
X257000002Y-104451500D01*
X257000754Y-104456243D01*
X257029071Y-104543394D01*
X257066444Y-104658414D01*
X257162951Y-104847820D01*
X257287890Y-105019786D01*
X257438213Y-105170109D01*
X257610182Y-105295050D01*
X257618946Y-105299516D01*
X257669742Y-105347491D01*
X257686536Y-105415312D01*
X257663998Y-105481447D01*
X257618946Y-105520484D01*
X257610182Y-105524949D01*
X257438213Y-105649890D01*
X257287890Y-105800213D01*
X257162951Y-105972179D01*
X257066444Y-106161585D01*
X257000753Y-106363760D01*
X256977034Y-106513519D01*
X256967500Y-106573713D01*
X256967500Y-106786287D01*
X257000754Y-106996243D01*
X257031040Y-107089454D01*
X257066444Y-107198414D01*
X257162951Y-107387820D01*
X257287890Y-107559786D01*
X257438213Y-107710109D01*
X257610182Y-107835050D01*
X257618946Y-107839516D01*
X257669742Y-107887491D01*
X257686536Y-107955312D01*
X257663998Y-108021447D01*
X257618946Y-108060484D01*
X257610182Y-108064949D01*
X257438213Y-108189890D01*
X257287890Y-108340213D01*
X257162951Y-108512179D01*
X257066444Y-108701585D01*
X257000753Y-108903760D01*
X256967500Y-109113713D01*
X256967500Y-109326287D01*
X257000754Y-109536243D01*
X257032424Y-109633714D01*
X257066444Y-109738414D01*
X257162951Y-109927820D01*
X257287890Y-110099786D01*
X257401430Y-110213326D01*
X257434915Y-110274649D01*
X257429931Y-110344341D01*
X257388059Y-110400274D01*
X257357083Y-110417189D01*
X257225669Y-110466203D01*
X257225664Y-110466206D01*
X257110455Y-110552452D01*
X257110452Y-110552455D01*
X257024206Y-110667664D01*
X257024202Y-110667671D01*
X256973908Y-110802517D01*
X256970626Y-110833048D01*
X256967501Y-110862123D01*
X256967500Y-110862135D01*
X256967500Y-112657870D01*
X256967501Y-112657876D01*
X256973908Y-112717483D01*
X257024202Y-112852328D01*
X257024206Y-112852335D01*
X257110452Y-112967544D01*
X257110455Y-112967547D01*
X257225664Y-113053793D01*
X257225671Y-113053797D01*
X257360517Y-113104091D01*
X257360516Y-113104091D01*
X257367444Y-113104835D01*
X257420127Y-113110500D01*
X259215872Y-113110499D01*
X259275483Y-113104091D01*
X259410331Y-113053796D01*
X259525546Y-112967546D01*
X259611796Y-112852331D01*
X259662091Y-112717483D01*
X259668500Y-112657873D01*
X259668499Y-110862128D01*
X259662091Y-110802517D01*
X259645319Y-110757550D01*
X259611797Y-110667671D01*
X259611793Y-110667664D01*
X259525547Y-110552455D01*
X259525544Y-110552452D01*
X259410335Y-110466206D01*
X259410328Y-110466202D01*
X259278917Y-110417189D01*
X259222983Y-110375318D01*
X259198566Y-110309853D01*
X259213418Y-110241580D01*
X259234563Y-110213332D01*
X259348104Y-110099792D01*
X259388463Y-110044243D01*
X259473048Y-109927820D01*
X259473047Y-109927820D01*
X259473051Y-109927816D01*
X259569557Y-109738412D01*
X259635246Y-109536243D01*
X259668500Y-109326287D01*
X259668500Y-109113713D01*
X259635246Y-108903757D01*
X259569557Y-108701588D01*
X259473051Y-108512184D01*
X259473049Y-108512181D01*
X259473048Y-108512179D01*
X259348109Y-108340213D01*
X259197786Y-108189890D01*
X259025820Y-108064951D01*
X259025115Y-108064591D01*
X259017054Y-108060485D01*
X258966259Y-108012512D01*
X258949463Y-107944692D01*
X258971999Y-107878556D01*
X259017054Y-107839515D01*
X259025816Y-107835051D01*
X259139751Y-107752273D01*
X259197786Y-107710109D01*
X259197788Y-107710106D01*
X259197792Y-107710104D01*
X259348104Y-107559792D01*
X259348106Y-107559788D01*
X259348109Y-107559786D01*
X259473048Y-107387820D01*
X259473047Y-107387820D01*
X259473051Y-107387816D01*
X259569557Y-107198412D01*
X259635246Y-106996243D01*
X259668500Y-106786287D01*
X259668500Y-106573713D01*
X259635246Y-106363757D01*
X259569557Y-106161588D01*
X259473051Y-105972184D01*
X259473049Y-105972181D01*
X259473048Y-105972179D01*
X259348109Y-105800213D01*
X259197786Y-105649890D01*
X259025820Y-105524951D01*
X259024988Y-105524527D01*
X259017054Y-105520485D01*
X258966259Y-105472512D01*
X258949463Y-105404692D01*
X258971999Y-105338556D01*
X259017054Y-105299515D01*
X259025816Y-105295051D01*
X259099741Y-105241342D01*
X259197786Y-105170109D01*
X259197788Y-105170106D01*
X259197792Y-105170104D01*
X259348104Y-105019792D01*
X259348106Y-105019788D01*
X259348109Y-105019786D01*
X259473048Y-104847820D01*
X259473047Y-104847820D01*
X259473051Y-104847816D01*
X259569557Y-104658412D01*
X259635246Y-104456243D01*
X259668500Y-104246287D01*
X259668500Y-104033713D01*
X259635246Y-103823757D01*
X259569557Y-103621588D01*
X259473051Y-103432184D01*
X259473049Y-103432181D01*
X259473048Y-103432179D01*
X259348109Y-103260213D01*
X259197786Y-103109890D01*
X259025820Y-102984951D01*
X259025115Y-102984591D01*
X259017054Y-102980485D01*
X258966259Y-102932512D01*
X258949463Y-102864692D01*
X258971999Y-102798556D01*
X259017054Y-102759515D01*
X259025816Y-102755051D01*
X259133278Y-102676976D01*
X259197786Y-102630109D01*
X259197788Y-102630106D01*
X259197792Y-102630104D01*
X259348104Y-102479792D01*
X259348106Y-102479788D01*
X259348109Y-102479786D01*
X259473048Y-102307820D01*
X259473047Y-102307820D01*
X259473051Y-102307816D01*
X259569557Y-102118412D01*
X259635246Y-101916243D01*
X259668500Y-101706287D01*
X259668500Y-101493713D01*
X259635246Y-101283757D01*
X259569557Y-101081588D01*
X259473051Y-100892184D01*
X259473049Y-100892181D01*
X259473048Y-100892179D01*
X259348109Y-100720213D01*
X259197786Y-100569890D01*
X259025820Y-100444951D01*
X259025115Y-100444591D01*
X259017054Y-100440485D01*
X258966259Y-100392512D01*
X258949463Y-100324692D01*
X258971999Y-100258556D01*
X259017054Y-100219515D01*
X259025816Y-100215051D01*
X259047789Y-100199086D01*
X259197786Y-100090109D01*
X259197788Y-100090106D01*
X259197792Y-100090104D01*
X259348104Y-99939792D01*
X259348106Y-99939788D01*
X259348109Y-99939786D01*
X259473048Y-99767820D01*
X259473047Y-99767820D01*
X259473051Y-99767816D01*
X259569557Y-99578412D01*
X259635246Y-99376243D01*
X259668500Y-99166287D01*
X259668500Y-98953713D01*
X259635246Y-98743757D01*
X259569557Y-98541588D01*
X259473051Y-98352184D01*
X259473049Y-98352181D01*
X259473048Y-98352179D01*
X259348109Y-98180213D01*
X259197786Y-98029890D01*
X259025820Y-97904951D01*
X259023280Y-97903657D01*
X259017054Y-97900485D01*
X258966259Y-97852512D01*
X258949463Y-97784692D01*
X258971999Y-97718556D01*
X259017054Y-97679515D01*
X259025816Y-97675051D01*
X259118241Y-97607901D01*
X259197786Y-97550109D01*
X259197788Y-97550106D01*
X259197792Y-97550104D01*
X259348104Y-97399792D01*
X259348106Y-97399788D01*
X259348109Y-97399786D01*
X259473048Y-97227820D01*
X259473047Y-97227820D01*
X259473051Y-97227816D01*
X259569557Y-97038412D01*
X259635246Y-96836243D01*
X259668500Y-96626287D01*
X259668500Y-96413713D01*
X259635246Y-96203757D01*
X259569557Y-96001588D01*
X259473051Y-95812184D01*
X259473049Y-95812181D01*
X259473048Y-95812179D01*
X259348109Y-95640213D01*
X259197786Y-95489890D01*
X259025820Y-95364951D01*
X259025115Y-95364591D01*
X259017054Y-95360485D01*
X258966259Y-95312512D01*
X258949463Y-95244692D01*
X258971999Y-95178556D01*
X259017054Y-95139515D01*
X259025816Y-95135051D01*
X259112471Y-95072093D01*
X259197786Y-95010109D01*
X259197788Y-95010106D01*
X259197792Y-95010104D01*
X259348104Y-94859792D01*
X259348106Y-94859788D01*
X259348109Y-94859786D01*
X259473048Y-94687820D01*
X259473047Y-94687820D01*
X259473051Y-94687816D01*
X259569557Y-94498412D01*
X259635246Y-94296243D01*
X259668500Y-94086287D01*
X259668500Y-93873713D01*
X259662981Y-93838869D01*
X259671935Y-93769579D01*
X259716931Y-93716126D01*
X259783682Y-93695486D01*
X259850996Y-93714210D01*
X259873135Y-93731792D01*
X270381162Y-104239819D01*
X270414647Y-104301142D01*
X270409663Y-104370834D01*
X270367791Y-104426767D01*
X270302327Y-104451184D01*
X270293481Y-104451500D01*
X270137989Y-104451500D01*
X270137983Y-104451500D01*
X270137979Y-104451501D01*
X269903989Y-104482306D01*
X269676006Y-104543394D01*
X269457954Y-104633714D01*
X269457943Y-104633719D01*
X269253545Y-104751730D01*
X269066302Y-104895406D01*
X269066295Y-104895412D01*
X268899412Y-105062295D01*
X268899406Y-105062302D01*
X268755730Y-105249545D01*
X268637719Y-105453943D01*
X268637714Y-105453954D01*
X268547394Y-105672006D01*
X268486306Y-105899989D01*
X268455501Y-106133979D01*
X268455500Y-106133995D01*
X268455500Y-106370004D01*
X268455501Y-106370020D01*
X268486306Y-106604010D01*
X268547394Y-106831993D01*
X268637714Y-107050045D01*
X268637719Y-107050056D01*
X268660469Y-107089459D01*
X268755727Y-107254450D01*
X268755729Y-107254453D01*
X268755730Y-107254454D01*
X268899406Y-107441697D01*
X268899412Y-107441704D01*
X269066295Y-107608587D01*
X269066302Y-107608593D01*
X269176306Y-107693001D01*
X269253550Y-107752273D01*
X269384918Y-107828118D01*
X269457943Y-107870280D01*
X269457948Y-107870282D01*
X269457951Y-107870284D01*
X269676007Y-107960606D01*
X269903986Y-108021693D01*
X270137989Y-108052500D01*
X270137996Y-108052500D01*
X270374004Y-108052500D01*
X270374011Y-108052500D01*
X270608014Y-108021693D01*
X270835993Y-107960606D01*
X271054049Y-107870284D01*
X271258450Y-107752273D01*
X271445699Y-107608592D01*
X271612592Y-107441699D01*
X271756273Y-107254450D01*
X271874284Y-107050049D01*
X271964606Y-106831993D01*
X272025693Y-106604014D01*
X272056500Y-106370011D01*
X272056500Y-106214519D01*
X272076185Y-106147480D01*
X272128989Y-106101725D01*
X272198147Y-106091781D01*
X272261703Y-106120806D01*
X272268181Y-106126838D01*
X272567181Y-106425838D01*
X272600666Y-106487161D01*
X272603500Y-106513519D01*
X272603500Y-117862480D01*
X272583815Y-117929519D01*
X272567181Y-117950161D01*
X271102160Y-119415181D01*
X271040837Y-119448666D01*
X271014479Y-119451500D01*
X269155998Y-119451500D01*
X269155981Y-119451501D01*
X269053203Y-119462000D01*
X269053200Y-119462001D01*
X268886668Y-119517185D01*
X268886663Y-119517187D01*
X268737342Y-119609289D01*
X268613289Y-119733342D01*
X268521187Y-119882663D01*
X268521186Y-119882666D01*
X268466001Y-120049203D01*
X268466001Y-120049204D01*
X268466000Y-120049204D01*
X268455500Y-120151983D01*
X268455500Y-122352001D01*
X268455501Y-122352018D01*
X268466000Y-122454796D01*
X268466001Y-122454799D01*
X268515524Y-122604247D01*
X268521186Y-122621334D01*
X268613288Y-122770656D01*
X268737344Y-122894712D01*
X268886666Y-122986814D01*
X269053203Y-123041999D01*
X269155991Y-123052500D01*
X271356008Y-123052499D01*
X271458797Y-123041999D01*
X271625334Y-122986814D01*
X271774656Y-122894712D01*
X271898712Y-122770656D01*
X271990814Y-122621334D01*
X272045999Y-122454797D01*
X272056500Y-122352009D01*
X272056499Y-120493518D01*
X272076184Y-120426480D01*
X272092818Y-120405838D01*
X273848111Y-118650546D01*
X273848112Y-118650545D01*
X273848112Y-118650544D01*
X273848114Y-118650543D01*
X273924775Y-118535811D01*
X273977580Y-118408328D01*
X273997129Y-118310049D01*
X274004500Y-118272996D01*
X274004500Y-106103006D01*
X274001016Y-106085492D01*
X273990564Y-106032949D01*
X273989676Y-106028486D01*
X273980619Y-105982951D01*
X273977580Y-105967672D01*
X273924775Y-105840189D01*
X273848114Y-105725457D01*
X273848112Y-105725454D01*
X273848111Y-105725453D01*
X269662837Y-101540180D01*
X269629352Y-101478857D01*
X269634336Y-101409165D01*
X269676208Y-101353232D01*
X269741672Y-101328815D01*
X269750518Y-101328499D01*
X271528502Y-101328499D01*
X271528508Y-101328499D01*
X271631297Y-101317999D01*
X271797834Y-101262814D01*
X271947156Y-101170712D01*
X272071212Y-101046656D01*
X272163314Y-100897334D01*
X272218499Y-100730797D01*
X272229000Y-100628009D01*
X272228999Y-98427992D01*
X272218499Y-98325203D01*
X272163314Y-98158666D01*
X272071212Y-98009344D01*
X271947156Y-97885288D01*
X271822570Y-97808443D01*
X271797836Y-97793187D01*
X271797831Y-97793185D01*
X271772201Y-97784692D01*
X271631297Y-97738001D01*
X271631295Y-97738000D01*
X271528510Y-97727500D01*
X269328498Y-97727500D01*
X269328481Y-97727501D01*
X269225703Y-97738000D01*
X269225700Y-97738001D01*
X269059168Y-97793185D01*
X269059163Y-97793187D01*
X268909842Y-97885289D01*
X268785789Y-98009342D01*
X268693687Y-98158663D01*
X268693685Y-98158668D01*
X268686546Y-98180213D01*
X268638501Y-98325203D01*
X268638501Y-98325204D01*
X268638500Y-98325204D01*
X268628000Y-98427983D01*
X268628000Y-100205980D01*
X268608315Y-100273019D01*
X268555511Y-100318774D01*
X268486353Y-100328718D01*
X268422797Y-100299693D01*
X268416319Y-100293661D01*
X259145545Y-91022887D01*
X259030807Y-90946222D01*
X258903332Y-90893421D01*
X258903322Y-90893418D01*
X258767996Y-90866500D01*
X258767994Y-90866500D01*
X258767993Y-90866500D01*
X231589994Y-90866500D01*
X231452006Y-90866500D01*
X231452004Y-90866500D01*
X231316677Y-90893418D01*
X231316667Y-90893421D01*
X231189192Y-90946222D01*
X231074454Y-91022887D01*
X225770224Y-96327117D01*
X225708901Y-96360602D01*
X225658354Y-96361054D01*
X225650541Y-96359500D01*
X225453459Y-96359500D01*
X225453457Y-96359500D01*
X225260170Y-96397947D01*
X225260160Y-96397950D01*
X225078092Y-96473364D01*
X225078079Y-96473371D01*
X224914218Y-96582860D01*
X224914214Y-96582863D01*
X224774863Y-96722214D01*
X224774860Y-96722218D01*
X224665371Y-96886079D01*
X224665364Y-96886092D01*
X224589950Y-97068160D01*
X224589947Y-97068170D01*
X224551500Y-97261456D01*
X224551500Y-97458545D01*
X224567366Y-97538309D01*
X224561139Y-97607901D01*
X224518276Y-97663078D01*
X224452386Y-97686322D01*
X224445749Y-97686500D01*
X224006851Y-97686500D01*
X223939812Y-97666815D01*
X223894057Y-97614011D01*
X223884113Y-97544853D01*
X223896340Y-97507559D01*
X223896301Y-97507543D01*
X223896515Y-97507024D01*
X223897490Y-97504053D01*
X223898630Y-97501918D01*
X223907172Y-97481297D01*
X223974051Y-97319835D01*
X224012500Y-97126541D01*
X224012500Y-96929459D01*
X224012500Y-96929456D01*
X223974052Y-96736170D01*
X223974051Y-96736169D01*
X223974051Y-96736165D01*
X223968272Y-96722214D01*
X223898635Y-96554092D01*
X223898628Y-96554079D01*
X223789139Y-96390218D01*
X223789136Y-96390214D01*
X223649785Y-96250863D01*
X223649781Y-96250860D01*
X223485920Y-96141371D01*
X223485907Y-96141364D01*
X223303839Y-96065950D01*
X223303829Y-96065947D01*
X223110543Y-96027500D01*
X223110541Y-96027500D01*
X222913459Y-96027500D01*
X222913457Y-96027500D01*
X222720170Y-96065947D01*
X222720160Y-96065950D01*
X222538092Y-96141364D01*
X222538079Y-96141371D01*
X222374218Y-96250860D01*
X222374214Y-96250863D01*
X222234863Y-96390214D01*
X222234860Y-96390218D01*
X222125371Y-96554079D01*
X222125364Y-96554092D01*
X222049950Y-96736160D01*
X222049947Y-96736170D01*
X222011500Y-96929456D01*
X222011500Y-96929459D01*
X222011500Y-97126541D01*
X222011500Y-97126543D01*
X222011499Y-97126543D01*
X222049947Y-97319829D01*
X222049950Y-97319839D01*
X222125369Y-97501918D01*
X222126510Y-97504053D01*
X222126769Y-97505298D01*
X222127699Y-97507543D01*
X222127273Y-97507719D01*
X222140749Y-97572456D01*
X222115745Y-97637699D01*
X222059438Y-97679066D01*
X222017149Y-97686500D01*
X208970903Y-97686500D01*
X208737631Y-97723446D01*
X208513003Y-97796433D01*
X208302565Y-97903657D01*
X208111488Y-98042484D01*
X208111487Y-98042485D01*
X193116504Y-113037467D01*
X193055181Y-113070952D01*
X192985489Y-113065968D01*
X192929556Y-113024096D01*
X192905139Y-112958632D01*
X192919991Y-112890359D01*
X192930439Y-112874310D01*
X193016273Y-112762450D01*
X193134284Y-112558049D01*
X193224606Y-112339993D01*
X193285693Y-112112014D01*
X193316500Y-111878011D01*
X193316500Y-111641989D01*
X193285693Y-111407986D01*
X193224606Y-111180007D01*
X193134284Y-110961951D01*
X193134282Y-110961948D01*
X193134280Y-110961943D01*
X193088729Y-110883048D01*
X193016273Y-110757550D01*
X192872592Y-110570301D01*
X192872587Y-110570295D01*
X192705704Y-110403412D01*
X192705697Y-110403406D01*
X192518454Y-110259730D01*
X192518453Y-110259729D01*
X192518450Y-110259727D01*
X192408789Y-110196414D01*
X192314056Y-110141719D01*
X192314045Y-110141714D01*
X192095993Y-110051394D01*
X191868010Y-109990306D01*
X191634020Y-109959501D01*
X191634017Y-109959500D01*
X191634011Y-109959500D01*
X191397989Y-109959500D01*
X191397983Y-109959500D01*
X191397979Y-109959501D01*
X191163989Y-109990306D01*
X190936006Y-110051394D01*
X190717954Y-110141714D01*
X190717943Y-110141719D01*
X190513545Y-110259730D01*
X190326302Y-110403406D01*
X190326295Y-110403412D01*
X190159412Y-110570295D01*
X190159406Y-110570302D01*
X190015730Y-110757545D01*
X189897719Y-110961943D01*
X189897714Y-110961954D01*
X189807394Y-111180006D01*
X189746306Y-111407989D01*
X189715501Y-111641979D01*
X189715500Y-111641995D01*
X187944500Y-111641995D01*
X187944500Y-105659983D01*
X189715500Y-105659983D01*
X189715500Y-107860001D01*
X189715501Y-107860018D01*
X189726000Y-107962796D01*
X189726001Y-107962799D01*
X189781185Y-108129331D01*
X189781186Y-108129334D01*
X189873288Y-108278656D01*
X189997344Y-108402712D01*
X190146666Y-108494814D01*
X190313203Y-108549999D01*
X190415991Y-108560500D01*
X192616008Y-108560499D01*
X192718797Y-108549999D01*
X192885334Y-108494814D01*
X193034656Y-108402712D01*
X193158712Y-108278656D01*
X193250814Y-108129334D01*
X193305999Y-107962797D01*
X193316500Y-107860009D01*
X193316499Y-105659992D01*
X193315467Y-105649894D01*
X193305999Y-105557203D01*
X193305998Y-105557200D01*
X193293832Y-105520486D01*
X193250814Y-105390666D01*
X193158712Y-105241344D01*
X193034656Y-105117288D01*
X192885334Y-105025186D01*
X192718797Y-104970001D01*
X192718795Y-104970000D01*
X192616010Y-104959500D01*
X190415998Y-104959500D01*
X190415981Y-104959501D01*
X190313203Y-104970000D01*
X190313200Y-104970001D01*
X190146668Y-105025185D01*
X190146663Y-105025187D01*
X189997342Y-105117289D01*
X189873289Y-105241342D01*
X189781187Y-105390663D01*
X189781185Y-105390668D01*
X189768668Y-105428443D01*
X189726001Y-105557203D01*
X189726001Y-105557204D01*
X189726000Y-105557204D01*
X189715500Y-105659983D01*
X187944500Y-105659983D01*
X187944500Y-104901282D01*
X187964185Y-104834243D01*
X187980819Y-104813601D01*
X189461108Y-103333312D01*
X190945810Y-101848609D01*
X191007131Y-101815126D01*
X191049670Y-101813353D01*
X191213181Y-101834879D01*
X191225473Y-101836498D01*
X191225489Y-101836500D01*
X191225496Y-101836500D01*
X191461504Y-101836500D01*
X191461511Y-101836500D01*
X191695514Y-101805693D01*
X191923493Y-101744606D01*
X192141549Y-101654284D01*
X192345950Y-101536273D01*
X192533199Y-101392592D01*
X192700092Y-101225699D01*
X192843773Y-101038450D01*
X192961784Y-100834049D01*
X193052106Y-100615993D01*
X193113193Y-100388014D01*
X193144000Y-100154011D01*
X193144000Y-99917989D01*
X193120853Y-99742171D01*
X193131618Y-99673138D01*
X193156108Y-99638310D01*
X206546101Y-86248319D01*
X206607424Y-86214834D01*
X206633782Y-86212000D01*
X260646218Y-86212000D01*
X260713257Y-86231685D01*
X260733899Y-86248319D01*
X268615888Y-94130309D01*
X268649373Y-94191632D01*
X268651146Y-94234175D01*
X268628001Y-94409978D01*
X268628000Y-94409995D01*
X268628000Y-94646004D01*
X268628001Y-94646020D01*
X268658806Y-94880010D01*
X268719894Y-95107993D01*
X268810214Y-95326045D01*
X268810219Y-95326056D01*
X268870092Y-95429758D01*
X268928227Y-95530450D01*
X268928229Y-95530453D01*
X268928230Y-95530454D01*
X269071906Y-95717697D01*
X269071912Y-95717704D01*
X269238795Y-95884587D01*
X269238801Y-95884592D01*
X269426050Y-96028273D01*
X269557418Y-96104118D01*
X269630443Y-96146280D01*
X269630448Y-96146282D01*
X269630451Y-96146284D01*
X269848507Y-96236606D01*
X270076486Y-96297693D01*
X270310489Y-96328500D01*
X270310496Y-96328500D01*
X270546504Y-96328500D01*
X270546511Y-96328500D01*
X270722326Y-96305353D01*
X270791359Y-96316118D01*
X270826191Y-96340611D01*
X274299181Y-99813601D01*
X274332666Y-99874924D01*
X274335500Y-99901282D01*
X274335500Y-126855917D01*
X274315815Y-126922956D01*
X274263011Y-126968711D01*
X274193853Y-126978655D01*
X274138615Y-126956236D01*
X273986815Y-126845948D01*
X273797414Y-126749444D01*
X273797413Y-126749443D01*
X273797412Y-126749443D01*
X273595243Y-126683754D01*
X273595241Y-126683753D01*
X273595240Y-126683753D01*
X273433957Y-126658208D01*
X273385287Y-126650500D01*
X273172713Y-126650500D01*
X273124042Y-126658208D01*
X272962760Y-126683753D01*
X272760585Y-126749444D01*
X272571179Y-126845951D01*
X272399213Y-126970890D01*
X272248890Y-127121213D01*
X272123951Y-127293179D01*
X272027444Y-127482585D01*
X271961753Y-127684760D01*
X271928500Y-127894713D01*
X271928500Y-128107286D01*
X271948544Y-128233843D01*
X271961754Y-128317243D01*
X272017270Y-128488104D01*
X272027444Y-128519414D01*
X272123951Y-128708820D01*
X272248890Y-128880786D01*
X272399213Y-129031109D01*
X272571182Y-129156050D01*
X272579946Y-129160516D01*
X272630742Y-129208491D01*
X272647536Y-129276312D01*
X272624998Y-129342447D01*
X272579946Y-129381484D01*
X272571182Y-129385949D01*
X272399213Y-129510890D01*
X272248890Y-129661213D01*
X272123951Y-129833179D01*
X272027444Y-130022585D01*
X271961753Y-130224760D01*
X271939259Y-130366781D01*
X271928500Y-130434713D01*
X271928500Y-130647287D01*
X271961754Y-130857243D01*
X272017270Y-131028104D01*
X272027444Y-131059414D01*
X272123951Y-131248820D01*
X272248890Y-131420786D01*
X272362430Y-131534326D01*
X272395915Y-131595649D01*
X272390931Y-131665341D01*
X272349059Y-131721274D01*
X272318083Y-131738189D01*
X272186669Y-131787203D01*
X272186664Y-131787206D01*
X272071455Y-131873452D01*
X272071452Y-131873455D01*
X271985206Y-131988664D01*
X271985202Y-131988671D01*
X271934908Y-132123517D01*
X271928501Y-132183116D01*
X271928500Y-132183135D01*
X271928500Y-133978870D01*
X271928501Y-133978876D01*
X271934908Y-134038483D01*
X271985202Y-134173328D01*
X271985206Y-134173335D01*
X272071452Y-134288544D01*
X272071455Y-134288547D01*
X272186664Y-134374793D01*
X272186671Y-134374797D01*
X272321517Y-134425091D01*
X272321516Y-134425091D01*
X272328444Y-134425835D01*
X272381127Y-134431500D01*
X274176872Y-134431499D01*
X274179216Y-134431246D01*
X274198245Y-134429202D01*
X274267004Y-134441607D01*
X274318142Y-134489217D01*
X274335500Y-134552491D01*
X274335500Y-156210717D01*
X274315815Y-156277756D01*
X274299181Y-156298398D01*
X270826190Y-159771388D01*
X270764867Y-159804873D01*
X270722324Y-159806646D01*
X270546521Y-159783501D01*
X270546516Y-159783500D01*
X270546511Y-159783500D01*
X270310489Y-159783500D01*
X270310483Y-159783500D01*
X270310479Y-159783501D01*
X270076489Y-159814306D01*
X269848506Y-159875394D01*
X269630454Y-159965714D01*
X269630443Y-159965719D01*
X269426045Y-160083730D01*
X269238802Y-160227406D01*
X269238795Y-160227412D01*
X269071912Y-160394295D01*
X269071906Y-160394302D01*
X268928230Y-160581545D01*
X268810219Y-160785943D01*
X268810214Y-160785954D01*
X268719894Y-161004006D01*
X268658806Y-161231989D01*
X268628001Y-161465979D01*
X268628000Y-161465995D01*
X268628000Y-161702004D01*
X268628001Y-161702020D01*
X268658806Y-161936010D01*
X268719894Y-162163993D01*
X268810214Y-162382045D01*
X268810219Y-162382056D01*
X268870178Y-162485907D01*
X268928227Y-162586450D01*
X268928229Y-162586453D01*
X268928230Y-162586454D01*
X269071906Y-162773697D01*
X269071912Y-162773704D01*
X269238795Y-162940587D01*
X269238802Y-162940593D01*
X269255409Y-162953336D01*
X269426050Y-163084273D01*
X269557418Y-163160118D01*
X269630443Y-163202280D01*
X269630448Y-163202282D01*
X269630451Y-163202284D01*
X269848507Y-163292606D01*
X270076486Y-163353693D01*
X270310489Y-163384500D01*
X270310496Y-163384500D01*
X270546504Y-163384500D01*
X270546511Y-163384500D01*
X270780514Y-163353693D01*
X271008493Y-163292606D01*
X271226549Y-163202284D01*
X271430950Y-163084273D01*
X271618199Y-162940592D01*
X271785092Y-162773699D01*
X271928773Y-162586450D01*
X272046784Y-162382049D01*
X272137106Y-162163993D01*
X272198193Y-161936014D01*
X272229000Y-161702011D01*
X272229000Y-161465989D01*
X272205853Y-161290171D01*
X272216618Y-161221138D01*
X272241108Y-161186310D01*
X275973778Y-157453641D01*
X275973782Y-157453639D01*
X276113139Y-157314282D01*
X276222632Y-157150414D01*
X276248396Y-157088213D01*
X276298050Y-156968338D01*
X276298051Y-156968333D01*
X276300127Y-156957900D01*
X276304107Y-156937890D01*
X276324981Y-156832949D01*
X276336500Y-156775041D01*
X276336500Y-99336959D01*
X276336500Y-99336956D01*
X276316804Y-99237943D01*
X276301010Y-99158541D01*
X276298051Y-99143664D01*
X276260084Y-99052004D01*
X276222632Y-98961586D01*
X276145602Y-98846302D01*
X276113139Y-98797717D01*
X275970686Y-98655264D01*
X275970655Y-98655235D01*
X272241111Y-94925691D01*
X272207626Y-94864368D01*
X272205853Y-94821828D01*
X272229000Y-94646011D01*
X272229000Y-94409989D01*
X272198193Y-94175986D01*
X272137106Y-93948007D01*
X272046784Y-93729951D01*
X272046782Y-93729948D01*
X272046780Y-93729943D01*
X272004618Y-93656918D01*
X271928773Y-93525550D01*
X271785092Y-93338301D01*
X271785087Y-93338295D01*
X271618204Y-93171412D01*
X271618197Y-93171406D01*
X271430954Y-93027730D01*
X271430953Y-93027729D01*
X271430950Y-93027727D01*
X271349457Y-92980677D01*
X271226556Y-92909719D01*
X271226545Y-92909714D01*
X271008493Y-92819394D01*
X270780510Y-92758306D01*
X270546520Y-92727501D01*
X270546517Y-92727500D01*
X270546511Y-92727500D01*
X270310489Y-92727500D01*
X270310483Y-92727500D01*
X270310478Y-92727501D01*
X270134675Y-92750646D01*
X270065640Y-92739880D01*
X270030809Y-92715388D01*
X263637754Y-86322334D01*
X263554131Y-86238711D01*
X269929500Y-86238711D01*
X269929500Y-86481288D01*
X269961161Y-86721785D01*
X270023947Y-86956104D01*
X270116773Y-87180205D01*
X270116776Y-87180212D01*
X270238064Y-87390289D01*
X270238066Y-87390292D01*
X270238067Y-87390293D01*
X270385733Y-87582736D01*
X270385739Y-87582743D01*
X270557256Y-87754260D01*
X270557262Y-87754265D01*
X270749711Y-87901936D01*
X270959788Y-88023224D01*
X271183900Y-88116054D01*
X271418211Y-88178838D01*
X271598586Y-88202584D01*
X271658711Y-88210500D01*
X271658712Y-88210500D01*
X271901289Y-88210500D01*
X271949388Y-88204167D01*
X272141789Y-88178838D01*
X272376100Y-88116054D01*
X272600212Y-88023224D01*
X272810289Y-87901936D01*
X273002738Y-87754265D01*
X273174265Y-87582738D01*
X273321936Y-87390289D01*
X273443224Y-87180212D01*
X273536054Y-86956100D01*
X273598838Y-86721789D01*
X273630500Y-86481288D01*
X273630500Y-86238712D01*
X273627356Y-86214834D01*
X273598838Y-85998214D01*
X273598838Y-85998211D01*
X273536054Y-85763900D01*
X273443224Y-85539788D01*
X273321936Y-85329711D01*
X273174265Y-85137262D01*
X273174260Y-85137256D01*
X273002743Y-84965739D01*
X273002736Y-84965733D01*
X272810293Y-84818067D01*
X272810292Y-84818066D01*
X272810289Y-84818064D01*
X272600212Y-84696776D01*
X272600205Y-84696773D01*
X272376104Y-84603947D01*
X272141785Y-84541161D01*
X271901289Y-84509500D01*
X271901288Y-84509500D01*
X271658712Y-84509500D01*
X271658711Y-84509500D01*
X271418214Y-84541161D01*
X271183895Y-84603947D01*
X270959794Y-84696773D01*
X270959785Y-84696777D01*
X270749706Y-84818067D01*
X270557263Y-84965733D01*
X270557256Y-84965739D01*
X270385739Y-85137256D01*
X270385733Y-85137263D01*
X270238067Y-85329706D01*
X270116777Y-85539785D01*
X270116773Y-85539794D01*
X270023947Y-85763895D01*
X269961161Y-85998214D01*
X269929500Y-86238711D01*
X263554131Y-86238711D01*
X261896209Y-84580789D01*
X261896206Y-84580785D01*
X261896206Y-84580786D01*
X261889139Y-84573719D01*
X261889139Y-84573718D01*
X261749782Y-84434361D01*
X261749781Y-84434360D01*
X261749780Y-84434359D01*
X261585920Y-84324871D01*
X261585911Y-84324866D01*
X261513315Y-84294796D01*
X261457165Y-84271538D01*
X261403836Y-84249449D01*
X261403832Y-84249448D01*
X261403828Y-84249446D01*
X261307188Y-84230224D01*
X261210544Y-84211000D01*
X261210541Y-84211000D01*
X206069459Y-84211000D01*
X206069455Y-84211000D01*
X205972812Y-84230224D01*
X205876167Y-84249447D01*
X205876161Y-84249449D01*
X205822834Y-84271537D01*
X205822834Y-84271538D01*
X205777315Y-84290392D01*
X205694089Y-84324866D01*
X205694079Y-84324871D01*
X205530219Y-84434359D01*
X205460540Y-84504038D01*
X205390861Y-84573718D01*
X205390858Y-84573721D01*
X191741190Y-98223388D01*
X191679867Y-98256873D01*
X191637324Y-98258646D01*
X191461521Y-98235501D01*
X191461516Y-98235500D01*
X191461511Y-98235500D01*
X191225489Y-98235500D01*
X191225483Y-98235500D01*
X191225479Y-98235501D01*
X190991489Y-98266306D01*
X190763506Y-98327394D01*
X190545454Y-98417714D01*
X190545443Y-98417719D01*
X190341045Y-98535730D01*
X190153802Y-98679406D01*
X190153795Y-98679412D01*
X189986912Y-98846295D01*
X189986906Y-98846302D01*
X189843230Y-99033545D01*
X189725219Y-99237943D01*
X189725214Y-99237954D01*
X189634894Y-99456006D01*
X189573806Y-99683989D01*
X189543001Y-99917979D01*
X189543000Y-99917995D01*
X189543000Y-100154004D01*
X189543001Y-100154021D01*
X189566145Y-100329824D01*
X189555379Y-100398860D01*
X189530887Y-100433690D01*
X187107922Y-102856657D01*
X186306220Y-103658359D01*
X186306218Y-103658361D01*
X186246371Y-103718208D01*
X186166859Y-103797719D01*
X186057371Y-103961579D01*
X186057364Y-103961592D01*
X185981950Y-104143660D01*
X185981947Y-104143670D01*
X185943500Y-104336956D01*
X185943500Y-104336959D01*
X185943500Y-162110541D01*
X185943500Y-162110543D01*
X185943499Y-162110543D01*
X185265500Y-162110543D01*
X185265500Y-93935983D01*
X189543000Y-93935983D01*
X189543000Y-96136001D01*
X189543001Y-96136018D01*
X189553500Y-96238796D01*
X189553501Y-96238799D01*
X189603676Y-96390214D01*
X189608686Y-96405334D01*
X189700788Y-96554656D01*
X189824844Y-96678712D01*
X189974166Y-96770814D01*
X190140703Y-96825999D01*
X190243491Y-96836500D01*
X192443508Y-96836499D01*
X192546297Y-96825999D01*
X192712834Y-96770814D01*
X192862156Y-96678712D01*
X192986212Y-96554656D01*
X193078314Y-96405334D01*
X193133499Y-96238797D01*
X193144000Y-96136009D01*
X193143999Y-93935992D01*
X193133499Y-93833203D01*
X193078314Y-93666666D01*
X192986212Y-93517344D01*
X192862156Y-93393288D01*
X192712834Y-93301186D01*
X192546297Y-93246001D01*
X192546295Y-93246000D01*
X192443510Y-93235500D01*
X190243498Y-93235500D01*
X190243481Y-93235501D01*
X190140703Y-93246000D01*
X190140700Y-93246001D01*
X189974168Y-93301185D01*
X189974163Y-93301187D01*
X189824842Y-93393289D01*
X189700789Y-93517342D01*
X189608687Y-93666663D01*
X189608685Y-93666668D01*
X189587718Y-93729943D01*
X189553501Y-93833203D01*
X189553501Y-93833204D01*
X189553500Y-93833204D01*
X189543000Y-93935983D01*
X185265500Y-93935983D01*
X185265500Y-86238711D01*
X188649500Y-86238711D01*
X188649500Y-86481288D01*
X188681161Y-86721785D01*
X188743947Y-86956104D01*
X188836773Y-87180205D01*
X188836776Y-87180212D01*
X188958064Y-87390289D01*
X188958066Y-87390292D01*
X188958067Y-87390293D01*
X189105733Y-87582736D01*
X189105739Y-87582743D01*
X189277256Y-87754260D01*
X189277262Y-87754265D01*
X189469711Y-87901936D01*
X189679788Y-88023224D01*
X189903900Y-88116054D01*
X190138211Y-88178838D01*
X190318586Y-88202584D01*
X190378711Y-88210500D01*
X190378712Y-88210500D01*
X190621289Y-88210500D01*
X190669388Y-88204167D01*
X190861789Y-88178838D01*
X191096100Y-88116054D01*
X191320212Y-88023224D01*
X191530289Y-87901936D01*
X191722738Y-87754265D01*
X191894265Y-87582738D01*
X192041936Y-87390289D01*
X192163224Y-87180212D01*
X192256054Y-86956100D01*
X192318838Y-86721789D01*
X192350500Y-86481288D01*
X192350500Y-86238712D01*
X192347356Y-86214834D01*
X192318838Y-85998214D01*
X192318838Y-85998211D01*
X192256054Y-85763900D01*
X192163224Y-85539788D01*
X192041936Y-85329711D01*
X191894265Y-85137262D01*
X191894260Y-85137256D01*
X191722743Y-84965739D01*
X191722736Y-84965733D01*
X191530293Y-84818067D01*
X191530292Y-84818066D01*
X191530289Y-84818064D01*
X191320212Y-84696776D01*
X191320205Y-84696773D01*
X191096104Y-84603947D01*
X190861785Y-84541161D01*
X190621289Y-84509500D01*
X190621288Y-84509500D01*
X190378712Y-84509500D01*
X190378711Y-84509500D01*
X190138214Y-84541161D01*
X189903895Y-84603947D01*
X189679794Y-84696773D01*
X189679785Y-84696777D01*
X189469706Y-84818067D01*
X189277263Y-84965733D01*
X189277256Y-84965739D01*
X189105739Y-85137256D01*
X189105733Y-85137263D01*
X188958067Y-85329706D01*
X188836777Y-85539785D01*
X188836773Y-85539794D01*
X188743947Y-85763895D01*
X188681161Y-85998214D01*
X188649500Y-86238711D01*
X185265500Y-86238711D01*
X185265500Y-81444500D01*
X185285185Y-81377461D01*
X185337989Y-81331706D01*
X185389500Y-81320500D01*
X187890738Y-81320500D01*
X187957777Y-81340185D01*
G37*
%TD.AperFunction*%
%TD*%
M02*
