ISO-10303-21;
HEADER;

/* File generated by Shapr3D Version 3.0 */

FILE_DESCRIPTION(('HOOPS Exchange Step'),'2;1');

FILE_NAME('/private/var/mobile/Containers/Data/Application/ED4C2A4C-7E5D-45B7-BA36-C01864C68EB8/tmp/export/temp_export',
'2020-11-17T12:52:11+01:00',
('mobile'),
('Shapr3D Limited'),
'HOOPS Exchange 2020.2',
'Shapr3D',
'Authorized');

FILE_SCHEMA( ('AP203_CONFIGURATION_CONTROLLED_3D_DESIGN_OF_MECHANICAL_PARTS_AND_ASSEMBLIES_MIM_LF') );

ENDSEC;

DATA;
#3=(NAMED_UNIT(*)PLANE_ANGLE_UNIT()SI_UNIT($,.RADIAN.));
#4=PLANE_ANGLE_MEASURE_WITH_UNIT(PLANE_ANGLE_MEASURE(0.0174532925),#3);
#5=(CONVERSION_BASED_UNIT('DEGREE',#4)NAMED_UNIT(#6)PLANE_ANGLE_UNIT());
#6=DIMENSIONAL_EXPONENTS(0.,0.,0.,0.,0.,0.,0.);
#7=(NAMED_UNIT(*)SI_UNIT($,.STERADIAN.)SOLID_ANGLE_UNIT());
#8=(LENGTH_UNIT()NAMED_UNIT(*)SI_UNIT(.MILLI.,.METRE.));
#9=UNCERTAINTY_MEASURE_WITH_UNIT(LENGTH_MEASURE(1.000000E-05),#8,'DISTANCE_ACCURACY_VALUE','Maximum Tolerance applied to model');
#10=(GEOMETRIC_REPRESENTATION_CONTEXT(3)GLOBAL_UNCERTAINTY_ASSIGNED_CONTEXT((#9))GLOBAL_UNIT_ASSIGNED_CONTEXT((#8,#5,#7))REPRESENTATION_CONTEXT('','/var/mobile/Containers/Data/Application/ED4C2A4C-7E5D-45B7-BA36-C01864C68EB8/Documents/B70B83FD-048E-4DC3-8234-7F46123334F2.tmp'));
#12=CARTESIAN_POINT('',(0.,0.,0.));
#13=DIRECTION('',(0.,0.,1.));
#14=DIRECTION('',(1.,0.,0.));
#15=AXIS2_PLACEMENT_3D('',#12,#13,#14);
#27=CARTESIAN_POINT('',(30.,0.,13.5));
#28=DIRECTION('',(0.,0.,-1.));
#29=DIRECTION('',(-1.,0.,-0.));
#30=AXIS2_PLACEMENT_3D('',#27,#28,#29);
#31=PLANE('',#30);
#32=CARTESIAN_POINT('',(45.5,7.,13.5));
#33=VERTEX_POINT('',#32);
#34=CARTESIAN_POINT('',(47.,7.,13.5));
#35=DIRECTION('',(0.,0.,-1.));
#36=DIRECTION('',(-1.,0.,-0.));
#37=AXIS2_PLACEMENT_3D('',#34,#35,#36);
#38=CIRCLE('',#37,1.5);
#39=EDGE_CURVE('',#33,#33,#38,.T.);
#40=ORIENTED_EDGE('',*,*,#39,.T.);
#41=EDGE_LOOP('',(#40));
#42=FACE_BOUND('',#41,.T.);
#43=CARTESIAN_POINT('',(45.5,-17.,13.5));
#44=VERTEX_POINT('',#43);
#45=CARTESIAN_POINT('',(47.,-17.,13.5));
#46=DIRECTION('',(0.,0.,-1.));
#47=DIRECTION('',(-1.,0.,-0.));
#48=AXIS2_PLACEMENT_3D('',#45,#46,#47);
#49=CIRCLE('',#48,1.5);
#50=EDGE_CURVE('',#44,#44,#49,.T.);
#51=ORIENTED_EDGE('',*,*,#50,.T.);
#52=EDGE_LOOP('',(#51));
#53=FACE_BOUND('',#52,.T.);
#54=CARTESIAN_POINT('',(-18.5,7.,13.5));
#55=VERTEX_POINT('',#54);
#56=CARTESIAN_POINT('',(-17.,7.,13.5));
#57=DIRECTION('',(0.,0.,-1.));
#58=DIRECTION('',(-1.,0.,-0.));
#59=AXIS2_PLACEMENT_3D('',#56,#57,#58);
#60=CIRCLE('',#59,1.5);
#61=EDGE_CURVE('',#55,#55,#60,.T.);
#62=ORIENTED_EDGE('',*,*,#61,.T.);
#63=EDGE_LOOP('',(#62));
#64=FACE_BOUND('',#63,.T.);
#65=CARTESIAN_POINT('',(-18.5,-17.,13.5));
#66=VERTEX_POINT('',#65);
#67=CARTESIAN_POINT('',(-17.,-17.,13.5));
#68=DIRECTION('',(0.,0.,-1.));
#69=DIRECTION('',(-1.,0.,-0.));
#70=AXIS2_PLACEMENT_3D('',#67,#68,#69);
#71=CIRCLE('',#70,1.5);
#72=EDGE_CURVE('',#66,#66,#71,.T.);
#73=ORIENTED_EDGE('',*,*,#72,.T.);
#74=EDGE_LOOP('',(#73));
#75=FACE_BOUND('',#74,.T.);
#76=CARTESIAN_POINT('',(47.5,-20.,13.5));
#77=VERTEX_POINT('',#76);
#78=CARTESIAN_POINT('',(-17.5,-20.,13.5));
#79=VERTEX_POINT('',#78);
#80=CARTESIAN_POINT('',(47.5,-20.,13.5));
#81=DIRECTION('',(-1.,0.,-0.));
#82=VECTOR('',#81,65.);
#83=LINE('',#80,#82);
#84=EDGE_CURVE('',#77,#79,#83,.T.);
#85=ORIENTED_EDGE('',*,*,#84,.F.);
#86=CARTESIAN_POINT('',(50.,-17.5,13.5));
#87=VERTEX_POINT('',#86);
#88=CARTESIAN_POINT('',(47.5,-17.5,13.5));
#89=DIRECTION('',(-0.,-0.,1.));
#90=DIRECTION('',(-1.,0.,-0.));
#91=AXIS2_PLACEMENT_3D('',#88,#89,#90);
#92=CIRCLE('',#91,2.5);
#93=EDGE_CURVE('',#77,#87,#92,.T.);
#94=ORIENTED_EDGE('',*,*,#93,.T.);
#95=CARTESIAN_POINT('',(50.,7.5,13.5));
#96=VERTEX_POINT('',#95);
#97=CARTESIAN_POINT('',(50.,7.5,13.5));
#98=DIRECTION('',(0.,-1.,0.));
#99=VECTOR('',#98,25.);
#100=LINE('',#97,#99);
#101=EDGE_CURVE('',#96,#87,#100,.T.);
#102=ORIENTED_EDGE('',*,*,#101,.F.);
#103=CARTESIAN_POINT('',(47.5,10.,13.5));
#104=VERTEX_POINT('',#103);
#105=CARTESIAN_POINT('',(47.5,7.5,13.5));
#106=DIRECTION('',(-0.,-0.,1.));
#107=DIRECTION('',(-1.,0.,-0.));
#108=AXIS2_PLACEMENT_3D('',#105,#106,#107);
#109=CIRCLE('',#108,2.5);
#110=EDGE_CURVE('',#96,#104,#109,.T.);
#111=ORIENTED_EDGE('',*,*,#110,.T.);
#112=CARTESIAN_POINT('',(-17.5,10.,13.5));
#113=VERTEX_POINT('',#112);
#114=CARTESIAN_POINT('',(47.5,10.,13.5));
#115=DIRECTION('',(-1.,0.,-0.));
#116=VECTOR('',#115,65.);
#117=LINE('',#114,#116);
#118=EDGE_CURVE('',#104,#113,#117,.T.);
#119=ORIENTED_EDGE('',*,*,#118,.T.);
#120=CARTESIAN_POINT('',(-20.,7.5,13.5));
#121=VERTEX_POINT('',#120);
#122=CARTESIAN_POINT('',(-17.5,7.5,13.5));
#123=DIRECTION('',(-0.,-0.,1.));
#124=DIRECTION('',(-1.,0.,-0.));
#125=AXIS2_PLACEMENT_3D('',#122,#123,#124);
#126=CIRCLE('',#125,2.5);
#127=EDGE_CURVE('',#113,#121,#126,.T.);
#128=ORIENTED_EDGE('',*,*,#127,.T.);
#129=CARTESIAN_POINT('',(-20.,-17.5,13.5));
#130=VERTEX_POINT('',#129);
#131=CARTESIAN_POINT('',(-20.,7.5,13.5));
#132=DIRECTION('',(0.,-1.,0.));
#133=VECTOR('',#132,25.);
#134=LINE('',#131,#133);
#135=EDGE_CURVE('',#121,#130,#134,.T.);
#136=ORIENTED_EDGE('',*,*,#135,.T.);
#137=CARTESIAN_POINT('',(-17.5,-17.5,13.5));
#138=DIRECTION('',(-0.,-0.,1.));
#139=DIRECTION('',(-1.,0.,-0.));
#140=AXIS2_PLACEMENT_3D('',#137,#138,#139);
#141=CIRCLE('',#140,2.5);
#142=EDGE_CURVE('',#130,#79,#141,.T.);
#143=ORIENTED_EDGE('',*,*,#142,.T.);
#144=EDGE_LOOP('',(#85,#94,#102,#111,#119,#128,#136,#143));
#145=FACE_BOUND('',#144,.T.);
#146=CARTESIAN_POINT('',(4.,8.5,13.5));
#147=VERTEX_POINT('',#146);
#148=CARTESIAN_POINT('',(20.5,8.5,13.5));
#149=VERTEX_POINT('',#148);
#150=CARTESIAN_POINT('',(4.,8.5,13.5));
#151=DIRECTION('',(1.,-0.,0.));
#152=VECTOR('',#151,16.5);
#153=LINE('',#150,#152);
#154=EDGE_CURVE('',#147,#149,#153,.T.);
#155=ORIENTED_EDGE('',*,*,#154,.T.);
#156=CARTESIAN_POINT('',(32.,-5.5,13.5));
#157=VERTEX_POINT('',#156);
#158=CARTESIAN_POINT('',(20.5,8.5,13.5));
#159=CARTESIAN_POINT('',(26.089698126,8.122087024,13.5));
#160=CARTESIAN_POINT('',(32.078200416,1.373201377,13.5));
#161=CARTESIAN_POINT('',(32.,-5.5,13.5));
#162=B_SPLINE_CURVE_WITH_KNOTS('',2,(#158,#159,#160,#161),.UNSPECIFIED.,.F.,.F.,(3,1,3),(0.,0.479789053,1.),.UNSPECIFIED.);
#163=EDGE_CURVE('',#149,#157,#162,.T.);
#164=ORIENTED_EDGE('',*,*,#163,.T.);
#165=CARTESIAN_POINT('',(20.5,-18.5,13.5));
#166=VERTEX_POINT('',#165);
#167=CARTESIAN_POINT('',(32.,-5.5,13.5));
#168=CARTESIAN_POINT('',(31.98356715,-17.740909734,13.5));
#169=CARTESIAN_POINT('',(20.5,-18.5,13.5));
#170=B_SPLINE_CURVE_WITH_KNOTS('',2,(#167,#168,#169),.UNSPECIFIED.,.F.,.F.,(3,3),(0.,1.),.UNSPECIFIED.);
#171=EDGE_CURVE('',#157,#166,#170,.T.);
#172=ORIENTED_EDGE('',*,*,#171,.T.);
#173=CARTESIAN_POINT('',(4.,-18.5,13.5));
#174=VERTEX_POINT('',#173);
#175=CARTESIAN_POINT('',(4.,-18.5,13.5));
#176=DIRECTION('',(1.,-0.,0.));
#177=VECTOR('',#176,16.5);
#178=LINE('',#175,#177);
#179=EDGE_CURVE('',#174,#166,#178,.T.);
#180=ORIENTED_EDGE('',*,*,#179,.F.);
#181=CARTESIAN_POINT('',(-8.,-5.,13.5));
#182=VERTEX_POINT('',#181);
#183=CARTESIAN_POINT('',(-8.,-5.,13.5));
#184=CARTESIAN_POINT('',(-8.236438789,-17.989049438,13.5));
#185=CARTESIAN_POINT('',(4.,-18.5,13.5));
#186=B_SPLINE_CURVE_WITH_KNOTS('',2,(#183,#184,#185),.UNSPECIFIED.,.F.,.F.,(3,3),(0.,1.),.UNSPECIFIED.);
#187=EDGE_CURVE('',#182,#174,#186,.T.);
#188=ORIENTED_EDGE('',*,*,#187,.F.);
#189=CARTESIAN_POINT('',(-8.,-5.,13.5));
#190=CARTESIAN_POINT('',(-8.236438789,7.989049438,13.5));
#191=CARTESIAN_POINT('',(4.,8.5,13.5));
#192=B_SPLINE_CURVE_WITH_KNOTS('',2,(#189,#190,#191),.UNSPECIFIED.,.F.,.F.,(3,3),(0.,1.),.UNSPECIFIED.);
#193=EDGE_CURVE('',#182,#147,#192,.T.);
#194=ORIENTED_EDGE('',*,*,#193,.T.);
#195=EDGE_LOOP('',(#155,#164,#172,#180,#188,#194));
#196=FACE_BOUND('',#195,.T.);
#197=ADVANCED_FACE('',(#42,#53,#64,#75,#145,#196),#31,.F.);
#198=CARTESIAN_POINT('',(-11.,-15.,-2.5));
#199=DIRECTION('',(1.,-0.,0.));
#200=DIRECTION('',(-0.,-1.,-0.));
#201=AXIS2_PLACEMENT_3D('',#198,#199,#200);
#202=PLANE('',#201);
#203=CARTESIAN_POINT('',(-11.,-13.,-2.));
#204=VERTEX_POINT('',#203);
#205=CARTESIAN_POINT('',(-11.,-19.5,-2.));
#206=VERTEX_POINT('',#205);
#207=CARTESIAN_POINT('',(-11.,-13.,-2.));
#208=DIRECTION('',(-0.,-1.,-0.));
#209=VECTOR('',#208,6.5);
#210=LINE('',#207,#209);
#211=EDGE_CURVE('',#204,#206,#210,.T.);
#212=ORIENTED_EDGE('',*,*,#211,.T.);
#213=CARTESIAN_POINT('',(-11.,-19.5,11.));
#214=VERTEX_POINT('',#213);
#215=CARTESIAN_POINT('',(-11.,-19.5,-2.));
#216=DIRECTION('',(-0.,0.,1.));
#217=VECTOR('',#216,13.);
#218=LINE('',#215,#217);
#219=EDGE_CURVE('',#206,#214,#218,.T.);
#220=ORIENTED_EDGE('',*,*,#219,.T.);
#221=CARTESIAN_POINT('',(-11.,-13.,11.));
#222=VERTEX_POINT('',#221);
#223=CARTESIAN_POINT('',(-11.,-19.5,11.));
#224=DIRECTION('',(0.,1.,0.));
#225=VECTOR('',#224,6.5);
#226=LINE('',#223,#225);
#227=EDGE_CURVE('',#214,#222,#226,.T.);
#228=ORIENTED_EDGE('',*,*,#227,.T.);
#229=CARTESIAN_POINT('',(-11.,-13.,11.));
#230=DIRECTION('',(0.,-0.,-1.));
#231=VECTOR('',#230,13.);
#232=LINE('',#229,#231);
#233=EDGE_CURVE('',#222,#204,#232,.T.);
#234=ORIENTED_EDGE('',*,*,#233,.T.);
#235=EDGE_LOOP('',(#212,#220,#228,#234));
#236=FACE_BOUND('',#235,.T.);
#237=ADVANCED_FACE('',(#236),#202,.F.);
#238=CARTESIAN_POINT('',(-14.5,-10.,-2.5));
#239=DIRECTION('',(0.,1.,0.));
#240=DIRECTION('',(1.,-0.,0.));
#241=AXIS2_PLACEMENT_3D('',#238,#239,#240);
#242=PLANE('',#241);
#243=CARTESIAN_POINT('',(-17.5,-10.,11.));
#244=VERTEX_POINT('',#243);
#245=CARTESIAN_POINT('',(-17.5,-10.,-2.));
#246=VERTEX_POINT('',#245);
#247=CARTESIAN_POINT('',(-17.5,-10.,11.));
#248=DIRECTION('',(0.,-0.,-1.));
#249=VECTOR('',#248,13.);
#250=LINE('',#247,#249);
#251=EDGE_CURVE('',#244,#246,#250,.T.);
#252=ORIENTED_EDGE('',*,*,#251,.T.);
#253=CARTESIAN_POINT('',(-14.,-10.,-2.));
#254=VERTEX_POINT('',#253);
#255=CARTESIAN_POINT('',(-17.5,-10.,-2.));
#256=DIRECTION('',(1.,-0.,0.));
#257=VECTOR('',#256,3.5);
#258=LINE('',#255,#257);
#259=EDGE_CURVE('',#246,#254,#258,.T.);
#260=ORIENTED_EDGE('',*,*,#259,.T.);
#261=CARTESIAN_POINT('',(-14.,-10.,11.));
#262=VERTEX_POINT('',#261);
#263=CARTESIAN_POINT('',(-14.,-10.,-2.));
#264=DIRECTION('',(-0.,0.,1.));
#265=VECTOR('',#264,13.);
#266=LINE('',#263,#265);
#267=EDGE_CURVE('',#254,#262,#266,.T.);
#268=ORIENTED_EDGE('',*,*,#267,.T.);
#269=CARTESIAN_POINT('',(-14.,-10.,11.));
#270=DIRECTION('',(-1.,0.,-0.));
#271=VECTOR('',#270,3.5);
#272=LINE('',#269,#271);
#273=EDGE_CURVE('',#262,#244,#272,.T.);
#274=ORIENTED_EDGE('',*,*,#273,.T.);
#275=EDGE_LOOP('',(#252,#260,#268,#274));
#276=FACE_BOUND('',#275,.T.);
#277=ADVANCED_FACE('',(#276),#242,.F.);
#278=CARTESIAN_POINT('',(-18.,-5.,-2.5));
#279=DIRECTION('',(-1.,0.,-0.));
#280=DIRECTION('',(-0.,0.,1.));
#281=AXIS2_PLACEMENT_3D('',#278,#279,#280);
#282=PLANE('',#281);
#283=CARTESIAN_POINT('',(-18.,-0.5,11.));
#284=VERTEX_POINT('',#283);
#285=CARTESIAN_POINT('',(-18.,-9.5,11.));
#286=VERTEX_POINT('',#285);
#287=CARTESIAN_POINT('',(-18.,-0.5,11.));
#288=DIRECTION('',(0.,-1.,0.));
#289=VECTOR('',#288,9.);
#290=LINE('',#287,#289);
#291=EDGE_CURVE('',#284,#286,#290,.T.);
#292=ORIENTED_EDGE('',*,*,#291,.F.);
#293=CARTESIAN_POINT('',(-18.,-0.5,-2.));
#294=VERTEX_POINT('',#293);
#295=CARTESIAN_POINT('',(-18.,-0.5,11.));
#296=DIRECTION('',(0.,-0.,-1.));
#297=VECTOR('',#296,13.);
#298=LINE('',#295,#297);
#299=EDGE_CURVE('',#284,#294,#298,.T.);
#300=ORIENTED_EDGE('',*,*,#299,.T.);
#301=CARTESIAN_POINT('',(-18.,-9.5,-2.));
#302=VERTEX_POINT('',#301);
#303=CARTESIAN_POINT('',(-18.,-0.5,-2.));
#304=DIRECTION('',(0.,-1.,0.));
#305=VECTOR('',#304,9.);
#306=LINE('',#303,#305);
#307=EDGE_CURVE('',#294,#302,#306,.T.);
#308=ORIENTED_EDGE('',*,*,#307,.T.);
#309=CARTESIAN_POINT('',(-18.,-9.5,-2.));
#310=DIRECTION('',(-0.,0.,1.));
#311=VECTOR('',#310,13.);
#312=LINE('',#309,#311);
#313=EDGE_CURVE('',#302,#286,#312,.T.);
#314=ORIENTED_EDGE('',*,*,#313,.T.);
#315=EDGE_LOOP('',(#292,#300,#308,#314));
#316=FACE_BOUND('',#315,.T.);
#317=ADVANCED_FACE('',(#316),#282,.T.);
#318=CARTESIAN_POINT('',(-14.5,0.,-2.5));
#319=DIRECTION('',(0.,1.,0.));
#320=DIRECTION('',(0.,0.,-1.));
#321=AXIS2_PLACEMENT_3D('',#318,#319,#320);
#322=PLANE('',#321);
#323=CARTESIAN_POINT('',(-14.,0.,11.));
#324=VERTEX_POINT('',#323);
#325=CARTESIAN_POINT('',(-14.,0.,-2.));
#326=VERTEX_POINT('',#325);
#327=CARTESIAN_POINT('',(-14.,0.,11.));
#328=DIRECTION('',(0.,-0.,-1.));
#329=VECTOR('',#328,13.);
#330=LINE('',#327,#329);
#331=EDGE_CURVE('',#324,#326,#330,.T.);
#332=ORIENTED_EDGE('',*,*,#331,.T.);
#333=CARTESIAN_POINT('',(-17.5,0.,-2.));
#334=VERTEX_POINT('',#333);
#335=CARTESIAN_POINT('',(-14.,0.,-2.));
#336=DIRECTION('',(-1.,0.,-0.));
#337=VECTOR('',#336,3.5);
#338=LINE('',#335,#337);
#339=EDGE_CURVE('',#326,#334,#338,.T.);
#340=ORIENTED_EDGE('',*,*,#339,.T.);
#341=CARTESIAN_POINT('',(-17.5,0.,11.));
#342=VERTEX_POINT('',#341);
#343=CARTESIAN_POINT('',(-17.5,0.,-2.));
#344=DIRECTION('',(-0.,0.,1.));
#345=VECTOR('',#344,13.);
#346=LINE('',#343,#345);
#347=EDGE_CURVE('',#334,#342,#346,.T.);
#348=ORIENTED_EDGE('',*,*,#347,.T.);
#349=CARTESIAN_POINT('',(-14.,0.,11.));
#350=DIRECTION('',(-1.,0.,-0.));
#351=VECTOR('',#350,3.5);
#352=LINE('',#349,#351);
#353=EDGE_CURVE('',#324,#342,#352,.T.);
#354=ORIENTED_EDGE('',*,*,#353,.F.);
#355=EDGE_LOOP('',(#332,#340,#348,#354));
#356=FACE_BOUND('',#355,.T.);
#357=ADVANCED_FACE('',(#356),#322,.T.);
#358=CARTESIAN_POINT('',(-11.,5.,-2.5));
#359=DIRECTION('',(-1.,0.,-0.));
#360=DIRECTION('',(0.,1.,0.));
#361=AXIS2_PLACEMENT_3D('',#358,#359,#360);
#362=PLANE('',#361);
#363=CARTESIAN_POINT('',(-11.,9.5,11.));
#364=VERTEX_POINT('',#363);
#365=CARTESIAN_POINT('',(-11.,9.5,-2.));
#366=VERTEX_POINT('',#365);
#367=CARTESIAN_POINT('',(-11.,9.5,11.));
#368=DIRECTION('',(0.,-0.,-1.));
#369=VECTOR('',#368,13.);
#370=LINE('',#367,#369);
#371=EDGE_CURVE('',#364,#366,#370,.T.);
#372=ORIENTED_EDGE('',*,*,#371,.T.);
#373=CARTESIAN_POINT('',(-11.,3.,-2.));
#374=VERTEX_POINT('',#373);
#375=CARTESIAN_POINT('',(-11.,9.5,-2.));
#376=DIRECTION('',(-0.,-1.,-0.));
#377=VECTOR('',#376,6.5);
#378=LINE('',#375,#377);
#379=EDGE_CURVE('',#366,#374,#378,.T.);
#380=ORIENTED_EDGE('',*,*,#379,.T.);
#381=CARTESIAN_POINT('',(-11.,3.,11.));
#382=VERTEX_POINT('',#381);
#383=CARTESIAN_POINT('',(-11.,3.,-2.));
#384=DIRECTION('',(-0.,0.,1.));
#385=VECTOR('',#384,13.);
#386=LINE('',#383,#385);
#387=EDGE_CURVE('',#374,#382,#386,.T.);
#388=ORIENTED_EDGE('',*,*,#387,.T.);
#389=CARTESIAN_POINT('',(-11.,9.5,11.));
#390=DIRECTION('',(-0.,-1.,-0.));
#391=VECTOR('',#390,6.5);
#392=LINE('',#389,#391);
#393=EDGE_CURVE('',#364,#382,#392,.T.);
#394=ORIENTED_EDGE('',*,*,#393,.F.);
#395=EDGE_LOOP('',(#372,#380,#388,#394));
#396=FACE_BOUND('',#395,.T.);
#397=ADVANCED_FACE('',(#396),#362,.T.);
#398=CARTESIAN_POINT('',(15.,10.,-2.5));
#399=DIRECTION('',(0.,1.,0.));
#400=DIRECTION('',(1.,-0.,0.));
#401=AXIS2_PLACEMENT_3D('',#398,#399,#400);
#402=PLANE('',#401);
#403=CARTESIAN_POINT('',(-10.5,10.,-2.));
#404=VERTEX_POINT('',#403);
#405=CARTESIAN_POINT('',(-10.5,10.,11.));
#406=VERTEX_POINT('',#405);
#407=CARTESIAN_POINT('',(-10.5,10.,-2.));
#408=DIRECTION('',(-0.,0.,1.));
#409=VECTOR('',#408,13.);
#410=LINE('',#407,#409);
#411=EDGE_CURVE('',#404,#406,#410,.T.);
#412=ORIENTED_EDGE('',*,*,#411,.T.);
#413=CARTESIAN_POINT('',(-17.5,10.,11.));
#414=VERTEX_POINT('',#413);
#415=CARTESIAN_POINT('',(-10.5,10.,11.));
#416=DIRECTION('',(-1.,0.,-0.));
#417=VECTOR('',#416,7.);
#418=LINE('',#415,#417);
#419=EDGE_CURVE('',#406,#414,#418,.T.);
#420=ORIENTED_EDGE('',*,*,#419,.T.);
#421=CARTESIAN_POINT('',(-17.5,10.,11.));
#422=DIRECTION('',(-0.,-0.,1.));
#423=VECTOR('',#422,2.5);
#424=LINE('',#421,#423);
#425=EDGE_CURVE('',#414,#113,#424,.T.);
#426=ORIENTED_EDGE('',*,*,#425,.T.);
#427=ORIENTED_EDGE('',*,*,#118,.F.);
#428=CARTESIAN_POINT('',(47.5,10.,11.));
#429=VERTEX_POINT('',#428);
#430=CARTESIAN_POINT('',(47.5,10.,13.5));
#431=DIRECTION('',(0.,0.,-1.));
#432=VECTOR('',#431,2.5);
#433=LINE('',#430,#432);
#434=EDGE_CURVE('',#104,#429,#433,.T.);
#435=ORIENTED_EDGE('',*,*,#434,.T.);
#436=CARTESIAN_POINT('',(40.5,10.,11.));
#437=VERTEX_POINT('',#436);
#438=CARTESIAN_POINT('',(47.5,10.,11.));
#439=DIRECTION('',(-1.,0.,-0.));
#440=VECTOR('',#439,7.);
#441=LINE('',#438,#440);
#442=EDGE_CURVE('',#429,#437,#441,.T.);
#443=ORIENTED_EDGE('',*,*,#442,.T.);
#444=CARTESIAN_POINT('',(40.5,10.,-2.));
#445=VERTEX_POINT('',#444);
#446=CARTESIAN_POINT('',(40.5,10.,11.));
#447=DIRECTION('',(0.,-0.,-1.));
#448=VECTOR('',#447,13.);
#449=LINE('',#446,#448);
#450=EDGE_CURVE('',#437,#445,#449,.T.);
#451=ORIENTED_EDGE('',*,*,#450,.T.);
#452=CARTESIAN_POINT('',(40.5,10.,-2.));
#453=DIRECTION('',(-1.,0.,-0.));
#454=VECTOR('',#453,51.);
#455=LINE('',#452,#454);
#456=EDGE_CURVE('',#445,#404,#455,.T.);
#457=ORIENTED_EDGE('',*,*,#456,.T.);
#458=EDGE_LOOP('',(#412,#420,#426,#427,#435,#443,#451,#457));
#459=FACE_BOUND('',#458,.T.);
#460=ADVANCED_FACE('',(#459),#402,.T.);
#461=CARTESIAN_POINT('',(41.,5.,-2.5));
#462=DIRECTION('',(-1.,0.,-0.));
#463=DIRECTION('',(0.,1.,0.));
#464=AXIS2_PLACEMENT_3D('',#461,#462,#463);
#465=PLANE('',#464);
#466=CARTESIAN_POINT('',(41.,3.,-2.));
#467=VERTEX_POINT('',#466);
#468=CARTESIAN_POINT('',(41.,9.5,-2.));
#469=VERTEX_POINT('',#468);
#470=CARTESIAN_POINT('',(41.,3.,-2.));
#471=DIRECTION('',(0.,1.,0.));
#472=VECTOR('',#471,6.5);
#473=LINE('',#470,#472);
#474=EDGE_CURVE('',#467,#469,#473,.T.);
#475=ORIENTED_EDGE('',*,*,#474,.T.);
#476=CARTESIAN_POINT('',(41.,9.5,11.));
#477=VERTEX_POINT('',#476);
#478=CARTESIAN_POINT('',(41.,9.5,-2.));
#479=DIRECTION('',(-0.,0.,1.));
#480=VECTOR('',#479,13.);
#481=LINE('',#478,#480);
#482=EDGE_CURVE('',#469,#477,#481,.T.);
#483=ORIENTED_EDGE('',*,*,#482,.T.);
#484=CARTESIAN_POINT('',(41.,3.,11.));
#485=VERTEX_POINT('',#484);
#486=CARTESIAN_POINT('',(41.,9.5,11.));
#487=DIRECTION('',(-0.,-1.,-0.));
#488=VECTOR('',#487,6.5);
#489=LINE('',#486,#488);
#490=EDGE_CURVE('',#477,#485,#489,.T.);
#491=ORIENTED_EDGE('',*,*,#490,.T.);
#492=CARTESIAN_POINT('',(41.,3.,11.));
#493=DIRECTION('',(0.,-0.,-1.));
#494=VECTOR('',#493,13.);
#495=LINE('',#492,#494);
#496=EDGE_CURVE('',#485,#467,#495,.T.);
#497=ORIENTED_EDGE('',*,*,#496,.T.);
#498=EDGE_LOOP('',(#475,#483,#491,#497));
#499=FACE_BOUND('',#498,.T.);
#500=ADVANCED_FACE('',(#499),#465,.F.);
#501=CARTESIAN_POINT('',(44.5,0.,-2.5));
#502=DIRECTION('',(0.,1.,0.));
#503=DIRECTION('',(0.,0.,-1.));
#504=AXIS2_PLACEMENT_3D('',#501,#502,#503);
#505=PLANE('',#504);
#506=CARTESIAN_POINT('',(47.5,0.,11.));
#507=VERTEX_POINT('',#506);
#508=CARTESIAN_POINT('',(44.,0.,11.));
#509=VERTEX_POINT('',#508);
#510=CARTESIAN_POINT('',(47.5,0.,11.));
#511=DIRECTION('',(-1.,0.,-0.));
#512=VECTOR('',#511,3.5);
#513=LINE('',#510,#512);
#514=EDGE_CURVE('',#507,#509,#513,.T.);
#515=ORIENTED_EDGE('',*,*,#514,.F.);
#516=CARTESIAN_POINT('',(47.5,0.,-2.));
#517=VERTEX_POINT('',#516);
#518=CARTESIAN_POINT('',(47.5,0.,11.));
#519=DIRECTION('',(0.,-0.,-1.));
#520=VECTOR('',#519,13.);
#521=LINE('',#518,#520);
#522=EDGE_CURVE('',#507,#517,#521,.T.);
#523=ORIENTED_EDGE('',*,*,#522,.T.);
#524=CARTESIAN_POINT('',(44.,0.,-2.));
#525=VERTEX_POINT('',#524);
#526=CARTESIAN_POINT('',(47.5,0.,-2.));
#527=DIRECTION('',(-1.,0.,-0.));
#528=VECTOR('',#527,3.5);
#529=LINE('',#526,#528);
#530=EDGE_CURVE('',#517,#525,#529,.T.);
#531=ORIENTED_EDGE('',*,*,#530,.T.);
#532=CARTESIAN_POINT('',(44.,0.,-2.));
#533=DIRECTION('',(-0.,0.,1.));
#534=VECTOR('',#533,13.);
#535=LINE('',#532,#534);
#536=EDGE_CURVE('',#525,#509,#535,.T.);
#537=ORIENTED_EDGE('',*,*,#536,.T.);
#538=EDGE_LOOP('',(#515,#523,#531,#537));
#539=FACE_BOUND('',#538,.T.);
#540=ADVANCED_FACE('',(#539),#505,.T.);
#541=CARTESIAN_POINT('',(48.,-5.,-2.5));
#542=DIRECTION('',(-1.,0.,-0.));
#543=DIRECTION('',(-0.,0.,1.));
#544=AXIS2_PLACEMENT_3D('',#541,#542,#543);
#545=PLANE('',#544);
#546=CARTESIAN_POINT('',(48.,-9.5,-2.));
#547=VERTEX_POINT('',#546);
#548=CARTESIAN_POINT('',(48.,-0.5,-2.));
#549=VERTEX_POINT('',#548);
#550=CARTESIAN_POINT('',(48.,-9.5,-2.));
#551=DIRECTION('',(-0.,1.,-0.));
#552=VECTOR('',#551,9.);
#553=LINE('',#550,#552);
#554=EDGE_CURVE('',#547,#549,#553,.T.);
#555=ORIENTED_EDGE('',*,*,#554,.T.);
#556=CARTESIAN_POINT('',(48.,-0.5,11.));
#557=VERTEX_POINT('',#556);
#558=CARTESIAN_POINT('',(48.,-0.5,-2.));
#559=DIRECTION('',(-0.,0.,1.));
#560=VECTOR('',#559,13.);
#561=LINE('',#558,#560);
#562=EDGE_CURVE('',#549,#557,#561,.T.);
#563=ORIENTED_EDGE('',*,*,#562,.T.);
#564=CARTESIAN_POINT('',(48.,-9.5,11.));
#565=VERTEX_POINT('',#564);
#566=CARTESIAN_POINT('',(48.,-0.5,11.));
#567=DIRECTION('',(0.,-1.,0.));
#568=VECTOR('',#567,9.);
#569=LINE('',#566,#568);
#570=EDGE_CURVE('',#557,#565,#569,.T.);
#571=ORIENTED_EDGE('',*,*,#570,.T.);
#572=CARTESIAN_POINT('',(48.,-9.5,11.));
#573=DIRECTION('',(0.,-0.,-1.));
#574=VECTOR('',#573,13.);
#575=LINE('',#572,#574);
#576=EDGE_CURVE('',#565,#547,#575,.T.);
#577=ORIENTED_EDGE('',*,*,#576,.T.);
#578=EDGE_LOOP('',(#555,#563,#571,#577));
#579=FACE_BOUND('',#578,.T.);
#580=ADVANCED_FACE('',(#579),#545,.F.);
#581=CARTESIAN_POINT('',(44.5,-10.,-2.5));
#582=DIRECTION('',(0.,1.,0.));
#583=DIRECTION('',(0.,0.,-1.));
#584=AXIS2_PLACEMENT_3D('',#581,#582,#583);
#585=PLANE('',#584);
#586=CARTESIAN_POINT('',(44.,-10.,-2.));
#587=VERTEX_POINT('',#586);
#588=CARTESIAN_POINT('',(47.5,-10.,-2.));
#589=VERTEX_POINT('',#588);
#590=CARTESIAN_POINT('',(44.,-10.,-2.));
#591=DIRECTION('',(1.,-0.,0.));
#592=VECTOR('',#591,3.5);
#593=LINE('',#590,#592);
#594=EDGE_CURVE('',#587,#589,#593,.T.);
#595=ORIENTED_EDGE('',*,*,#594,.T.);
#596=CARTESIAN_POINT('',(47.5,-10.,11.));
#597=VERTEX_POINT('',#596);
#598=CARTESIAN_POINT('',(47.5,-10.,-2.));
#599=DIRECTION('',(-0.,0.,1.));
#600=VECTOR('',#599,13.);
#601=LINE('',#598,#600);
#602=EDGE_CURVE('',#589,#597,#601,.T.);
#603=ORIENTED_EDGE('',*,*,#602,.T.);
#604=CARTESIAN_POINT('',(44.,-10.,11.));
#605=VERTEX_POINT('',#604);
#606=CARTESIAN_POINT('',(47.5,-10.,11.));
#607=DIRECTION('',(-1.,0.,-0.));
#608=VECTOR('',#607,3.5);
#609=LINE('',#606,#608);
#610=EDGE_CURVE('',#597,#605,#609,.T.);
#611=ORIENTED_EDGE('',*,*,#610,.T.);
#612=CARTESIAN_POINT('',(44.,-10.,11.));
#613=DIRECTION('',(0.,-0.,-1.));
#614=VECTOR('',#613,13.);
#615=LINE('',#612,#614);
#616=EDGE_CURVE('',#605,#587,#615,.T.);
#617=ORIENTED_EDGE('',*,*,#616,.T.);
#618=EDGE_LOOP('',(#595,#603,#611,#617));
#619=FACE_BOUND('',#618,.T.);
#620=ADVANCED_FACE('',(#619),#585,.F.);
#621=CARTESIAN_POINT('',(41.,-15.,-2.5));
#622=DIRECTION('',(1.,0.,0.));
#623=DIRECTION('',(0.,0.,-1.));
#624=AXIS2_PLACEMENT_3D('',#621,#622,#623);
#625=PLANE('',#624);
#626=CARTESIAN_POINT('',(41.,-19.5,11.));
#627=VERTEX_POINT('',#626);
#628=CARTESIAN_POINT('',(41.,-13.,11.));
#629=VERTEX_POINT('',#628);
#630=CARTESIAN_POINT('',(41.,-19.5,11.));
#631=DIRECTION('',(0.,1.,0.));
#632=VECTOR('',#631,6.5);
#633=LINE('',#630,#632);
#634=EDGE_CURVE('',#627,#629,#633,.T.);
#635=ORIENTED_EDGE('',*,*,#634,.F.);
#636=CARTESIAN_POINT('',(41.,-19.5,-2.));
#637=VERTEX_POINT('',#636);
#638=CARTESIAN_POINT('',(41.,-19.5,11.));
#639=DIRECTION('',(0.,-0.,-1.));
#640=VECTOR('',#639,13.);
#641=LINE('',#638,#640);
#642=EDGE_CURVE('',#627,#637,#641,.T.);
#643=ORIENTED_EDGE('',*,*,#642,.T.);
#644=CARTESIAN_POINT('',(41.,-13.,-2.));
#645=VERTEX_POINT('',#644);
#646=CARTESIAN_POINT('',(41.,-19.5,-2.));
#647=DIRECTION('',(0.,1.,0.));
#648=VECTOR('',#647,6.5);
#649=LINE('',#646,#648);
#650=EDGE_CURVE('',#637,#645,#649,.T.);
#651=ORIENTED_EDGE('',*,*,#650,.T.);
#652=CARTESIAN_POINT('',(41.,-13.,-2.));
#653=DIRECTION('',(-0.,0.,1.));
#654=VECTOR('',#653,13.);
#655=LINE('',#652,#654);
#656=EDGE_CURVE('',#645,#629,#655,.T.);
#657=ORIENTED_EDGE('',*,*,#656,.T.);
#658=EDGE_LOOP('',(#635,#643,#651,#657));
#659=FACE_BOUND('',#658,.T.);
#660=ADVANCED_FACE('',(#659),#625,.T.);
#661=CARTESIAN_POINT('',(15.,-20.,-2.5));
#662=DIRECTION('',(0.,1.,0.));
#663=DIRECTION('',(0.,0.,-1.));
#664=AXIS2_PLACEMENT_3D('',#661,#662,#663);
#665=PLANE('',#664);
#666=CARTESIAN_POINT('',(40.5,-20.,-2.));
#667=VERTEX_POINT('',#666);
#668=CARTESIAN_POINT('',(40.5,-20.,11.));
#669=VERTEX_POINT('',#668);
#670=CARTESIAN_POINT('',(40.5,-20.,-2.));
#671=DIRECTION('',(-0.,0.,1.));
#672=VECTOR('',#671,13.);
#673=LINE('',#670,#672);
#674=EDGE_CURVE('',#667,#669,#673,.T.);
#675=ORIENTED_EDGE('',*,*,#674,.T.);
#676=CARTESIAN_POINT('',(47.5,-20.,11.));
#677=VERTEX_POINT('',#676);
#678=CARTESIAN_POINT('',(47.5,-20.,11.));
#679=DIRECTION('',(-1.,0.,-0.));
#680=VECTOR('',#679,7.);
#681=LINE('',#678,#680);
#682=EDGE_CURVE('',#677,#669,#681,.T.);
#683=ORIENTED_EDGE('',*,*,#682,.F.);
#684=CARTESIAN_POINT('',(47.5,-20.,11.));
#685=DIRECTION('',(-0.,-0.,1.));
#686=VECTOR('',#685,2.5);
#687=LINE('',#684,#686);
#688=EDGE_CURVE('',#677,#77,#687,.T.);
#689=ORIENTED_EDGE('',*,*,#688,.T.);
#690=ORIENTED_EDGE('',*,*,#84,.T.);
#691=CARTESIAN_POINT('',(-17.5,-20.,11.));
#692=VERTEX_POINT('',#691);
#693=CARTESIAN_POINT('',(-17.5,-20.,13.5));
#694=DIRECTION('',(0.,0.,-1.));
#695=VECTOR('',#694,2.5);
#696=LINE('',#693,#695);
#697=EDGE_CURVE('',#79,#692,#696,.T.);
#698=ORIENTED_EDGE('',*,*,#697,.T.);
#699=CARTESIAN_POINT('',(-10.5,-20.,11.));
#700=VERTEX_POINT('',#699);
#701=CARTESIAN_POINT('',(-10.5,-20.,11.));
#702=DIRECTION('',(-1.,0.,-0.));
#703=VECTOR('',#702,7.);
#704=LINE('',#701,#703);
#705=EDGE_CURVE('',#700,#692,#704,.T.);
#706=ORIENTED_EDGE('',*,*,#705,.F.);
#707=CARTESIAN_POINT('',(-10.5,-20.,-2.));
#708=VERTEX_POINT('',#707);
#709=CARTESIAN_POINT('',(-10.5,-20.,11.));
#710=DIRECTION('',(0.,-0.,-1.));
#711=VECTOR('',#710,13.);
#712=LINE('',#709,#711);
#713=EDGE_CURVE('',#700,#708,#712,.T.);
#714=ORIENTED_EDGE('',*,*,#713,.T.);
#715=CARTESIAN_POINT('',(-10.5,-20.,-2.));
#716=DIRECTION('',(1.,-0.,0.));
#717=VECTOR('',#716,51.);
#718=LINE('',#715,#717);
#719=EDGE_CURVE('',#708,#667,#718,.T.);
#720=ORIENTED_EDGE('',*,*,#719,.T.);
#721=EDGE_LOOP('',(#675,#683,#689,#690,#698,#706,#714,#720));
#722=FACE_BOUND('',#721,.T.);
#723=ADVANCED_FACE('',(#722),#665,.F.);
#724=CARTESIAN_POINT('',(30.,0.,-2.5));
#725=DIRECTION('',(0.,0.,-1.));
#726=DIRECTION('',(-1.,0.,-0.));
#727=AXIS2_PLACEMENT_3D('',#724,#725,#726);
#728=PLANE('',#727);
#729=CARTESIAN_POINT('',(-14.,-0.5,-2.5));
#730=VERTEX_POINT('',#729);
#731=CARTESIAN_POINT('',(-10.5,3.,-2.5));
#732=VERTEX_POINT('',#731);
#733=CARTESIAN_POINT('',(-14.,3.,-2.5));
#734=DIRECTION('',(-0.,-0.,1.));
#735=DIRECTION('',(-1.,0.,-0.));
#736=AXIS2_PLACEMENT_3D('',#733,#734,#735);
#737=CIRCLE('',#736,3.5);
#738=EDGE_CURVE('',#730,#732,#737,.T.);
#739=ORIENTED_EDGE('',*,*,#738,.T.);
#740=CARTESIAN_POINT('',(-10.5,9.5,-2.5));
#741=VERTEX_POINT('',#740);
#742=CARTESIAN_POINT('',(-10.5,3.,-2.5));
#743=DIRECTION('',(0.,1.,0.));
#744=VECTOR('',#743,6.5);
#745=LINE('',#742,#744);
#746=EDGE_CURVE('',#732,#741,#745,.T.);
#747=ORIENTED_EDGE('',*,*,#746,.T.);
#748=CARTESIAN_POINT('',(40.5,9.5,-2.5));
#749=VERTEX_POINT('',#748);
#750=CARTESIAN_POINT('',(-10.5,9.5,-2.5));
#751=DIRECTION('',(1.,-0.,0.));
#752=VECTOR('',#751,51.);
#753=LINE('',#750,#752);
#754=EDGE_CURVE('',#741,#749,#753,.T.);
#755=ORIENTED_EDGE('',*,*,#754,.T.);
#756=CARTESIAN_POINT('',(40.5,3.,-2.5));
#757=VERTEX_POINT('',#756);
#758=CARTESIAN_POINT('',(40.5,9.5,-2.5));
#759=DIRECTION('',(-0.,-1.,-0.));
#760=VECTOR('',#759,6.5);
#761=LINE('',#758,#760);
#762=EDGE_CURVE('',#749,#757,#761,.T.);
#763=ORIENTED_EDGE('',*,*,#762,.T.);
#764=CARTESIAN_POINT('',(44.,-0.5,-2.5));
#765=VERTEX_POINT('',#764);
#766=CARTESIAN_POINT('',(44.,3.,-2.5));
#767=DIRECTION('',(-0.,-0.,1.));
#768=DIRECTION('',(-1.,0.,-0.));
#769=AXIS2_PLACEMENT_3D('',#766,#767,#768);
#770=CIRCLE('',#769,3.5);
#771=EDGE_CURVE('',#757,#765,#770,.T.);
#772=ORIENTED_EDGE('',*,*,#771,.T.);
#773=CARTESIAN_POINT('',(47.5,-0.5,-2.5));
#774=VERTEX_POINT('',#773);
#775=CARTESIAN_POINT('',(44.,-0.5,-2.5));
#776=DIRECTION('',(1.,-0.,0.));
#777=VECTOR('',#776,3.5);
#778=LINE('',#775,#777);
#779=EDGE_CURVE('',#765,#774,#778,.T.);
#780=ORIENTED_EDGE('',*,*,#779,.T.);
#781=CARTESIAN_POINT('',(47.5,-9.5,-2.5));
#782=VERTEX_POINT('',#781);
#783=CARTESIAN_POINT('',(47.5,-0.5,-2.5));
#784=DIRECTION('',(0.,-1.,0.));
#785=VECTOR('',#784,9.);
#786=LINE('',#783,#785);
#787=EDGE_CURVE('',#774,#782,#786,.T.);
#788=ORIENTED_EDGE('',*,*,#787,.T.);
#789=CARTESIAN_POINT('',(44.,-9.5,-2.5));
#790=VERTEX_POINT('',#789);
#791=CARTESIAN_POINT('',(47.5,-9.5,-2.5));
#792=DIRECTION('',(-1.,0.,-0.));
#793=VECTOR('',#792,3.5);
#794=LINE('',#791,#793);
#795=EDGE_CURVE('',#782,#790,#794,.T.);
#796=ORIENTED_EDGE('',*,*,#795,.T.);
#797=CARTESIAN_POINT('',(40.5,-13.,-2.5));
#798=VERTEX_POINT('',#797);
#799=CARTESIAN_POINT('',(44.,-13.,-2.5));
#800=DIRECTION('',(-0.,-0.,1.));
#801=DIRECTION('',(-1.,0.,-0.));
#802=AXIS2_PLACEMENT_3D('',#799,#800,#801);
#803=CIRCLE('',#802,3.5);
#804=EDGE_CURVE('',#790,#798,#803,.T.);
#805=ORIENTED_EDGE('',*,*,#804,.T.);
#806=CARTESIAN_POINT('',(40.5,-19.5,-2.5));
#807=VERTEX_POINT('',#806);
#808=CARTESIAN_POINT('',(40.5,-13.,-2.5));
#809=DIRECTION('',(-0.,-1.,-0.));
#810=VECTOR('',#809,6.5);
#811=LINE('',#808,#810);
#812=EDGE_CURVE('',#798,#807,#811,.T.);
#813=ORIENTED_EDGE('',*,*,#812,.T.);
#814=CARTESIAN_POINT('',(-10.5,-19.5,-2.5));
#815=VERTEX_POINT('',#814);
#816=CARTESIAN_POINT('',(40.5,-19.5,-2.5));
#817=DIRECTION('',(-1.,0.,-0.));
#818=VECTOR('',#817,51.);
#819=LINE('',#816,#818);
#820=EDGE_CURVE('',#807,#815,#819,.T.);
#821=ORIENTED_EDGE('',*,*,#820,.T.);
#822=CARTESIAN_POINT('',(-10.5,-13.,-2.5));
#823=VERTEX_POINT('',#822);
#824=CARTESIAN_POINT('',(-10.5,-19.5,-2.5));
#825=DIRECTION('',(0.,1.,0.));
#826=VECTOR('',#825,6.5);
#827=LINE('',#824,#826);
#828=EDGE_CURVE('',#815,#823,#827,.T.);
#829=ORIENTED_EDGE('',*,*,#828,.T.);
#830=CARTESIAN_POINT('',(-14.,-9.5,-2.5));
#831=VERTEX_POINT('',#830);
#832=CARTESIAN_POINT('',(-14.,-13.,-2.5));
#833=DIRECTION('',(-0.,-0.,1.));
#834=DIRECTION('',(-1.,0.,-0.));
#835=AXIS2_PLACEMENT_3D('',#832,#833,#834);
#836=CIRCLE('',#835,3.5);
#837=EDGE_CURVE('',#823,#831,#836,.T.);
#838=ORIENTED_EDGE('',*,*,#837,.T.);
#839=CARTESIAN_POINT('',(-17.5,-9.5,-2.5));
#840=VERTEX_POINT('',#839);
#841=CARTESIAN_POINT('',(-14.,-9.5,-2.5));
#842=DIRECTION('',(-1.,0.,-0.));
#843=VECTOR('',#842,3.5);
#844=LINE('',#841,#843);
#845=EDGE_CURVE('',#831,#840,#844,.T.);
#846=ORIENTED_EDGE('',*,*,#845,.T.);
#847=CARTESIAN_POINT('',(-17.5,-0.5,-2.5));
#848=VERTEX_POINT('',#847);
#849=CARTESIAN_POINT('',(-17.5,-9.5,-2.5));
#850=DIRECTION('',(-0.,1.,-0.));
#851=VECTOR('',#850,9.);
#852=LINE('',#849,#851);
#853=EDGE_CURVE('',#840,#848,#852,.T.);
#854=ORIENTED_EDGE('',*,*,#853,.T.);
#855=CARTESIAN_POINT('',(-17.5,-0.5,-2.5));
#856=DIRECTION('',(1.,-0.,0.));
#857=VECTOR('',#856,3.5);
#858=LINE('',#855,#857);
#859=EDGE_CURVE('',#848,#730,#858,.T.);
#860=ORIENTED_EDGE('',*,*,#859,.T.);
#861=EDGE_LOOP('',(#739,#747,#755,#763,#772,#780,#788,#796,#805,#813,#821,#829,#838,#846,#854,#860));
#862=FACE_BOUND('',#861,.T.);
#863=ADVANCED_FACE('',(#862),#728,.T.);
#864=CARTESIAN_POINT('',(-20.,-5.,13.5));
#865=DIRECTION('',(1.,0.,0.));
#866=DIRECTION('',(0.,0.,-1.));
#867=AXIS2_PLACEMENT_3D('',#864,#865,#866);
#868=PLANE('',#867);
#869=ORIENTED_EDGE('',*,*,#135,.F.);
#870=CARTESIAN_POINT('',(-20.,7.5,11.));
#871=VERTEX_POINT('',#870);
#872=CARTESIAN_POINT('',(-20.,7.5,13.5));
#873=DIRECTION('',(0.,0.,-1.));
#874=VECTOR('',#873,2.5);
#875=LINE('',#872,#874);
#876=EDGE_CURVE('',#121,#871,#875,.T.);
#877=ORIENTED_EDGE('',*,*,#876,.T.);
#878=CARTESIAN_POINT('',(-20.,-17.5,11.));
#879=VERTEX_POINT('',#878);
#880=CARTESIAN_POINT('',(-20.,7.5,11.));
#881=DIRECTION('',(0.,-1.,0.));
#882=VECTOR('',#881,25.);
#883=LINE('',#880,#882);
#884=EDGE_CURVE('',#871,#879,#883,.T.);
#885=ORIENTED_EDGE('',*,*,#884,.T.);
#886=CARTESIAN_POINT('',(-20.,-17.5,11.));
#887=DIRECTION('',(-0.,-0.,1.));
#888=VECTOR('',#887,2.5);
#889=LINE('',#886,#888);
#890=EDGE_CURVE('',#879,#130,#889,.T.);
#891=ORIENTED_EDGE('',*,*,#890,.T.);
#892=EDGE_LOOP('',(#869,#877,#885,#891));
#893=FACE_BOUND('',#892,.T.);
#894=ADVANCED_FACE('',(#893),#868,.F.);
#895=CARTESIAN_POINT('',(-17.,-17.,13.5));
#896=DIRECTION('',(0.,0.,-1.));
#897=DIRECTION('',(-1.,0.,-0.));
#898=AXIS2_PLACEMENT_3D('',#895,#896,#897);
#899=CYLINDRICAL_SURFACE('',#898,1.5);
#900=CARTESIAN_POINT('',(-18.5,-17.,11.));
#901=VERTEX_POINT('',#900);
#902=CARTESIAN_POINT('',(-18.5,-17.,11.));
#903=DIRECTION('',(-0.,-0.,1.));
#904=VECTOR('',#903,2.5);
#905=LINE('',#902,#904);
#906=EDGE_CURVE('',#901,#66,#905,.T.);
#907=ORIENTED_EDGE('',*,*,#906,.F.);
#908=CARTESIAN_POINT('',(-17.,-17.,11.));
#909=DIRECTION('',(0.,0.,-1.));
#910=DIRECTION('',(-1.,0.,-0.));
#911=AXIS2_PLACEMENT_3D('',#908,#909,#910);
#912=CIRCLE('',#911,1.5);
#913=EDGE_CURVE('',#901,#901,#912,.T.);
#914=ORIENTED_EDGE('',*,*,#913,.T.);
#915=ORIENTED_EDGE('',*,*,#906,.T.);
#916=ORIENTED_EDGE('',*,*,#72,.F.);
#917=EDGE_LOOP('',(#907,#914,#915,#916));
#918=FACE_BOUND('',#917,.T.);
#919=ADVANCED_FACE('',(#918),#899,.F.);
#920=CARTESIAN_POINT('',(-17.,7.,13.5));
#921=DIRECTION('',(0.,0.,-1.));
#922=DIRECTION('',(-1.,0.,-0.));
#923=AXIS2_PLACEMENT_3D('',#920,#921,#922);
#924=CYLINDRICAL_SURFACE('',#923,1.5);
#925=CARTESIAN_POINT('',(-18.5,7.,11.));
#926=VERTEX_POINT('',#925);
#927=CARTESIAN_POINT('',(-18.5,7.,11.));
#928=DIRECTION('',(-0.,-0.,1.));
#929=VECTOR('',#928,2.5);
#930=LINE('',#927,#929);
#931=EDGE_CURVE('',#926,#55,#930,.T.);
#932=ORIENTED_EDGE('',*,*,#931,.F.);
#933=CARTESIAN_POINT('',(-17.,7.,11.));
#934=DIRECTION('',(0.,0.,-1.));
#935=DIRECTION('',(-1.,0.,-0.));
#936=AXIS2_PLACEMENT_3D('',#933,#934,#935);
#937=CIRCLE('',#936,1.5);
#938=EDGE_CURVE('',#926,#926,#937,.T.);
#939=ORIENTED_EDGE('',*,*,#938,.T.);
#940=ORIENTED_EDGE('',*,*,#931,.T.);
#941=ORIENTED_EDGE('',*,*,#61,.F.);
#942=EDGE_LOOP('',(#932,#939,#940,#941));
#943=FACE_BOUND('',#942,.T.);
#944=ADVANCED_FACE('',(#943),#924,.F.);
#945=CARTESIAN_POINT('',(30.,0.,11.));
#946=DIRECTION('',(0.,0.,-1.));
#947=DIRECTION('',(-1.,0.,-0.));
#948=AXIS2_PLACEMENT_3D('',#945,#946,#947);
#949=PLANE('',#948);
#950=ORIENTED_EDGE('',*,*,#419,.F.);
#951=CARTESIAN_POINT('',(-10.5,9.5,11.));
#952=DIRECTION('',(-0.,-0.,1.));
#953=DIRECTION('',(-1.,0.,-0.));
#954=AXIS2_PLACEMENT_3D('',#951,#952,#953);
#955=CIRCLE('',#954,0.5);
#956=EDGE_CURVE('',#406,#364,#955,.T.);
#957=ORIENTED_EDGE('',*,*,#956,.T.);
#958=ORIENTED_EDGE('',*,*,#393,.T.);
#959=CARTESIAN_POINT('',(-14.,3.,11.));
#960=DIRECTION('',(0.,0.,-1.));
#961=DIRECTION('',(-1.,0.,-0.));
#962=AXIS2_PLACEMENT_3D('',#959,#960,#961);
#963=CIRCLE('',#962,3.);
#964=EDGE_CURVE('',#382,#324,#963,.T.);
#965=ORIENTED_EDGE('',*,*,#964,.T.);
#966=ORIENTED_EDGE('',*,*,#353,.T.);
#967=CARTESIAN_POINT('',(-17.5,-0.5,11.));
#968=DIRECTION('',(-0.,-0.,1.));
#969=DIRECTION('',(-1.,0.,-0.));
#970=AXIS2_PLACEMENT_3D('',#967,#968,#969);
#971=CIRCLE('',#970,0.5);
#972=EDGE_CURVE('',#342,#284,#971,.T.);
#973=ORIENTED_EDGE('',*,*,#972,.T.);
#974=ORIENTED_EDGE('',*,*,#291,.T.);
#975=CARTESIAN_POINT('',(-17.5,-9.5,11.));
#976=DIRECTION('',(-0.,-0.,1.));
#977=DIRECTION('',(-1.,0.,-0.));
#978=AXIS2_PLACEMENT_3D('',#975,#976,#977);
#979=CIRCLE('',#978,0.5);
#980=EDGE_CURVE('',#286,#244,#979,.T.);
#981=ORIENTED_EDGE('',*,*,#980,.T.);
#982=ORIENTED_EDGE('',*,*,#273,.F.);
#983=CARTESIAN_POINT('',(-14.,-13.,11.));
#984=DIRECTION('',(0.,0.,-1.));
#985=DIRECTION('',(-1.,0.,-0.));
#986=AXIS2_PLACEMENT_3D('',#983,#984,#985);
#987=CIRCLE('',#986,3.);
#988=EDGE_CURVE('',#262,#222,#987,.T.);
#989=ORIENTED_EDGE('',*,*,#988,.T.);
#990=ORIENTED_EDGE('',*,*,#227,.F.);
#991=CARTESIAN_POINT('',(-10.5,-19.5,11.));
#992=DIRECTION('',(-0.,-0.,1.));
#993=DIRECTION('',(-1.,0.,-0.));
#994=AXIS2_PLACEMENT_3D('',#991,#992,#993);
#995=CIRCLE('',#994,0.5);
#996=EDGE_CURVE('',#214,#700,#995,.T.);
#997=ORIENTED_EDGE('',*,*,#996,.T.);
#998=ORIENTED_EDGE('',*,*,#705,.T.);
#999=CARTESIAN_POINT('',(-17.5,-17.5,11.));
#1000=DIRECTION('',(0.,0.,-1.));
#1001=DIRECTION('',(-1.,0.,-0.));
#1002=AXIS2_PLACEMENT_3D('',#999,#1000,#1001);
#1003=CIRCLE('',#1002,2.5);
#1004=EDGE_CURVE('',#692,#879,#1003,.T.);
#1005=ORIENTED_EDGE('',*,*,#1004,.T.);
#1006=ORIENTED_EDGE('',*,*,#884,.F.);
#1007=CARTESIAN_POINT('',(-17.5,7.5,11.));
#1008=DIRECTION('',(0.,0.,-1.));
#1009=DIRECTION('',(-1.,0.,-0.));
#1010=AXIS2_PLACEMENT_3D('',#1007,#1008,#1009);
#1011=CIRCLE('',#1010,2.5);
#1012=EDGE_CURVE('',#871,#414,#1011,.T.);
#1013=ORIENTED_EDGE('',*,*,#1012,.T.);
#1014=EDGE_LOOP('',(#950,#957,#958,#965,#966,#973,#974,#981,#982,#989,#990,#997,#998,#1005,#1006,#1013));
#1015=FACE_BOUND('',#1014,.T.);
#1016=ORIENTED_EDGE('',*,*,#913,.F.);
#1017=EDGE_LOOP('',(#1016));
#1018=FACE_BOUND('',#1017,.T.);
#1019=ORIENTED_EDGE('',*,*,#938,.F.);
#1020=EDGE_LOOP('',(#1019));
#1021=FACE_BOUND('',#1020,.T.);
#1022=ADVANCED_FACE('',(#1015,#1018,#1021),#949,.T.);
#1023=CARTESIAN_POINT('',(50.,-5.,13.5));
#1024=DIRECTION('',(1.,0.,0.));
#1025=DIRECTION('',(0.,0.,-1.));
#1026=AXIS2_PLACEMENT_3D('',#1023,#1024,#1025);
#1027=PLANE('',#1026);
#1028=ORIENTED_EDGE('',*,*,#101,.T.);
#1029=CARTESIAN_POINT('',(50.,-17.5,11.));
#1030=VERTEX_POINT('',#1029);
#1031=CARTESIAN_POINT('',(50.,-17.5,13.5));
#1032=DIRECTION('',(0.,0.,-1.));
#1033=VECTOR('',#1032,2.5);
#1034=LINE('',#1031,#1033);
#1035=EDGE_CURVE('',#87,#1030,#1034,.T.);
#1036=ORIENTED_EDGE('',*,*,#1035,.T.);
#1037=CARTESIAN_POINT('',(50.,7.5,11.));
#1038=VERTEX_POINT('',#1037);
#1039=CARTESIAN_POINT('',(50.,7.5,11.));
#1040=DIRECTION('',(0.,-1.,0.));
#1041=VECTOR('',#1040,25.);
#1042=LINE('',#1039,#1041);
#1043=EDGE_CURVE('',#1038,#1030,#1042,.T.);
#1044=ORIENTED_EDGE('',*,*,#1043,.F.);
#1045=CARTESIAN_POINT('',(50.,7.5,11.));
#1046=DIRECTION('',(-0.,-0.,1.));
#1047=VECTOR('',#1046,2.5);
#1048=LINE('',#1045,#1047);
#1049=EDGE_CURVE('',#1038,#96,#1048,.T.);
#1050=ORIENTED_EDGE('',*,*,#1049,.T.);
#1051=EDGE_LOOP('',(#1028,#1036,#1044,#1050));
#1052=FACE_BOUND('',#1051,.T.);
#1053=ADVANCED_FACE('',(#1052),#1027,.T.);
#1054=CARTESIAN_POINT('',(47.,7.,13.5));
#1055=DIRECTION('',(0.,0.,-1.));
#1056=DIRECTION('',(-1.,0.,-0.));
#1057=AXIS2_PLACEMENT_3D('',#1054,#1055,#1056);
#1058=CYLINDRICAL_SURFACE('',#1057,1.5);
#1059=CARTESIAN_POINT('',(45.5,7.,11.));
#1060=VERTEX_POINT('',#1059);
#1061=CARTESIAN_POINT('',(45.5,7.,11.));
#1062=DIRECTION('',(-0.,-0.,1.));
#1063=VECTOR('',#1062,2.5);
#1064=LINE('',#1061,#1063);
#1065=EDGE_CURVE('',#1060,#33,#1064,.T.);
#1066=ORIENTED_EDGE('',*,*,#1065,.F.);
#1067=CARTESIAN_POINT('',(47.,7.,11.));
#1068=DIRECTION('',(0.,0.,-1.));
#1069=DIRECTION('',(-1.,0.,-0.));
#1070=AXIS2_PLACEMENT_3D('',#1067,#1068,#1069);
#1071=CIRCLE('',#1070,1.5);
#1072=EDGE_CURVE('',#1060,#1060,#1071,.T.);
#1073=ORIENTED_EDGE('',*,*,#1072,.T.);
#1074=ORIENTED_EDGE('',*,*,#1065,.T.);
#1075=ORIENTED_EDGE('',*,*,#39,.F.);
#1076=EDGE_LOOP('',(#1066,#1073,#1074,#1075));
#1077=FACE_BOUND('',#1076,.T.);
#1078=ADVANCED_FACE('',(#1077),#1058,.F.);
#1079=CARTESIAN_POINT('',(47.,-17.,13.5));
#1080=DIRECTION('',(0.,0.,-1.));
#1081=DIRECTION('',(-1.,0.,-0.));
#1082=AXIS2_PLACEMENT_3D('',#1079,#1080,#1081);
#1083=CYLINDRICAL_SURFACE('',#1082,1.5);
#1084=CARTESIAN_POINT('',(45.5,-17.,11.));
#1085=VERTEX_POINT('',#1084);
#1086=CARTESIAN_POINT('',(45.5,-17.,11.));
#1087=DIRECTION('',(-0.,-0.,1.));
#1088=VECTOR('',#1087,2.5);
#1089=LINE('',#1086,#1088);
#1090=EDGE_CURVE('',#1085,#44,#1089,.T.);
#1091=ORIENTED_EDGE('',*,*,#1090,.F.);
#1092=CARTESIAN_POINT('',(47.,-17.,11.));
#1093=DIRECTION('',(0.,0.,-1.));
#1094=DIRECTION('',(-1.,0.,-0.));
#1095=AXIS2_PLACEMENT_3D('',#1092,#1093,#1094);
#1096=CIRCLE('',#1095,1.5);
#1097=EDGE_CURVE('',#1085,#1085,#1096,.T.);
#1098=ORIENTED_EDGE('',*,*,#1097,.T.);
#1099=ORIENTED_EDGE('',*,*,#1090,.T.);
#1100=ORIENTED_EDGE('',*,*,#50,.F.);
#1101=EDGE_LOOP('',(#1091,#1098,#1099,#1100));
#1102=FACE_BOUND('',#1101,.T.);
#1103=ADVANCED_FACE('',(#1102),#1083,.F.);
#1104=CARTESIAN_POINT('',(30.,0.,11.));
#1105=DIRECTION('',(0.,0.,-1.));
#1106=DIRECTION('',(-1.,0.,-0.));
#1107=AXIS2_PLACEMENT_3D('',#1104,#1105,#1106);
#1108=PLANE('',#1107);
#1109=ORIENTED_EDGE('',*,*,#1097,.F.);
#1110=EDGE_LOOP('',(#1109));
#1111=FACE_BOUND('',#1110,.T.);
#1112=ORIENTED_EDGE('',*,*,#1072,.F.);
#1113=EDGE_LOOP('',(#1112));
#1114=FACE_BOUND('',#1113,.T.);
#1115=ORIENTED_EDGE('',*,*,#682,.T.);
#1116=CARTESIAN_POINT('',(40.5,-19.5,11.));
#1117=DIRECTION('',(-0.,-0.,1.));
#1118=DIRECTION('',(-1.,0.,-0.));
#1119=AXIS2_PLACEMENT_3D('',#1116,#1117,#1118);
#1120=CIRCLE('',#1119,0.5);
#1121=EDGE_CURVE('',#669,#627,#1120,.T.);
#1122=ORIENTED_EDGE('',*,*,#1121,.T.);
#1123=ORIENTED_EDGE('',*,*,#634,.T.);
#1124=CARTESIAN_POINT('',(44.,-13.,11.));
#1125=DIRECTION('',(0.,0.,-1.));
#1126=DIRECTION('',(-1.,0.,-0.));
#1127=AXIS2_PLACEMENT_3D('',#1124,#1125,#1126);
#1128=CIRCLE('',#1127,3.);
#1129=EDGE_CURVE('',#629,#605,#1128,.T.);
#1130=ORIENTED_EDGE('',*,*,#1129,.T.);
#1131=ORIENTED_EDGE('',*,*,#610,.F.);
#1132=CARTESIAN_POINT('',(47.5,-9.5,11.));
#1133=DIRECTION('',(-0.,-0.,1.));
#1134=DIRECTION('',(-1.,0.,-0.));
#1135=AXIS2_PLACEMENT_3D('',#1132,#1133,#1134);
#1136=CIRCLE('',#1135,0.5);
#1137=EDGE_CURVE('',#597,#565,#1136,.T.);
#1138=ORIENTED_EDGE('',*,*,#1137,.T.);
#1139=ORIENTED_EDGE('',*,*,#570,.F.);
#1140=CARTESIAN_POINT('',(47.5,-0.5,11.));
#1141=DIRECTION('',(-0.,-0.,1.));
#1142=DIRECTION('',(-1.,0.,-0.));
#1143=AXIS2_PLACEMENT_3D('',#1140,#1141,#1142);
#1144=CIRCLE('',#1143,0.5);
#1145=EDGE_CURVE('',#557,#507,#1144,.T.);
#1146=ORIENTED_EDGE('',*,*,#1145,.T.);
#1147=ORIENTED_EDGE('',*,*,#514,.T.);
#1148=CARTESIAN_POINT('',(44.,3.,11.));
#1149=DIRECTION('',(0.,0.,-1.));
#1150=DIRECTION('',(-1.,0.,-0.));
#1151=AXIS2_PLACEMENT_3D('',#1148,#1149,#1150);
#1152=CIRCLE('',#1151,3.);
#1153=EDGE_CURVE('',#509,#485,#1152,.T.);
#1154=ORIENTED_EDGE('',*,*,#1153,.T.);
#1155=ORIENTED_EDGE('',*,*,#490,.F.);
#1156=CARTESIAN_POINT('',(40.5,9.5,11.));
#1157=DIRECTION('',(-0.,-0.,1.));
#1158=DIRECTION('',(-1.,0.,-0.));
#1159=AXIS2_PLACEMENT_3D('',#1156,#1157,#1158);
#1160=CIRCLE('',#1159,0.5);
#1161=EDGE_CURVE('',#477,#437,#1160,.T.);
#1162=ORIENTED_EDGE('',*,*,#1161,.T.);
#1163=ORIENTED_EDGE('',*,*,#442,.F.);
#1164=CARTESIAN_POINT('',(47.5,7.5,11.));
#1165=DIRECTION('',(0.,0.,-1.));
#1166=DIRECTION('',(-1.,0.,-0.));
#1167=AXIS2_PLACEMENT_3D('',#1164,#1165,#1166);
#1168=CIRCLE('',#1167,2.5);
#1169=EDGE_CURVE('',#429,#1038,#1168,.T.);
#1170=ORIENTED_EDGE('',*,*,#1169,.T.);
#1171=ORIENTED_EDGE('',*,*,#1043,.T.);
#1172=CARTESIAN_POINT('',(47.5,-17.5,11.));
#1173=DIRECTION('',(0.,0.,-1.));
#1174=DIRECTION('',(-1.,0.,-0.));
#1175=AXIS2_PLACEMENT_3D('',#1172,#1173,#1174);
#1176=CIRCLE('',#1175,2.5);
#1177=EDGE_CURVE('',#1030,#677,#1176,.T.);
#1178=ORIENTED_EDGE('',*,*,#1177,.T.);
#1179=EDGE_LOOP('',(#1115,#1122,#1123,#1130,#1131,#1138,#1139,#1146,#1147,#1154,#1155,#1162,#1163,#1170,#1171,#1178));
#1180=FACE_BOUND('',#1179,.T.);
#1181=ADVANCED_FACE('',(#1111,#1114,#1180),#1108,.T.);
#1182=CARTESIAN_POINT('',(-17.5,-17.5,-2.5));
#1183=DIRECTION('',(0.,0.,-1.));
#1184=DIRECTION('',(-1.,0.,-0.));
#1185=AXIS2_PLACEMENT_3D('',#1182,#1183,#1184);
#1186=CYLINDRICAL_SURFACE('',#1185,2.5);
#1187=ORIENTED_EDGE('',*,*,#142,.F.);
#1188=ORIENTED_EDGE('',*,*,#890,.F.);
#1189=ORIENTED_EDGE('',*,*,#1004,.F.);
#1190=ORIENTED_EDGE('',*,*,#697,.F.);
#1191=EDGE_LOOP('',(#1187,#1188,#1189,#1190));
#1192=FACE_BOUND('',#1191,.T.);
#1193=ADVANCED_FACE('',(#1192),#1186,.T.);
#1194=CARTESIAN_POINT('',(-17.5,7.5,13.5));
#1195=DIRECTION('',(-0.,0.,1.));
#1196=DIRECTION('',(1.,0.,0.));
#1197=AXIS2_PLACEMENT_3D('',#1194,#1195,#1196);
#1198=CYLINDRICAL_SURFACE('',#1197,2.5);
#1199=ORIENTED_EDGE('',*,*,#127,.F.);
#1200=ORIENTED_EDGE('',*,*,#425,.F.);
#1201=ORIENTED_EDGE('',*,*,#1012,.F.);
#1202=ORIENTED_EDGE('',*,*,#876,.F.);
#1203=EDGE_LOOP('',(#1199,#1200,#1201,#1202));
#1204=FACE_BOUND('',#1203,.T.);
#1205=ADVANCED_FACE('',(#1204),#1198,.T.);
#1206=CARTESIAN_POINT('',(47.5,7.5,-2.5));
#1207=DIRECTION('',(0.,0.,-1.));
#1208=DIRECTION('',(-1.,0.,-0.));
#1209=AXIS2_PLACEMENT_3D('',#1206,#1207,#1208);
#1210=CYLINDRICAL_SURFACE('',#1209,2.5);
#1211=ORIENTED_EDGE('',*,*,#110,.F.);
#1212=ORIENTED_EDGE('',*,*,#1049,.F.);
#1213=ORIENTED_EDGE('',*,*,#1169,.F.);
#1214=ORIENTED_EDGE('',*,*,#434,.F.);
#1215=EDGE_LOOP('',(#1211,#1212,#1213,#1214));
#1216=FACE_BOUND('',#1215,.T.);
#1217=ADVANCED_FACE('',(#1216),#1210,.T.);
#1218=CARTESIAN_POINT('',(47.5,-17.5,13.5));
#1219=DIRECTION('',(-0.,0.,1.));
#1220=DIRECTION('',(1.,0.,0.));
#1221=AXIS2_PLACEMENT_3D('',#1218,#1219,#1220);
#1222=CYLINDRICAL_SURFACE('',#1221,2.5);
#1223=ORIENTED_EDGE('',*,*,#93,.F.);
#1224=ORIENTED_EDGE('',*,*,#688,.F.);
#1225=ORIENTED_EDGE('',*,*,#1177,.F.);
#1226=ORIENTED_EDGE('',*,*,#1035,.F.);
#1227=EDGE_LOOP('',(#1223,#1224,#1225,#1226));
#1228=FACE_BOUND('',#1227,.T.);
#1229=ADVANCED_FACE('',(#1228),#1222,.T.);
#1230=CARTESIAN_POINT('',(-14.,-13.,-2.5));
#1231=DIRECTION('',(0.,0.,-1.));
#1232=DIRECTION('',(-1.,0.,-0.));
#1233=AXIS2_PLACEMENT_3D('',#1230,#1231,#1232);
#1234=CYLINDRICAL_SURFACE('',#1233,3.);
#1235=ORIENTED_EDGE('',*,*,#267,.F.);
#1236=CARTESIAN_POINT('',(-14.,-13.,-2.));
#1237=DIRECTION('',(0.,0.,-1.));
#1238=DIRECTION('',(-1.,0.,-0.));
#1239=AXIS2_PLACEMENT_3D('',#1236,#1237,#1238);
#1240=CIRCLE('',#1239,3.);
#1241=EDGE_CURVE('',#254,#204,#1240,.T.);
#1242=ORIENTED_EDGE('',*,*,#1241,.T.);
#1243=ORIENTED_EDGE('',*,*,#233,.F.);
#1244=ORIENTED_EDGE('',*,*,#988,.F.);
#1245=EDGE_LOOP('',(#1235,#1242,#1243,#1244));
#1246=FACE_BOUND('',#1245,.T.);
#1247=ADVANCED_FACE('',(#1246),#1234,.F.);
#1248=CARTESIAN_POINT('',(-14.,3.,-2.5));
#1249=DIRECTION('',(0.,0.,-1.));
#1250=DIRECTION('',(-1.,0.,-0.));
#1251=AXIS2_PLACEMENT_3D('',#1248,#1249,#1250);
#1252=CYLINDRICAL_SURFACE('',#1251,3.);
#1253=ORIENTED_EDGE('',*,*,#387,.F.);
#1254=CARTESIAN_POINT('',(-14.,3.,-2.));
#1255=DIRECTION('',(0.,0.,-1.));
#1256=DIRECTION('',(-1.,0.,-0.));
#1257=AXIS2_PLACEMENT_3D('',#1254,#1255,#1256);
#1258=CIRCLE('',#1257,3.);
#1259=EDGE_CURVE('',#374,#326,#1258,.T.);
#1260=ORIENTED_EDGE('',*,*,#1259,.T.);
#1261=ORIENTED_EDGE('',*,*,#331,.F.);
#1262=ORIENTED_EDGE('',*,*,#964,.F.);
#1263=EDGE_LOOP('',(#1253,#1260,#1261,#1262));
#1264=FACE_BOUND('',#1263,.T.);
#1265=ADVANCED_FACE('',(#1264),#1252,.F.);
#1266=CARTESIAN_POINT('',(44.,3.,-2.5));
#1267=DIRECTION('',(-0.,0.,1.));
#1268=DIRECTION('',(1.,0.,0.));
#1269=AXIS2_PLACEMENT_3D('',#1266,#1267,#1268);
#1270=CYLINDRICAL_SURFACE('',#1269,3.);
#1271=ORIENTED_EDGE('',*,*,#536,.F.);
#1272=CARTESIAN_POINT('',(44.,3.,-2.));
#1273=DIRECTION('',(0.,0.,-1.));
#1274=DIRECTION('',(-1.,0.,-0.));
#1275=AXIS2_PLACEMENT_3D('',#1272,#1273,#1274);
#1276=CIRCLE('',#1275,3.);
#1277=EDGE_CURVE('',#525,#467,#1276,.T.);
#1278=ORIENTED_EDGE('',*,*,#1277,.T.);
#1279=ORIENTED_EDGE('',*,*,#496,.F.);
#1280=ORIENTED_EDGE('',*,*,#1153,.F.);
#1281=EDGE_LOOP('',(#1271,#1278,#1279,#1280));
#1282=FACE_BOUND('',#1281,.T.);
#1283=ADVANCED_FACE('',(#1282),#1270,.F.);
#1284=CARTESIAN_POINT('',(44.,-13.,-2.5));
#1285=DIRECTION('',(-0.,0.,1.));
#1286=DIRECTION('',(1.,0.,0.));
#1287=AXIS2_PLACEMENT_3D('',#1284,#1285,#1286);
#1288=CYLINDRICAL_SURFACE('',#1287,3.);
#1289=ORIENTED_EDGE('',*,*,#656,.F.);
#1290=CARTESIAN_POINT('',(44.,-13.,-2.));
#1291=DIRECTION('',(0.,0.,-1.));
#1292=DIRECTION('',(-1.,0.,-0.));
#1293=AXIS2_PLACEMENT_3D('',#1290,#1291,#1292);
#1294=CIRCLE('',#1293,3.);
#1295=EDGE_CURVE('',#645,#587,#1294,.T.);
#1296=ORIENTED_EDGE('',*,*,#1295,.T.);
#1297=ORIENTED_EDGE('',*,*,#616,.F.);
#1298=ORIENTED_EDGE('',*,*,#1129,.F.);
#1299=EDGE_LOOP('',(#1289,#1296,#1297,#1298));
#1300=FACE_BOUND('',#1299,.T.);
#1301=ADVANCED_FACE('',(#1300),#1288,.F.);
#1302=CARTESIAN_POINT('',(-17.5,-0.5,-2.5));
#1303=DIRECTION('',(-0.,0.,1.));
#1304=DIRECTION('',(1.,0.,0.));
#1305=AXIS2_PLACEMENT_3D('',#1302,#1303,#1304);
#1306=CYLINDRICAL_SURFACE('',#1305,0.5);
#1307=ORIENTED_EDGE('',*,*,#972,.F.);
#1308=ORIENTED_EDGE('',*,*,#347,.F.);
#1309=CARTESIAN_POINT('',(-17.5,-0.5,-2.));
#1310=DIRECTION('',(0.,0.,-1.));
#1311=DIRECTION('',(-1.,0.,-0.));
#1312=AXIS2_PLACEMENT_3D('',#1309,#1310,#1311);
#1313=CIRCLE('',#1312,0.5);
#1314=EDGE_CURVE('',#294,#334,#1313,.T.);
#1315=ORIENTED_EDGE('',*,*,#1314,.F.);
#1316=ORIENTED_EDGE('',*,*,#299,.F.);
#1317=EDGE_LOOP('',(#1307,#1308,#1315,#1316));
#1318=FACE_BOUND('',#1317,.T.);
#1319=ADVANCED_FACE('',(#1318),#1306,.T.);
#1320=CARTESIAN_POINT('',(-17.5,-5.,-2.));
#1321=DIRECTION('',(0.,-1.,0.));
#1322=DIRECTION('',(-0.,0.,1.));
#1323=AXIS2_PLACEMENT_3D('',#1320,#1321,#1322);
#1324=CYLINDRICAL_SURFACE('',#1323,0.5);
#1325=CARTESIAN_POINT('',(-17.5,-9.5,-2.));
#1326=DIRECTION('',(0.,-1.,0.));
#1327=DIRECTION('',(-0.,0.,1.));
#1328=AXIS2_PLACEMENT_3D('',#1325,#1326,#1327);
#1329=CIRCLE('',#1328,0.5);
#1330=EDGE_CURVE('',#302,#840,#1329,.T.);
#1331=ORIENTED_EDGE('',*,*,#1330,.F.);
#1332=ORIENTED_EDGE('',*,*,#307,.F.);
#1333=CARTESIAN_POINT('',(-17.5,-0.5,-2.));
#1334=DIRECTION('',(0.,1.,0.));
#1335=DIRECTION('',(0.,0.,-1.));
#1336=AXIS2_PLACEMENT_3D('',#1333,#1334,#1335);
#1337=CIRCLE('',#1336,0.5);
#1338=EDGE_CURVE('',#848,#294,#1337,.T.);
#1339=ORIENTED_EDGE('',*,*,#1338,.F.);
#1340=ORIENTED_EDGE('',*,*,#853,.F.);
#1341=EDGE_LOOP('',(#1331,#1332,#1339,#1340));
#1342=FACE_BOUND('',#1341,.T.);
#1343=ADVANCED_FACE('',(#1342),#1324,.T.);
#1344=CARTESIAN_POINT('',(-17.5,-9.5,-2.5));
#1345=DIRECTION('',(0.,0.,-1.));
#1346=DIRECTION('',(-1.,0.,-0.));
#1347=AXIS2_PLACEMENT_3D('',#1344,#1345,#1346);
#1348=CYLINDRICAL_SURFACE('',#1347,0.5);
#1349=ORIENTED_EDGE('',*,*,#980,.F.);
#1350=ORIENTED_EDGE('',*,*,#313,.F.);
#1351=CARTESIAN_POINT('',(-17.5,-9.5,-2.));
#1352=DIRECTION('',(0.,0.,-1.));
#1353=DIRECTION('',(-1.,0.,-0.));
#1354=AXIS2_PLACEMENT_3D('',#1351,#1352,#1353);
#1355=CIRCLE('',#1354,0.5);
#1356=EDGE_CURVE('',#246,#302,#1355,.T.);
#1357=ORIENTED_EDGE('',*,*,#1356,.F.);
#1358=ORIENTED_EDGE('',*,*,#251,.F.);
#1359=EDGE_LOOP('',(#1349,#1350,#1357,#1358));
#1360=FACE_BOUND('',#1359,.T.);
#1361=ADVANCED_FACE('',(#1360),#1348,.T.);
#1362=CARTESIAN_POINT('',(-17.5,-0.5,-2.));
#1363=DIRECTION('',(-1.,0.,-0.));
#1364=DIRECTION('',(-0.,0.,1.));
#1365=AXIS2_PLACEMENT_3D('',#1362,#1363,#1364);
#1366=SPHERICAL_SURFACE('',#1365,0.5);
#1367=ORIENTED_EDGE('',*,*,#1338,.T.);
#1368=ORIENTED_EDGE('',*,*,#1314,.T.);
#1369=CARTESIAN_POINT('',(-17.5,-0.5,-2.));
#1370=DIRECTION('',(1.,-0.,0.));
#1371=DIRECTION('',(-0.,0.,1.));
#1372=AXIS2_PLACEMENT_3D('',#1369,#1370,#1371);
#1373=CIRCLE('',#1372,0.5);
#1374=EDGE_CURVE('',#848,#334,#1373,.T.);
#1375=ORIENTED_EDGE('',*,*,#1374,.F.);
#1376=EDGE_LOOP('',(#1367,#1368,#1375));
#1377=FACE_BOUND('',#1376,.T.);
#1378=ADVANCED_FACE('',(#1377),#1366,.T.);
#1379=CARTESIAN_POINT('',(-17.5,-9.5,-2.));
#1380=DIRECTION('',(-1.,0.,-0.));
#1381=DIRECTION('',(-0.,0.,1.));
#1382=AXIS2_PLACEMENT_3D('',#1379,#1380,#1381);
#1383=SPHERICAL_SURFACE('',#1382,0.5);
#1384=ORIENTED_EDGE('',*,*,#1356,.T.);
#1385=ORIENTED_EDGE('',*,*,#1330,.T.);
#1386=CARTESIAN_POINT('',(-17.5,-9.5,-2.));
#1387=DIRECTION('',(1.,-0.,0.));
#1388=DIRECTION('',(-0.,0.,1.));
#1389=AXIS2_PLACEMENT_3D('',#1386,#1387,#1388);
#1390=CIRCLE('',#1389,0.5);
#1391=EDGE_CURVE('',#246,#840,#1390,.T.);
#1392=ORIENTED_EDGE('',*,*,#1391,.F.);
#1393=EDGE_LOOP('',(#1384,#1385,#1392));
#1394=FACE_BOUND('',#1393,.T.);
#1395=ADVANCED_FACE('',(#1394),#1383,.T.);
#1396=CARTESIAN_POINT('',(-14.5,-0.5,-2.));
#1397=DIRECTION('',(-1.,0.,-0.));
#1398=DIRECTION('',(-0.,0.,1.));
#1399=AXIS2_PLACEMENT_3D('',#1396,#1397,#1398);
#1400=CYLINDRICAL_SURFACE('',#1399,0.5);
#1401=ORIENTED_EDGE('',*,*,#1374,.T.);
#1402=ORIENTED_EDGE('',*,*,#339,.F.);
#1403=CARTESIAN_POINT('',(-14.,-0.5,-2.));
#1404=DIRECTION('',(1.,0.,0.));
#1405=DIRECTION('',(0.,0.,-1.));
#1406=AXIS2_PLACEMENT_3D('',#1403,#1404,#1405);
#1407=CIRCLE('',#1406,0.5);
#1408=EDGE_CURVE('',#730,#326,#1407,.T.);
#1409=ORIENTED_EDGE('',*,*,#1408,.F.);
#1410=ORIENTED_EDGE('',*,*,#859,.F.);
#1411=EDGE_LOOP('',(#1401,#1402,#1409,#1410));
#1412=FACE_BOUND('',#1411,.T.);
#1413=ADVANCED_FACE('',(#1412),#1400,.T.);
#1414=CARTESIAN_POINT('',(30.,-9.5,-2.));
#1415=DIRECTION('',(1.,-0.,0.));
#1416=DIRECTION('',(-0.,-1.,-0.));
#1417=AXIS2_PLACEMENT_3D('',#1414,#1415,#1416);
#1418=CYLINDRICAL_SURFACE('',#1417,0.5);
#1419=ORIENTED_EDGE('',*,*,#1391,.T.);
#1420=ORIENTED_EDGE('',*,*,#845,.F.);
#1421=CARTESIAN_POINT('',(-14.,-9.5,-2.));
#1422=DIRECTION('',(1.,0.,0.));
#1423=DIRECTION('',(0.,0.,-1.));
#1424=AXIS2_PLACEMENT_3D('',#1421,#1422,#1423);
#1425=CIRCLE('',#1424,0.5);
#1426=EDGE_CURVE('',#254,#831,#1425,.T.);
#1427=ORIENTED_EDGE('',*,*,#1426,.F.);
#1428=ORIENTED_EDGE('',*,*,#259,.F.);
#1429=EDGE_LOOP('',(#1419,#1420,#1427,#1428));
#1430=FACE_BOUND('',#1429,.T.);
#1431=ADVANCED_FACE('',(#1430),#1418,.T.);
#1432=CARTESIAN_POINT('',(-14.,3.,-2.));
#1433=DIRECTION('',(0.,0.,-1.));
#1434=DIRECTION('',(-1.,0.,-0.));
#1435=AXIS2_PLACEMENT_3D('',#1432,#1433,#1434);
#1436=TOROIDAL_SURFACE('',#1435,3.5,0.5);
#1437=ORIENTED_EDGE('',*,*,#1408,.T.);
#1438=ORIENTED_EDGE('',*,*,#1259,.F.);
#1439=CARTESIAN_POINT('',(-10.5,3.,-2.));
#1440=DIRECTION('',(0.,1.,0.));
#1441=DIRECTION('',(1.,-0.,0.));
#1442=AXIS2_PLACEMENT_3D('',#1439,#1440,#1441);
#1443=CIRCLE('',#1442,0.5);
#1444=EDGE_CURVE('',#732,#374,#1443,.T.);
#1445=ORIENTED_EDGE('',*,*,#1444,.F.);
#1446=ORIENTED_EDGE('',*,*,#738,.F.);
#1447=EDGE_LOOP('',(#1437,#1438,#1445,#1446));
#1448=FACE_BOUND('',#1447,.T.);
#1449=ADVANCED_FACE('',(#1448),#1436,.T.);
#1450=CARTESIAN_POINT('',(-14.,-13.,-2.));
#1451=DIRECTION('',(0.,0.,-1.));
#1452=DIRECTION('',(-1.,0.,-0.));
#1453=AXIS2_PLACEMENT_3D('',#1450,#1451,#1452);
#1454=TOROIDAL_SURFACE('',#1453,3.5,0.5);
#1455=ORIENTED_EDGE('',*,*,#1426,.T.);
#1456=ORIENTED_EDGE('',*,*,#837,.F.);
#1457=CARTESIAN_POINT('',(-10.5,-13.,-2.));
#1458=DIRECTION('',(0.,-1.,0.));
#1459=DIRECTION('',(-0.,0.,1.));
#1460=AXIS2_PLACEMENT_3D('',#1457,#1458,#1459);
#1461=CIRCLE('',#1460,0.5);
#1462=EDGE_CURVE('',#204,#823,#1461,.T.);
#1463=ORIENTED_EDGE('',*,*,#1462,.F.);
#1464=ORIENTED_EDGE('',*,*,#1241,.F.);
#1465=EDGE_LOOP('',(#1455,#1456,#1463,#1464));
#1466=FACE_BOUND('',#1465,.T.);
#1467=ADVANCED_FACE('',(#1466),#1454,.T.);
#1468=CARTESIAN_POINT('',(-10.5,9.5,-2.5));
#1469=DIRECTION('',(-0.,0.,1.));
#1470=DIRECTION('',(1.,0.,0.));
#1471=AXIS2_PLACEMENT_3D('',#1468,#1469,#1470);
#1472=CYLINDRICAL_SURFACE('',#1471,0.5);
#1473=ORIENTED_EDGE('',*,*,#956,.F.);
#1474=ORIENTED_EDGE('',*,*,#411,.F.);
#1475=CARTESIAN_POINT('',(-10.5,9.5,-2.));
#1476=DIRECTION('',(0.,0.,-1.));
#1477=DIRECTION('',(-1.,0.,-0.));
#1478=AXIS2_PLACEMENT_3D('',#1475,#1476,#1477);
#1479=CIRCLE('',#1478,0.5);
#1480=EDGE_CURVE('',#366,#404,#1479,.T.);
#1481=ORIENTED_EDGE('',*,*,#1480,.F.);
#1482=ORIENTED_EDGE('',*,*,#371,.F.);
#1483=EDGE_LOOP('',(#1473,#1474,#1481,#1482));
#1484=FACE_BOUND('',#1483,.T.);
#1485=ADVANCED_FACE('',(#1484),#1472,.T.);
#1486=CARTESIAN_POINT('',(-10.5,5.,-2.));
#1487=DIRECTION('',(-0.,-1.,-0.));
#1488=DIRECTION('',(-1.,0.,-0.));
#1489=AXIS2_PLACEMENT_3D('',#1486,#1487,#1488);
#1490=CYLINDRICAL_SURFACE('',#1489,0.5);
#1491=ORIENTED_EDGE('',*,*,#1444,.T.);
#1492=ORIENTED_EDGE('',*,*,#379,.F.);
#1493=CARTESIAN_POINT('',(-10.5,9.5,-2.));
#1494=DIRECTION('',(0.,1.,0.));
#1495=DIRECTION('',(1.,-0.,0.));
#1496=AXIS2_PLACEMENT_3D('',#1493,#1494,#1495);
#1497=CIRCLE('',#1496,0.5);
#1498=EDGE_CURVE('',#741,#366,#1497,.T.);
#1499=ORIENTED_EDGE('',*,*,#1498,.F.);
#1500=ORIENTED_EDGE('',*,*,#746,.F.);
#1501=EDGE_LOOP('',(#1491,#1492,#1499,#1500));
#1502=FACE_BOUND('',#1501,.T.);
#1503=ADVANCED_FACE('',(#1502),#1490,.T.);
#1504=CARTESIAN_POINT('',(-10.5,0.,-2.));
#1505=DIRECTION('',(-0.,-1.,-0.));
#1506=DIRECTION('',(-1.,0.,-0.));
#1507=AXIS2_PLACEMENT_3D('',#1504,#1505,#1506);
#1508=CYLINDRICAL_SURFACE('',#1507,0.5);
#1509=ORIENTED_EDGE('',*,*,#1462,.T.);
#1510=ORIENTED_EDGE('',*,*,#828,.F.);
#1511=CARTESIAN_POINT('',(-10.5,-19.5,-2.));
#1512=DIRECTION('',(0.,-1.,0.));
#1513=DIRECTION('',(-0.,0.,1.));
#1514=AXIS2_PLACEMENT_3D('',#1511,#1512,#1513);
#1515=CIRCLE('',#1514,0.5);
#1516=EDGE_CURVE('',#206,#815,#1515,.T.);
#1517=ORIENTED_EDGE('',*,*,#1516,.F.);
#1518=ORIENTED_EDGE('',*,*,#211,.F.);
#1519=EDGE_LOOP('',(#1509,#1510,#1517,#1518));
#1520=FACE_BOUND('',#1519,.T.);
#1521=ADVANCED_FACE('',(#1520),#1508,.T.);
#1522=CARTESIAN_POINT('',(-10.5,-19.5,-2.5));
#1523=DIRECTION('',(-0.,0.,1.));
#1524=DIRECTION('',(1.,0.,0.));
#1525=AXIS2_PLACEMENT_3D('',#1522,#1523,#1524);
#1526=CYLINDRICAL_SURFACE('',#1525,0.5);
#1527=ORIENTED_EDGE('',*,*,#996,.F.);
#1528=ORIENTED_EDGE('',*,*,#219,.F.);
#1529=CARTESIAN_POINT('',(-10.5,-19.5,-2.));
#1530=DIRECTION('',(0.,0.,-1.));
#1531=DIRECTION('',(-1.,0.,-0.));
#1532=AXIS2_PLACEMENT_3D('',#1529,#1530,#1531);
#1533=CIRCLE('',#1532,0.5);
#1534=EDGE_CURVE('',#708,#206,#1533,.T.);
#1535=ORIENTED_EDGE('',*,*,#1534,.F.);
#1536=ORIENTED_EDGE('',*,*,#713,.F.);
#1537=EDGE_LOOP('',(#1527,#1528,#1535,#1536));
#1538=FACE_BOUND('',#1537,.T.);
#1539=ADVANCED_FACE('',(#1538),#1526,.T.);
#1540=CARTESIAN_POINT('',(-10.5,9.5,-2.));
#1541=DIRECTION('',(-1.,0.,-0.));
#1542=DIRECTION('',(0.,1.,0.));
#1543=AXIS2_PLACEMENT_3D('',#1540,#1541,#1542);
#1544=SPHERICAL_SURFACE('',#1543,0.5);
#1545=ORIENTED_EDGE('',*,*,#1498,.T.);
#1546=ORIENTED_EDGE('',*,*,#1480,.T.);
#1547=CARTESIAN_POINT('',(-10.5,9.5,-2.));
#1548=DIRECTION('',(1.,-0.,0.));
#1549=DIRECTION('',(-0.,0.,1.));
#1550=AXIS2_PLACEMENT_3D('',#1547,#1548,#1549);
#1551=CIRCLE('',#1550,0.5);
#1552=EDGE_CURVE('',#741,#404,#1551,.T.);
#1553=ORIENTED_EDGE('',*,*,#1552,.F.);
#1554=EDGE_LOOP('',(#1545,#1546,#1553));
#1555=FACE_BOUND('',#1554,.T.);
#1556=ADVANCED_FACE('',(#1555),#1544,.T.);
#1557=CARTESIAN_POINT('',(-10.5,-19.5,-2.));
#1558=DIRECTION('',(-1.,0.,-0.));
#1559=DIRECTION('',(-0.,0.,1.));
#1560=AXIS2_PLACEMENT_3D('',#1557,#1558,#1559);
#1561=SPHERICAL_SURFACE('',#1560,0.5);
#1562=ORIENTED_EDGE('',*,*,#1534,.T.);
#1563=ORIENTED_EDGE('',*,*,#1516,.T.);
#1564=CARTESIAN_POINT('',(-10.5,-19.5,-2.));
#1565=DIRECTION('',(1.,-0.,0.));
#1566=DIRECTION('',(-0.,0.,1.));
#1567=AXIS2_PLACEMENT_3D('',#1564,#1565,#1566);
#1568=CIRCLE('',#1567,0.5);
#1569=EDGE_CURVE('',#708,#815,#1568,.T.);
#1570=ORIENTED_EDGE('',*,*,#1569,.F.);
#1571=EDGE_LOOP('',(#1562,#1563,#1570));
#1572=FACE_BOUND('',#1571,.T.);
#1573=ADVANCED_FACE('',(#1572),#1561,.T.);
#1574=CARTESIAN_POINT('',(40.5,9.5,-2.5));
#1575=DIRECTION('',(0.,0.,-1.));
#1576=DIRECTION('',(-1.,0.,-0.));
#1577=AXIS2_PLACEMENT_3D('',#1574,#1575,#1576);
#1578=CYLINDRICAL_SURFACE('',#1577,0.5);
#1579=ORIENTED_EDGE('',*,*,#1161,.F.);
#1580=ORIENTED_EDGE('',*,*,#482,.F.);
#1581=CARTESIAN_POINT('',(40.5,9.5,-2.));
#1582=DIRECTION('',(0.,0.,-1.));
#1583=DIRECTION('',(-1.,0.,-0.));
#1584=AXIS2_PLACEMENT_3D('',#1581,#1582,#1583);
#1585=CIRCLE('',#1584,0.5);
#1586=EDGE_CURVE('',#445,#469,#1585,.T.);
#1587=ORIENTED_EDGE('',*,*,#1586,.F.);
#1588=ORIENTED_EDGE('',*,*,#450,.F.);
#1589=EDGE_LOOP('',(#1579,#1580,#1587,#1588));
#1590=FACE_BOUND('',#1589,.T.);
#1591=ADVANCED_FACE('',(#1590),#1578,.T.);
#1592=CARTESIAN_POINT('',(15.,9.5,-2.));
#1593=DIRECTION('',(-1.,0.,-0.));
#1594=DIRECTION('',(0.,1.,0.));
#1595=AXIS2_PLACEMENT_3D('',#1592,#1593,#1594);
#1596=CYLINDRICAL_SURFACE('',#1595,0.5);
#1597=ORIENTED_EDGE('',*,*,#1552,.T.);
#1598=ORIENTED_EDGE('',*,*,#456,.F.);
#1599=CARTESIAN_POINT('',(40.5,9.5,-2.));
#1600=DIRECTION('',(1.,0.,0.));
#1601=DIRECTION('',(0.,0.,-1.));
#1602=AXIS2_PLACEMENT_3D('',#1599,#1600,#1601);
#1603=CIRCLE('',#1602,0.5);
#1604=EDGE_CURVE('',#749,#445,#1603,.T.);
#1605=ORIENTED_EDGE('',*,*,#1604,.F.);
#1606=ORIENTED_EDGE('',*,*,#754,.F.);
#1607=EDGE_LOOP('',(#1597,#1598,#1605,#1606));
#1608=FACE_BOUND('',#1607,.T.);
#1609=ADVANCED_FACE('',(#1608),#1596,.T.);
#1610=CARTESIAN_POINT('',(30.,-19.5,-2.));
#1611=DIRECTION('',(1.,0.,0.));
#1612=DIRECTION('',(0.,0.,-1.));
#1613=AXIS2_PLACEMENT_3D('',#1610,#1611,#1612);
#1614=CYLINDRICAL_SURFACE('',#1613,0.5);
#1615=ORIENTED_EDGE('',*,*,#1569,.T.);
#1616=ORIENTED_EDGE('',*,*,#820,.F.);
#1617=CARTESIAN_POINT('',(40.5,-19.5,-2.));
#1618=DIRECTION('',(1.,0.,-0.));
#1619=DIRECTION('',(-0.,0.,-1.));
#1620=AXIS2_PLACEMENT_3D('',#1617,#1618,#1619);
#1621=CIRCLE('',#1620,0.5);
#1622=EDGE_CURVE('',#667,#807,#1621,.T.);
#1623=ORIENTED_EDGE('',*,*,#1622,.F.);
#1624=ORIENTED_EDGE('',*,*,#719,.F.);
#1625=EDGE_LOOP('',(#1615,#1616,#1623,#1624));
#1626=FACE_BOUND('',#1625,.T.);
#1627=ADVANCED_FACE('',(#1626),#1614,.T.);
#1628=CARTESIAN_POINT('',(40.5,-19.5,-2.5));
#1629=DIRECTION('',(0.,0.,-1.));
#1630=DIRECTION('',(-1.,0.,-0.));
#1631=AXIS2_PLACEMENT_3D('',#1628,#1629,#1630);
#1632=CYLINDRICAL_SURFACE('',#1631,0.5);
#1633=ORIENTED_EDGE('',*,*,#1121,.F.);
#1634=ORIENTED_EDGE('',*,*,#674,.F.);
#1635=CARTESIAN_POINT('',(40.5,-19.5,-2.));
#1636=DIRECTION('',(0.,0.,-1.));
#1637=DIRECTION('',(-1.,0.,-0.));
#1638=AXIS2_PLACEMENT_3D('',#1635,#1636,#1637);
#1639=CIRCLE('',#1638,0.5);
#1640=EDGE_CURVE('',#637,#667,#1639,.T.);
#1641=ORIENTED_EDGE('',*,*,#1640,.F.);
#1642=ORIENTED_EDGE('',*,*,#642,.F.);
#1643=EDGE_LOOP('',(#1633,#1634,#1641,#1642));
#1644=FACE_BOUND('',#1643,.T.);
#1645=ADVANCED_FACE('',(#1644),#1632,.T.);
#1646=CARTESIAN_POINT('',(40.5,9.5,-2.));
#1647=DIRECTION('',(0.,1.,0.));
#1648=DIRECTION('',(0.,0.,-1.));
#1649=AXIS2_PLACEMENT_3D('',#1646,#1647,#1648);
#1650=SPHERICAL_SURFACE('',#1649,0.5);
#1651=ORIENTED_EDGE('',*,*,#1604,.T.);
#1652=ORIENTED_EDGE('',*,*,#1586,.T.);
#1653=CARTESIAN_POINT('',(40.5,9.5,-2.));
#1654=DIRECTION('',(-0.,-1.,0.));
#1655=DIRECTION('',(0.,-0.,-1.));
#1656=AXIS2_PLACEMENT_3D('',#1653,#1654,#1655);
#1657=CIRCLE('',#1656,0.5);
#1658=EDGE_CURVE('',#749,#469,#1657,.T.);
#1659=ORIENTED_EDGE('',*,*,#1658,.F.);
#1660=EDGE_LOOP('',(#1651,#1652,#1659));
#1661=FACE_BOUND('',#1660,.T.);
#1662=ADVANCED_FACE('',(#1661),#1650,.T.);
#1663=CARTESIAN_POINT('',(40.5,-19.5,-2.));
#1664=DIRECTION('',(0.,-1.,0.));
#1665=DIRECTION('',(-1.,-0.,-0.));
#1666=AXIS2_PLACEMENT_3D('',#1663,#1664,#1665);
#1667=SPHERICAL_SURFACE('',#1666,0.5);
#1668=ORIENTED_EDGE('',*,*,#1640,.T.);
#1669=ORIENTED_EDGE('',*,*,#1622,.T.);
#1670=CARTESIAN_POINT('',(40.5,-19.5,-2.));
#1671=DIRECTION('',(-0.,1.,-0.));
#1672=DIRECTION('',(-0.,0.,1.));
#1673=AXIS2_PLACEMENT_3D('',#1670,#1671,#1672);
#1674=CIRCLE('',#1673,0.5);
#1675=EDGE_CURVE('',#637,#807,#1674,.T.);
#1676=ORIENTED_EDGE('',*,*,#1675,.F.);
#1677=EDGE_LOOP('',(#1668,#1669,#1676));
#1678=FACE_BOUND('',#1677,.T.);
#1679=ADVANCED_FACE('',(#1678),#1667,.T.);
#1680=CARTESIAN_POINT('',(40.5,-0.,-2.));
#1681=DIRECTION('',(0.,1.,0.));
#1682=DIRECTION('',(1.,-0.,0.));
#1683=AXIS2_PLACEMENT_3D('',#1680,#1681,#1682);
#1684=CYLINDRICAL_SURFACE('',#1683,0.5);
#1685=ORIENTED_EDGE('',*,*,#1658,.T.);
#1686=ORIENTED_EDGE('',*,*,#474,.F.);
#1687=CARTESIAN_POINT('',(40.5,3.,-2.));
#1688=DIRECTION('',(-0.,-1.,-0.));
#1689=DIRECTION('',(-1.,0.,-0.));
#1690=AXIS2_PLACEMENT_3D('',#1687,#1688,#1689);
#1691=CIRCLE('',#1690,0.5);
#1692=EDGE_CURVE('',#757,#467,#1691,.T.);
#1693=ORIENTED_EDGE('',*,*,#1692,.F.);
#1694=ORIENTED_EDGE('',*,*,#762,.F.);
#1695=EDGE_LOOP('',(#1685,#1686,#1693,#1694));
#1696=FACE_BOUND('',#1695,.T.);
#1697=ADVANCED_FACE('',(#1696),#1684,.T.);
#1698=CARTESIAN_POINT('',(40.5,-15.,-2.));
#1699=DIRECTION('',(0.,1.,0.));
#1700=DIRECTION('',(0.,0.,-1.));
#1701=AXIS2_PLACEMENT_3D('',#1698,#1699,#1700);
#1702=CYLINDRICAL_SURFACE('',#1701,0.5);
#1703=ORIENTED_EDGE('',*,*,#1675,.T.);
#1704=ORIENTED_EDGE('',*,*,#812,.F.);
#1705=CARTESIAN_POINT('',(40.5,-13.,-2.));
#1706=DIRECTION('',(0.,1.,0.));
#1707=DIRECTION('',(0.,0.,-1.));
#1708=AXIS2_PLACEMENT_3D('',#1705,#1706,#1707);
#1709=CIRCLE('',#1708,0.5);
#1710=EDGE_CURVE('',#645,#798,#1709,.T.);
#1711=ORIENTED_EDGE('',*,*,#1710,.F.);
#1712=ORIENTED_EDGE('',*,*,#650,.F.);
#1713=EDGE_LOOP('',(#1703,#1704,#1711,#1712));
#1714=FACE_BOUND('',#1713,.T.);
#1715=ADVANCED_FACE('',(#1714),#1702,.T.);
#1716=CARTESIAN_POINT('',(44.,3.,-2.));
#1717=DIRECTION('',(0.,0.,-1.));
#1718=DIRECTION('',(-1.,0.,-0.));
#1719=AXIS2_PLACEMENT_3D('',#1716,#1717,#1718);
#1720=TOROIDAL_SURFACE('',#1719,3.5,0.5);
#1721=ORIENTED_EDGE('',*,*,#1692,.T.);
#1722=ORIENTED_EDGE('',*,*,#1277,.F.);
#1723=CARTESIAN_POINT('',(44.,-0.5,-2.));
#1724=DIRECTION('',(1.,0.,0.));
#1725=DIRECTION('',(0.,0.,-1.));
#1726=AXIS2_PLACEMENT_3D('',#1723,#1724,#1725);
#1727=CIRCLE('',#1726,0.5);
#1728=EDGE_CURVE('',#765,#525,#1727,.T.);
#1729=ORIENTED_EDGE('',*,*,#1728,.F.);
#1730=ORIENTED_EDGE('',*,*,#771,.F.);
#1731=EDGE_LOOP('',(#1721,#1722,#1729,#1730));
#1732=FACE_BOUND('',#1731,.T.);
#1733=ADVANCED_FACE('',(#1732),#1720,.T.);
#1734=CARTESIAN_POINT('',(44.,-13.,-2.));
#1735=DIRECTION('',(0.,0.,-1.));
#1736=DIRECTION('',(-1.,0.,-0.));
#1737=AXIS2_PLACEMENT_3D('',#1734,#1735,#1736);
#1738=TOROIDAL_SURFACE('',#1737,3.5,0.5);
#1739=ORIENTED_EDGE('',*,*,#1710,.T.);
#1740=ORIENTED_EDGE('',*,*,#804,.F.);
#1741=CARTESIAN_POINT('',(44.,-9.5,-2.));
#1742=DIRECTION('',(1.,0.,0.));
#1743=DIRECTION('',(0.,0.,-1.));
#1744=AXIS2_PLACEMENT_3D('',#1741,#1742,#1743);
#1745=CIRCLE('',#1744,0.5);
#1746=EDGE_CURVE('',#587,#790,#1745,.T.);
#1747=ORIENTED_EDGE('',*,*,#1746,.F.);
#1748=ORIENTED_EDGE('',*,*,#1295,.F.);
#1749=EDGE_LOOP('',(#1739,#1740,#1747,#1748));
#1750=FACE_BOUND('',#1749,.T.);
#1751=ADVANCED_FACE('',(#1750),#1738,.T.);
#1752=CARTESIAN_POINT('',(47.5,-0.5,-2.5));
#1753=DIRECTION('',(0.,0.,-1.));
#1754=DIRECTION('',(-1.,0.,-0.));
#1755=AXIS2_PLACEMENT_3D('',#1752,#1753,#1754);
#1756=CYLINDRICAL_SURFACE('',#1755,0.5);
#1757=ORIENTED_EDGE('',*,*,#1145,.F.);
#1758=ORIENTED_EDGE('',*,*,#562,.F.);
#1759=CARTESIAN_POINT('',(47.5,-0.5,-2.));
#1760=DIRECTION('',(0.,0.,-1.));
#1761=DIRECTION('',(-1.,0.,-0.));
#1762=AXIS2_PLACEMENT_3D('',#1759,#1760,#1761);
#1763=CIRCLE('',#1762,0.5);
#1764=EDGE_CURVE('',#517,#549,#1763,.T.);
#1765=ORIENTED_EDGE('',*,*,#1764,.F.);
#1766=ORIENTED_EDGE('',*,*,#522,.F.);
#1767=EDGE_LOOP('',(#1757,#1758,#1765,#1766));
#1768=FACE_BOUND('',#1767,.T.);
#1769=ADVANCED_FACE('',(#1768),#1756,.T.);
#1770=CARTESIAN_POINT('',(44.5,-0.5,-2.));
#1771=DIRECTION('',(-1.,0.,-0.));
#1772=DIRECTION('',(-0.,0.,1.));
#1773=AXIS2_PLACEMENT_3D('',#1770,#1771,#1772);
#1774=CYLINDRICAL_SURFACE('',#1773,0.5);
#1775=ORIENTED_EDGE('',*,*,#1728,.T.);
#1776=ORIENTED_EDGE('',*,*,#530,.F.);
#1777=CARTESIAN_POINT('',(47.5,-0.5,-2.));
#1778=DIRECTION('',(1.,0.,0.));
#1779=DIRECTION('',(0.,0.,-1.));
#1780=AXIS2_PLACEMENT_3D('',#1777,#1778,#1779);
#1781=CIRCLE('',#1780,0.5);
#1782=EDGE_CURVE('',#774,#517,#1781,.T.);
#1783=ORIENTED_EDGE('',*,*,#1782,.F.);
#1784=ORIENTED_EDGE('',*,*,#779,.F.);
#1785=EDGE_LOOP('',(#1775,#1776,#1783,#1784));
#1786=FACE_BOUND('',#1785,.T.);
#1787=ADVANCED_FACE('',(#1786),#1774,.T.);
#1788=CARTESIAN_POINT('',(30.,-9.5,-2.));
#1789=DIRECTION('',(1.,0.,0.));
#1790=DIRECTION('',(0.,0.,-1.));
#1791=AXIS2_PLACEMENT_3D('',#1788,#1789,#1790);
#1792=CYLINDRICAL_SURFACE('',#1791,0.5);
#1793=ORIENTED_EDGE('',*,*,#1746,.T.);
#1794=ORIENTED_EDGE('',*,*,#795,.F.);
#1795=CARTESIAN_POINT('',(47.5,-9.5,-2.));
#1796=DIRECTION('',(1.,0.,0.));
#1797=DIRECTION('',(0.,0.,-1.));
#1798=AXIS2_PLACEMENT_3D('',#1795,#1796,#1797);
#1799=CIRCLE('',#1798,0.5);
#1800=EDGE_CURVE('',#589,#782,#1799,.T.);
#1801=ORIENTED_EDGE('',*,*,#1800,.F.);
#1802=ORIENTED_EDGE('',*,*,#594,.F.);
#1803=EDGE_LOOP('',(#1793,#1794,#1801,#1802));
#1804=FACE_BOUND('',#1803,.T.);
#1805=ADVANCED_FACE('',(#1804),#1792,.T.);
#1806=CARTESIAN_POINT('',(47.5,-9.5,-2.5));
#1807=DIRECTION('',(-0.,0.,1.));
#1808=DIRECTION('',(1.,0.,0.));
#1809=AXIS2_PLACEMENT_3D('',#1806,#1807,#1808);
#1810=CYLINDRICAL_SURFACE('',#1809,0.5);
#1811=ORIENTED_EDGE('',*,*,#1137,.F.);
#1812=ORIENTED_EDGE('',*,*,#602,.F.);
#1813=CARTESIAN_POINT('',(47.5,-9.5,-2.));
#1814=DIRECTION('',(0.,0.,-1.));
#1815=DIRECTION('',(-1.,0.,-0.));
#1816=AXIS2_PLACEMENT_3D('',#1813,#1814,#1815);
#1817=CIRCLE('',#1816,0.5);
#1818=EDGE_CURVE('',#547,#589,#1817,.T.);
#1819=ORIENTED_EDGE('',*,*,#1818,.F.);
#1820=ORIENTED_EDGE('',*,*,#576,.F.);
#1821=EDGE_LOOP('',(#1811,#1812,#1819,#1820));
#1822=FACE_BOUND('',#1821,.T.);
#1823=ADVANCED_FACE('',(#1822),#1810,.T.);
#1824=CARTESIAN_POINT('',(47.5,-0.5,-2.));
#1825=DIRECTION('',(0.,1.,0.));
#1826=DIRECTION('',(0.,0.,-1.));
#1827=AXIS2_PLACEMENT_3D('',#1824,#1825,#1826);
#1828=SPHERICAL_SURFACE('',#1827,0.5);
#1829=ORIENTED_EDGE('',*,*,#1782,.T.);
#1830=ORIENTED_EDGE('',*,*,#1764,.T.);
#1831=CARTESIAN_POINT('',(47.5,-0.5,-2.));
#1832=DIRECTION('',(-0.,-1.,0.));
#1833=DIRECTION('',(0.,-0.,-1.));
#1834=AXIS2_PLACEMENT_3D('',#1831,#1832,#1833);
#1835=CIRCLE('',#1834,0.5);
#1836=EDGE_CURVE('',#774,#549,#1835,.T.);
#1837=ORIENTED_EDGE('',*,*,#1836,.F.);
#1838=EDGE_LOOP('',(#1829,#1830,#1837));
#1839=FACE_BOUND('',#1838,.T.);
#1840=ADVANCED_FACE('',(#1839),#1828,.T.);
#1841=CARTESIAN_POINT('',(47.5,-9.5,-2.));
#1842=DIRECTION('',(0.,-1.,0.));
#1843=DIRECTION('',(-0.,0.,1.));
#1844=AXIS2_PLACEMENT_3D('',#1841,#1842,#1843);
#1845=SPHERICAL_SURFACE('',#1844,0.5);
#1846=ORIENTED_EDGE('',*,*,#1818,.T.);
#1847=ORIENTED_EDGE('',*,*,#1800,.T.);
#1848=CARTESIAN_POINT('',(47.5,-9.5,-2.));
#1849=DIRECTION('',(-0.,1.,-0.));
#1850=DIRECTION('',(-0.,0.,1.));
#1851=AXIS2_PLACEMENT_3D('',#1848,#1849,#1850);
#1852=CIRCLE('',#1851,0.5);
#1853=EDGE_CURVE('',#547,#782,#1852,.T.);
#1854=ORIENTED_EDGE('',*,*,#1853,.F.);
#1855=EDGE_LOOP('',(#1846,#1847,#1854));
#1856=FACE_BOUND('',#1855,.T.);
#1857=ADVANCED_FACE('',(#1856),#1845,.T.);
#1858=CARTESIAN_POINT('',(47.5,0.,-2.));
#1859=DIRECTION('',(0.,1.,0.));
#1860=DIRECTION('',(0.,0.,-1.));
#1861=AXIS2_PLACEMENT_3D('',#1858,#1859,#1860);
#1862=CYLINDRICAL_SURFACE('',#1861,0.5);
#1863=ORIENTED_EDGE('',*,*,#1836,.T.);
#1864=ORIENTED_EDGE('',*,*,#554,.F.);
#1865=ORIENTED_EDGE('',*,*,#1853,.T.);
#1866=ORIENTED_EDGE('',*,*,#787,.F.);
#1867=EDGE_LOOP('',(#1863,#1864,#1865,#1866));
#1868=FACE_BOUND('',#1867,.T.);
#1869=ADVANCED_FACE('',(#1868),#1862,.T.);
#1870=CARTESIAN_POINT('',(12.25,8.5,11.));
#1871=DIRECTION('',(-0.,-1.,-0.));
#1872=DIRECTION('',(-1.,0.,-0.));
#1873=AXIS2_PLACEMENT_3D('',#1870,#1871,#1872);
#1874=PLANE('',#1873);
#1875=ORIENTED_EDGE('',*,*,#154,.F.);
#1876=CARTESIAN_POINT('',(4.,8.5,11.));
#1877=VERTEX_POINT('',#1876);
#1878=CARTESIAN_POINT('',(4.,8.5,11.));
#1879=DIRECTION('',(-0.,0.,1.));
#1880=VECTOR('',#1879,2.5);
#1881=LINE('',#1878,#1880);
#1882=EDGE_CURVE('',#1877,#147,#1881,.T.);
#1883=ORIENTED_EDGE('',*,*,#1882,.F.);
#1884=CARTESIAN_POINT('',(20.5,8.5,11.));
#1885=VERTEX_POINT('',#1884);
#1886=CARTESIAN_POINT('',(4.,8.5,11.));
#1887=DIRECTION('',(1.,-0.,0.));
#1888=VECTOR('',#1887,16.5);
#1889=LINE('',#1886,#1888);
#1890=EDGE_CURVE('',#1877,#1885,#1889,.T.);
#1891=ORIENTED_EDGE('',*,*,#1890,.T.);
#1892=CARTESIAN_POINT('',(20.5,8.5,11.));
#1893=DIRECTION('',(-0.,0.,1.));
#1894=VECTOR('',#1893,2.5);
#1895=LINE('',#1892,#1894);
#1896=EDGE_CURVE('',#1885,#149,#1895,.T.);
#1897=ORIENTED_EDGE('',*,*,#1896,.T.);
#1898=EDGE_LOOP('',(#1875,#1883,#1891,#1897));
#1899=FACE_BOUND('',#1898,.T.);
#1900=ADVANCED_FACE('',(#1899),#1874,.T.);
#1901=CARTESIAN_POINT('',(20.5,8.5,11.));
#1902=CARTESIAN_POINT('',(20.5,8.5,13.5));
#1903=CARTESIAN_POINT('',(26.089698126,8.122087024,11.));
#1904=CARTESIAN_POINT('',(26.089698126,8.122087024,13.5));
#1905=CARTESIAN_POINT('',(32.078200416,1.373201377,11.));
#1906=CARTESIAN_POINT('',(32.078200416,1.373201377,13.5));
#1907=CARTESIAN_POINT('',(32.,-5.5,11.));
#1908=CARTESIAN_POINT('',(32.,-5.5,13.5));
#1909=B_SPLINE_SURFACE_WITH_KNOTS('',2,1,((#1901,#1902),(#1903,#1904),(#1905,#1906),(#1907,#1908)),.UNSPECIFIED.,.F.,.F.,.U.,(3,1,3),(2,2),(0.,0.479789053,1.),(0.,1.),.UNSPECIFIED.);
#1910=ORIENTED_EDGE('',*,*,#163,.F.);
#1911=ORIENTED_EDGE('',*,*,#1896,.F.);
#1912=CARTESIAN_POINT('',(32.,-5.5,11.));
#1913=VERTEX_POINT('',#1912);
#1914=CARTESIAN_POINT('',(20.5,8.5,11.));
#1915=CARTESIAN_POINT('',(26.089698126,8.122087024,11.));
#1916=CARTESIAN_POINT('',(32.078200416,1.373201377,11.));
#1917=CARTESIAN_POINT('',(32.,-5.5,11.));
#1918=B_SPLINE_CURVE_WITH_KNOTS('',2,(#1914,#1915,#1916,#1917),.UNSPECIFIED.,.F.,.F.,(3,1,3),(0.,0.479789053,1.),.UNSPECIFIED.);
#1919=EDGE_CURVE('',#1885,#1913,#1918,.T.);
#1920=ORIENTED_EDGE('',*,*,#1919,.T.);
#1921=CARTESIAN_POINT('',(32.,-5.5,11.));
#1922=DIRECTION('',(-0.,0.,1.));
#1923=VECTOR('',#1922,2.5);
#1924=LINE('',#1921,#1923);
#1925=EDGE_CURVE('',#1913,#157,#1924,.T.);
#1926=ORIENTED_EDGE('',*,*,#1925,.T.);
#1927=EDGE_LOOP('',(#1910,#1911,#1920,#1926));
#1928=FACE_BOUND('',#1927,.T.);
#1929=ADVANCED_FACE('',(#1928),#1909,.T.);
#1930=CARTESIAN_POINT('',(32.,-5.5,11.));
#1931=CARTESIAN_POINT('',(32.,-5.5,13.5));
#1932=CARTESIAN_POINT('',(31.98356715,-17.740909734,11.));
#1933=CARTESIAN_POINT('',(31.98356715,-17.740909734,13.5));
#1934=CARTESIAN_POINT('',(20.5,-18.5,11.));
#1935=CARTESIAN_POINT('',(20.5,-18.5,13.5));
#1936=B_SPLINE_SURFACE_WITH_KNOTS('',2,1,((#1930,#1931),(#1932,#1933),(#1934,#1935)),.UNSPECIFIED.,.F.,.F.,.U.,(3,3),(2,2),(0.,1.),(0.,1.),.UNSPECIFIED.);
#1937=ORIENTED_EDGE('',*,*,#171,.F.);
#1938=ORIENTED_EDGE('',*,*,#1925,.F.);
#1939=CARTESIAN_POINT('',(20.5,-18.5,11.));
#1940=VERTEX_POINT('',#1939);
#1941=CARTESIAN_POINT('',(32.,-5.5,11.));
#1942=CARTESIAN_POINT('',(31.98356715,-17.740909734,11.));
#1943=CARTESIAN_POINT('',(20.5,-18.5,11.));
#1944=B_SPLINE_CURVE_WITH_KNOTS('',2,(#1941,#1942,#1943),.UNSPECIFIED.,.F.,.F.,(3,3),(0.,1.),.UNSPECIFIED.);
#1945=EDGE_CURVE('',#1913,#1940,#1944,.T.);
#1946=ORIENTED_EDGE('',*,*,#1945,.T.);
#1947=CARTESIAN_POINT('',(20.5,-18.5,11.));
#1948=DIRECTION('',(-0.,0.,1.));
#1949=VECTOR('',#1948,2.5);
#1950=LINE('',#1947,#1949);
#1951=EDGE_CURVE('',#1940,#166,#1950,.T.);
#1952=ORIENTED_EDGE('',*,*,#1951,.T.);
#1953=EDGE_LOOP('',(#1937,#1938,#1946,#1952));
#1954=FACE_BOUND('',#1953,.T.);
#1955=ADVANCED_FACE('',(#1954),#1936,.T.);
#1956=CARTESIAN_POINT('',(12.25,-18.5,11.));
#1957=DIRECTION('',(-0.,-1.,-0.));
#1958=DIRECTION('',(-1.,0.,-0.));
#1959=AXIS2_PLACEMENT_3D('',#1956,#1957,#1958);
#1960=PLANE('',#1959);
#1961=ORIENTED_EDGE('',*,*,#179,.T.);
#1962=ORIENTED_EDGE('',*,*,#1951,.F.);
#1963=CARTESIAN_POINT('',(4.,-18.5,11.));
#1964=VERTEX_POINT('',#1963);
#1965=CARTESIAN_POINT('',(4.,-18.5,11.));
#1966=DIRECTION('',(1.,-0.,0.));
#1967=VECTOR('',#1966,16.5);
#1968=LINE('',#1965,#1967);
#1969=EDGE_CURVE('',#1964,#1940,#1968,.T.);
#1970=ORIENTED_EDGE('',*,*,#1969,.F.);
#1971=CARTESIAN_POINT('',(4.,-18.5,11.));
#1972=DIRECTION('',(-0.,0.,1.));
#1973=VECTOR('',#1972,2.5);
#1974=LINE('',#1971,#1973);
#1975=EDGE_CURVE('',#1964,#174,#1974,.T.);
#1976=ORIENTED_EDGE('',*,*,#1975,.T.);
#1977=EDGE_LOOP('',(#1961,#1962,#1970,#1976));
#1978=FACE_BOUND('',#1977,.T.);
#1979=ADVANCED_FACE('',(#1978),#1960,.F.);
#1980=CARTESIAN_POINT('',(-8.,-5.,11.));
#1981=CARTESIAN_POINT('',(-8.,-5.,13.5));
#1982=CARTESIAN_POINT('',(-8.236438789,-17.989049438,11.));
#1983=CARTESIAN_POINT('',(-8.236438789,-17.989049438,13.5));
#1984=CARTESIAN_POINT('',(4.,-18.5,11.));
#1985=CARTESIAN_POINT('',(4.,-18.5,13.5));
#1986=B_SPLINE_SURFACE_WITH_KNOTS('',2,1,((#1980,#1981),(#1982,#1983),(#1984,#1985)),.UNSPECIFIED.,.F.,.F.,.U.,(3,3),(2,2),(0.,1.),(0.,1.),.UNSPECIFIED.);
#1987=ORIENTED_EDGE('',*,*,#187,.T.);
#1988=ORIENTED_EDGE('',*,*,#1975,.F.);
#1989=CARTESIAN_POINT('',(-8.,-5.,11.));
#1990=VERTEX_POINT('',#1989);
#1991=CARTESIAN_POINT('',(-8.,-5.,11.));
#1992=CARTESIAN_POINT('',(-8.236438789,-17.989049438,11.));
#1993=CARTESIAN_POINT('',(4.,-18.5,11.));
#1994=B_SPLINE_CURVE_WITH_KNOTS('',2,(#1991,#1992,#1993),.UNSPECIFIED.,.F.,.F.,(3,3),(0.,1.),.UNSPECIFIED.);
#1995=EDGE_CURVE('',#1990,#1964,#1994,.T.);
#1996=ORIENTED_EDGE('',*,*,#1995,.F.);
#1997=CARTESIAN_POINT('',(-8.,-5.,11.));
#1998=DIRECTION('',(-0.,0.,1.));
#1999=VECTOR('',#1998,2.5);
#2000=LINE('',#1997,#1999);
#2001=EDGE_CURVE('',#1990,#182,#2000,.T.);
#2002=ORIENTED_EDGE('',*,*,#2001,.T.);
#2003=EDGE_LOOP('',(#1987,#1988,#1996,#2002));
#2004=FACE_BOUND('',#2003,.T.);
#2005=ADVANCED_FACE('',(#2004),#1986,.F.);
#2006=CARTESIAN_POINT('',(-8.,-5.,11.));
#2007=CARTESIAN_POINT('',(-8.,-5.,13.5));
#2008=CARTESIAN_POINT('',(-8.236438789,7.989049438,11.));
#2009=CARTESIAN_POINT('',(-8.236438789,7.989049438,13.5));
#2010=CARTESIAN_POINT('',(4.,8.5,11.));
#2011=CARTESIAN_POINT('',(4.,8.5,13.5));
#2012=B_SPLINE_SURFACE_WITH_KNOTS('',2,1,((#2006,#2007),(#2008,#2009),(#2010,#2011)),.UNSPECIFIED.,.F.,.F.,.U.,(3,3),(2,2),(0.,1.),(0.,1.),.UNSPECIFIED.);
#2013=ORIENTED_EDGE('',*,*,#193,.F.);
#2014=ORIENTED_EDGE('',*,*,#2001,.F.);
#2015=CARTESIAN_POINT('',(-8.,-5.,11.));
#2016=CARTESIAN_POINT('',(-8.236438789,7.989049438,11.));
#2017=CARTESIAN_POINT('',(4.,8.5,11.));
#2018=B_SPLINE_CURVE_WITH_KNOTS('',2,(#2015,#2016,#2017),.UNSPECIFIED.,.F.,.F.,(3,3),(0.,1.),.UNSPECIFIED.);
#2019=EDGE_CURVE('',#1990,#1877,#2018,.T.);
#2020=ORIENTED_EDGE('',*,*,#2019,.T.);
#2021=ORIENTED_EDGE('',*,*,#1882,.T.);
#2022=EDGE_LOOP('',(#2013,#2014,#2020,#2021));
#2023=FACE_BOUND('',#2022,.T.);
#2024=ADVANCED_FACE('',(#2023),#2012,.T.);
#2025=CARTESIAN_POINT('',(30.,0.,11.));
#2026=DIRECTION('',(0.,0.,-1.));
#2027=DIRECTION('',(-1.,0.,-0.));
#2028=AXIS2_PLACEMENT_3D('',#2025,#2026,#2027);
#2029=PLANE('',#2028);
#2030=ORIENTED_EDGE('',*,*,#1890,.F.);
#2031=ORIENTED_EDGE('',*,*,#2019,.F.);
#2032=ORIENTED_EDGE('',*,*,#1995,.T.);
#2033=ORIENTED_EDGE('',*,*,#1969,.T.);
#2034=ORIENTED_EDGE('',*,*,#1945,.F.);
#2035=ORIENTED_EDGE('',*,*,#1919,.F.);
#2036=EDGE_LOOP('',(#2030,#2031,#2032,#2033,#2034,#2035));
#2037=FACE_BOUND('',#2036,.T.);
#2038=ADVANCED_FACE('',(#2037),#2029,.F.);
#2039=CLOSED_SHELL('',(#197,#237,#277,#317,#357,#397,#460,#500,#540,#580,#620,#660,#723,#863,#894,#919,#944,#1022,#1053,#1078,#1103,#1181,#1193,#1205,#1217,#1229,
#1247,#1265,#1283,#1301,#1319,#1343,#1361,#1378,#1395,#1413,#1431,#1449,#1467,#1485,#1503,#1521,#1539,#1556,#1573,#1591,#1609,#1627,#1645,#1662,#1679,
#1697,#1715,#1733,#1751,#1769,#1787,#1805,#1823,#1840,#1857,#1869,#1900,#1929,#1955,#1979,#2005,#2024,#2038));
#2040=MANIFOLD_SOLID_BREP('Body 01',#2039);
#2041=COLOUR_RGB('',0.494117647,0.494117647,0.525490224);
#2042=FILL_AREA_STYLE_COLOUR('',#2041);
#2043=FILL_AREA_STYLE('',(#2042));
#2044=SURFACE_STYLE_FILL_AREA(#2043);
#2045=SURFACE_SIDE_STYLE('',(#2044));
#2046=SURFACE_STYLE_USAGE(.BOTH.,#2045);
#2047=PRESENTATION_STYLE_ASSIGNMENT((#2046));
#26=STYLED_ITEM('',(#2047),#2040);
#16=SHAPE_REPRESENTATION('/var/mobile/Containers/Data/Application/ED4C2A4C-7E5D-45B7-BA36-C01864C68EB8/Documents/B70B83FD-048E-4DC3-8234-7F46123334F2.tmp',(#15),#10);
#17=ADVANCED_BREP_SHAPE_REPRESENTATION('/var/mobile/Containers/Data/Application/ED4C2A4C-7E5D-45B7-BA36-C01864C68EB8/Documents/B70B83FD-048E-4DC3-8234-7F46123334F2.tmp',(#2040),#10);
#2055=SHAPE_REPRESENTATION_RELATIONSHIP('','',#16,#17);
#2056=APPLICATION_CONTEXT('configuration controlled 3D design of mechanical parts and assemblies');
#2057=APPLICATION_PROTOCOL_DEFINITION('international standard','configuration_control_3d_design_ed2_mim',2004,#2056);
#2058=PRODUCT_CONTEXT('',#2056,'mechanical');
#2059=PRODUCT_DEFINITION_CONTEXT('part definition',#2056,'design');
#24=PRODUCT('/var/mobile/Containers/Data/Application/ED4C2A4C-7E5D-45B7-BA36-C01864C68EB8/Documents/B70B83FD-048E-4DC3-8234-7F46123334F2.tmp','/var/mobile/Containers/Data/Application/ED4C2A4C-7E5D-45B7-BA36-C01864C68EB8/Documents/B70B83FD-048E-4DC3-8234-7F46123334F2.tmp','',(#2058));
#2060=PRODUCT_RELATED_PRODUCT_CATEGORY('part','',(#24));
#2061=PRODUCT_DEFINITION_FORMATION_WITH_SPECIFIED_SOURCE('','',#24,.NOT_KNOWN.);
#25=PRODUCT_DEFINITION('design','',#2061,#2059);
#23=PRODUCT_DEFINITION_SHAPE('','',#25);
#2062=SHAPE_DEFINITION_REPRESENTATION(#23,#16);
#11=DRAUGHTING_MODEL('',(),#10);
#1=MECHANICAL_DESIGN_GEOMETRIC_PRESENTATION_REPRESENTATION('',(#26),#10);
ENDSEC;
END-ISO-10303-21;
